<svg width="24" height="24" viewBox="0 0 24 24" fill="none" xmlns="http://www.w3.org/2000/svg">
<g id="Social icon" clip-path="url(#clip0_21309_101380)">
<path id="Union" fill-rule="evenodd" clip-rule="evenodd" d="M16.8416 6.54769C15.6026 5.36599 13.9491 4.72223 12.2383 4.74868C9.10766 4.74868 6.44884 6.86074 5.50082 9.70474V9.7048C4.99816 11.1952 4.99816 12.809 5.50082 14.2993H5.50522C6.45763 17.1389 9.11205 19.251 12.2427 19.251C13.8587 19.251 15.2461 18.8376 16.3213 18.1076V18.1046C17.5868 17.2668 18.451 15.9484 18.72 14.4581H12.2383V9.8371H23.5571C23.6982 10.6396 23.7643 11.4597 23.7643 12.2755C23.7643 15.9253 22.4599 19.0111 20.1903 21.1011L20.1927 21.1029C18.2041 22.9372 15.4747 23.9998 12.2383 23.9998C7.70107 23.9998 3.55188 21.4424 1.51477 17.3903V17.3902C-0.187219 13.9995 -0.187215 10.0046 1.51478 6.61386H1.51481L1.51477 6.61383C3.55188 2.55725 7.70107 -0.000167897 12.2383 -0.000167897C15.219 -0.0354426 18.0983 1.08453 20.2677 3.12164L16.8416 6.54769Z" fill="#667085"/>
</g>
<defs>
<clipPath id="clip0_21309_101380">
<rect width="24" height="24" fill="white"/>
</clipPath>
</defs>
</svg>
