<?xml version="1.0" encoding="UTF-8"?>
<!-- Generator: Adobe Illustrator 21.1.0, SVG Export Plug-In . SVG Version: 6.00 Build 0)  -->
<svg version="1.1" id="Layer_1" xmlns="http://www.w3.org/2000/svg" xmlns:xlink="http://www.w3.org/1999/xlink" x="0px" y="0px" width="80px" height="80px" viewBox="0 0 80 80" style="enable-background:new 0 0 80 80;" xml:space="preserve">
<style type="text/css">
	.st0{fill:#833AB4;}
	.st1{fill:#FFFFFF;}
</style>
<circle id="XMLID_1_" class="st0" cx="40" cy="40" r="40"/>
<g>
	<path class="st1" d="M50,17.4H30C23,17.4,17.4,23,17.4,30V50C17.4,57,23,62.6,30,62.6H50C57,62.6,62.6,57,62.6,50V30   C62.6,23,57,17.4,50,17.4z M40,52.6c-6.9,0-12.6-5.6-12.6-12.6S33.1,27.4,40,27.4S52.6,33.1,52.6,40S46.9,52.6,40,52.6z M55.1,27.4   c-1.4,0-2.5-1.1-2.5-2.5c0-1.4,1.1-2.5,2.5-2.5c1.4,0,2.5,1.1,2.5,2.5C57.6,26.3,56.5,27.4,55.1,27.4z"/>
	<path class="st1" d="M40,32.5c-4.2,0-7.5,3.4-7.5,7.5s3.4,7.5,7.5,7.5s7.5-3.4,7.5-7.5S44.2,32.5,40,32.5z"/>
</g>
</svg>