<svg width="83" height="18" viewBox="0 0 83 18" fill="none" xmlns="http://www.w3.org/2000/svg">
<g id="tatc-logo" clip-path="url(#clip0_21309_101102)">
<g id="Clip path group">
<mask id="mask0_21309_101102" style="mask-type:luminance" maskUnits="userSpaceOnUse" x="0" y="0" width="83" height="18">
<g id="clip0_27_303">
<path id="Vector" d="M83 0H0V18H83V0Z" fill="white"/>
</g>
</mask>
<g mask="url(#mask0_21309_101102)">
<g id="Group">
<path id="Vector_2" d="M83 0H0V18H83V0Z" fill="white"/>
<path id="Vector_3" d="M18.6959 2.69144H17.0664V1.53027H21.6445V2.69144H20.032V7.93515H18.6959V2.69144Z" fill="#2E3192"/>
<path id="Vector_4" d="M26.5144 4.90946V7.93556H25.2216V5.18512C25.2216 4.65227 24.8679 4.29961 24.3597 4.29961C23.8516 4.29961 23.4979 4.65227 23.4979 5.18512V7.93556H22.2051V1.53223H23.4979V3.67283C23.7558 3.31247 24.2053 3.13999 24.7304 3.13999C25.7916 3.13845 26.5144 3.84377 26.5144 4.90946Z" fill="#2E3192"/>
<path id="Vector_5" d="M31.687 5.94916H28.377C28.4542 6.54209 28.8774 6.92094 29.5153 6.92094C29.9726 6.92094 30.3093 6.72378 30.49 6.40499L31.5248 6.89473C31.2406 7.58314 30.4637 8.03745 29.4983 8.03745C28.0063 8.03745 27.0332 6.93786 27.0332 5.57958C27.0332 4.17817 28.0681 3.13867 29.4134 3.13867C30.7324 3.13867 31.7504 4.15353 31.7504 5.45176C31.7488 5.63964 31.7303 5.81982 31.687 5.94916ZM30.3772 5.00361C30.3262 4.50465 29.9463 4.17047 29.4119 4.17047C28.9037 4.17047 28.533 4.46308 28.4032 5.00361H30.3772Z" fill="#2E3192"/>
<path id="Vector_6" d="M39.5774 7.93556H38.1642L37.7332 6.62966H35.2758L34.8449 7.93556H33.4316L35.6218 1.53223H37.3888L39.5774 7.93556ZM37.3533 5.46848L36.5084 2.87203L35.6542 5.46848H37.3533Z" fill="#2E3192"/>
<path id="Vector_7" d="M40.2489 4.35832H39.4473V3.24028H40.2489V3.10322C40.2489 1.99442 40.9393 1.3584 42.1116 1.3584C42.2584 1.3584 42.4483 1.37533 42.5688 1.40152V2.50108C42.4561 2.48414 42.3711 2.4749 42.2846 2.4749C41.8012 2.4749 41.5432 2.6905 41.5432 3.10168V3.23874H42.5611V4.35679H41.5432V7.9327H40.2504V4.35832H40.2489Z" fill="#2E3192"/>
<path id="Vector_8" d="M46.0588 3.18945V4.3075H45.4379C44.8093 4.3075 44.3768 4.71098 44.3768 5.40706V7.93422H43.084V3.24028H44.2903V3.9456C44.5312 3.3604 44.9884 3.18945 45.5661 3.18945H46.0588Z" fill="#2E3192"/>
<path id="Vector_9" d="M46.5762 1.53027H47.869V2.81926H46.5762V1.53027ZM46.5762 3.24122H47.869V7.93515H46.5762V3.24122Z" fill="#2E3192"/>
<path id="Vector_10" d="M48.4746 5.57958C48.4746 4.18742 49.5434 3.13867 50.966 3.13867C52.0178 3.13867 52.8797 3.71463 53.1639 4.58319L52.0611 5.11604C51.9143 4.61708 51.4927 4.29984 50.966 4.29984C50.2848 4.29984 49.8107 4.83268 49.8107 5.58882C49.8107 6.34494 50.2848 6.8778 50.966 6.8778C51.5004 6.8778 51.9143 6.55901 52.0611 6.06158L53.1639 6.60367C52.8967 7.43682 52.0349 8.03897 50.966 8.03897C49.5527 8.03745 48.4746 6.98099 48.4746 5.57958Z" fill="#2E3192"/>
<path id="Vector_11" d="M57.6985 4.84037V7.93426H56.4925V7.50458C56.1388 7.8742 55.7078 8.03745 55.1641 8.03745C54.0953 8.03745 53.4219 7.43529 53.4219 6.65297C53.4219 5.95686 53.9733 5.50104 54.9309 5.30392L56.4045 4.99438V4.84037C56.4045 4.48772 56.111 4.25517 55.6801 4.25517C55.2228 4.25517 54.8445 4.52159 54.7054 4.94356L53.5933 4.41072C53.8698 3.63763 54.6792 3.13867 55.6801 3.13867C56.8805 3.13867 57.6985 3.83475 57.6985 4.84037ZM56.406 6.14631V5.92301L55.1641 6.19867C54.897 6.25873 54.7595 6.42197 54.7595 6.63758C54.7595 6.92094 54.9927 7.09341 55.3634 7.09341C55.9488 7.09188 56.406 6.67143 56.406 6.14631Z" fill="#2E3192"/>
<path id="Vector_12" d="M62.7002 4.91696V7.93385H61.4075V5.19109C61.4075 4.64901 61.0538 4.29634 60.5457 4.29634C60.0376 4.29634 59.6839 4.64901 59.6839 5.19109V7.93385H58.3906V3.2399H59.597V3.80662C59.8383 3.35078 60.3214 3.13672 60.9164 3.13672C61.9757 3.13826 62.7002 3.85128 62.7002 4.91696Z" fill="#2E3192"/>
<path id="Vector_13" d="M18.6959 10.3653H17.0664V9.2041H21.6445V10.3653H20.032V15.609H18.6959V10.3653Z" fill="#2E3192"/>
<path id="Vector_14" d="M25.6187 12.5152V15.6091H24.4124V15.1794C24.0587 15.549 23.6278 15.7122 23.0841 15.7122C22.0152 15.7122 21.3418 15.1101 21.3418 14.3278C21.3418 13.6317 21.8932 13.1759 22.8508 12.9787L24.3259 12.6692V12.5152C24.3259 12.1626 24.0324 11.93 23.6015 11.93C23.1443 11.93 22.7659 12.1964 22.6269 12.6184L21.5148 12.0855C21.7913 11.3124 22.6007 10.8135 23.6015 10.8135C24.8001 10.8135 25.6187 11.5096 25.6187 12.5152ZM24.3259 13.8211V13.5978L23.0841 13.8735C22.8169 13.9335 22.6794 14.0968 22.6794 14.3124C22.6794 14.5957 22.9126 14.7682 23.2833 14.7682C23.8687 14.7667 24.3259 14.3463 24.3259 13.8211Z" fill="#2E3192"/>
<path id="Vector_15" d="M26.3066 9.20605H27.5994V15.6094H26.3066V9.20605Z" fill="#2E3192"/>
<path id="Vector_16" d="M32.8608 13.624H29.5508C29.6281 14.2169 30.0513 14.5957 30.6892 14.5957C31.1464 14.5957 31.4831 14.3986 31.6638 14.0799L32.6987 14.5696C32.4145 15.2579 31.6375 15.7122 30.6722 15.7122C29.1802 15.7122 28.207 14.6127 28.207 13.2544C28.207 11.853 29.2419 10.8135 30.5872 10.8135C31.9063 10.8135 32.9242 11.8284 32.9242 13.1266C32.9211 13.3145 32.9041 13.4946 32.8608 13.624ZM31.5495 12.6785C31.4985 12.1795 31.1186 11.8453 30.5842 11.8453C30.076 11.8453 29.7053 12.1379 29.5756 12.6785H31.5495Z" fill="#2E3192"/>
<path id="Vector_17" d="M37.7488 12.5927V15.6096H36.456V12.8669C36.456 12.3248 36.1023 11.9721 35.5942 11.9721C35.086 11.9721 34.7323 12.3248 34.7323 12.8669V15.6096H33.4395V10.9157H34.6458V11.4824C34.8867 11.0266 35.3702 10.8125 35.9649 10.8125C37.026 10.814 37.7488 11.5271 37.7488 12.5927Z" fill="#2E3192"/>
<path id="Vector_18" d="M38.9906 13.9164V12.0345H38.1797V10.9165H38.2399C38.7234 10.9165 38.9906 10.6763 38.9906 10.1942V9.50586H40.2834V10.915H41.3862V12.033H40.2834V13.9149C40.2834 14.3969 40.5413 14.6279 41.085 14.6279C41.1622 14.6279 41.2657 14.6187 41.3862 14.6017V15.6166C41.2132 15.6428 40.9815 15.6597 40.7823 15.6597C39.6455 15.6612 38.9906 15.016 38.9906 13.9164Z" fill="#2E3192"/>
<path id="Vector_19" d="M43.4121 12.4028C43.4121 10.4947 44.7914 9.10254 46.6542 9.10254C48.0427 9.10254 49.0683 9.86788 49.405 10.8134L48.2234 11.3802C47.9995 10.7611 47.4295 10.3053 46.6542 10.3053C45.5158 10.3053 44.7481 11.1569 44.7481 12.4028C44.7481 13.6578 45.5158 14.5095 46.6542 14.5095C47.4295 14.5095 47.9995 14.0536 48.2234 13.4345L49.405 14.0013C49.0683 14.9468 48.0427 15.7122 46.6542 15.7122C44.8099 15.7122 43.4121 14.3031 43.4121 12.4028Z" fill="#2E3192"/>
<path id="Vector_20" d="M49.75 13.2627C49.75 11.8443 50.8714 10.8125 52.2676 10.8125C53.6639 10.8125 54.7853 11.8443 54.7853 13.2627C54.7853 14.681 53.6639 15.7128 52.2676 15.7128C50.8714 15.7128 49.75 14.681 49.75 13.2627ZM53.4492 13.2627C53.4492 12.5142 52.975 11.9737 52.2676 11.9737C51.5602 11.9737 51.0861 12.5158 51.0861 13.2627C51.0861 14.0188 51.5602 14.5516 52.2676 14.5516C52.975 14.5516 53.4492 14.0203 53.4492 13.2627Z" fill="#2E3192"/>
<path id="Vector_21" d="M62.336 12.5927V15.6096H61.0427V12.8669C61.0427 12.2909 60.7327 11.9721 60.2751 11.9721C59.8181 11.9721 59.5076 12.2909 59.5076 12.8669V15.6096H58.2149V12.8669C58.2149 12.2909 57.9044 11.9721 57.4474 11.9721C56.9898 11.9721 56.6795 12.2909 56.6795 12.8669V15.6096H55.3867V10.9157H56.5931V11.4824C56.8172 11.0358 57.2572 10.8125 57.8255 10.8125C58.4295 10.8125 58.9285 11.062 59.2311 11.5348C59.4985 11.1051 60.0254 10.8125 60.6629 10.8125C61.6468 10.814 62.336 11.5101 62.336 12.5927Z" fill="#2E3192"/>
<path id="Vector_22" d="M68.1489 13.2627C68.1489 14.6302 67.114 15.7128 65.7515 15.7128C65.2002 15.7128 64.7262 15.5326 64.406 15.24V17.3283H63.1133V10.9157H64.3197V11.4054C64.6472 11.0266 65.1554 10.8125 65.7594 10.8125C67.0969 10.814 68.1489 11.8875 68.1489 13.2627ZM66.8108 13.2627C66.8108 12.5142 66.3027 11.9737 65.5953 11.9737C64.8976 11.9737 64.406 12.5065 64.406 13.2627C64.406 14.0188 64.8976 14.5516 65.5953 14.5516C66.3027 14.5532 66.8108 14.0111 66.8108 13.2627Z" fill="#2E3192"/>
<path id="Vector_23" d="M72.7688 12.5152V15.6091H71.5624V15.1794C71.2087 15.549 70.7778 15.7122 70.2339 15.7122C69.1655 15.7122 68.4922 15.1101 68.4922 14.3278C68.4922 13.6317 69.0434 13.1759 70.0012 12.9787L71.4744 12.6692V12.5152C71.4744 12.1626 71.1809 11.93 70.75 11.93C70.293 11.93 69.9143 12.1964 69.7752 12.6184L68.6636 12.0855C68.9401 11.3124 69.7491 10.8135 70.75 10.8135C71.9501 10.8135 72.7688 11.5096 72.7688 12.5152ZM71.4761 13.8211V13.5978L70.2339 13.8735C69.9671 13.9335 69.8297 14.0968 69.8297 14.3124C69.8297 14.5957 70.0625 14.7682 70.4332 14.7682C71.0191 14.7667 71.4761 14.3463 71.4761 13.8211Z" fill="#2E3192"/>
<path id="Vector_24" d="M77.7705 12.5927V15.6096H76.4772V12.8669C76.4772 12.3248 76.1235 11.9721 75.6154 11.9721C75.1073 11.9721 74.7536 12.3248 74.7536 12.8669V15.6096H73.4609V10.9157H74.6673V11.4824C74.908 11.0266 75.3917 10.8125 75.9861 10.8125C77.0461 10.814 77.7705 11.5271 77.7705 12.5927Z" fill="#2E3192"/>
<path id="Vector_25" d="M83.0099 10.917L80.9662 16.1269C80.7936 16.5735 80.3979 17.5283 79.1302 17.5283C78.8537 17.5283 78.5863 17.4851 78.3887 17.3819V16.324C78.5522 16.3763 78.7856 16.4102 78.9757 16.4102C79.4929 16.4102 79.6394 16.1269 79.7507 15.8774L79.871 15.6109L78.0254 10.917H79.4049L80.5171 13.9601L81.6292 10.917H83.0099Z" fill="#2E3192"/>
<path id="Vector_26" d="M7.31318 0.552734L3.95685 1.53526L2.49414 7.29793L7.31318 0.552734Z" fill="url(#paint0_linear_21309_101102)"/>
<path id="Vector_27" d="M0.768159 4.32129L-0.0566406 7.70932L4.21718 11.855L0.768159 4.32129Z" fill="url(#paint1_linear_21309_101102)"/>
<path id="Vector_28" d="M0.767578 11.8545L3.29913 14.263L9.03719 12.6445L0.767578 11.8545Z" fill="url(#paint2_linear_21309_101102)"/>
<path id="Vector_29" d="M7.3125 15.6232L10.6704 14.6406L12.1331 8.87793L7.3125 15.6232Z" fill="url(#paint3_linear_21309_101102)"/>
<path id="Vector_30" d="M13.8576 11.855L14.684 8.46697L10.4102 4.32129L13.8576 11.855Z" fill="url(#paint4_linear_21309_101102)"/>
<path id="Vector_31" d="M13.8559 4.32067L11.326 1.91211L5.58789 3.53065L7.31161 8.08751L13.8559 4.32067Z" fill="url(#paint5_linear_21309_101102)"/>
<path id="Vector_32" d="M7.31209 0.552734L5.76445 2.4377L4.2168 4.32113L5.76445 6.20458L7.31209 8.08795L8.86133 6.20458L10.409 4.32113L8.86133 2.4377L7.31209 0.552734Z" fill="url(#paint6_linear_21309_101102)"/>
<path id="Vector_33" d="M0.767578 4.32127L1.63099 6.59891L2.49287 8.87812L4.90239 8.48235L7.3119 8.0881L6.45005 5.80889L5.58818 3.53125L3.17865 3.9255L0.767578 4.32127Z" fill="url(#paint7_linear_21309_101102)"/>
<path id="Vector_34" d="M0.767578 11.8547L3.17865 12.2505L5.58818 12.6448L6.45005 10.3671L7.3119 8.08787L4.90239 7.69363L2.49287 7.29785L1.63099 9.57706L0.767578 11.8547Z" fill="url(#paint8_linear_21309_101102)"/>
<path id="Vector_35" d="M7.31209 15.6232L8.86133 13.7382L10.409 11.8548L8.86133 9.97132L7.31209 8.08789L5.76445 9.97132L4.2168 11.8548L5.76445 13.7382L7.31209 15.6232Z" fill="url(#paint9_linear_21309_101102)"/>
<path id="Vector_36" d="M13.8568 11.8547L12.995 9.57706L12.1331 7.29785L9.72359 7.69363L7.3125 8.08787L8.17594 10.3671L9.03779 12.6448L11.4473 12.2505L13.8568 11.8547Z" fill="url(#paint10_linear_21309_101102)"/>
<path id="Vector_37" d="M13.8584 4.32093L11.4473 3.92515L9.87341 3.66797L10.4094 4.32093L8.86174 6.20438L7.3125 8.08776L9.72359 8.482L12.1331 8.87783L12.995 6.59862L13.8584 4.32093Z" fill="url(#paint11_linear_21309_101102)"/>
<g id="Mask group">
<mask id="mask1_21309_101102" style="mask-type:alpha" maskUnits="userSpaceOnUse" x="4" y="0" width="8" height="9">
<g id="Group_2">
<g id="Mask group_2">
<mask id="mask2_21309_101102" style="mask-type:alpha" maskUnits="userSpaceOnUse" x="4" y="0" width="8" height="9">
<g id="Group_3">
<path id="Vector_38" d="M7.2961 0.509766L4 6.22012L8.01744 8.52701L11.3151 2.81515L7.2961 0.509766Z" fill="url(#paint12_linear_21309_101102)"/>
</g>
</mask>
<g mask="url(#mask2_21309_101102)">
<g id="Group_4">
<path id="Vector_39" d="M7.2961 0.509766L4 6.22012L8.01744 8.52701L11.3151 2.81515L7.2961 0.509766Z" fill="url(#paint13_linear_21309_101102)"/>
</g>
</g>
</g>
</g>
</mask>
<g mask="url(#mask1_21309_101102)">
<g id="Group_5">
<path id="Vector_40" d="M7.30817 0.554688L10.0791 4.25532L7.13672 7.63101L7.30351 8.10071L10.4097 4.31692L7.30817 0.554688Z" fill="white"/>
</g>
</g>
</g>
<g id="Mask group_3">
<mask id="mask3_21309_101102" style="mask-type:alpha" maskUnits="userSpaceOnUse" x="0" y="1" width="9" height="10">
<g id="Group_6">
<g id="Mask group_4">
<mask id="mask4_21309_101102" style="mask-type:alpha" maskUnits="userSpaceOnUse" x="0" y="1" width="9" height="10">
<g id="Group_7">
<path id="Vector_41" d="M0.726562 4.28822L4.02113 10.0016L8.04011 7.69779L4.74553 1.98438L0.726562 4.28822Z" fill="url(#paint14_linear_21309_101102)"/>
</g>
</mask>
<g mask="url(#mask4_21309_101102)">
<g id="Group_8">
<path id="Vector_42" d="M0.726562 4.28822L4.02113 10.0016L8.04011 7.69779L4.74553 1.98438L0.726562 4.28822Z" fill="url(#paint15_linear_21309_101102)"/>
</g>
</g>
</g>
</g>
</mask>
<g mask="url(#mask3_21309_101102)">
<g id="Group_9">
<path id="Vector_43" d="M0.771484 4.30031L5.37276 3.7721L6.81999 8.00554L7.31118 8.09951L5.59208 3.51953L0.771484 4.30031Z" fill="white"/>
</g>
</g>
</g>
<g id="Mask group_5">
<mask id="mask5_21309_101102" style="mask-type:alpha" maskUnits="userSpaceOnUse" x="0" y="7" width="8" height="5">
<g id="Group_10">
<g id="Mask group_6">
<mask id="mask6_21309_101102" style="mask-type:alpha" maskUnits="userSpaceOnUse" x="0" y="7" width="8" height="5">
<g id="Group_11">
<path id="Vector_44" d="M0.74201 11.8902L7.35125 11.8686L7.3358 7.24707L0.726562 7.26858L0.74201 11.8902Z" fill="url(#paint16_linear_21309_101102)"/>
</g>
</mask>
<g mask="url(#mask6_21309_101102)">
<g id="Group_12">
<path id="Vector_45" d="M0.74201 11.8902L7.35125 11.8686L7.3358 7.24707L0.726562 7.26858L0.74201 11.8902Z" fill="url(#paint17_linear_21309_101102)"/>
</g>
</g>
</g>
</g>
</mask>
<g mask="url(#mask5_21309_101102)">
<g id="Group_13">
<path id="Vector_46" d="M0.775391 11.858L2.59644 7.61219L7.00157 8.45609L7.32591 8.07724L2.48369 7.29492L0.775391 11.858Z" fill="white"/>
</g>
</g>
</g>
<g id="Mask group_7">
<mask id="mask7_21309_101102" style="mask-type:alpha" maskUnits="userSpaceOnUse" x="3" y="7" width="8" height="9">
<g id="Group_14">
<g id="Mask group_8">
<mask id="mask8_21309_101102" style="mask-type:alpha" maskUnits="userSpaceOnUse" x="3" y="7" width="8" height="9">
<g id="Group_15">
<path id="Vector_47" d="M7.34389 15.6759L10.6261 9.95629L6.60098 7.66016L3.32031 13.3813L7.34389 15.6759Z" fill="url(#paint18_linear_21309_101102)"/>
</g>
</mask>
<g mask="url(#mask8_21309_101102)">
<g id="Group_16">
<path id="Vector_48" d="M7.34389 15.6759L10.6261 9.95629L6.60098 7.66016L3.32031 13.3813L7.34389 15.6759Z" fill="url(#paint19_linear_21309_101102)"/>
</g>
</g>
</g>
</g>
</mask>
<g mask="url(#mask7_21309_101102)">
<g id="Group_17">
<path id="Vector_49" d="M7.33148 15.631L4.55124 11.938L7.48436 8.55466L7.31757 8.08496L4.2207 11.8765L7.33148 15.631Z" fill="white"/>
</g>
</g>
</g>
<g id="Mask group_9">
<mask id="mask9_21309_101102" style="mask-type:alpha" maskUnits="userSpaceOnUse" x="6" y="6" width="8" height="9">
<g id="Group_18">
<g id="Mask group_10">
<mask id="mask10_21309_101102" style="mask-type:alpha" maskUnits="userSpaceOnUse" x="6" y="6" width="8" height="9">
<g id="Group_19">
<path id="Vector_50" d="M13.9064 11.8589L10.5933 6.15625L6.58203 8.47395L9.89511 14.1766L13.9064 11.8589Z" fill="url(#paint20_linear_21309_101102)"/>
</g>
</mask>
<g mask="url(#mask10_21309_101102)">
<g id="Group_20">
<path id="Vector_51" d="M13.9064 11.8589L10.5933 6.15625L6.58203 8.47395L9.89511 14.1766L13.9064 11.8589Z" fill="url(#paint21_linear_21309_101102)"/>
</g>
</g>
</g>
</g>
</mask>
<g mask="url(#mask9_21309_101102)">
<g id="Group_21">
<path id="Vector_52" d="M13.8607 11.847L9.26091 12.3906L7.79978 8.16171L7.30859 8.06934L9.0416 12.6447L13.8607 11.847Z" fill="white"/>
</g>
</g>
</g>
<g id="Mask group_11">
<mask id="mask11_21309_101102" style="mask-type:alpha" maskUnits="userSpaceOnUse" x="7" y="4" width="7" height="5">
<g id="Group_22">
<g id="Mask group_12">
<mask id="mask12_21309_101102" style="mask-type:alpha" maskUnits="userSpaceOnUse" x="7" y="4" width="7" height="5">
<g id="Group_23">
<path id="Vector_53" d="M13.8865 4.28906H7.27734V8.91063H13.8865V4.28906Z" fill="url(#paint22_linear_21309_101102)"/>
</g>
</mask>
<g mask="url(#mask12_21309_101102)">
<g id="Group_24">
<path id="Vector_54" d="M13.8865 4.28906H7.27734V8.91063H13.8865V4.28906Z" fill="url(#paint23_linear_21309_101102)"/>
</g>
</g>
</g>
</g>
</mask>
<g mask="url(#mask11_21309_101102)">
<g id="Group_25">
<path id="Vector_55" d="M13.8539 4.32129L12.0189 8.56093L7.61694 7.70163L7.29102 8.08042L12.1302 8.87814L13.8539 4.32129Z" fill="white"/>
</g>
</g>
</g>
<path id="Vector_56" d="M8.49328 6.46668C8.57975 6.65607 8.6431 6.87784 8.7713 7.05337C8.91958 7.25669 8.96437 7.56003 9.27327 7.6309C9.31034 7.64013 9.35979 7.70788 9.35667 7.74484C9.33663 7.96198 9.46635 7.94817 9.60845 7.92043C9.61617 7.9189 9.62389 7.91426 9.63161 7.91426C9.76446 7.90192 9.89883 7.89117 10.0317 7.87883C9.99302 8.01592 9.98995 8.18375 9.90809 8.28541C9.74748 8.48409 9.55281 8.66115 9.34894 8.81822C9.01377 9.07696 8.92418 9.36954 9.09716 9.75768C9.20225 9.99173 9.14968 10.1596 8.93809 10.2951C8.76817 10.4029 8.53189 10.4799 8.7064 10.7664C8.72803 10.8018 8.6925 10.925 8.66627 10.9311C8.46853 10.9758 8.46393 11.1313 8.4037 11.2838C8.25229 11.6734 7.66073 11.9137 7.26072 11.772C7.21746 11.7566 7.18504 11.6888 7.16182 11.6395C7.08461 11.4824 7.01512 11.3238 6.93945 11.1668C6.92242 11.1329 6.87149 11.099 6.87609 11.0728C6.92554 10.8064 6.78032 10.6154 6.65831 10.4029C6.6058 10.3121 6.64134 10.1596 6.6645 10.041C6.6846 9.9409 6.79269 9.83618 6.77418 9.75303C6.72939 9.5513 6.67376 9.328 6.55022 9.17245C6.42816 9.0169 6.36174 8.90601 6.45751 8.7212C6.54244 8.55796 6.45751 8.4979 6.29378 8.48098C6.21345 8.47328 6.13937 8.40247 6.05903 8.39783C5.90456 8.38707 5.74855 8.39477 5.59411 8.40705C5.38404 8.42556 5.16317 8.50871 4.96855 8.46711C4.76313 8.42245 4.56697 8.2823 4.48047 8.04977C4.46348 8.00511 4.40479 7.97279 4.35845 7.94505C4.17465 7.83264 4.14684 7.67092 4.19936 7.47847C4.21944 7.40454 4.26114 7.31211 4.23643 7.25358C4.05571 6.83007 4.42333 6.66224 4.61485 6.41273C4.68127 6.32652 4.73687 6.23256 4.8002 6.14324C4.83573 6.09552 4.87279 6.04622 4.91759 6.00926C4.99945 5.93998 5.08904 5.87839 5.14309 5.83679C5.35007 5.81675 5.54468 5.80135 5.7393 5.77673C5.98023 5.74594 6.21964 5.67818 6.45751 5.67971C6.7093 5.68124 6.53012 5.86911 6.5471 6.0062C6.60427 6.01543 6.67222 6.01696 6.73399 6.03852C6.82358 6.06932 6.90697 6.11862 6.99503 6.15252C7.08461 6.1879 7.17885 6.24026 7.26844 6.2372C7.31011 6.23568 7.34565 6.11556 7.40435 6.01237C7.497 6.037 7.61747 6.06162 7.73027 6.10322C7.90167 6.16481 8.05614 6.22181 8.25229 6.15252C8.34346 6.12015 8.48556 6.20641 8.59366 6.2603C8.62147 6.27417 8.6292 6.38194 8.60603 6.42507C8.59366 6.45739 8.51491 6.45898 8.49328 6.46668Z" fill="white"/>
</g>
</g>
</g>
</g>
<defs>
<linearGradient id="paint0_linear_21309_101102" x1="1.82764" y1="7.62052" x2="6.12574" y2="0.153777" gradientUnits="userSpaceOnUse">
<stop stop-color="#114FEE"/>
<stop offset="1" stop-color="#9027E2"/>
</linearGradient>
<linearGradient id="paint1_linear_21309_101102" x1="2.87647" y1="8.52855" x2="-2.52585" y2="3.11024" gradientUnits="userSpaceOnUse">
<stop stop-color="#4A1877"/>
<stop offset="1" stop-color="#FB4FAF"/>
</linearGradient>
<linearGradient id="paint2_linear_21309_101102" x1="7.40762" y1="12.529" x2="-1.88036" y2="13.45" gradientUnits="userSpaceOnUse">
<stop stop-color="#740107"/>
<stop offset="1" stop-color="#FB4FAF"/>
</linearGradient>
<linearGradient id="paint3_linear_21309_101102" x1="10.0696" y1="11.1201" x2="8.20952" y2="18.0833" gradientUnits="userSpaceOnUse">
<stop stop-color="#9B0109"/>
<stop offset="1" stop-color="#F5AB35"/>
</linearGradient>
<linearGradient id="paint4_linear_21309_101102" x1="11.8421" y1="6.52795" x2="16.2321" y2="13.1324" gradientUnits="userSpaceOnUse">
<stop stop-color="#004E59"/>
<stop offset="1" stop-color="#B0F122"/>
</linearGradient>
<linearGradient id="paint5_linear_21309_101102" x1="9.36009" y1="4.99407" x2="13.4267" y2="4.38876" gradientUnits="userSpaceOnUse">
<stop stop-color="#1F32B4"/>
<stop offset="1" stop-color="#1A85F8"/>
</linearGradient>
<linearGradient id="paint6_linear_21309_101102" x1="7.31278" y1="8.08801" x2="7.31278" y2="0.487869" gradientUnits="userSpaceOnUse">
<stop stop-color="#114FEE"/>
<stop offset="1" stop-color="#F98AFE"/>
</linearGradient>
<linearGradient id="paint7_linear_21309_101102" x1="7.31258" y1="8.08816" x2="0.777805" y2="4.3041" gradientUnits="userSpaceOnUse">
<stop stop-color="#5E17A9"/>
<stop offset="1" stop-color="#FB4FAF"/>
</linearGradient>
<linearGradient id="paint8_linear_21309_101102" x1="10.7574" y1="6.1051" x2="0.782909" y2="11.8808" gradientUnits="userSpaceOnUse">
<stop stop-color="#D90000"/>
<stop offset="1" stop-color="#FB4FAF"/>
</linearGradient>
<linearGradient id="paint9_linear_21309_101102" x1="7.31278" y1="7.93297" x2="7.31278" y2="16.0799" gradientUnits="userSpaceOnUse">
<stop stop-color="#D90000"/>
<stop offset="1" stop-color="#FEF163"/>
</linearGradient>
<linearGradient id="paint10_linear_21309_101102" x1="7.35695" y1="8.113" x2="14.0138" y2="11.9679" gradientUnits="userSpaceOnUse">
<stop stop-color="#16A085"/>
<stop offset="1" stop-color="#D7F241"/>
</linearGradient>
<linearGradient id="paint11_linear_21309_101102" x1="7.52528" y1="8.2746" x2="13.9821" y2="4.53563" gradientUnits="userSpaceOnUse">
<stop stop-color="#0131B9"/>
<stop offset="1" stop-color="#2DDAFF"/>
</linearGradient>
<linearGradient id="paint12_linear_21309_101102" x1="7.57746" y1="-3.63541" x2="7.59186" y2="6.80263" gradientUnits="userSpaceOnUse">
<stop stop-color="white"/>
<stop offset="1"/>
</linearGradient>
<linearGradient id="paint13_linear_21309_101102" x1="7.57746" y1="-3.63541" x2="7.59186" y2="6.80263" gradientUnits="userSpaceOnUse">
<stop stop-color="white"/>
<stop offset="1" stop-color="white"/>
</linearGradient>
<linearGradient id="paint14_linear_21309_101102" x1="-2.74364" y1="1.90995" x2="6.30041" y2="7.16793" gradientUnits="userSpaceOnUse">
<stop stop-color="white"/>
<stop offset="1"/>
</linearGradient>
<linearGradient id="paint15_linear_21309_101102" x1="-2.74364" y1="1.90995" x2="6.30041" y2="7.16793" gradientUnits="userSpaceOnUse">
<stop stop-color="white"/>
<stop offset="1" stop-color="white"/>
</linearGradient>
<linearGradient id="paint16_linear_21309_101102" x1="-3.02796" y1="13.6584" x2="6.00804" y2="8.38652" gradientUnits="userSpaceOnUse">
<stop stop-color="white"/>
<stop offset="1"/>
</linearGradient>
<linearGradient id="paint17_linear_21309_101102" x1="-3.02796" y1="13.6584" x2="6.00804" y2="8.38652" gradientUnits="userSpaceOnUse">
<stop stop-color="white"/>
<stop offset="1" stop-color="white"/>
</linearGradient>
<linearGradient id="paint18_linear_21309_101102" x1="7.02949" y1="19.7352" x2="6.98767" y2="9.29725" gradientUnits="userSpaceOnUse">
<stop stop-color="white"/>
<stop offset="1"/>
</linearGradient>
<linearGradient id="paint19_linear_21309_101102" x1="7.02949" y1="19.7352" x2="6.98767" y2="9.29725" gradientUnits="userSpaceOnUse">
<stop stop-color="white"/>
<stop offset="1" stop-color="white"/>
</linearGradient>
<linearGradient id="paint20_linear_21309_101102" x1="17.239" y1="14.3127" x2="8.17786" y2="9.08388" gradientUnits="userSpaceOnUse">
<stop stop-color="white"/>
<stop offset="1"/>
</linearGradient>
<linearGradient id="paint21_linear_21309_101102" x1="17.239" y1="14.3127" x2="8.17786" y2="9.08388" gradientUnits="userSpaceOnUse">
<stop stop-color="white"/>
<stop offset="1" stop-color="white"/>
</linearGradient>
<linearGradient id="paint22_linear_21309_101102" x1="17.651" y1="2.53058" x2="8.59778" y2="7.77289" gradientUnits="userSpaceOnUse">
<stop stop-color="white"/>
<stop offset="1"/>
</linearGradient>
<linearGradient id="paint23_linear_21309_101102" x1="17.651" y1="2.53058" x2="8.59778" y2="7.77289" gradientUnits="userSpaceOnUse">
<stop stop-color="white"/>
<stop offset="1" stop-color="white"/>
</linearGradient>
<clipPath id="clip0_21309_101102">
<rect width="83" height="18" fill="white"/>
</clipPath>
</defs>
</svg>
