<svg width="1066" height="162" viewBox="0 0 1066 162" fill="none" xmlns="http://www.w3.org/2000/svg">
<path d="M242.443 57V16.2727H268.534V22.4574H249.821V33.5142H266.744V39.6989H249.821V57H242.443ZM274.937 57V26.4545H282.136V57H274.937ZM278.556 22.1193C277.416 22.1193 276.435 21.7415 275.613 20.9858C274.791 20.2169 274.38 19.2955 274.38 18.2216C274.38 17.1345 274.791 16.2131 275.613 15.4574C276.435 14.6884 277.416 14.304 278.556 14.304C279.71 14.304 280.691 14.6884 281.5 15.4574C282.322 16.2131 282.733 17.1345 282.733 18.2216C282.733 19.2955 282.322 20.2169 281.5 20.9858C280.691 21.7415 279.71 22.1193 278.556 22.1193ZM296.738 39.1023V57H289.539V26.4545H296.419V31.6449H296.777C297.48 29.9347 298.6 28.5758 300.138 27.5682C301.689 26.5606 303.605 26.0568 305.885 26.0568C307.993 26.0568 309.829 26.5076 311.394 27.4091C312.971 28.3106 314.191 29.6165 315.053 31.3267C315.928 33.0369 316.359 35.1117 316.346 37.5511V57H309.147V38.6648C309.147 36.6231 308.616 35.0256 307.556 33.8722C306.508 32.7187 305.057 32.142 303.201 32.142C301.941 32.142 300.821 32.4205 299.84 32.9773C298.872 33.5208 298.11 34.3097 297.553 35.3438C297.009 36.3778 296.738 37.6307 296.738 39.1023ZM334.999 57.5369C332.599 57.5369 330.452 56.9205 328.556 55.6875C326.66 54.4545 325.162 52.6648 324.061 50.3182C322.961 47.9716 322.411 45.1212 322.411 41.767C322.411 38.3731 322.968 35.5095 324.081 33.1761C325.208 30.8295 326.726 29.0597 328.635 27.8665C330.544 26.66 332.672 26.0568 335.019 26.0568C336.809 26.0568 338.28 26.3617 339.434 26.9716C340.587 27.5682 341.502 28.2907 342.178 29.1392C342.854 29.9744 343.378 30.7633 343.749 31.5057H344.047V16.2727H351.266V57H344.186V52.1875H343.749C343.378 52.9299 342.841 53.7187 342.138 54.554C341.435 55.3759 340.507 56.0786 339.354 56.6619C338.201 57.2453 336.749 57.5369 334.999 57.5369ZM337.007 51.6307C338.532 51.6307 339.831 51.2197 340.905 50.3977C341.979 49.5625 342.794 48.4025 343.351 46.9176C343.908 45.4328 344.186 43.7027 344.186 41.7273C344.186 39.7519 343.908 38.035 343.351 36.5767C342.808 35.1184 341.999 33.9848 340.925 33.1761C339.864 32.3674 338.559 31.9631 337.007 31.9631C335.403 31.9631 334.064 32.3807 332.99 33.2159C331.917 34.0511 331.108 35.2045 330.564 36.6761C330.021 38.1477 329.749 39.8314 329.749 41.7273C329.749 43.6364 330.021 45.34 330.564 46.8381C331.121 48.3229 331.936 49.4962 333.01 50.358C334.097 51.2064 335.43 51.6307 337.007 51.6307ZM388.081 26.4545V32.0227H370.521V26.4545H388.081ZM374.856 19.1364H382.055V47.8125C382.055 48.7803 382.201 49.5227 382.493 50.0398C382.797 50.5436 383.195 50.8883 383.686 51.0739C384.176 51.2595 384.72 51.3523 385.316 51.3523C385.767 51.3523 386.178 51.3191 386.549 51.2528C386.934 51.1866 387.225 51.1269 387.424 51.0739L388.637 56.7017C388.253 56.8343 387.703 56.9801 386.987 57.1392C386.284 57.2983 385.422 57.3911 384.402 57.4176C382.599 57.4706 380.975 57.1989 379.529 56.6023C378.084 55.9924 376.938 55.0511 376.089 53.7784C375.254 52.5057 374.843 50.9148 374.856 49.0057V19.1364ZM401.956 39.1023V57H394.757V16.2727H401.797V31.6449H402.155C402.871 29.9214 403.978 28.5625 405.476 27.5682C406.988 26.5606 408.91 26.0568 411.243 26.0568C413.364 26.0568 415.214 26.5009 416.792 27.3892C418.369 28.2775 419.589 29.5767 420.451 31.2869C421.326 32.9972 421.763 35.0852 421.763 37.5511V57H414.564V38.6648C414.564 36.6098 414.034 35.0123 412.973 33.8722C411.926 32.7187 410.454 32.142 408.559 32.142C407.286 32.142 406.146 32.4205 405.138 32.9773C404.144 33.5208 403.362 34.3097 402.792 35.3438C402.235 36.3778 401.956 37.6307 401.956 39.1023ZM442.624 57.5966C439.561 57.5966 436.917 56.9602 434.689 55.6875C432.475 54.4015 430.772 52.5852 429.578 50.2386C428.385 47.8788 427.789 45.1013 427.789 41.9062C427.789 38.7642 428.385 36.0066 429.578 33.6335C430.785 31.2472 432.469 29.3911 434.63 28.0653C436.791 26.7263 439.329 26.0568 442.246 26.0568C444.129 26.0568 445.905 26.3617 447.576 26.9716C449.259 27.5682 450.744 28.4962 452.03 29.7557C453.329 31.0152 454.35 32.6193 455.093 34.5682C455.835 36.5038 456.206 38.8106 456.206 41.4886V43.696H431.169V38.8438H449.306C449.292 37.465 448.994 36.2386 448.411 35.1648C447.828 34.0777 447.012 33.2225 445.965 32.5994C444.931 31.9763 443.724 31.6648 442.346 31.6648C440.874 31.6648 439.581 32.0227 438.468 32.7386C437.354 33.4413 436.486 34.3693 435.863 35.5227C435.253 36.6629 434.941 37.9157 434.928 39.2812V43.517C434.928 45.2936 435.253 46.8182 435.902 48.0909C436.552 49.3504 437.46 50.3182 438.627 50.9943C439.793 51.6572 441.159 51.9886 442.723 51.9886C443.771 51.9886 444.719 51.8428 445.567 51.5511C446.416 51.2462 447.151 50.8021 447.775 50.2188C448.398 49.6354 448.868 48.9129 449.186 48.0511L455.908 48.8068C455.484 50.5833 454.675 52.1345 453.482 53.4602C452.302 54.7727 450.791 55.7936 448.948 56.5227C447.105 57.2386 444.997 57.5966 442.624 57.5966ZM476.505 57V16.2727H491.778C494.907 16.2727 497.532 16.8163 499.653 17.9034C501.788 18.9905 503.398 20.5151 504.485 22.4773C505.586 24.4261 506.136 26.6998 506.136 29.2983C506.136 31.91 505.579 34.1771 504.466 36.0994C503.365 38.0085 501.741 39.4867 499.593 40.5341C497.446 41.5682 494.807 42.0852 491.679 42.0852H480.801V35.9602H490.684C492.514 35.9602 494.012 35.7083 495.179 35.2045C496.345 34.6875 497.207 33.9384 497.764 32.9574C498.334 31.9631 498.619 30.7434 498.619 29.2983C498.619 27.8532 498.334 26.6203 497.764 25.5994C497.194 24.5653 496.325 23.7831 495.159 23.2528C493.992 22.7093 492.487 22.4375 490.645 22.4375H483.883V57H476.505ZM497.545 38.5455L507.627 57H499.395L489.491 38.5455H497.545ZM512.609 57V26.4545H519.808V57H512.609ZM516.228 22.1193C515.088 22.1193 514.107 21.7415 513.285 20.9858C512.463 20.2169 512.052 19.2955 512.052 18.2216C512.052 17.1345 512.463 16.2131 513.285 15.4574C514.107 14.6884 515.088 14.304 516.228 14.304C517.382 14.304 518.363 14.6884 519.172 15.4574C519.993 16.2131 520.404 17.1345 520.404 18.2216C520.404 19.2955 519.993 20.2169 519.172 20.9858C518.363 21.7415 517.382 22.1193 516.228 22.1193ZM540.495 69.0909C537.909 69.0909 535.689 68.7396 533.833 68.0369C531.977 67.3475 530.485 66.4195 529.358 65.2528C528.231 64.0862 527.449 62.7936 527.012 61.375L533.495 59.804C533.786 60.4006 534.211 60.9905 534.767 61.5739C535.324 62.1705 536.073 62.661 537.015 63.0455C537.969 63.4432 539.169 63.642 540.614 63.642C542.656 63.642 544.346 63.1449 545.685 62.1506C547.024 61.1695 547.694 59.5521 547.694 57.2983V51.5114H547.336C546.964 52.2538 546.421 53.0161 545.705 53.7983C545.002 54.5805 544.068 55.2367 542.901 55.767C541.748 56.2973 540.296 56.5625 538.546 56.5625C536.199 56.5625 534.071 56.0123 532.162 54.9119C530.266 53.7983 528.755 52.1411 527.628 49.9403C526.515 47.7263 525.958 44.9555 525.958 41.6278C525.958 38.2737 526.515 35.4432 527.628 33.1364C528.755 30.8163 530.273 29.0597 532.182 27.8665C534.091 26.66 536.219 26.0568 538.566 26.0568C540.355 26.0568 541.827 26.3617 542.98 26.9716C544.147 27.5682 545.075 28.2907 545.765 29.1392C546.454 29.9744 546.978 30.7633 547.336 31.5057H547.733V26.4545H554.833V57.4972C554.833 60.1089 554.21 62.2699 552.963 63.9801C551.717 65.6903 550.014 66.9697 547.853 67.8182C545.692 68.6667 543.239 69.0909 540.495 69.0909ZM540.554 50.9148C542.079 50.9148 543.378 50.5436 544.452 49.8011C545.526 49.0587 546.341 47.9915 546.898 46.5994C547.455 45.2074 547.733 43.5369 547.733 41.5881C547.733 39.6657 547.455 37.982 546.898 36.5369C546.355 35.0919 545.546 33.9716 544.472 33.1761C543.411 32.3674 542.105 31.9631 540.554 31.9631C538.95 31.9631 537.611 32.3807 536.537 33.2159C535.463 34.0511 534.655 35.1979 534.111 36.6562C533.568 38.1013 533.296 39.7453 533.296 41.5881C533.296 43.4574 533.568 45.0947 534.111 46.5C534.668 47.892 535.483 48.9792 536.557 49.7614C537.644 50.5303 538.977 50.9148 540.554 50.9148ZM569.409 39.1023V57H562.211V16.2727H569.25V31.6449H569.608C570.324 29.9214 571.431 28.5625 572.929 27.5682C574.441 26.5606 576.363 26.0568 578.696 26.0568C580.818 26.0568 582.667 26.5009 584.245 27.3892C585.822 28.2775 587.042 29.5767 587.904 31.2869C588.779 32.9972 589.216 35.0852 589.216 37.5511V57H582.017V38.6648C582.017 36.6098 581.487 35.0123 580.426 33.8722C579.379 32.7187 577.908 32.142 576.012 32.142C574.739 32.142 573.599 32.4205 572.591 32.9773C571.597 33.5208 570.815 34.3097 570.245 35.3438C569.688 36.3778 569.409 37.6307 569.409 39.1023ZM611.807 26.4545V32.0227H594.248V26.4545H611.807ZM598.583 19.1364H605.782V47.8125C605.782 48.7803 605.927 49.5227 606.219 50.0398C606.524 50.5436 606.922 50.8883 607.412 51.0739C607.903 51.2595 608.446 51.3523 609.043 51.3523C609.494 51.3523 609.905 51.3191 610.276 51.2528C610.66 51.1866 610.952 51.1269 611.151 51.0739L612.364 56.7017C611.98 56.8343 611.429 56.9801 610.713 57.1392C610.011 57.2983 609.149 57.3911 608.128 57.4176C606.325 57.4706 604.701 57.1989 603.256 56.6023C601.811 55.9924 600.664 55.0511 599.816 53.7784C598.98 52.5057 598.569 50.9148 598.583 49.0057V19.1364ZM632.037 57V16.2727H647.309C650.438 16.2727 653.063 16.8561 655.184 18.0227C657.319 19.1894 658.93 20.7936 660.017 22.8352C661.117 24.8636 661.667 27.1705 661.667 29.7557C661.667 32.3674 661.117 34.6875 660.017 36.7159C658.916 38.7443 657.292 40.3419 655.145 41.5085C652.997 42.6619 650.352 43.2386 647.21 43.2386H637.088V37.1733H646.216C648.045 37.1733 649.543 36.8551 650.71 36.2188C651.877 35.5824 652.738 34.7074 653.295 33.5938C653.865 32.4801 654.15 31.2008 654.15 29.7557C654.15 28.3106 653.865 27.0379 653.295 25.9375C652.738 24.8371 651.87 23.982 650.69 23.3722C649.523 22.7491 648.019 22.4375 646.176 22.4375H639.414V57H632.037ZM680.843 57.5966C677.78 57.5966 675.135 56.9602 672.908 55.6875C670.694 54.4015 668.99 52.5852 667.797 50.2386C666.604 47.8788 666.007 45.1013 666.007 41.9062C666.007 38.7642 666.604 36.0066 667.797 33.6335C669.004 31.2472 670.687 29.3911 672.848 28.0653C675.009 26.7263 677.548 26.0568 680.465 26.0568C682.347 26.0568 684.124 26.3617 685.794 26.9716C687.478 27.5682 688.963 28.4962 690.249 29.7557C691.548 31.0152 692.569 32.6193 693.311 34.5682C694.054 36.5038 694.425 38.8106 694.425 41.4886V43.696H669.388V38.8438H687.525C687.511 37.465 687.213 36.2386 686.63 35.1648C686.046 34.0777 685.231 33.2225 684.184 32.5994C683.15 31.9763 681.943 31.6648 680.564 31.6648C679.093 31.6648 677.8 32.0227 676.686 32.7386C675.573 33.4413 674.704 34.3693 674.081 35.5227C673.471 36.6629 673.16 37.9157 673.147 39.2812V43.517C673.147 45.2936 673.471 46.8182 674.121 48.0909C674.771 49.3504 675.679 50.3182 676.846 50.9943C678.012 51.6572 679.378 51.9886 680.942 51.9886C681.989 51.9886 682.937 51.8428 683.786 51.5511C684.634 51.2462 685.37 50.8021 685.993 50.2188C686.616 49.6354 687.087 48.9129 687.405 48.0511L694.127 48.8068C693.703 50.5833 692.894 52.1345 691.701 53.4602C690.521 54.7727 689.009 55.7936 687.167 56.5227C685.324 57.2386 683.216 57.5966 680.843 57.5966ZM713.839 57.5966C710.856 57.5966 708.271 56.9403 706.083 55.6278C703.896 54.3153 702.199 52.4792 700.993 50.1193C699.799 47.7595 699.203 45.0019 699.203 41.8466C699.203 38.6913 699.799 35.9271 700.993 33.554C702.199 31.1809 703.896 29.3381 706.083 28.0256C708.271 26.7131 710.856 26.0568 713.839 26.0568C716.822 26.0568 719.407 26.7131 721.595 28.0256C723.782 29.3381 725.473 31.1809 726.666 33.554C727.872 35.9271 728.475 38.6913 728.475 41.8466C728.475 45.0019 727.872 47.7595 726.666 50.1193C725.473 52.4792 723.782 54.3153 721.595 55.6278C719.407 56.9403 716.822 57.5966 713.839 57.5966ZM713.879 51.8295C715.496 51.8295 716.849 51.3854 717.936 50.4972C719.023 49.5956 719.832 48.3892 720.362 46.8778C720.905 45.3665 721.177 43.6828 721.177 41.8267C721.177 39.9574 720.905 38.267 720.362 36.7557C719.832 35.2311 719.023 34.018 717.936 33.1165C716.849 32.215 715.496 31.7642 713.879 31.7642C712.222 31.7642 710.843 32.215 709.743 33.1165C708.655 34.018 707.84 35.2311 707.297 36.7557C706.766 38.267 706.501 39.9574 706.501 41.8267C706.501 43.6828 706.766 45.3665 707.297 46.8778C707.84 48.3892 708.655 49.5956 709.743 50.4972C710.843 51.3854 712.222 51.8295 713.879 51.8295ZM734.586 68.4545V26.4545H741.665V31.5057H742.083C742.454 30.7633 742.978 29.9744 743.654 29.1392C744.33 28.2907 745.245 27.5682 746.398 26.9716C747.551 26.3617 749.023 26.0568 750.813 26.0568C753.173 26.0568 755.301 26.66 757.196 27.8665C759.105 29.0597 760.617 30.8295 761.73 33.1761C762.857 35.5095 763.421 38.3731 763.421 41.767C763.421 45.1212 762.871 47.9716 761.77 50.3182C760.67 52.6648 759.172 54.4545 757.276 55.6875C755.38 56.9205 753.232 57.5369 750.833 57.5369C749.083 57.5369 747.631 57.2453 746.478 56.6619C745.324 56.0786 744.396 55.3759 743.694 54.554C743.004 53.7187 742.467 52.9299 742.083 52.1875H741.784V68.4545H734.586ZM741.645 41.7273C741.645 43.7027 741.924 45.4328 742.48 46.9176C743.051 48.4025 743.866 49.5625 744.926 50.3977C746 51.2197 747.3 51.6307 748.824 51.6307C750.415 51.6307 751.748 51.2064 752.821 50.358C753.895 49.4962 754.704 48.3229 755.248 46.8381C755.804 45.34 756.083 43.6364 756.083 41.7273C756.083 39.8314 755.811 38.1477 755.267 36.6761C754.724 35.2045 753.915 34.0511 752.841 33.2159C751.767 32.3807 750.428 31.9631 748.824 31.9631C747.286 31.9631 745.98 32.3674 744.907 33.1761C743.833 33.9848 743.017 35.1184 742.461 36.5767C741.917 38.035 741.645 39.7519 741.645 41.7273ZM776.784 16.2727V57H769.586V16.2727H776.784ZM797.71 57.5966C794.647 57.5966 792.002 56.9602 789.775 55.6875C787.561 54.4015 785.858 52.5852 784.664 50.2386C783.471 47.8788 782.875 45.1013 782.875 41.9062C782.875 38.7642 783.471 36.0066 784.664 33.6335C785.871 31.2472 787.555 29.3911 789.716 28.0653C791.877 26.7263 794.415 26.0568 797.332 26.0568C799.215 26.0568 800.991 26.3617 802.662 26.9716C804.345 27.5682 805.83 28.4962 807.116 29.7557C808.415 31.0152 809.436 32.6193 810.179 34.5682C810.921 36.5038 811.292 38.8106 811.292 41.4886V43.696H786.255V38.8438H804.392C804.378 37.465 804.08 36.2386 803.497 35.1648C802.913 34.0777 802.098 33.2225 801.051 32.5994C800.017 31.9763 798.81 31.6648 797.431 31.6648C795.96 31.6648 794.667 32.0227 793.554 32.7386C792.44 33.4413 791.572 34.3693 790.949 35.5227C790.339 36.6629 790.027 37.9157 790.014 39.2812V43.517C790.014 45.2936 790.339 46.8182 790.988 48.0909C791.638 49.3504 792.546 50.3182 793.713 50.9943C794.879 51.6572 796.245 51.9886 797.809 51.9886C798.857 51.9886 799.805 51.8428 800.653 51.5511C801.502 51.2462 802.237 50.8021 802.86 50.2188C803.484 49.6354 803.954 48.9129 804.272 48.0511L810.994 48.8068C810.57 50.5833 809.761 52.1345 808.568 53.4602C807.388 54.7727 805.877 55.7936 804.034 56.5227C802.191 57.2386 800.083 57.5966 797.71 57.5966ZM275.596 130.597C272.812 130.597 270.419 130.093 268.417 129.085C266.415 128.078 264.871 126.719 263.783 125.009C262.71 123.285 262.173 121.343 262.173 119.182C262.173 117.551 262.504 116.106 263.167 114.847C263.843 113.587 264.771 112.42 265.951 111.347C267.144 110.273 268.523 109.205 270.087 108.145L277.306 103.233C278.367 102.544 279.169 101.814 279.712 101.045C280.269 100.277 280.548 99.375 280.548 98.3409C280.548 97.4659 280.176 96.6373 279.434 95.8551C278.705 95.0729 277.697 94.6818 276.411 94.6818C275.549 94.6818 274.787 94.8873 274.124 95.2983C273.475 95.696 272.964 96.2197 272.593 96.8693C272.235 97.5189 272.056 98.2083 272.056 98.9375C272.056 99.8258 272.301 100.727 272.792 101.642C273.296 102.557 273.945 103.505 274.741 104.486C275.549 105.467 276.411 106.508 277.326 107.608L296.437 130H288.641L272.772 111.824C271.592 110.445 270.452 109.086 269.352 107.747C268.264 106.408 267.37 105.016 266.667 103.571C265.978 102.113 265.633 100.535 265.633 98.8381C265.633 96.9157 266.077 95.1989 266.965 93.6875C267.853 92.1629 269.093 90.9631 270.684 90.0881C272.288 89.2131 274.164 88.7756 276.312 88.7756C278.46 88.7756 280.302 89.1998 281.84 90.0483C283.378 90.8968 284.565 92.0237 285.4 93.429C286.235 94.8343 286.653 96.3655 286.653 98.0227C286.653 99.9451 286.175 101.669 285.221 103.193C284.266 104.705 282.941 106.077 281.244 107.31L273.011 113.335C271.658 114.316 270.691 115.311 270.107 116.318C269.524 117.312 269.232 118.161 269.232 118.864C269.232 119.937 269.504 120.912 270.048 121.787C270.591 122.662 271.353 123.365 272.335 123.895C273.329 124.412 274.489 124.67 275.815 124.67C277.273 124.67 278.711 124.346 280.13 123.696C281.549 123.033 282.841 122.092 284.008 120.872C285.174 119.652 286.103 118.194 286.792 116.497C287.481 114.787 287.826 112.891 287.826 110.81H294.011C294.011 113.382 293.726 115.622 293.156 117.531C292.585 119.427 291.85 121.031 290.948 122.344C290.047 123.643 289.092 124.684 288.085 125.466C287.766 125.691 287.461 125.917 287.17 126.142C286.878 126.367 286.573 126.593 286.255 126.818C284.823 128.117 283.146 129.072 281.224 129.682C279.315 130.292 277.439 130.597 275.596 130.597ZM349.628 103.014H342.19C341.978 101.795 341.587 100.714 341.017 99.7727C340.447 98.8182 339.738 98.0095 338.889 97.3466C338.041 96.6837 337.073 96.1866 335.986 95.8551C334.912 95.5104 333.752 95.3381 332.506 95.3381C330.292 95.3381 328.33 95.8949 326.619 97.0085C324.909 98.1089 323.57 99.7263 322.602 101.861C321.634 103.982 321.151 106.574 321.151 109.636C321.151 112.752 321.634 115.377 322.602 117.511C323.583 119.633 324.922 121.237 326.619 122.324C328.33 123.398 330.285 123.935 332.486 123.935C333.705 123.935 334.846 123.776 335.906 123.457C336.98 123.126 337.941 122.642 338.79 122.006C339.652 121.369 340.374 120.587 340.957 119.659C341.554 118.731 341.965 117.67 342.19 116.477L349.628 116.517C349.349 118.453 348.746 120.269 347.818 121.966C346.903 123.663 345.704 125.161 344.219 126.46C342.734 127.746 340.997 128.754 339.009 129.483C337.02 130.199 334.813 130.557 332.386 130.557C328.807 130.557 325.612 129.728 322.801 128.071C319.991 126.414 317.777 124.021 316.159 120.892C314.542 117.763 313.733 114.011 313.733 109.636C313.733 105.248 314.548 101.496 316.179 98.3807C317.81 95.2519 320.03 92.8589 322.841 91.2017C325.652 89.5445 328.833 88.7159 332.386 88.7159C334.653 88.7159 336.761 89.0341 338.71 89.6705C340.659 90.3068 342.396 91.2415 343.92 92.4744C345.445 93.6941 346.698 95.1922 347.679 96.9688C348.673 98.732 349.323 100.747 349.628 103.014ZM369.39 130.597C366.407 130.597 363.822 129.94 361.634 128.628C359.447 127.315 357.75 125.479 356.543 123.119C355.35 120.759 354.754 118.002 354.754 114.847C354.754 111.691 355.35 108.927 356.543 106.554C357.75 104.181 359.447 102.338 361.634 101.026C363.822 99.7131 366.407 99.0568 369.39 99.0568C372.373 99.0568 374.958 99.7131 377.146 101.026C379.333 102.338 381.023 104.181 382.217 106.554C383.423 108.927 384.026 111.691 384.026 114.847C384.026 118.002 383.423 120.759 382.217 123.119C381.023 125.479 379.333 127.315 377.146 128.628C374.958 129.94 372.373 130.597 369.39 130.597ZM369.43 124.83C371.047 124.83 372.399 124.385 373.487 123.497C374.574 122.596 375.382 121.389 375.913 119.878C376.456 118.366 376.728 116.683 376.728 114.827C376.728 112.957 376.456 111.267 375.913 109.756C375.382 108.231 374.574 107.018 373.487 106.116C372.399 105.215 371.047 104.764 369.43 104.764C367.772 104.764 366.394 105.215 365.293 106.116C364.206 107.018 363.391 108.231 362.847 109.756C362.317 111.267 362.052 112.957 362.052 114.827C362.052 116.683 362.317 118.366 362.847 119.878C363.391 121.389 364.206 122.596 365.293 123.497C366.394 124.385 367.772 124.83 369.43 124.83ZM397.335 112.102V130H390.136V99.4545H397.017V104.645H397.375C398.078 102.935 399.198 101.576 400.736 100.568C402.287 99.5606 404.203 99.0568 406.483 99.0568C408.591 99.0568 410.427 99.5076 411.991 100.409C413.569 101.311 414.789 102.616 415.651 104.327C416.526 106.037 416.956 108.112 416.943 110.551V130H409.744V111.665C409.744 109.623 409.214 108.026 408.153 106.872C407.106 105.719 405.654 105.142 403.798 105.142C402.539 105.142 401.419 105.42 400.438 105.977C399.47 106.521 398.707 107.31 398.151 108.344C397.607 109.378 397.335 110.631 397.335 112.102ZM431.46 112.102V130H424.261V99.4545H431.142V104.645H431.5C432.203 102.935 433.323 101.576 434.861 100.568C436.412 99.5606 438.328 99.0568 440.608 99.0568C442.716 99.0568 444.552 99.5076 446.116 100.409C447.694 101.311 448.914 102.616 449.776 104.327C450.651 106.037 451.081 108.112 451.068 110.551V130H443.869V111.665C443.869 109.623 443.339 108.026 442.278 106.872C441.231 105.719 439.779 105.142 437.923 105.142C436.664 105.142 435.544 105.42 434.562 105.977C433.595 106.521 432.832 107.31 432.276 108.344C431.732 109.378 431.46 110.631 431.46 112.102ZM471.909 130.597C468.847 130.597 466.202 129.96 463.974 128.688C461.76 127.402 460.057 125.585 458.864 123.239C457.67 120.879 457.074 118.101 457.074 114.906C457.074 111.764 457.67 109.007 458.864 106.634C460.07 104.247 461.754 102.391 463.915 101.065C466.076 99.7263 468.615 99.0568 471.531 99.0568C473.414 99.0568 475.19 99.3617 476.861 99.9716C478.545 100.568 480.029 101.496 481.315 102.756C482.615 104.015 483.635 105.619 484.378 107.568C485.12 109.504 485.491 111.811 485.491 114.489V116.696H460.455V111.844H478.591C478.578 110.465 478.279 109.239 477.696 108.165C477.113 107.078 476.297 106.223 475.25 105.599C474.216 104.976 473.009 104.665 471.631 104.665C470.159 104.665 468.866 105.023 467.753 105.739C466.639 106.441 465.771 107.369 465.148 108.523C464.538 109.663 464.226 110.916 464.213 112.281V116.517C464.213 118.294 464.538 119.818 465.188 121.091C465.837 122.35 466.745 123.318 467.912 123.994C469.079 124.657 470.444 124.989 472.009 124.989C473.056 124.989 474.004 124.843 474.852 124.551C475.701 124.246 476.437 123.802 477.06 123.219C477.683 122.635 478.153 121.913 478.472 121.051L485.193 121.807C484.769 123.583 483.96 125.134 482.767 126.46C481.587 127.773 480.076 128.794 478.233 129.523C476.39 130.239 474.282 130.597 471.909 130.597ZM504.906 130.597C501.856 130.597 499.238 129.927 497.05 128.588C494.876 127.249 493.199 125.4 492.019 123.04C490.853 120.667 490.269 117.936 490.269 114.847C490.269 111.744 490.866 109.007 492.059 106.634C493.252 104.247 494.936 102.391 497.11 101.065C499.298 99.7263 501.883 99.0568 504.866 99.0568C507.345 99.0568 509.539 99.5142 511.448 100.429C513.371 101.33 514.902 102.61 516.042 104.267C517.182 105.911 517.832 107.833 517.991 110.034H511.11C510.832 108.562 510.169 107.336 509.121 106.355C508.087 105.361 506.702 104.864 504.965 104.864C503.494 104.864 502.201 105.261 501.087 106.057C499.974 106.839 499.105 107.966 498.482 109.438C497.872 110.909 497.567 112.672 497.567 114.727C497.567 116.809 497.872 118.598 498.482 120.097C499.092 121.581 499.947 122.728 501.048 123.537C502.161 124.332 503.467 124.73 504.965 124.73C506.026 124.73 506.974 124.531 507.809 124.134C508.657 123.723 509.367 123.133 509.937 122.364C510.507 121.595 510.898 120.66 511.11 119.56H517.991C517.818 121.721 517.182 123.636 516.082 125.307C514.981 126.964 513.483 128.263 511.587 129.205C509.692 130.133 507.464 130.597 504.906 130.597ZM539.155 99.4545V105.023H521.595V99.4545H539.155ZM525.93 92.1364H533.129V120.812C533.129 121.78 533.275 122.523 533.567 123.04C533.872 123.544 534.269 123.888 534.76 124.074C535.25 124.259 535.794 124.352 536.391 124.352C536.841 124.352 537.252 124.319 537.624 124.253C538.008 124.187 538.3 124.127 538.499 124.074L539.712 129.702C539.327 129.834 538.777 129.98 538.061 130.139C537.358 130.298 536.497 130.391 535.476 130.418C533.673 130.471 532.049 130.199 530.604 129.602C529.159 128.992 528.012 128.051 527.163 126.778C526.328 125.506 525.917 123.915 525.93 122.006V92.1364Z" fill="#101828"/>
<path d="M566.762 89.2727V130H559.384V89.2727H566.762ZM581.632 112.102V130H574.433V99.4545H581.314V104.645H581.672C582.375 102.935 583.495 101.576 585.033 100.568C586.584 99.5606 588.5 99.0568 590.78 99.0568C592.888 99.0568 594.724 99.5076 596.288 100.409C597.866 101.311 599.086 102.616 599.947 104.327C600.822 106.037 601.253 108.112 601.24 110.551V130H594.041V111.665C594.041 109.623 593.511 108.026 592.45 106.872C591.403 105.719 589.951 105.142 588.095 105.142C586.836 105.142 585.715 105.42 584.734 105.977C583.767 106.521 583.004 107.31 582.447 108.344C581.904 109.378 581.632 110.631 581.632 112.102ZM632.7 107.528L626.138 108.244C625.952 107.581 625.627 106.958 625.163 106.375C624.713 105.792 624.103 105.321 623.334 104.963C622.565 104.605 621.624 104.426 620.51 104.426C619.012 104.426 617.752 104.751 616.732 105.401C615.724 106.05 615.227 106.892 615.24 107.926C615.227 108.814 615.552 109.537 616.214 110.094C616.891 110.651 618.004 111.108 619.555 111.466L624.766 112.58C627.656 113.203 629.804 114.19 631.209 115.543C632.627 116.895 633.343 118.665 633.357 120.852C633.343 122.775 632.78 124.472 631.666 125.943C630.566 127.402 629.035 128.542 627.072 129.364C625.11 130.186 622.857 130.597 620.311 130.597C616.572 130.597 613.563 129.814 611.283 128.25C609.002 126.672 607.643 124.478 607.206 121.668L614.226 120.991C614.544 122.37 615.22 123.411 616.254 124.114C617.288 124.816 618.634 125.168 620.291 125.168C622.001 125.168 623.374 124.816 624.408 124.114C625.455 123.411 625.979 122.543 625.979 121.509C625.979 120.634 625.641 119.911 624.964 119.341C624.302 118.771 623.268 118.333 621.862 118.028L616.652 116.935C613.722 116.325 611.554 115.297 610.149 113.852C608.744 112.394 608.048 110.551 608.061 108.324C608.048 106.441 608.558 104.811 609.592 103.432C610.64 102.04 612.091 100.966 613.947 100.21C615.817 99.4413 617.971 99.0568 620.411 99.0568C623.99 99.0568 626.807 99.8191 628.862 101.344C630.93 102.868 632.21 104.93 632.7 107.528ZM654.545 99.4545V105.023H636.986V99.4545H654.545ZM641.321 92.1364H648.52V120.812C648.52 121.78 648.666 122.523 648.957 123.04C649.262 123.544 649.66 123.888 650.151 124.074C650.641 124.259 651.185 124.352 651.781 124.352C652.232 124.352 652.643 124.319 653.014 124.253C653.399 124.187 653.69 124.127 653.889 124.074L655.102 129.702C654.718 129.834 654.168 129.98 653.452 130.139C652.749 130.298 651.887 130.391 650.866 130.418C649.063 130.471 647.439 130.199 645.994 129.602C644.549 128.992 643.402 128.051 642.554 126.778C641.719 125.506 641.308 123.915 641.321 122.006V92.1364ZM669.356 130.616C667.42 130.616 665.677 130.272 664.126 129.582C662.588 128.88 661.368 127.846 660.467 126.48C659.578 125.115 659.134 123.431 659.134 121.429C659.134 119.705 659.452 118.28 660.089 117.153C660.725 116.027 661.594 115.125 662.694 114.449C663.794 113.773 665.034 113.262 666.413 112.918C667.805 112.56 669.243 112.301 670.728 112.142C672.518 111.956 673.969 111.791 675.083 111.645C676.197 111.486 677.005 111.247 677.509 110.929C678.026 110.598 678.285 110.087 678.285 109.398V109.278C678.285 107.78 677.841 106.62 676.952 105.798C676.064 104.976 674.785 104.565 673.114 104.565C671.351 104.565 669.952 104.95 668.918 105.719C667.897 106.488 667.208 107.396 666.85 108.443L660.129 107.489C660.659 105.633 661.534 104.081 662.754 102.835C663.973 101.576 665.465 100.634 667.228 100.011C668.991 99.375 670.94 99.0568 673.075 99.0568C674.546 99.0568 676.011 99.2292 677.469 99.5739C678.928 99.9186 680.26 100.489 681.467 101.284C682.673 102.066 683.641 103.134 684.37 104.486C685.112 105.838 685.484 107.528 685.484 109.557V130H678.563V125.804H678.325C677.887 126.652 677.271 127.448 676.475 128.19C675.693 128.92 674.705 129.509 673.512 129.96C672.332 130.398 670.947 130.616 669.356 130.616ZM671.225 125.327C672.67 125.327 673.923 125.042 674.984 124.472C676.044 123.888 676.86 123.119 677.43 122.165C678.013 121.21 678.305 120.17 678.305 119.043V115.443C678.079 115.629 677.695 115.801 677.151 115.96C676.621 116.119 676.024 116.259 675.362 116.378C674.699 116.497 674.042 116.603 673.393 116.696C672.743 116.789 672.18 116.868 671.702 116.935C670.629 117.08 669.667 117.319 668.819 117.651C667.97 117.982 667.301 118.446 666.81 119.043C666.32 119.626 666.075 120.382 666.075 121.31C666.075 122.635 666.558 123.636 667.526 124.312C668.494 124.989 669.727 125.327 671.225 125.327ZM699.921 112.102V130H692.722V99.4545H699.603V104.645H699.961C700.664 102.935 701.784 101.576 703.322 100.568C704.873 99.5606 706.789 99.0568 709.069 99.0568C711.177 99.0568 713.013 99.5076 714.577 100.409C716.155 101.311 717.375 102.616 718.237 104.327C719.112 106.037 719.542 108.112 719.529 110.551V130H712.33V111.665C712.33 109.623 711.8 108.026 710.739 106.872C709.692 105.719 708.24 105.142 706.384 105.142C705.125 105.142 704.004 105.42 703.023 105.977C702.056 106.521 701.293 107.31 700.737 108.344C700.193 109.378 699.921 110.631 699.921 112.102ZM742.1 99.4545V105.023H724.54V99.4545H742.1ZM728.876 92.1364H736.075V120.812C736.075 121.78 736.22 122.523 736.512 123.04C736.817 123.544 737.215 123.888 737.705 124.074C738.196 124.259 738.739 124.352 739.336 124.352C739.787 124.352 740.198 124.319 740.569 124.253C740.953 124.187 741.245 124.127 741.444 124.074L742.657 129.702C742.272 129.834 741.722 129.98 741.006 130.139C740.304 130.298 739.442 130.391 738.421 130.418C736.618 130.471 734.994 130.199 733.549 129.602C732.104 128.992 730.957 128.051 730.109 126.778C729.273 125.506 728.862 123.915 728.876 122.006V92.1364ZM755.976 89.2727V130H748.777V89.2727H755.976ZM767.853 141.455C766.872 141.455 765.964 141.375 765.129 141.216C764.307 141.07 763.65 140.898 763.16 140.699L764.83 135.091C765.878 135.396 766.812 135.542 767.634 135.528C768.456 135.515 769.179 135.257 769.802 134.753C770.438 134.262 770.975 133.44 771.413 132.287L772.029 130.636L760.952 99.4545H768.589L775.629 122.523H775.947L783.006 99.4545H790.663L778.433 133.699C777.862 135.316 777.107 136.702 776.165 137.855C775.224 139.022 774.071 139.91 772.705 140.52C771.353 141.143 769.736 141.455 767.853 141.455ZM798.165 130.438C796.958 130.438 795.924 130.013 795.062 129.165C794.201 128.316 793.777 127.282 793.79 126.062C793.777 124.869 794.201 123.848 795.062 123C795.924 122.152 796.958 121.727 798.165 121.727C799.331 121.727 800.346 122.152 801.207 123C802.082 123.848 802.527 124.869 802.54 126.062C802.527 126.871 802.314 127.607 801.903 128.27C801.506 128.933 800.975 129.463 800.312 129.861C799.663 130.245 798.947 130.438 798.165 130.438Z" fill="#0E73A9"/>
<path d="M542.852 160.107C667.392 134.95 801.157 156.705 820.53 156.45" stroke="#0E73A9" stroke-width="3" stroke-linecap="round"/>
</svg>
