<svg width="288" height="73" viewBox="0 0 288 73" fill="none" xmlns="http://www.w3.org/2000/svg">
<path d="M11.5185 25V7.54545H22.7003V10.196H14.6804V14.9347H21.9332V17.5852H14.6804V25H11.5185ZM25.4446 25V11.9091H28.5298V25H25.4446ZM26.9957 10.0511C26.5071 10.0511 26.0866 9.8892 25.7344 9.56534C25.3821 9.23579 25.206 8.84091 25.206 8.38068C25.206 7.91477 25.3821 7.51989 25.7344 7.19602C26.0866 6.86648 26.5071 6.7017 26.9957 6.7017C27.4901 6.7017 27.9105 6.86648 28.2571 7.19602C28.6094 7.51989 28.7855 7.91477 28.7855 8.38068C28.7855 8.84091 28.6094 9.23579 28.2571 9.56534C27.9105 9.8892 27.4901 10.0511 26.9957 10.0511ZM34.7876 17.3295V25H31.7024V11.9091H34.6513V14.1335H34.8047C35.1058 13.4006 35.5859 12.8182 36.245 12.3864C36.9098 11.9545 37.7308 11.7386 38.7081 11.7386C39.6115 11.7386 40.3984 11.9318 41.0689 12.3182C41.745 12.7045 42.2678 13.2642 42.6371 13.9972C43.0121 14.7301 43.1967 15.6193 43.1911 16.6648V25H40.1058V17.142C40.1058 16.267 39.8786 15.5824 39.424 15.0881C38.9751 14.5937 38.353 14.3466 37.5575 14.3466C37.0178 14.3466 36.5376 14.4659 36.1172 14.7045C35.7024 14.9375 35.3757 15.2756 35.1371 15.7188C34.9041 16.1619 34.7876 16.6989 34.7876 17.3295ZM51.1854 25.2301C50.157 25.2301 49.2365 24.9659 48.424 24.4375C47.6115 23.9091 46.9695 23.142 46.4979 22.1364C46.0263 21.1307 45.7905 19.9091 45.7905 18.4716C45.7905 17.017 46.0291 15.7898 46.5064 14.7898C46.9893 13.7841 47.6399 13.0256 48.4581 12.5142C49.2763 11.9972 50.1882 11.7386 51.1939 11.7386C51.9609 11.7386 52.5916 11.8693 53.0859 12.1307C53.5803 12.3864 53.9723 12.696 54.2621 13.0597C54.5518 13.4176 54.7763 13.7557 54.9354 14.0739H55.0632V7.54545H58.157V25H55.1229V22.9375H54.9354C54.7763 23.2557 54.5462 23.5937 54.245 23.9517C53.9439 24.304 53.5462 24.6051 53.0518 24.8551C52.5575 25.1051 51.9354 25.2301 51.1854 25.2301ZM52.0462 22.6989C52.6996 22.6989 53.2564 22.5227 53.7166 22.1705C54.1768 21.8125 54.5263 21.3153 54.7649 20.679C55.0036 20.0426 55.1229 19.3011 55.1229 18.4545C55.1229 17.608 55.0036 16.8722 54.7649 16.2472C54.532 15.6222 54.1854 15.1364 53.7251 14.7898C53.2706 14.4432 52.7109 14.2699 52.0462 14.2699C51.3587 14.2699 50.7848 14.4489 50.3246 14.8068C49.8643 15.1648 49.5178 15.6591 49.2848 16.2898C49.0518 16.9205 48.9354 17.642 48.9354 18.4545C48.9354 19.2727 49.0518 20.0028 49.2848 20.6449C49.5234 21.2812 49.8729 21.7841 50.3331 22.1534C50.799 22.517 51.37 22.6989 52.0462 22.6989ZM73.9347 11.9091V14.2955H66.4091V11.9091H73.9347ZM68.267 8.77273H71.3523V21.0625C71.3523 21.4773 71.4148 21.7955 71.5398 22.017C71.6705 22.233 71.8409 22.3807 72.0511 22.4602C72.2614 22.5398 72.4943 22.5795 72.75 22.5795C72.9432 22.5795 73.1193 22.5653 73.2784 22.5369C73.4432 22.5085 73.5682 22.483 73.6534 22.4602L74.1733 24.8722C74.0085 24.929 73.7727 24.9915 73.4659 25.0597C73.1648 25.1278 72.7955 25.1676 72.358 25.179C71.5852 25.2017 70.8892 25.0852 70.2699 24.8295C69.6506 24.5682 69.1591 24.1648 68.7955 23.6193C68.4375 23.0739 68.2614 22.392 68.267 21.5739V8.77273ZM79.8814 17.3295V25H76.7962V7.54545H79.8132V14.1335H79.9666C80.2734 13.3949 80.7479 12.8125 81.3899 12.3864C82.0376 11.9545 82.8615 11.7386 83.8615 11.7386C84.7706 11.7386 85.5632 11.929 86.2393 12.3097C86.9155 12.6903 87.4382 13.2472 87.8075 13.9801C88.1825 14.7131 88.37 15.608 88.37 16.6648V25H85.2848V17.142C85.2848 16.2614 85.0575 15.5767 84.603 15.0881C84.1541 14.5937 83.5234 14.3466 82.7109 14.3466C82.1655 14.3466 81.6768 14.4659 81.245 14.7045C80.8189 14.9375 80.4837 15.2756 80.2393 15.7188C80.0007 16.1619 79.8814 16.6989 79.8814 17.3295ZM97.3104 25.2557C95.9979 25.2557 94.8643 24.983 93.9098 24.4375C92.9609 23.8864 92.2308 23.108 91.7195 22.1023C91.2081 21.0909 90.9524 19.9006 90.9524 18.5312C90.9524 17.1847 91.2081 16.0028 91.7195 14.9858C92.2365 13.9631 92.9581 13.1676 93.8842 12.5994C94.8104 12.0256 95.8984 11.7386 97.1484 11.7386C97.9553 11.7386 98.7166 11.8693 99.4325 12.1307C100.154 12.3864 100.79 12.7841 101.342 13.3239C101.898 13.8636 102.336 14.5511 102.654 15.3864C102.972 16.2159 103.131 17.2045 103.131 18.3523V19.2983H92.4013V17.2188H100.174C100.168 16.6278 100.04 16.1023 99.7905 15.642C99.5405 15.1761 99.1911 14.8097 98.7422 14.5426C98.299 14.2756 97.782 14.142 97.1911 14.142C96.5604 14.142 96.0064 14.2955 95.5291 14.6023C95.0518 14.9034 94.6797 15.3011 94.4126 15.7955C94.1513 16.2841 94.0178 16.821 94.0121 17.4062V19.2216C94.0121 19.983 94.1513 20.6364 94.4297 21.1818C94.7081 21.7216 95.0973 22.1364 95.5973 22.4261C96.0973 22.7102 96.6825 22.8523 97.353 22.8523C97.8018 22.8523 98.2081 22.7898 98.5717 22.6648C98.9354 22.5341 99.2507 22.3438 99.5178 22.0938C99.7848 21.8438 99.9865 21.5341 100.123 21.1648L103.004 21.4886C102.822 22.25 102.475 22.9148 101.964 23.483C101.458 24.0455 100.81 24.483 100.021 24.7955C99.2308 25.1023 98.3274 25.2557 97.3104 25.2557ZM111.831 25V7.54545H118.376C119.717 7.54545 120.842 7.77841 121.751 8.24432C122.666 8.71023 123.357 9.36364 123.822 10.2045C124.294 11.0398 124.53 12.0142 124.53 13.1278C124.53 14.2472 124.291 15.2187 123.814 16.0426C123.342 16.8608 122.646 17.4943 121.726 17.9432C120.805 18.3864 119.675 18.608 118.334 18.608H113.672V15.983H117.908C118.692 15.983 119.334 15.875 119.834 15.6591C120.334 15.4375 120.703 15.1165 120.942 14.696C121.186 14.2699 121.308 13.7472 121.308 13.1278C121.308 12.5085 121.186 11.9801 120.942 11.5426C120.697 11.0994 120.325 10.7642 119.825 10.5369C119.325 10.304 118.68 10.1875 117.891 10.1875H114.993V25H111.831ZM120.848 17.0909L125.169 25H121.641L117.396 17.0909H120.848ZM127.304 25V11.9091H130.389V25H127.304ZM128.855 10.0511C128.366 10.0511 127.946 9.8892 127.594 9.56534C127.241 9.23579 127.065 8.84091 127.065 8.38068C127.065 7.91477 127.241 7.51989 127.594 7.19602C127.946 6.86648 128.366 6.7017 128.855 6.7017C129.349 6.7017 129.77 6.86648 130.116 7.19602C130.469 7.51989 130.645 7.91477 130.645 8.38068C130.645 8.84091 130.469 9.23579 130.116 9.56534C129.77 9.8892 129.349 10.0511 128.855 10.0511ZM139.255 30.1818C138.147 30.1818 137.195 30.0313 136.4 29.7301C135.604 29.4347 134.965 29.0369 134.482 28.5369C133.999 28.0369 133.664 27.483 133.477 26.875L136.255 26.2017C136.38 26.4574 136.562 26.7102 136.8 26.9602C137.039 27.2159 137.36 27.4261 137.763 27.5909C138.173 27.7614 138.687 27.8466 139.306 27.8466C140.181 27.8466 140.906 27.6335 141.479 27.2074C142.053 26.7869 142.34 26.0938 142.34 25.1278V22.6477H142.187C142.028 22.9659 141.795 23.2926 141.488 23.6278C141.187 23.9631 140.786 24.2443 140.286 24.4716C139.792 24.6989 139.17 24.8125 138.42 24.8125C137.414 24.8125 136.502 24.5767 135.684 24.1051C134.871 23.6278 134.224 22.9176 133.741 21.9744C133.263 21.0256 133.025 19.8381 133.025 18.4119C133.025 16.9744 133.263 15.7614 133.741 14.7727C134.224 13.7784 134.874 13.0256 135.692 12.5142C136.511 11.9972 137.423 11.7386 138.428 11.7386C139.195 11.7386 139.826 11.8693 140.32 12.1307C140.82 12.3864 141.218 12.696 141.513 13.0597C141.809 13.4176 142.033 13.7557 142.187 14.0739H142.357V11.9091H145.4V25.2131C145.4 26.3324 145.133 27.2585 144.599 27.9915C144.065 28.7244 143.335 29.2727 142.408 29.6364C141.482 30 140.431 30.1818 139.255 30.1818ZM139.281 22.392C139.934 22.392 140.491 22.233 140.951 21.9148C141.411 21.5966 141.761 21.1392 141.999 20.5426C142.238 19.946 142.357 19.2301 142.357 18.3949C142.357 17.571 142.238 16.8494 141.999 16.2301C141.766 15.6108 141.42 15.1307 140.96 14.7898C140.505 14.4432 139.945 14.2699 139.281 14.2699C138.593 14.2699 138.019 14.4489 137.559 14.8068C137.099 15.1648 136.752 15.6562 136.519 16.2812C136.286 16.9006 136.17 17.6051 136.17 18.3949C136.17 19.196 136.286 19.8977 136.519 20.5C136.758 21.0966 137.107 21.5625 137.567 21.8977C138.033 22.2273 138.604 22.392 139.281 22.392ZM151.647 17.3295V25H148.562V7.54545H151.579V14.1335H151.732C152.039 13.3949 152.513 12.8125 153.156 12.3864C153.803 11.9545 154.627 11.7386 155.627 11.7386C156.536 11.7386 157.329 11.929 158.005 12.3097C158.681 12.6903 159.204 13.2472 159.573 13.9801C159.948 14.7131 160.136 15.608 160.136 16.6648V25H157.05V17.142C157.05 16.2614 156.823 15.5767 156.369 15.0881C155.92 14.5937 155.289 14.3466 154.477 14.3466C153.931 14.3466 153.442 14.4659 153.011 14.7045C152.585 14.9375 152.249 15.2756 152.005 15.7188C151.766 16.1619 151.647 16.6989 151.647 17.3295ZM169.817 11.9091V14.2955H162.292V11.9091H169.817ZM164.15 8.77273H167.235V21.0625C167.235 21.4773 167.298 21.7955 167.423 22.017C167.553 22.233 167.724 22.3807 167.934 22.4602C168.144 22.5398 168.377 22.5795 168.633 22.5795C168.826 22.5795 169.002 22.5653 169.161 22.5369C169.326 22.5085 169.451 22.483 169.536 22.4602L170.056 24.8722C169.891 24.929 169.656 24.9915 169.349 25.0597C169.048 25.1278 168.678 25.1676 168.241 25.179C167.468 25.2017 166.772 25.0852 166.153 24.8295C165.533 24.5682 165.042 24.1648 164.678 23.6193C164.32 23.0739 164.144 22.392 164.15 21.5739V8.77273ZM178.487 25V7.54545H185.033C186.374 7.54545 187.499 7.79545 188.408 8.29545C189.322 8.79545 190.013 9.48295 190.479 10.358C190.95 11.2273 191.186 12.2159 191.186 13.3239C191.186 14.4432 190.95 15.4375 190.479 16.3068C190.007 17.1761 189.311 17.8608 188.391 18.3608C187.47 18.8551 186.337 19.1023 184.99 19.1023H180.652V16.5028H184.564C185.348 16.5028 185.99 16.3665 186.49 16.0938C186.99 15.821 187.359 15.446 187.598 14.9688C187.842 14.4915 187.964 13.9432 187.964 13.3239C187.964 12.7045 187.842 12.1591 187.598 11.6875C187.359 11.2159 186.987 10.8494 186.482 10.5881C185.982 10.321 185.337 10.1875 184.547 10.1875H181.649V25H178.487ZM199.404 25.2557C198.092 25.2557 196.958 24.983 196.004 24.4375C195.055 23.8864 194.325 23.108 193.813 22.1023C193.302 21.0909 193.046 19.9006 193.046 18.5312C193.046 17.1847 193.302 16.0028 193.813 14.9858C194.33 13.9631 195.052 13.1676 195.978 12.5994C196.904 12.0256 197.992 11.7386 199.242 11.7386C200.049 11.7386 200.81 11.8693 201.526 12.1307C202.248 12.3864 202.884 12.7841 203.435 13.3239C203.992 13.8636 204.43 14.5511 204.748 15.3864C205.066 16.2159 205.225 17.2045 205.225 18.3523V19.2983H194.495V17.2188H202.268C202.262 16.6278 202.134 16.1023 201.884 15.642C201.634 15.1761 201.285 14.8097 200.836 14.5426C200.393 14.2756 199.876 14.142 199.285 14.142C198.654 14.142 198.1 14.2955 197.623 14.6023C197.146 14.9034 196.773 15.3011 196.506 15.7955C196.245 16.2841 196.112 16.821 196.106 17.4062V19.2216C196.106 19.983 196.245 20.6364 196.523 21.1818C196.802 21.7216 197.191 22.1364 197.691 22.4261C198.191 22.7102 198.776 22.8523 199.447 22.8523C199.896 22.8523 200.302 22.7898 200.665 22.6648C201.029 22.5341 201.344 22.3438 201.612 22.0938C201.879 21.8438 202.08 21.5341 202.217 21.1648L205.097 21.4886C204.915 22.25 204.569 22.9148 204.058 23.483C203.552 24.0455 202.904 24.483 202.114 24.7955C201.325 25.1023 200.421 25.2557 199.404 25.2557ZM213.545 25.2557C212.267 25.2557 211.159 24.9744 210.222 24.4119C209.284 23.8494 208.557 23.0625 208.04 22.0511C207.528 21.0398 207.273 19.858 207.273 18.5057C207.273 17.1534 207.528 15.9687 208.04 14.9517C208.557 13.9347 209.284 13.1449 210.222 12.5824C211.159 12.0199 212.267 11.7386 213.545 11.7386C214.824 11.7386 215.932 12.0199 216.869 12.5824C217.807 13.1449 218.531 13.9347 219.043 14.9517C219.56 15.9687 219.818 17.1534 219.818 18.5057C219.818 19.858 219.56 21.0398 219.043 22.0511C218.531 23.0625 217.807 23.8494 216.869 24.4119C215.932 24.9744 214.824 25.2557 213.545 25.2557ZM213.562 22.7841C214.256 22.7841 214.835 22.5937 215.301 22.2131C215.767 21.8267 216.114 21.3097 216.341 20.6619C216.574 20.0142 216.69 19.2926 216.69 18.4972C216.69 17.696 216.574 16.9716 216.341 16.3239C216.114 15.6705 215.767 15.1506 215.301 14.7642C214.835 14.3778 214.256 14.1847 213.562 14.1847C212.852 14.1847 212.261 14.3778 211.79 14.7642C211.324 15.1506 210.974 15.6705 210.741 16.3239C210.514 16.9716 210.401 17.696 210.401 18.4972C210.401 19.2926 210.514 20.0142 210.741 20.6619C210.974 21.3097 211.324 21.8267 211.79 22.2131C212.261 22.5937 212.852 22.7841 213.562 22.7841ZM222.437 29.9091V11.9091H225.471V14.0739H225.65C225.809 13.7557 226.033 13.4176 226.323 13.0597C226.613 12.696 227.005 12.3864 227.499 12.1307C227.994 11.8693 228.624 11.7386 229.391 11.7386C230.403 11.7386 231.315 11.9972 232.127 12.5142C232.945 13.0256 233.593 13.7841 234.07 14.7898C234.553 15.7898 234.795 17.017 234.795 18.4716C234.795 19.9091 234.559 21.1307 234.087 22.1364C233.616 23.142 232.974 23.9091 232.161 24.4375C231.349 24.9659 230.428 25.2301 229.4 25.2301C228.65 25.2301 228.028 25.1051 227.533 24.8551C227.039 24.6051 226.641 24.304 226.34 23.9517C226.045 23.5937 225.815 23.2557 225.65 22.9375H225.522V29.9091H222.437ZM225.462 18.4545C225.462 19.3011 225.582 20.0426 225.82 20.679C226.065 21.3153 226.414 21.8125 226.869 22.1705C227.329 22.5227 227.886 22.6989 228.539 22.6989C229.221 22.6989 229.792 22.517 230.252 22.1534C230.712 21.7841 231.059 21.2812 231.292 20.6449C231.531 20.0028 231.65 19.2727 231.65 18.4545C231.65 17.642 231.533 16.9205 231.3 16.2898C231.067 15.6591 230.721 15.1648 230.261 14.8068C229.8 14.4489 229.227 14.2699 228.539 14.2699C227.88 14.2699 227.32 14.4432 226.86 14.7898C226.4 15.1364 226.05 15.6222 225.812 16.2472C225.579 16.8722 225.462 17.608 225.462 18.4545ZM240.522 7.54545V25H237.437V7.54545H240.522ZM249.49 25.2557C248.178 25.2557 247.044 24.983 246.089 24.4375C245.141 23.8864 244.411 23.108 243.899 22.1023C243.388 21.0909 243.132 19.9006 243.132 18.5312C243.132 17.1847 243.388 16.0028 243.899 14.9858C244.416 13.9631 245.138 13.1676 246.064 12.5994C246.99 12.0256 248.078 11.7386 249.328 11.7386C250.135 11.7386 250.896 11.8693 251.612 12.1307C252.334 12.3864 252.97 12.7841 253.521 13.3239C254.078 13.8636 254.516 14.5511 254.834 15.3864C255.152 16.2159 255.311 17.2045 255.311 18.3523V19.2983H244.581V17.2188H252.354C252.348 16.6278 252.22 16.1023 251.97 15.642C251.72 15.1761 251.371 14.8097 250.922 14.5426C250.479 14.2756 249.962 14.142 249.371 14.142C248.74 14.142 248.186 14.2955 247.709 14.6023C247.232 14.9034 246.859 15.3011 246.592 15.7955C246.331 16.2841 246.197 16.821 246.192 17.4062V19.2216C246.192 19.983 246.331 20.6364 246.609 21.1818C246.888 21.7216 247.277 22.1364 247.777 22.4261C248.277 22.7102 248.862 22.8523 249.533 22.8523C249.982 22.8523 250.388 22.7898 250.751 22.6648C251.115 22.5341 251.43 22.3438 251.697 22.0938C251.964 21.8438 252.166 21.5341 252.303 21.1648L255.183 21.4886C255.001 22.25 254.655 22.9148 254.143 23.483C253.638 24.0455 252.99 24.483 252.2 24.7955C251.411 25.1023 250.507 25.2557 249.49 25.2557ZM269.09 25.2557C267.897 25.2557 266.871 25.0398 266.013 24.608C265.156 24.1761 264.494 23.5938 264.028 22.8608C263.567 22.1222 263.337 21.2898 263.337 20.3636C263.337 19.6648 263.479 19.0455 263.763 18.5057C264.053 17.9659 264.451 17.4659 264.957 17.0057C265.468 16.5455 266.059 16.0881 266.729 15.6335L269.823 13.5284C270.278 13.233 270.621 12.9205 270.854 12.5909C271.093 12.2614 271.212 11.875 271.212 11.4318C271.212 11.0568 271.053 10.7017 270.735 10.3665C270.423 10.0312 269.991 9.86364 269.44 9.86364C269.07 9.86364 268.744 9.9517 268.46 10.1278C268.181 10.2983 267.962 10.5227 267.803 10.8011C267.65 11.0795 267.573 11.375 267.573 11.6875C267.573 12.0682 267.678 12.4545 267.888 12.8466C268.104 13.2386 268.383 13.6449 268.724 14.0653C269.07 14.4858 269.44 14.9318 269.832 15.4034L278.022 25H274.681L267.88 17.2102C267.374 16.6193 266.886 16.0369 266.414 15.4631C265.948 14.8892 265.565 14.2926 265.263 13.6733C264.968 13.0483 264.82 12.3722 264.82 11.6449C264.82 10.821 265.011 10.0852 265.391 9.4375C265.772 8.78409 266.303 8.26989 266.985 7.89489C267.673 7.51989 268.477 7.33239 269.397 7.33239C270.317 7.33239 271.107 7.5142 271.766 7.87784C272.425 8.24148 272.934 8.72443 273.292 9.3267C273.65 9.92898 273.829 10.5852 273.829 11.2955C273.829 12.1193 273.624 12.858 273.215 13.5114C272.806 14.1591 272.238 14.7472 271.511 15.2756L267.982 17.858C267.403 18.2784 266.988 18.7045 266.738 19.1364C266.488 19.5625 266.363 19.9261 266.363 20.2273C266.363 20.6875 266.479 21.1051 266.712 21.4801C266.945 21.8551 267.272 22.1562 267.692 22.3835C268.119 22.6051 268.616 22.7159 269.184 22.7159C269.809 22.7159 270.425 22.5767 271.033 22.2983C271.641 22.0142 272.195 21.6108 272.695 21.0881C273.195 20.5653 273.593 19.9403 273.888 19.2131C274.184 18.4801 274.332 17.6676 274.332 16.7756H276.982C276.982 17.8778 276.86 18.8381 276.616 19.6562C276.371 20.4688 276.056 21.1562 275.67 21.7188C275.283 22.2756 274.874 22.7216 274.442 23.0568C274.306 23.1534 274.175 23.25 274.05 23.3466C273.925 23.4432 273.795 23.5398 273.658 23.6364C273.045 24.1932 272.326 24.6023 271.502 24.8636C270.684 25.125 269.88 25.2557 269.09 25.2557ZM54.4783 45.4347H51.2908C51.1999 44.9119 51.0323 44.4489 50.788 44.0455C50.5437 43.6364 50.2397 43.2898 49.8761 43.0057C49.5124 42.7216 49.0977 42.5085 48.6317 42.3665C48.1715 42.2188 47.6744 42.1449 47.1403 42.1449C46.1914 42.1449 45.3505 42.3835 44.6175 42.8608C43.8846 43.3324 43.3107 44.0256 42.896 44.9403C42.4812 45.8494 42.2738 46.9602 42.2738 48.2727C42.2738 49.608 42.4812 50.733 42.896 51.6477C43.3164 52.5568 43.8903 53.2443 44.6175 53.7102C45.3505 54.1705 46.1886 54.4006 47.1317 54.4006C47.6545 54.4006 48.1431 54.3324 48.5977 54.196C49.0579 54.054 49.4698 53.8466 49.8335 53.5739C50.2028 53.3011 50.5124 52.9659 50.7624 52.5682C51.0181 52.1705 51.1942 51.7159 51.2908 51.2045L54.4783 51.2216C54.359 52.0511 54.1005 52.8295 53.7028 53.5568C53.3107 54.2841 52.7965 54.9261 52.1602 55.483C51.5238 56.0341 50.7795 56.4659 49.9272 56.7784C49.0749 57.0852 48.1289 57.2386 47.0891 57.2386C45.555 57.2386 44.1857 56.8835 42.9812 56.1733C41.7766 55.4631 40.8278 54.4375 40.1346 53.0966C39.4414 51.7557 39.0948 50.1477 39.0948 48.2727C39.0948 46.392 39.4442 44.7841 40.1431 43.4489C40.842 42.108 41.7937 41.0824 42.9982 40.3722C44.2028 39.6619 45.5664 39.3068 47.0891 39.3068C48.0607 39.3068 48.9641 39.4432 49.7994 39.7159C50.6346 39.9886 51.3789 40.3892 52.0323 40.9176C52.6857 41.4403 53.2227 42.0824 53.6431 42.8438C54.0692 43.5994 54.3477 44.4631 54.4783 45.4347ZM62.9478 57.2557C61.6694 57.2557 60.5614 56.9744 59.6239 56.4119C58.6864 55.8494 57.9592 55.0625 57.4421 54.0511C56.9308 53.0398 56.6751 51.858 56.6751 50.5057C56.6751 49.1534 56.9308 47.9687 57.4421 46.9517C57.9592 45.9347 58.6864 45.1449 59.6239 44.5824C60.5614 44.0199 61.6694 43.7386 62.9478 43.7386C64.2262 43.7386 65.3342 44.0199 66.2717 44.5824C67.2092 45.1449 67.9336 45.9347 68.445 46.9517C68.962 47.9687 69.2205 49.1534 69.2205 50.5057C69.2205 51.858 68.962 53.0398 68.445 54.0511C67.9336 55.0625 67.2092 55.8494 66.2717 56.4119C65.3342 56.9744 64.2262 57.2557 62.9478 57.2557ZM62.9648 54.7841C63.658 54.7841 64.2376 54.5937 64.7035 54.2131C65.1694 53.8267 65.516 53.3097 65.7433 52.6619C65.9762 52.0142 66.0927 51.2926 66.0927 50.4972C66.0927 49.696 65.9762 48.9716 65.7433 48.3239C65.516 47.6705 65.1694 47.1506 64.7035 46.7642C64.2376 46.3778 63.658 46.1847 62.9648 46.1847C62.2546 46.1847 61.6637 46.3778 61.1921 46.7642C60.7262 47.1506 60.3768 47.6705 60.1438 48.3239C59.9165 48.9716 59.8029 49.696 59.8029 50.4972C59.8029 51.2926 59.9165 52.0142 60.1438 52.6619C60.3768 53.3097 60.7262 53.8267 61.1921 54.2131C61.6637 54.5937 62.2546 54.7841 62.9648 54.7841ZM74.9244 49.3295V57H71.8391V43.9091H74.788V46.1335H74.9414C75.2425 45.4006 75.7227 44.8182 76.3817 44.3864C77.0465 43.9545 77.8675 43.7386 78.8448 43.7386C79.7482 43.7386 80.5352 43.9318 81.2056 44.3182C81.8817 44.7045 82.4045 45.2642 82.7738 45.9972C83.1488 46.7301 83.3335 47.6193 83.3278 48.6648V57H80.2425V49.142C80.2425 48.267 80.0153 47.5824 79.5607 47.0881C79.1119 46.5937 78.4897 46.3466 77.6942 46.3466C77.1545 46.3466 76.6744 46.4659 76.2539 46.7045C75.8391 46.9375 75.5124 47.2756 75.2738 47.7188C75.0408 48.1619 74.9244 48.6989 74.9244 49.3295ZM89.5494 49.3295V57H86.4641V43.9091H89.413V46.1335H89.5664C89.8675 45.4006 90.3477 44.8182 91.0067 44.3864C91.6715 43.9545 92.4925 43.7386 93.4698 43.7386C94.3732 43.7386 95.1602 43.9318 95.8306 44.3182C96.5067 44.7045 97.0295 45.2642 97.3988 45.9972C97.7738 46.7301 97.9585 47.6193 97.9528 48.6648V57H94.8675V49.142C94.8675 48.267 94.6403 47.5824 94.1857 47.0881C93.7369 46.5937 93.1147 46.3466 92.3192 46.3466C91.7795 46.3466 91.2994 46.4659 90.8789 46.7045C90.4641 46.9375 90.1374 47.2756 89.8988 47.7188C89.6658 48.1619 89.5494 48.6989 89.5494 49.3295ZM106.885 57.2557C105.572 57.2557 104.439 56.983 103.484 56.4375C102.535 55.8864 101.805 55.108 101.294 54.1023C100.782 53.0909 100.527 51.9006 100.527 50.5312C100.527 49.1847 100.782 48.0028 101.294 46.9858C101.811 45.9631 102.532 45.1676 103.458 44.5994C104.385 44.0256 105.473 43.7386 106.723 43.7386C107.529 43.7386 108.291 43.8693 109.007 44.1307C109.728 44.3864 110.365 44.7841 110.916 45.3239C111.473 45.8636 111.91 46.5511 112.228 47.3864C112.547 48.2159 112.706 49.2045 112.706 50.3523V51.2983H101.975V49.2188H109.748C109.743 48.6278 109.615 48.1023 109.365 47.642C109.115 47.1761 108.765 46.8097 108.316 46.5426C107.873 46.2756 107.356 46.142 106.765 46.142C106.135 46.142 105.581 46.2955 105.103 46.6023C104.626 46.9034 104.254 47.3011 103.987 47.7955C103.725 48.2841 103.592 48.821 103.586 49.4062V51.2216C103.586 51.983 103.725 52.6364 104.004 53.1818C104.282 53.7216 104.672 54.1364 105.172 54.4261C105.672 54.7102 106.257 54.8523 106.927 54.8523C107.376 54.8523 107.782 54.7898 108.146 54.6648C108.51 54.5341 108.825 54.3438 109.092 54.0938C109.359 53.8438 109.561 53.5341 109.697 53.1648L112.578 53.4886C112.396 54.25 112.049 54.9148 111.538 55.483C111.032 56.0455 110.385 56.483 109.595 56.7955C108.805 57.1023 107.902 57.2557 106.885 57.2557ZM121.026 57.2557C119.719 57.2557 118.597 56.9688 117.659 56.3949C116.728 55.821 116.009 55.0284 115.503 54.017C115.003 53 114.753 51.8295 114.753 50.5057C114.753 49.1761 115.009 48.0028 115.52 46.9858C116.032 45.9631 116.753 45.1676 117.685 44.5994C118.623 44.0256 119.73 43.7386 121.009 43.7386C122.071 43.7386 123.012 43.9347 123.83 44.3267C124.654 44.7131 125.31 45.2614 125.799 45.9716C126.287 46.6761 126.566 47.5 126.634 48.4432H123.685C123.566 47.8125 123.282 47.2869 122.833 46.8665C122.39 46.4403 121.796 46.2273 121.051 46.2273C120.421 46.2273 119.867 46.3977 119.39 46.7386C118.912 47.0739 118.54 47.5568 118.273 48.1875C118.012 48.8182 117.881 49.5739 117.881 50.4545C117.881 51.3466 118.012 52.1136 118.273 52.7557C118.534 53.392 118.901 53.8835 119.373 54.2301C119.85 54.571 120.409 54.7415 121.051 54.7415C121.506 54.7415 121.912 54.6562 122.27 54.4858C122.634 54.3097 122.938 54.0568 123.182 53.7273C123.426 53.3977 123.594 52.9972 123.685 52.5256H126.634C126.56 53.4517 126.287 54.2727 125.816 54.9886C125.344 55.6989 124.702 56.2557 123.89 56.6591C123.077 57.0568 122.123 57.2557 121.026 57.2557ZM135.704 43.9091V46.2955H128.179V43.9091H135.704ZM130.037 40.7727H133.122V53.0625C133.122 53.4773 133.184 53.7955 133.309 54.017C133.44 54.233 133.61 54.3807 133.821 54.4602C134.031 54.5398 134.264 54.5795 134.52 54.5795C134.713 54.5795 134.889 54.5653 135.048 54.5369C135.213 54.5085 135.338 54.483 135.423 54.4602L135.943 56.8722C135.778 56.929 135.542 56.9915 135.235 57.0597C134.934 57.1278 134.565 57.1676 134.127 57.179C133.355 57.2017 132.659 57.0852 132.039 56.8295C131.42 56.5682 130.929 56.1648 130.565 55.6193C130.207 55.0739 130.031 54.392 130.037 53.5739V40.7727Z" fill="#101828"/>
<path d="M147.536 39.5455V57H144.374V39.5455H147.536ZM153.909 49.3295V57H150.824V43.9091H153.772V46.1335H153.926C154.227 45.4006 154.707 44.8182 155.366 44.3864C156.031 43.9545 156.852 43.7386 157.829 43.7386C158.733 43.7386 159.52 43.9318 160.19 44.3182C160.866 44.7045 161.389 45.2642 161.758 45.9972C162.133 46.7301 162.318 47.6193 162.312 48.6648V57H159.227V49.142C159.227 48.267 159 47.5824 158.545 47.0881C158.096 46.5937 157.474 46.3466 156.679 46.3466C156.139 46.3466 155.659 46.4659 155.238 46.7045C154.824 46.9375 154.497 47.2756 154.258 47.7188C154.025 48.1619 153.909 48.6989 153.909 49.3295ZM175.795 47.3693L172.983 47.6761C172.903 47.392 172.764 47.125 172.565 46.875C172.372 46.625 172.11 46.4233 171.781 46.2699C171.451 46.1165 171.048 46.0398 170.571 46.0398C169.929 46.0398 169.389 46.179 168.951 46.4574C168.52 46.7358 168.306 47.0966 168.312 47.5398C168.306 47.9205 168.446 48.2301 168.73 48.4688C169.02 48.7074 169.497 48.9034 170.162 49.0568L172.395 49.5341C173.633 49.8011 174.554 50.2244 175.156 50.804C175.764 51.3835 176.071 52.142 176.076 53.0795C176.071 53.9034 175.829 54.6307 175.352 55.2614C174.88 55.8864 174.224 56.375 173.383 56.7273C172.542 57.0795 171.576 57.2557 170.485 57.2557C168.883 57.2557 167.593 56.9205 166.616 56.25C165.639 55.5739 165.056 54.6335 164.869 53.429L167.877 53.1392C168.014 53.7301 168.304 54.1761 168.747 54.4773C169.19 54.7784 169.767 54.929 170.477 54.929C171.21 54.929 171.798 54.7784 172.241 54.4773C172.69 54.1761 172.914 53.804 172.914 53.3608C172.914 52.9858 172.77 52.6761 172.48 52.4318C172.196 52.1875 171.752 52 171.15 51.8693L168.917 51.4006C167.662 51.1392 166.733 50.6989 166.13 50.0795C165.528 49.4545 165.23 48.6648 165.235 47.7102C165.23 46.9034 165.449 46.2045 165.892 45.6136C166.341 45.017 166.963 44.5568 167.758 44.233C168.559 43.9034 169.483 43.7386 170.528 43.7386C172.062 43.7386 173.27 44.0653 174.15 44.7188C175.037 45.3722 175.585 46.2557 175.795 47.3693ZM185.157 43.9091V46.2955H177.632V43.9091H185.157ZM179.49 40.7727H182.575V53.0625C182.575 53.4773 182.637 53.7955 182.762 54.017C182.893 54.233 183.064 54.3807 183.274 54.4602C183.484 54.5398 183.717 54.5795 183.973 54.5795C184.166 54.5795 184.342 54.5653 184.501 54.5369C184.666 54.5085 184.791 54.483 184.876 54.4602L185.396 56.8722C185.231 56.929 184.995 56.9915 184.689 57.0597C184.387 57.1278 184.018 57.1676 183.581 57.179C182.808 57.2017 182.112 57.0852 181.493 56.8295C180.873 56.5682 180.382 56.1648 180.018 55.6193C179.66 55.0739 179.484 54.392 179.49 53.5739V40.7727ZM191.505 57.2642C190.675 57.2642 189.928 57.1165 189.263 56.821C188.604 56.5199 188.081 56.0767 187.695 55.4915C187.314 54.9062 187.124 54.1847 187.124 53.3267C187.124 52.5881 187.26 51.9773 187.533 51.4943C187.806 51.0114 188.178 50.625 188.65 50.3352C189.121 50.0455 189.652 49.8267 190.243 49.679C190.84 49.5256 191.456 49.4148 192.093 49.3466C192.86 49.267 193.482 49.196 193.959 49.1335C194.436 49.0653 194.783 48.9631 194.999 48.8267C195.221 48.6847 195.331 48.4659 195.331 48.1705V48.1193C195.331 47.4773 195.141 46.9801 194.76 46.6278C194.38 46.2756 193.831 46.0994 193.115 46.0994C192.36 46.0994 191.76 46.2642 191.317 46.5938C190.88 46.9233 190.584 47.3125 190.431 47.7614L187.55 47.3523C187.777 46.5568 188.152 45.892 188.675 45.358C189.198 44.8182 189.837 44.4148 190.593 44.1477C191.348 43.875 192.184 43.7386 193.098 43.7386C193.729 43.7386 194.357 43.8125 194.982 43.9602C195.607 44.108 196.178 44.3523 196.695 44.6932C197.212 45.0284 197.627 45.4858 197.939 46.0653C198.257 46.6449 198.417 47.3693 198.417 48.2386V57H195.451V55.2017H195.348C195.161 55.5653 194.897 55.9062 194.556 56.2244C194.221 56.5369 193.797 56.7898 193.286 56.983C192.78 57.1705 192.186 57.2642 191.505 57.2642ZM192.306 54.9972C192.925 54.9972 193.462 54.875 193.917 54.6307C194.371 54.3807 194.721 54.0511 194.965 53.642C195.215 53.233 195.34 52.7869 195.34 52.304V50.7614C195.243 50.8409 195.078 50.9148 194.846 50.983C194.618 51.0511 194.363 51.1108 194.078 51.1619C193.794 51.2131 193.513 51.2585 193.235 51.2983C192.956 51.3381 192.715 51.3722 192.51 51.4006C192.05 51.4631 191.638 51.5653 191.275 51.7074C190.911 51.8494 190.624 52.0483 190.414 52.304C190.203 52.554 190.098 52.8778 190.098 53.2756C190.098 53.8438 190.306 54.2727 190.721 54.5625C191.135 54.8523 191.664 54.9972 192.306 54.9972ZM204.604 49.3295V57H201.519V43.9091H204.468V46.1335H204.621C204.922 45.4006 205.402 44.8182 206.061 44.3864C206.726 43.9545 207.547 43.7386 208.525 43.7386C209.428 43.7386 210.215 43.9318 210.885 44.3182C211.561 44.7045 212.084 45.2642 212.453 45.9972C212.828 46.7301 213.013 47.6193 213.007 48.6648V57H209.922V49.142C209.922 48.267 209.695 47.5824 209.24 47.0881C208.792 46.5937 208.169 46.3466 207.374 46.3466C206.834 46.3466 206.354 46.4659 205.934 46.7045C205.519 46.9375 205.192 47.2756 204.953 47.7188C204.721 48.1619 204.604 48.6989 204.604 49.3295ZM222.681 43.9091V46.2955H215.155V43.9091H222.681ZM217.013 40.7727H220.098V53.0625C220.098 53.4773 220.161 53.7955 220.286 54.017C220.417 54.233 220.587 54.3807 220.797 54.4602C221.007 54.5398 221.24 54.5795 221.496 54.5795C221.689 54.5795 221.865 54.5653 222.025 54.5369C222.189 54.5085 222.314 54.483 222.4 54.4602L222.919 56.8722C222.755 56.929 222.519 56.9915 222.212 57.0597C221.911 57.1278 221.542 57.1676 221.104 57.179C220.331 57.2017 219.635 57.0852 219.016 56.8295C218.397 56.5682 217.905 56.1648 217.542 55.6193C217.184 55.0739 217.007 54.392 217.013 53.5739V40.7727ZM228.627 39.5455V57H225.542V39.5455H228.627ZM233.718 61.9091C233.297 61.9091 232.908 61.875 232.55 61.8068C232.198 61.7443 231.917 61.6705 231.706 61.5852L232.422 59.1818C232.871 59.3125 233.272 59.375 233.624 59.3693C233.976 59.3636 234.286 59.2528 234.553 59.0369C234.826 58.8267 235.056 58.4744 235.243 57.9801L235.507 57.2727L230.76 43.9091H234.033L237.05 53.7955H237.186L240.212 43.9091H243.493L238.252 58.5852C238.007 59.2784 237.684 59.8722 237.28 60.3665C236.877 60.8665 236.382 61.2472 235.797 61.5085C235.218 61.7756 234.525 61.9091 233.718 61.9091ZM246.708 57.1875C246.191 57.1875 245.748 57.0057 245.379 56.642C245.01 56.2784 244.828 55.8352 244.833 55.3125C244.828 54.8011 245.01 54.3636 245.379 54C245.748 53.6364 246.191 53.4545 246.708 53.4545C247.208 53.4545 247.643 53.6364 248.012 54C248.387 54.3636 248.578 54.8011 248.583 55.3125C248.578 55.6591 248.487 55.9744 248.311 56.2585C248.14 56.5426 247.913 56.7699 247.629 56.9403C247.35 57.1051 247.044 57.1875 246.708 57.1875Z" fill="#0E73A9"/>
<path d="M147.048 70.7611C194.443 61.1872 245.348 69.4664 252.721 69.3693" stroke="#0E73A9" stroke-width="3" stroke-linecap="round"/>
</svg>
