<?xml version="1.0" encoding="utf-8"?>
<!-- Generator: Adobe Illustrator 24.1.3, SVG Export Plug-In . SVG Version: 6.00 Build 0)  -->
<svg version="1.1" id="Layer_1" xmlns="http://www.w3.org/2000/svg" xmlns:xlink="http://www.w3.org/1999/xlink" x="0px" y="0px"
	 width="870px" height="115px" viewBox="0 0 870 115" style="enable-background:new 0 0 870 115;" xml:space="preserve">
<style type="text/css">
	.st0{fill:#414EA1;}
	.st1{fill:#ED1174;}
	.st2{fill:#FFFFFF;}
	.st3{fill:#D43F27;}
	.st4{fill:#05A44B;}
</style>
<g>
	<path class="st0" d="M855.2,113.9H422.6c-6,0-10.9-4.9-10.9-10.9V13c0-6,4.9-10.9,10.9-10.9h432.5c6,0,10.9,4.9,10.9,10.9v90
		C866.1,109,861.2,113.9,855.2,113.9z"/>
	
		<rect x="697.5" y="16.9" transform="matrix(0.7071 -0.7071 0.7071 0.7071 189.0939 505.9658)" class="st1" width="15.6" height="15.6"/>
	<path class="st2" d="M434.6,20.7h32.1c13.5,0,23.5,10.7,23.5,25.1c0,9.1-4.3,16.7-10.9,20.8l12.6,27.2h-13.2l-10.7-23
		c-0.7,0.1-1.4,0.1-2.1,0.1h-19.3v23h-12V20.7z M446.6,58.9h18.5c8,0,13.2-5.2,13.2-13.1c0-8-5.1-13.1-13.1-13.1h-18.6V58.9z"/>
	<path class="st2" d="M521,42c14.4,0,24.3,10.6,24.3,25.7c0,1.9-0.3,4.1-0.5,6.1H507c2,6.3,7.7,10.2,15.3,10.2
		c4.9,0,9.6-1.7,12.6-5.1l7.6,7.6c-4.9,5.4-12,8.3-20.3,8.3c-15.4,0-27-11.5-27-26.4S506.3,42,521,42z M506.8,64.5H534
		c-1-7.2-6.4-11.7-13.2-11.7C513.8,52.8,507.8,57.5,506.8,64.5z"/>
	<path class="st2" d="M551.8,68.4c0-14.6,11.9-26.4,26.4-26.4c7.5,0,14.3,3.2,19.1,8.2l-8.4,8.4c-2.6-2.8-6.5-4.7-10.7-4.7
		c-7.9,0-14.4,6.5-14.4,14.4s6.5,14.4,14.4,14.4c4.2,0,8-1.8,10.7-4.8l8.4,8.5c-4.8,5.1-11.6,8.2-19.1,8.2
		C563.7,94.9,551.8,83,551.8,68.4z"/>
	<path class="st2" d="M605.5,93.9V43h12v5.8c3.5-4.1,8.7-6.8,15.3-6.8v11.4c-0.4-0.1-0.9-0.1-1.3-0.1c-7.6,0-13.9,5.4-13.9,13.1
		v27.5H605.5z"/>
	<path class="st2" d="M652.5,43v28.1c0,8.4,4.5,12.5,10.9,12.5c6.9,0,12.3-5.2,12.3-13.1V43h12v50.8h-12v-5.5
		c-3.8,4-9.3,6.5-15.3,6.5c-11.8,0-19.9-8.3-19.9-21.3V43H652.5z"/>
	<rect x="699.5" y="43" class="st2" width="12" height="50.8"/>
	<path class="st2" d="M724.1,43c2.6,0,4.5-1.7,4.5-4.4v-9.3h12V43h12.9v12h-12.9v18.2c0,8,1.2,10.1,6.1,10.1c2.2,0,4.3-0.3,6.8-0.8
		v11.4c-2.3,0.6-5.7,1-8.4,1c-11.6,0-16.5-5.3-16.5-18.1V55h-9.4V43H724.1z"/>
	<path class="st2" d="M785.4,42c14.4,0,24.3,10.6,24.3,25.7c0,1.9-0.3,4.1-0.5,6.1h-37.8c2,6.3,7.7,10.2,15.3,10.2
		c4.9,0,9.6-1.7,12.6-5.1l7.6,7.6c-4.9,5.4-12,8.3-20.3,8.3c-15.4,0-27-11.5-27-26.4S770.7,42,785.4,42z M771.2,64.5h27.2
		c-1-7.2-6.4-11.7-13.2-11.7C778.2,52.8,772.2,57.5,771.2,64.5z"/>
	<path class="st2" d="M818.5,93.9V43h12v5.8c3.5-4.1,8.7-6.8,15.3-6.8v11.4c-0.4-0.1-0.9-0.1-1.3-0.1c-7.6,0-13.9,5.4-13.9,13.1
		v27.5H818.5z"/>
	<path class="st0" d="M199.7,43.7v30.5c0,3,0,5.5-0.2,7.5c-0.1,2-0.3,3.7-0.6,5.3c-0.3,1.6-0.7,3-1.1,4.2c-0.5,1.2-1.1,2.6-2,4
		c-1.3,2.2-3,4.1-5.1,5.8c-2.1,1.6-4.4,2.8-7,3.6c-2.6,0.8-5.4,1.2-8.5,1.2c-3.8,0-7.3-0.7-10.3-2.1V85c1.5,0.5,2.9,0.7,4.1,0.7
		c1.6,0,2.8-0.3,3.6-0.9s1.3-1.8,1.6-3.5s0.4-4.3,0.4-7.7v-30l0.6,0.2c4.4,1.7,8.5,2.5,12.3,2.5C192.1,46.4,196.2,45.4,199.7,43.7"
		/>
	<path class="st0" d="M261.3,57.9c-1.3-3.2-3.1-5.9-5.4-8.2c-2.3-2.3-5.1-4.1-8.3-5.3s-6.7-1.8-10.5-1.8c-4,0-7.7,0.6-11,1.8
		c-3.4,1.2-6.2,2.9-8.6,5c-2.4,2.2-4.3,4.8-5.6,7.8s-2,6.3-2,9.9c0,5.1,1.1,9.6,3.3,13.6s5.2,7,9.2,9.2s8.5,3.2,13.5,3.2
		c4.2,0,7.9-0.6,11.3-1.7c3.4-1.2,6.3-2.8,8.7-5c2.4-2.2,4.3-4.8,5.5-7.9c1.3-3.1,1.9-6.5,1.9-10.3C263.3,64.5,262.6,61,261.3,57.9
		 M242.4,73.5c-1.6,1.5-3.6,2.3-6.1,2.3c-2.2,0-4.1-0.8-5.7-2.5c-1.6-1.7-2.4-3.6-2.4-5.9c0-2.5,0.8-4.6,2.4-6.1
		c1.6-1.5,3.6-2.3,6.2-2.3c2.4,0,4.3,0.8,5.8,2.4c1.5,1.6,2.2,3.7,2.2,6.3C244.8,70,244,72,242.4,73.5"/>
	<path class="st0" d="M271.8,20.2v72.2h20.3c4.6,0,7.8,0,9.9-0.1s3.8-0.2,5.2-0.3c1.4-0.1,2.8-0.4,4.2-0.6c3.6-0.7,6.8-2.1,9.7-4.4
		c2.9-2.3,5.2-5.1,6.8-8.4c1.7-3.4,2.5-6.9,2.5-10.7c0-3.6-0.6-6.8-1.8-9.8c-1.2-3-2.9-5.6-5-7.8s-4.7-3.9-7.7-5.1
		c-3-1.2-6.2-1.9-9.7-1.9c-2.9,0-6,0.6-9.4,1.9v-25H271.8z M294.6,60.8c2.2-1.1,4.2-1.6,6-1.6c2.6,0,4.6,0.8,6,2.5
		c1.4,1.6,2.2,3.8,2.2,6.6c0,2.3-0.4,4.2-1.3,5.6c-0.8,1.3-2.2,2.3-4.1,2.9s-4.6,0.9-8,0.9h-0.7V60.8H294.6z"/>
	<path class="st0" d="M334.5,87.6l5.6-13.7c1.1,1.5,2.4,2.9,3.9,3.9c1.4,1.1,3,1.9,4.6,2.5c1.7,0.6,3.3,0.9,4.9,0.9
		c1.5,0,2.7-0.3,3.6-0.9s1.3-1.5,1.3-2.6c0-1.9-1.4-3.3-4.2-4.2l-5.8-1.7c-4-1.2-7-3.1-9.2-5.6c-2.1-2.5-3.2-5.5-3.2-9
		c0-2.9,1.1-5.6,3.3-8.1c2.2-2.5,4.9-4.1,8.4-5c3.7-1.1,8.1-1.6,13.3-1.6c3.8,0,7.5,0.3,11.2,1.1c3.6,0.7,6.9,1.8,9.8,3.1l-6,12.5
		c-1.8-1.7-3.8-3-5.7-3.9c-2-0.9-3.9-1.4-5.7-1.4c-1.2,0-2.3,0.3-3,0.8c-0.8,0.5-1.2,1.2-1.2,2.1c0,1.3,0.5,2.2,1.6,3
		c1.1,0.7,3.1,1.4,6.2,2.2c2.5,0.6,4.5,1.2,6.2,1.9c1.6,0.7,3,1.5,4.1,2.3c1.1,0.9,2.1,2,2.9,3.3c1.4,2.2,2.1,4.7,2.1,7.5
		c0,2.4-0.5,4.6-1.6,6.6c-1,2-2.5,3.7-4.5,5.1s-4.4,2.5-7.1,3.3s-5.8,1.1-9.1,1.1c-2.5,0-5.3-0.2-8.4-0.7c-3-0.4-6.1-1.1-9.3-1.9
		C340.1,89.6,337.2,88.7,334.5,87.6"/>
	<path class="st3" d="M57.2,77.6H58c3.5,0,6.1-0.3,8-0.9s3.3-1.6,4.1-2.9c0.8-1.4,1.2-3.2,1.2-5.6c0-2.7-0.7-4.9-2.1-6.6
		c-1.5-1.6-3.4-2.5-6-2.5c-1.8,0-3.8,0.5-6,1.6C57.2,60.7,57.2,77.6,57.2,77.6z M64.5,92.3l-30-22.4V20.2h25.1v24.9
		c3.4-1.3,6.5-1.9,9.4-1.9c3.4,0,6.7,0.6,9.7,1.9c3,1.2,5.6,2.9,7.7,5.2c2.1,2.2,3.8,4.8,5,7.8s1.8,6.3,1.8,9.8
		c0,3.8-0.8,7.3-2.5,10.7c-1.6,3.4-3.9,6.2-6.8,8.4c-2.9,2.3-6.1,3.7-9.7,4.4c-1.4,0.3-2.7,0.5-4.2,0.6c-1.4,0.2-3.2,0.3-5.2,0.3
		H64.5z M34.5,74.6l23.7,17.7c-1,0-2.1,0-3.3,0H34.5V74.6z"/>
	<path class="st4" d="M135.9,61.3c-1.9-1.3-3.9-1.9-6.1-1.9c-2.3,0-4.2,0.8-5.8,2.5c-1.6,1.7-2.3,3.7-2.3,6.2s0.4,4.5,1.1,5.8
		c0.8,1.3,2.1,2.3,4,2.8c1.9,0.6,4.6,0.9,8,0.9h1.1V61.3z M133.5,20.7l25.3,18.9v52.7l-19.7,0.1c-3.1,0-6.1,0-9,0
		c-2.8-0.1-5-0.2-6.5-0.4c-1.5-0.2-2.8-0.4-4-0.7c-2.8-0.5-5.4-1.4-7.6-2.8c-3.8-2.2-6.8-5.1-8.9-8.7c-2.1-3.7-3.2-7.8-3.2-12.3
		s1.1-8.7,3.3-12.6c2.2-3.9,5.2-6.9,8.9-8.9c3.5-1.9,7.8-2.8,12.8-2.8c3.2,0,6,0.6,8.5,1.7L133.5,20.7L133.5,20.7z M158.8,34.8
		l-19.6-14.7h19.6V34.8z"/>
	<circle class="st0" cx="186.9" cy="27.7" r="13.4"/>
</g>
</svg>
