<svg width="27" height="30" viewBox="0 0 27 30" fill="none" xmlns="http://www.w3.org/2000/svg">
<g id="content">
<path id="Vector 4043" d="M1.5 12.3281H25.5" stroke="white" stroke-width="2" stroke-linejoin="round"/>
<path id="Vector 6688" d="M17.5 7L20.1667 7" stroke="white" stroke-width="2" stroke-linecap="round" stroke-linejoin="round"/>
<path id="Vector 6687" d="M25.5 16.3307V13.6641C25.5 8.00721 25.5 5.17878 23.7426 3.42142C21.9853 1.66406 19.1569 1.66406 13.5 1.66406C7.84315 1.66406 5.01472 1.66406 3.25736 3.42142C1.5 5.17878 1.5 8.00721 1.5 13.6641V16.3307C1.5 21.9876 1.5 24.816 3.25736 26.5734C5.01472 28.3307 7.84315 28.3307 13.5 28.3307C19.1569 28.3307 21.9853 28.3307 23.7426 26.5734C25.5 24.816 25.5 21.9876 25.5 16.3307Z" stroke="white" stroke-width="2"/>
<path id="Vector" d="M6.83203 17.6641H7.53379M13.1478 17.6641H13.8496M19.4636 17.6641H20.1654" stroke="white" stroke-width="2" stroke-linecap="round" stroke-linejoin="round"/>
<path id="Vector_2" d="M6.83203 23H7.53379M13.1478 23H13.8496M19.4636 23H20.1654" stroke="white" stroke-width="2" stroke-linecap="round" stroke-linejoin="round"/>
</g>
</svg>
