<?xml version="1.0" encoding="utf-8"?>
<!-- Generator: Adobe Illustrator 27.1.1, SVG Export Plug-In . SVG Version: 6.00 Build 0)  -->
<svg version="1.1" id="Layer_1" xmlns="http://www.w3.org/2000/svg" xmlns:xlink="http://www.w3.org/1999/xlink" x="0px" y="0px"
	 width="600px" height="110px" viewBox="0 0 600 110" style="enable-background:new 0 0 600 110;" xml:space="preserve">
<style type="text/css">
	.st0{fill:#282F6B;}
	.st1{fill:#AF2070;}
</style>
<g>
	<g>
		<polygon class="st0" points="10,91.7 10,29.6 53.2,29.6 53.2,40.8 22.5,40.8 22.5,54.4 52.6,54.4 52.6,65.7 22.5,65.7 22.5,80.4 
			53.2,80.4 53.2,91.7 		"/>
		<path class="st0" d="M52.2,90.7H11V30.6h41.2v9.3H21.5v15.6h30v9.3h-30v16.7h30.7V90.7z"/>
		<path class="st0" d="M131.3,108.3V46.2h11.5v4.2c3.4-3.5,7.8-5.3,13-5.3c6,0,10.9,2.2,14.7,6.5c3.7,4.3,5.6,10.1,5.6,17.3
			s-1.9,13.1-5.6,17.4c-3.8,4.3-8.7,6.5-14.7,6.5c-5.1,0-9.5-1.8-13-5.4v20.9H131.3z M142.7,77.2c1,1.4,2.4,2.6,4.3,3.6
			c1.9,1.1,3.9,1.6,5.9,1.6c3.4,0,6.1-1.2,8.2-3.7c2.1-2.5,3.1-5.8,3.1-9.8c0-4-1-7.3-3.1-9.8c-2-2.5-4.7-3.7-8.2-3.7
			c-2,0-4,0.5-5.9,1.6c-1.8,1-3.3,2.2-4.3,3.6V77.2z"/>
		<path class="st0" d="M155.7,91.8c-5.8,0-10.4-2.4-14-7.1v22.6h-9.5V47.2h9.5v6c3.5-4.7,8.1-7,14-7c5.7,0,10.4,2,13.9,6.1
			c3.6,4.1,5.4,9.6,5.4,16.7c0,7-1.8,12.6-5.4,16.7C166.1,89.7,161.4,91.8,155.7,91.8z M152.9,83.4c3.7,0,6.7-1.4,8.9-4.1
			c2.2-2.7,3.3-6.2,3.3-10.5s-1.1-7.7-3.3-10.4c-2.2-2.7-5.2-4-8.9-4c-2.2,0-4.3,0.6-6.4,1.7c-2.1,1.1-3.7,2.5-4.8,4.1v17.2
			c1.1,1.6,2.7,3,4.8,4.1C148.6,82.8,150.7,83.4,152.9,83.4z"/>
		<path class="st0" d="M204.5,92.8c-6.9,0-12.6-2.2-17.1-6.6c-4.5-4.4-6.7-10.2-6.7-17.3c0-6.6,2.2-12.3,6.5-16.9
			c4.4-4.6,9.9-6.9,16.6-6.9c6.7,0,12.2,2.4,16.3,7c4.1,4.6,6.2,10.6,6.2,17.7V73h-33.5c0.5,2.7,1.7,5,3.8,6.8
			c2.3,2.1,5.3,3.2,9,3.2c2.1,0,4.2-0.4,6.4-1.2c2.1-0.8,3.9-1.9,5.3-3.3l0.8-0.8l5.5,7.9l-0.6,0.6
			C218.3,90.6,212.1,92.8,204.5,92.8z M214.9,64.4c-0.3-2.4-1.3-4.5-3-6.4c-1.9-2.1-4.6-3.2-8.2-3.2c-3.5,0-6.1,1-8,3.1
			c-1.7,1.9-2.7,4-3.1,6.4H214.9z"/>
		<path class="st0" d="M204.5,91.8c-6.6,0-12.1-2.1-16.4-6.4c-4.3-4.2-6.4-9.8-6.4-16.5c0-6.4,2.1-11.8,6.3-16.2
			c4.2-4.4,9.5-6.6,15.8-6.6c6.4,0,11.6,2.2,15.6,6.7c3.9,4.4,5.9,10.1,5.9,17V72h-33.6c0.4,3.4,1.8,6.3,4.2,8.6
			c2.5,2.3,5.7,3.4,9.6,3.4c2.2,0,4.5-0.4,6.7-1.3c2.3-0.8,4.1-2,5.6-3.5l4.3,6.2C217.8,89.7,211.9,91.8,204.5,91.8z M216,65.4
			c-0.1-3-1.2-5.7-3.3-8c-2.1-2.3-5.1-3.5-9-3.5c-3.7,0-6.6,1.2-8.7,3.5c-2.1,2.3-3.3,5-3.5,8.1H216z"/>
		<path class="st0" d="M233.6,91.7V46.2h11.5v4.8c1.4-1.4,3-2.6,4.8-3.6c2.7-1.5,5.5-2.2,8.3-2.2h1v11.6l-1.2-0.3
			c-0.8-0.2-1.7-0.2-2.8-0.2c-1.8,0-3.8,0.6-5.9,1.6c-2,1-3.4,2.2-4.3,3.4v30.4H233.6z"/>
		<path class="st0" d="M244.1,90.7h-9.5V47.2h9.5v6.4c1.7-2.2,3.8-3.9,6.3-5.3c2.5-1.4,5.1-2.1,7.8-2.1v9.4c-0.8-0.2-1.8-0.3-3-0.3
			c-2,0-4.1,0.6-6.4,1.8c-2.3,1.2-3.9,2.5-4.8,4V90.7z"/>
		<path class="st0" d="M283.6,92.8c-3.9,0-7-1.1-9.1-3.2c-2.1-2.1-3.1-5.1-3.1-9V56.5h-7.2V46.2h7.2V34.2h11.5v11.9h8.8v10.3h-8.8
			v21.8c0,1.3,0.3,2.4,0.9,3.1c0.5,0.7,1.3,1,2.3,1c1.6,0,2.8-0.4,3.5-1.2l1.2-1.3l3,9.4l-0.5,0.4C291.1,91.8,287.8,92.8,283.6,92.8
			z"/>
		<path class="st0" d="M283.6,91.8c-3.7,0-6.4-1-8.3-2.9c-1.9-1.9-2.8-4.7-2.8-8.3V55.4h-7.2v-8.3h7.2V35.2h9.5v11.9h8.8v8.3h-8.8
			v22.8c0,1.6,0.4,2.8,1.1,3.7c0.7,0.9,1.7,1.4,3.1,1.4c1.9,0,3.3-0.5,4.2-1.5l2.3,7.1C290.6,90.9,287.6,91.8,283.6,91.8z"/>
		<path class="st1" d="M343.3,92.8c-10.6,0-19-3.3-25.2-9.9l-0.6-0.6l7.1-9.8l0.8,0.9c4.9,5.3,11.1,8,18.3,8c3.8,0,6.6-0.7,8.4-2.2
			c1.8-1.4,2.6-3.1,2.6-5c0-1.9-1-3.4-3.1-4.6c-2.3-1.3-5.2-2.3-8.5-3.1c-3.4-0.8-6.9-1.7-10.4-2.8c-3.6-1.1-6.7-3.1-9.2-5.8
			c-2.6-2.8-3.9-6.4-3.9-10.7c0-5.3,2.2-9.8,6.5-13.4c4.2-3.5,9.8-5.2,16.5-5.2c9.5,0,17.3,2.9,23.2,8.7l0.6,0.6l-7.3,9.5l-0.8-0.8
			c-4.4-4.4-10-6.6-16.7-6.6c-2.9,0-5.2,0.6-6.8,1.8c-1.6,1.2-2.3,2.7-2.3,4.7c0,1.2,0.5,2.2,1.6,3c1.2,0.9,2.8,1.7,4.7,2.3
			c2,0.6,4.3,1.2,6.7,1.8c2.5,0.6,5.1,1.4,7.6,2.2c2.6,0.9,4.9,2,7,3.3c2.2,1.3,4,3.2,5.3,5.6c1.4,2.4,2.1,5.2,2.1,8.4
			c0,5.7-2.1,10.4-6.2,14.1C357.3,90.9,351.2,92.8,343.3,92.8z"/>
		<path class="st1" d="M343.3,91.8c-10.3,0-18.5-3.2-24.4-9.6l5.9-8.1c5.2,5.5,11.5,8.3,19,8.3c4,0,7-0.8,9.1-2.4c2-1.6,3-3.5,3-5.8
			c0-2.3-1.2-4.1-3.6-5.5s-5.3-2.4-8.7-3.2c-3.4-0.8-6.9-1.7-10.3-2.8c-3.5-1.1-6.4-2.9-8.8-5.5c-2.4-2.6-3.6-5.9-3.6-10
			c0-5.1,2-9.2,6.1-12.6c4.1-3.3,9.3-5,15.8-5c9.3,0,16.8,2.8,22.5,8.4l-6,7.8c-4.6-4.6-10.4-6.9-17.4-6.9c-3.1,0-5.6,0.7-7.4,2
			c-1.8,1.4-2.8,3.2-2.8,5.5c0,1.5,0.6,2.8,1.9,3.8c1.3,1,3,1.8,5,2.5c2,0.6,4.3,1.2,6.8,1.8c2.5,0.6,5,1.3,7.5,2.2
			c2.5,0.9,4.8,1.9,6.8,3.2c2,1.3,3.7,3,5,5.2c1.3,2.2,1.9,4.9,1.9,7.9c0,5.4-2,9.9-5.9,13.3C356.8,90,351,91.8,343.3,91.8z"/>
		<path class="st1" d="M396.2,92.8c-6.9,0-12.6-2.2-17.1-6.6c-4.5-4.4-6.7-10.2-6.7-17.3c0-6.6,2.2-12.3,6.5-16.9
			c4.4-4.6,9.9-6.9,16.6-6.9c6.7,0,12.2,2.4,16.3,7c4.1,4.6,6.2,10.6,6.2,17.7V73h-33.5c0.5,2.7,1.7,5,3.8,6.8
			c2.3,2.1,5.3,3.2,9,3.2c2.1,0,4.2-0.4,6.4-1.2c2.1-0.8,3.9-1.9,5.3-3.3l0.8-0.8l5.5,7.9l-0.6,0.6C410,90.6,403.8,92.8,396.2,92.8z
			 M406.6,64.4c-0.3-2.4-1.3-4.5-3-6.4c-1.9-2.1-4.6-3.2-8.2-3.2c-3.5,0-6.1,1-8,3.1c-1.7,1.9-2.7,4-3.1,6.4H406.6z"/>
		<path class="st1" d="M396.2,91.8c-6.6,0-12.1-2.1-16.4-6.4c-4.3-4.2-6.4-9.8-6.4-16.5c0-6.4,2.1-11.8,6.3-16.2
			c4.2-4.4,9.5-6.6,15.8-6.6c6.4,0,11.6,2.2,15.6,6.7c3.9,4.4,5.9,10.1,5.9,17V72h-33.6c0.4,3.4,1.8,6.3,4.2,8.6
			c2.5,2.3,5.7,3.4,9.6,3.4c2.2,0,4.5-0.4,6.7-1.3c2.3-0.8,4.1-2,5.6-3.5l4.3,6.2C409.4,89.7,403.5,91.8,396.2,91.8z M407.7,65.4
			c-0.1-3-1.2-5.7-3.3-8c-2.1-2.3-5.1-3.5-9-3.5c-3.7,0-6.6,1.2-8.7,3.5c-2.1,2.3-3.3,5-3.5,8.1H407.7z"/>
		<path class="st1" d="M438.8,92.8c-4.2,0-8-1.4-11.2-4.1c-3.3-2.7-5-6.6-5-11.4c0-4.9,1.7-8.7,4.9-11.3c3.2-2.5,7-3.8,11.2-3.8
			c5.4,0,9.8,1.4,13.1,4.2v-4.1c0-2.2-0.8-3.9-2.4-5.2c-1.7-1.3-4-2-6.8-2c-4.6,0-8.7,1.8-12.2,5.2l-0.9,0.9l-4.9-8.4l0.6-0.5
			c5.1-4.9,11.5-7.3,19-7.3c5.5,0,10.1,1.3,13.7,4c3.6,2.7,5.5,7,5.5,12.8v29.9h-11.5v-3.3C448.5,91.3,444.1,92.8,438.8,92.8z
			 M442.5,70.7c-2.5,0-4.5,0.7-6,1.9c-1.5,1.3-2.3,2.9-2.3,4.9c0,2,0.7,3.6,2.2,4.9c1.6,1.3,3.6,1.9,6,1.9c4.3,0,7.4-1.3,9.4-3.8
			v-5.9C449.9,72,446.8,70.7,442.5,70.7z"/>
		<path class="st1" d="M462.3,90.7h-9.5V86c-3.4,3.8-8.1,5.8-14.1,5.8c-4,0-7.5-1.3-10.6-3.8c-3.1-2.6-4.6-6.1-4.6-10.6
			c0-4.6,1.5-8.1,4.6-10.6c3-2.4,6.6-3.6,10.6-3.6c6.2,0,10.9,1.9,14.1,5.6v-6.5c0-2.5-0.9-4.5-2.8-6c-1.9-1.4-4.3-2.2-7.4-2.2
			c-4.9,0-9.2,1.8-12.9,5.5l-3.9-6.6c4.9-4.7,11-7,18.3-7c5.4,0,9.7,1.3,13.1,3.8c3.4,2.5,5.1,6.5,5.1,12V90.7z M442.5,85.3
			c4.7,0,8.2-1.5,10.4-4.5v-6.6c-2.2-3-5.6-4.5-10.4-4.5c-2.7,0-4.9,0.7-6.7,2.2c-1.7,1.4-2.6,3.3-2.6,5.7s0.9,4.2,2.6,5.6
			C437.6,84.6,439.8,85.3,442.5,85.3z"/>
		<path class="st1" d="M473.6,91.7V46.2h11.5v4.8c1.4-1.4,3-2.6,4.8-3.6c2.7-1.5,5.5-2.2,8.3-2.2h1v11.6l-1.2-0.3
			c-0.8-0.2-1.7-0.2-2.8-0.2c-1.8,0-3.8,0.6-5.9,1.6c-2,1-3.4,2.2-4.3,3.4v30.4H473.6z"/>
		<path class="st1" d="M484.1,90.7h-9.5V47.2h9.5v6.4c1.7-2.2,3.8-3.9,6.3-5.3c2.5-1.4,5.1-2.1,7.8-2.1v9.4c-0.8-0.2-1.8-0.3-3-0.3
			c-2,0-4.1,0.6-6.4,1.8c-2.3,1.2-3.9,2.5-4.8,4V90.7z"/>
		<path class="st1" d="M525.7,92.8c-6.9,0-12.6-2.3-16.9-6.7c-4.4-4.5-6.6-10.2-6.6-17.2c0-6.9,2.2-12.6,6.6-17.1
			c4.4-4.5,10.1-6.7,16.9-6.7c7.6,0,13.5,2.7,17.5,8.2l0.5,0.7l-7.7,7.2l-0.7-0.9c-2.2-3.2-5.2-4.7-9.2-4.7c-3.7,0-6.6,1.2-8.8,3.7
			c-2.2,2.5-3.4,5.8-3.4,9.7c0,4,1.1,7.3,3.4,9.8c2.2,2.5,5.1,3.7,8.8,3.7c3.8,0,6.9-1.5,9.2-4.7l0.7-0.9l7.7,7.1l-0.5,0.7
			C539.2,90,533.3,92.8,525.7,92.8z"/>
		<path class="st1" d="M525.7,91.8c-6.6,0-12-2.1-16.2-6.4c-4.2-4.3-6.3-9.8-6.3-16.5c0-6.6,2.1-12.1,6.3-16.4
			c4.2-4.3,9.6-6.4,16.2-6.4c7.3,0,12.8,2.6,16.7,7.8l-6.2,5.8c-2.4-3.4-5.7-5.1-10-5.1c-4,0-7.2,1.3-9.6,4
			c-2.4,2.7-3.6,6.1-3.6,10.4s1.2,7.8,3.6,10.5c2.4,2.7,5.6,4.1,9.6,4.1c4.1,0,7.5-1.7,10-5.1l6.2,5.8
			C538.6,89.2,533,91.8,525.7,91.8z"/>
		<path class="st1" d="M579.2,91.7V63.3c0-2.9-0.7-4.9-2-6.1c-1.3-1.2-3.3-1.8-5.9-1.8c-2,0-4,0.5-5.8,1.6c-1.8,1-3.2,2.2-4.4,3.6
			v31h-11.5V29.6h11.5v21.1c1.4-1.3,3.1-2.4,5.1-3.4c2.9-1.4,6-2.2,9.3-2.2c10,0,15.1,5,15.1,14.8v31.8H579.2z"/>
		<path class="st1" d="M589.7,90.7h-9.5V63.3c0-3.2-0.8-5.5-2.3-6.8c-1.5-1.4-3.7-2-6.5-2c-2.2,0-4.3,0.6-6.3,1.7
			c-2,1.1-3.6,2.5-4.9,4.1v30.4h-9.5V30.6h9.5v22.5c1.6-1.9,3.8-3.6,6.5-5c2.7-1.4,5.7-2.1,8.9-2.1c9.4,0,14.1,4.6,14.1,13.8V90.7z"
			/>
	</g>
	<polygon class="st1" points="62.2,42.3 80.9,42.3 94.7,58.7 160.8,3.9 160.9,3.9 93,79.1 	"/>
	<polygon class="st1" points="80.5,43.3 64.3,43.3 92.9,77.8 160.8,4 94.6,60.1 	"/>
	<polygon class="st0" points="107,93.4 95.7,81.9 106,71.6 125.2,93.4 	"/>
	<polygon class="st0" points="97.8,82 105.4,73.8 123,92.4 107.5,92.4 	"/>
	<polygon class="st0" points="60.8,94.2 81.4,70.9 90.6,82.2 79.8,94.2 	"/>
	<polygon class="st0" points="89.8,82.1 79.4,93.2 63,93.2 81.8,72 	"/>
</g>
</svg>
