<svg width="21" height="20" viewBox="0 0 21 20" fill="none" xmlns="http://www.w3.org/2000/svg">
<g clip-path="url(#clip0_22892_41233)">
<path d="M4.38723 18.5253L5.65625 17.5439L7.10082 18.2411L6.56078 16.733L7.67096 15.576L6.06922 15.6261L5.31015 14.2133L4.86039 15.7532L3.28039 16.0375L4.60625 16.9403L4.38723 18.5253ZM10.2725 20L10.8795 18.5153L12.4778 18.3966L11.2556 17.36L11.6385 15.8017L10.2742 16.646L8.90988 15.8017L9.29276 17.36L8.06721 18.3966L9.66561 18.5153L10.2725 20ZM5.5459 8.77278C6.28825 8.49523 7.23625 8.14078 7.91841 7.71777C8.70089 8.4434 9.20916 9.26935 9.24929 10.2725H11.3025C11.3426 9.26935 11.8509 8.4434 12.6333 7.71777C13.3155 8.14078 14.2635 8.49356 15.0059 8.77278C17.1928 9.59037 16.1244 11.0834 14.8487 12.3407C13.6783 13.4927 12.0615 14.205 10.2742 14.205C8.48688 14.205 6.87176 13.4944 5.69972 12.3407C4.4424 11.1018 3.34392 9.59538 5.5459 8.77278ZM8.6641 6.69788C8.69754 6.42367 7.88831 5.38539 7.74118 4.88547C7.42351 4.38388 7.31149 3.58134 7.65758 3.04966C7.79636 2.83899 7.73616 2.46113 7.73616 2.17188C7.73616 -0.722287 12.8072 -0.725631 12.8072 2.17188C12.8072 2.53804 12.7236 2.81725 12.9226 3.10483C13.2553 3.58636 13.0831 4.44073 12.8022 4.88881C12.6233 5.41214 11.774 6.40361 11.8341 6.70122C11.8843 8.18425 8.6524 8.13576 8.6641 6.69788ZM20.5451 14.1364L19.5636 12.8691L20.2608 11.4245L18.751 11.9662L17.594 10.856L17.6442 12.4578L16.2314 13.2169L17.7713 13.6649L18.0555 15.2449L18.9567 13.9191L20.5451 14.1364ZM16.1578 18.5253L15.9422 16.9353L17.268 16.0324L15.6897 15.7465L15.2416 14.2067L14.4825 15.6195L12.8791 15.5693L13.9893 16.7263L13.4442 18.2378L14.8888 17.5405L16.1578 18.5253ZM0 14.1348L1.59004 13.9191L2.49289 15.2449L2.7788 13.6666L4.31868 13.2185L2.90587 12.4595L2.95603 10.8577L1.79736 11.9679L0.284233 11.4245L0.981441 12.8691L0 14.1348Z" fill="#0E73A9"/>
</g>
<defs>
<clipPath id="clip0_22892_41233">
<rect width="20.5451" height="20" fill="white"/>
</clipPath>
</defs>
</svg>
