<svg width="32" height="32" viewBox="0 0 32 32" fill="none" xmlns="http://www.w3.org/2000/svg">
<g id="Research/Consultancy">
<g id="chemistry">
<path id="Path 8689" d="M25.6125 24.557L19.1835 15.237V8.219H20.1084V4H11.8873V8.219H12.8123V15.237L6.38734 24.557C6.15745 24.888 6.02374 25.2747 6.00066 25.6752C5.97759 26.0758 6.06603 26.4749 6.25642 26.8295C6.44682 27.184 6.73191 27.4805 7.08087 27.6868C7.42982 27.8931 7.82935 28.0014 8.23623 28H23.7636C24.1705 28.0014 24.57 27.8931 24.919 27.6868C25.2679 27.4805 25.553 27.184 25.7434 26.8295C25.9338 26.4749 26.0223 26.0758 25.9992 25.6752C25.9761 25.2747 25.8424 24.888 25.6125 24.557ZM13.3143 5.406H18.6896V6.813H13.3143V5.406ZM14.2393 15.669V8.219H17.7636V15.67L20.5841 19.761C20.3167 19.9454 20.0227 20.089 19.7119 20.187C19.1608 20.3294 18.5815 20.327 18.0316 20.18C17.4818 20.033 16.9806 19.7465 16.578 19.349C16.0422 18.8604 15.402 18.4966 14.7046 18.2844C14.0073 18.0722 13.2705 18.0171 12.5486 18.123L14.2393 15.669ZM24.4827 26.169C24.4149 26.2982 24.3121 26.4064 24.1857 26.4814C24.0593 26.5565 23.9142 26.5954 23.7667 26.594H8.23623C8.08934 26.5934 7.94537 26.5534 7.8197 26.4785C7.69402 26.4035 7.59135 26.2963 7.52263 26.1682C7.45391 26.0402 7.42173 25.8962 7.42952 25.7516C7.43731 25.607 7.48478 25.4671 7.56686 25.347L11.0151 20.347C11.4055 20.0144 11.8603 19.7634 12.3518 19.609C12.9286 19.4457 13.5388 19.4354 14.121 19.579C14.7031 19.7226 15.2365 20.0151 15.6673 20.427C16.5526 21.2235 17.6985 21.6802 18.8965 21.714C19.3446 21.7139 19.7898 21.6427 20.2149 21.503C20.6328 21.3652 21.0289 21.1699 21.3914 20.923L24.4401 25.345C24.5239 25.4645 24.5725 25.6046 24.5806 25.7496C24.5887 25.8947 24.5558 26.0392 24.4857 26.167L24.4827 26.169Z" fill="white"/>
<path id="Path 8690" d="M11.4116 21.6953H12.8376V23.1013H11.4116V21.6953Z" fill="white"/>
<path id="Path 8691" d="M9.80127 23.9922H11.2272V25.3982H9.80127V23.9922Z" fill="white"/>
<path id="Path 8692" d="M12.4048 24.2188H13.8308V25.6248H12.4048V24.2188Z" fill="white"/>
</g>
</g>
</svg>
