<svg width="32" height="32" viewBox="0 0 32 32" fill="none" xmlns="http://www.w3.org/2000/svg">
<g id="Cleaner">
<g id="broom">
<path id="Path 8733" d="M16.7093 22.9287C16.7533 22.8731 16.7792 22.8081 16.784 22.7413C16.8066 22.7349 16.8275 22.7242 16.8453 22.7098C16.8631 22.6955 16.8774 22.6779 16.887 22.6583C17.2435 22.0482 17.402 21.3666 17.3434 20.6958C17.2848 20.025 17.0116 19.3936 16.5567 18.878C16.5792 18.8716 16.6002 18.8609 16.618 18.8465C16.6358 18.8322 16.65 18.8146 16.6597 18.795L17.8173 17.0334C17.8413 16.9979 17.8575 16.9588 17.8649 16.9183C17.8722 16.8779 17.8705 16.8369 17.86 16.7978C17.8495 16.7587 17.8302 16.7224 17.8035 16.6909C17.7767 16.6594 17.7429 16.6334 17.7042 16.6144L17.2677 16.393L22.9881 7.68803C23.0831 7.55121 23.1167 7.38869 23.0813 7.23563C23.046 7.08258 22.9447 6.95129 22.7994 6.87017L21.5987 6.26114C21.446 6.19081 21.2658 6.17918 21.0971 6.22877C20.9284 6.27836 20.7847 6.38517 20.6973 6.52607L14.9769 15.231L14.5041 14.9912C14.466 14.9712 14.4235 14.9585 14.3791 14.9539C14.3347 14.9493 14.2892 14.9528 14.2454 14.9643C14.2017 14.9758 14.1604 14.9951 14.1242 15.0209C14.088 15.0467 14.0575 15.0786 14.0346 15.1146L12.8548 16.91C12.8403 16.9271 12.83 16.9468 12.8248 16.9675C12.8195 16.9882 12.8194 17.0095 12.8244 17.0298C12.0886 16.9385 11.3285 17.0448 10.6372 17.3359C9.94598 17.6271 9.3537 18.0903 8.933 18.6687C8.9185 18.6858 8.90825 18.7055 8.90301 18.7262C8.89776 18.7469 8.89765 18.7682 8.90267 18.7885C8.88046 18.8223 8.79973 18.8715 8.77752 18.9053L5.7007 22.6281C5.6529 22.699 5.6208 22.7771 5.60628 22.8579C5.59177 22.9386 5.59513 23.0204 5.61617 23.0983C5.63721 23.1763 5.67551 23.2489 5.72881 23.3118C5.78211 23.3747 5.84934 23.4267 5.92654 23.4648L13.6759 27.3956C13.7555 27.4357 13.8441 27.4603 13.9363 27.4679C14.0285 27.4754 14.1224 27.4658 14.2123 27.4395C14.3021 27.4133 14.386 27.371 14.4588 27.3153C14.5317 27.2595 14.5919 27.1915 14.6358 27.1153L16.7093 22.9287ZM21.2791 6.82116L22.502 7.39639L16.7594 16.1352L15.5587 15.5261L21.2791 6.82116ZM14.4651 15.6485L17.1205 16.9955L16.2749 18.2823L13.6195 16.9353L14.4651 15.6485ZM14.6312 18.1266C16.3773 19.0123 17.165 20.767 16.5009 22.1459L9.77065 18.732C10.7803 17.4834 12.8817 17.2392 14.6278 18.1249L14.6312 18.1266ZM13.9266 26.8017L12.726 26.1927L14.1264 24.0616C14.1527 24.0259 14.1709 23.9861 14.18 23.9446C14.189 23.9031 14.1887 23.8608 14.1791 23.8202C14.1695 23.7797 14.1507 23.7417 14.1239 23.7087C14.0971 23.6757 14.0629 23.6484 14.0233 23.6283C13.9837 23.6082 13.9396 23.5959 13.8937 23.592C13.8478 23.5881 13.801 23.5928 13.7562 23.6057C13.7114 23.6186 13.6695 23.6396 13.6332 23.6672C13.5968 23.6949 13.5667 23.7287 13.5446 23.7665L12.1421 25.9007L9.44954 24.5349L10.852 22.4007C10.8783 22.365 10.8966 22.3252 10.9056 22.2837C10.9147 22.2422 10.9144 22.1999 10.9047 22.1593C10.8951 22.1187 10.8763 22.0808 10.8495 22.0478C10.8227 22.0148 10.7885 21.9875 10.7489 21.9674C10.7094 21.9473 10.6653 21.9349 10.6193 21.9311C10.5734 21.9272 10.5266 21.9318 10.4818 21.9448C10.437 21.9577 10.3952 21.9787 10.3588 22.0063C10.3224 22.034 10.2923 22.0678 10.2702 22.1056L8.86778 24.2398L8.28603 23.9447L9.28971 22.4174C9.31601 22.3817 9.33426 22.3418 9.34332 22.3003C9.35239 22.2588 9.35209 22.2165 9.34245 22.176C9.3328 22.1354 9.31402 22.0975 9.28723 22.0645C9.26044 22.0315 9.22621 22.0041 9.18664 21.984C9.14706 21.964 9.10297 21.9516 9.05705 21.9477C9.01113 21.9438 8.96434 21.9485 8.91955 21.9614C8.87475 21.9744 8.8329 21.9953 8.79652 22.023C8.76014 22.0506 8.73 22.0844 8.70796 22.1223L7.70635 23.6465L6.39677 22.9822C6.36066 22.9607 6.33507 22.9277 6.3247 22.8893C6.31434 22.8509 6.31991 22.8097 6.34039 22.7733L9.30615 19.2196C9.30897 19.2151 9.31274 19.2111 9.31725 19.2078C9.32176 19.2046 9.32692 19.2021 9.33239 19.2007C9.33786 19.1993 9.34354 19.1988 9.34909 19.1994C9.35463 19.2 9.35993 19.2017 9.36466 19.2042L16.0949 22.6181C16.0949 22.6181 16.1312 22.6365 16.0868 22.7041L14.1838 26.7068C14.1356 26.7715 13.9959 26.8368 13.9232 26.8L13.9266 26.8017Z" fill="white" stroke="white" stroke-width="0.5"/>
</g>
</g>
</svg>
