<svg width="32" height="32" viewBox="0 0 32 32" fill="none" xmlns="http://www.w3.org/2000/svg">
<g id="Law/ Legal">
<g id="scale">
<path id="Path 8644" d="M26.9416 18.5857L24.4166 12.5317H26.2668C26.4612 12.5317 26.6477 12.4576 26.7852 12.3258C26.9227 12.194 27 12.0151 27 11.8287C27 11.6423 26.9227 11.4634 26.7852 11.3316C26.6477 11.1998 26.4612 11.1257 26.2668 11.1257H22.9033C22.6705 11.1259 22.4401 11.0818 22.2252 10.996C22.0104 10.9102 21.8154 10.7843 21.6517 10.6257C21.3518 10.3365 20.995 10.1073 20.6021 9.95128C20.2091 9.79524 19.7878 9.71551 19.3624 9.7167H18.1996V9.0167C18.1998 8.47532 17.982 7.95478 17.5915 7.5637C17.8885 7.26484 18.0874 6.889 18.1637 6.48277C18.24 6.07654 18.1903 5.65777 18.0207 5.27836C17.8512 4.89896 17.5692 4.5756 17.2098 4.34836C16.8505 4.12112 16.4294 4 15.9989 4C15.5684 4 15.1474 4.12112 14.788 4.34836C14.4286 4.5756 14.1467 4.89896 13.9771 5.27836C13.8076 5.65777 13.7579 6.07654 13.8342 6.48277C13.9105 6.889 14.1094 7.26484 14.4063 7.5637C14.0159 7.95478 13.7981 8.47532 13.7983 9.0167V9.7167H12.6375C12.2122 9.71551 11.7908 9.79524 11.3979 9.95128C11.0049 10.1073 10.6481 10.3365 10.3482 10.6257C10.1845 10.7843 9.98957 10.9102 9.77473 10.996C9.5599 11.0818 9.32942 11.1259 9.09668 11.1257H5.73004C5.53558 11.1257 5.34909 11.1998 5.21159 11.3316C5.07409 11.4634 4.99684 11.6423 4.99684 11.8287C4.99684 12.0151 5.07409 12.194 5.21159 12.3258C5.34909 12.4576 5.53558 12.5317 5.73004 12.5317H7.58023L5.05421 18.5857C5.01359 18.6808 4.99406 18.783 4.99684 18.8857C4.99684 19.8179 5.38308 20.712 6.07058 21.3712C6.75808 22.0304 7.69054 22.4007 8.66282 22.4007C9.63509 22.4007 10.5675 22.0304 11.255 21.3712C11.9425 20.712 12.3288 19.8179 12.3288 18.8857C12.3325 18.7829 12.3129 18.6806 12.2714 18.5857L9.72558 12.4737C10.3548 12.3551 10.9327 12.0587 11.3849 11.6227C11.5486 11.4641 11.7436 11.3382 11.9584 11.2524C12.1732 11.1666 12.4037 11.1225 12.6365 11.1227H13.7993V11.8227C13.7993 12.0084 13.8763 12.1864 14.0132 12.3177C14.1501 12.4489 14.3358 12.5227 14.5294 12.5227H15.2595V21.0907C14.831 21.2366 14.4601 21.5059 14.1976 21.8618C13.9351 22.2177 13.7938 22.6428 13.7931 23.0787V26.5947H11.5998C11.4053 26.5947 11.2188 26.6688 11.0813 26.8006C10.9438 26.9324 10.8666 27.1113 10.8666 27.2977C10.8666 27.4841 10.9438 27.663 11.0813 27.7948C11.2188 27.9266 11.4053 28.0007 11.5998 28.0007H20.4002C20.5946 28.0007 20.7811 27.9266 20.9186 27.7948C21.0561 27.663 21.1334 27.4841 21.1334 27.2977C21.1334 27.1113 21.0561 26.9324 20.9186 26.8006C20.7811 26.6688 20.5946 26.5947 20.4002 26.5947H18.1996V23.0787C18.1989 22.6428 18.0576 22.2177 17.795 21.8618C17.5325 21.5059 17.1616 21.2366 16.7332 21.0907V12.5317H17.4632C17.6569 12.5317 17.8426 12.4579 17.9795 12.3267C18.1164 12.1954 18.1933 12.0174 18.1933 11.8317V11.1317H19.3562C19.5889 11.1315 19.8194 11.1756 20.0342 11.2614C20.2491 11.3472 20.444 11.4731 20.6077 11.6317C21.0599 12.0678 21.6378 12.3642 22.2671 12.4827L19.717 18.5947C19.6761 18.6897 19.6565 18.7919 19.6597 18.8947C19.6597 19.8269 20.0459 20.721 20.7334 21.3802C21.4209 22.0394 22.3534 22.4097 23.3257 22.4097C24.2979 22.4097 25.2304 22.0394 25.9179 21.3802C26.6054 20.721 26.9916 19.8269 26.9916 18.8947C26.9947 18.7919 26.9752 18.6897 26.9343 18.5947L26.9416 18.5857ZM8.66699 13.7217L10.5172 18.1567H6.81679L8.66699 13.7217ZM8.66699 20.9687C8.21216 20.9682 7.76862 20.8329 7.39722 20.5811C7.02581 20.3294 6.74474 19.9737 6.59256 19.5627H10.7362C10.5845 19.973 10.3043 20.3284 9.9339 20.5803C9.56352 20.8321 9.12105 20.9671 8.66699 20.9687ZM15.2668 26.5937V23.0787C15.2668 22.8923 15.344 22.7134 15.4815 22.5816C15.619 22.4498 15.8055 22.3757 16 22.3757C16.1944 22.3757 16.3809 22.4498 16.5184 22.5816C16.6559 22.7134 16.7332 22.8923 16.7332 23.0787V26.5947L15.2668 26.5937ZM15.9968 5.4057C16.1412 5.4057 16.2824 5.44675 16.4024 5.52367C16.5225 5.60059 16.6161 5.70991 16.6713 5.83782C16.7266 5.96573 16.741 6.10648 16.7129 6.24226C16.6847 6.37805 16.6152 6.50278 16.5131 6.60067C16.411 6.69857 16.2809 6.76524 16.1393 6.79225C15.9977 6.81926 15.8509 6.8054 15.7175 6.75242C15.5841 6.69943 15.47 6.60971 15.3898 6.4946C15.3096 6.37948 15.2668 6.24415 15.2668 6.1057C15.2669 6.01361 15.286 5.92244 15.3229 5.83743C15.3599 5.75243 15.414 5.67524 15.4821 5.61031C15.5502 5.54537 15.631 5.49396 15.7199 5.45903C15.8087 5.42409 15.9039 5.40631 16 5.4067L15.9968 5.4057ZM16.7269 11.1247H15.2668V9.0167C15.2668 8.83025 15.344 8.65144 15.4815 8.5196C15.619 8.38777 15.8055 8.3137 16 8.3137C16.1944 8.3137 16.3809 8.38777 16.5184 8.5196C16.6559 8.65144 16.7332 8.83025 16.7332 9.0167L16.7269 11.1247ZM25.1748 18.1557H21.4786L23.3288 13.7207L25.1748 18.1557ZM23.3246 20.9687C22.8698 20.9682 22.4262 20.8329 22.0548 20.5811C21.6834 20.3294 21.4024 19.9737 21.2502 19.5627H25.399C25.2475 19.9726 24.9678 20.3276 24.598 20.5794C24.2283 20.8312 23.7865 20.9675 23.333 20.9697L23.3246 20.9687Z" fill="white"/>
</g>
</g>
</svg>
