<svg width="32" height="32" viewBox="0 0 32 32" fill="none" xmlns="http://www.w3.org/2000/svg">
<g id="Delivery Man">
<g id="courier">
<path id="Path 8737" d="M5.61071 24.7227C5.51232 24.7227 5.41797 24.6827 5.3484 24.6116C5.27883 24.5406 5.23975 24.4441 5.23975 24.3436C5.24051 23.4384 5.59271 22.5705 6.21902 21.9305C6.84534 21.2904 7.69459 20.9305 8.58034 20.9297C8.67873 20.9297 8.77308 20.9697 8.84265 21.0407C8.91222 21.1118 8.95131 21.2083 8.95131 21.3088C8.95131 21.4094 8.91222 21.5058 8.84265 21.5769C8.77308 21.648 8.67873 21.6879 8.58034 21.6879C7.8917 21.6889 7.23155 21.969 6.7446 22.4666C6.25766 22.9642 5.98365 23.6388 5.98263 24.3426C5.98263 24.4431 5.94355 24.5396 5.87398 24.6107C5.80441 24.6818 5.71005 24.7217 5.61167 24.7217L5.61071 24.7227Z" fill="white" stroke="white" stroke-width="0.5"/>
<path id="Path 8738" d="M11.1771 21.6879H8.57751C8.47912 21.6879 8.38477 21.6479 8.3152 21.5768C8.24563 21.5058 8.20654 21.4093 8.20654 21.3088C8.20654 21.2082 8.24563 21.1118 8.3152 21.0407C8.38477 20.9696 8.47912 20.9297 8.57751 20.9297H11.1743C11.2726 20.9297 11.367 20.9696 11.4366 21.0407C11.5061 21.1118 11.5452 21.2082 11.5452 21.3088C11.5452 21.4093 11.5061 21.5058 11.4366 21.5768C11.367 21.6479 11.2726 21.6879 11.1743 21.6879H11.1771Z" fill="white" stroke="white" stroke-width="0.5"/>
<path id="Path 8739" d="M17.8553 21.6879H16.3714C16.2731 21.6879 16.1787 21.6479 16.1091 21.5768C16.0396 21.5058 16.0005 21.4093 16.0005 21.3088C16.0005 21.2082 16.0396 21.1118 16.1091 21.0407C16.1787 20.9696 16.2731 20.9297 16.3714 20.9297H17.8553C17.9537 20.9297 18.048 20.9696 18.1176 21.0407C18.1872 21.1118 18.2263 21.2082 18.2263 21.3088C18.2263 21.4093 18.1872 21.5058 18.1176 21.5768C18.048 21.6479 17.9537 21.6879 17.8553 21.6879Z" fill="white" stroke="white" stroke-width="0.5"/>
<path id="Path 8740" d="M5.61071 27.3729C5.51232 27.3729 5.41797 27.3329 5.3484 27.2618C5.27883 27.1907 5.23975 27.0943 5.23975 26.9937V24.34C5.23975 24.2395 5.27883 24.1431 5.3484 24.072C5.41797 24.0009 5.51232 23.9609 5.61071 23.9609C5.7091 23.9609 5.80345 24.0009 5.87302 24.072C5.94259 24.1431 5.98167 24.2395 5.98167 24.34V26.9937C5.98167 27.0943 5.94259 27.1907 5.87302 27.2618C5.80345 27.3329 5.7091 27.3729 5.61071 27.3729Z" fill="white" stroke="white" stroke-width="0.5"/>
<path id="Path 8741" d="M5.98265 27.7545C5.78596 27.7542 5.59739 27.6743 5.45831 27.5321C5.31922 27.39 5.24098 27.1973 5.24072 26.9963C5.24072 26.8957 5.27981 26.7993 5.34938 26.7282C5.41894 26.6571 5.5133 26.6172 5.61169 26.6172C5.71007 26.6172 5.80443 26.6571 5.874 26.7282C5.94357 26.7993 5.98265 26.8957 5.98265 26.9963C6.03289 26.9937 6.08312 27.0015 6.1303 27.0194C6.17747 27.0372 6.2206 27.0647 6.25706 27.1001C6.29352 27.1355 6.32256 27.1782 6.3424 27.2254C6.36224 27.2726 6.37247 27.3235 6.37247 27.3749C6.37247 27.4263 6.36224 27.4772 6.3424 27.5244C6.32256 27.5716 6.29352 27.6143 6.25706 27.6497C6.2206 27.6851 6.17747 27.7126 6.1303 27.7304C6.08312 27.7483 6.03289 27.7561 5.98265 27.7535V27.7545Z" fill="white" stroke="white" stroke-width="0.5"/>
<path id="Path 8742" d="M20.4524 27.7504H5.98669C5.8883 27.7504 5.79395 27.7104 5.72438 27.6393C5.65481 27.5683 5.61572 27.4718 5.61572 27.3713C5.61572 27.2707 5.65481 27.1743 5.72438 27.1032C5.79395 27.0321 5.8883 26.9922 5.98669 26.9922H20.461C20.5594 26.9922 20.6537 27.0321 20.7233 27.1032C20.7929 27.1743 20.832 27.2707 20.832 27.3713C20.832 27.4718 20.7929 27.5683 20.7233 27.6393C20.6537 27.7104 20.5594 27.7504 20.461 27.7504H20.4524Z" fill="white" stroke="white" stroke-width="0.5"/>
<path id="Path 8743" d="M11.1761 21.6888C11.0778 21.6888 10.9834 21.6488 10.9138 21.5777C10.8443 21.5066 10.8052 21.4102 10.8052 21.3096V19.1369C10.8052 19.0364 10.8443 18.9399 10.9138 18.8688C10.9834 18.7977 11.0778 18.7578 11.1761 18.7578C11.2745 18.7578 11.3689 18.7977 11.4385 18.8688C11.508 18.9399 11.5471 19.0364 11.5471 19.1369V21.3096C11.5471 21.4102 11.508 21.5066 11.4385 21.5777C11.3689 21.6488 11.2745 21.6888 11.1761 21.6888Z" fill="white" stroke="white" stroke-width="0.5"/>
<path id="Path 8744" d="M16.3714 21.6809C16.2731 21.6809 16.1787 21.641 16.1091 21.5699C16.0396 21.4988 16.0005 21.4024 16.0005 21.3018V19.1291C16.0005 19.0286 16.0396 18.9321 16.1091 18.861C16.1787 18.7899 16.2731 18.75 16.3714 18.75C16.4698 18.75 16.5642 18.7899 16.6338 18.861C16.7033 18.9321 16.7424 19.0286 16.7424 19.1291V21.3018C16.7424 21.4024 16.7033 21.4988 16.6338 21.5699C16.5642 21.641 16.4698 21.6809 16.3714 21.6809Z" fill="white" stroke="white" stroke-width="0.5"/>
<path id="Path 8745" d="M13.7747 20.1684C12.2014 20.1668 10.6928 19.5277 9.57978 18.3912C8.46678 17.2547 7.84019 15.7136 7.8374 14.1057C7.8374 14.0051 7.87649 13.9087 7.94606 13.8376C8.01562 13.7665 8.10998 13.7266 8.20837 13.7266C8.30675 13.7266 8.40111 13.7665 8.47068 13.8376C8.54025 13.9087 8.57933 14.0051 8.57933 14.1057C8.57933 15.5137 9.12665 16.864 10.1009 17.8596C11.0751 18.8552 12.3965 19.4146 13.7743 19.4146C15.1521 19.4146 16.4734 18.8552 17.4476 17.8596C18.4219 16.864 18.9692 15.5137 18.9692 14.1057C18.9692 14.0051 19.0083 13.9087 19.0779 13.8376C19.1474 13.7665 19.2418 13.7266 19.3402 13.7266C19.4386 13.7266 19.5329 13.7665 19.6025 13.8376C19.6721 13.9087 19.7111 14.0051 19.7111 14.1057C19.7083 15.7134 19.0819 17.2544 17.9691 18.3909C16.8563 19.5273 15.348 20.1665 13.7747 20.1684Z" fill="white" stroke="white" stroke-width="0.5"/>
<path id="Path 8746" d="M19.3402 11.0707C19.2418 11.0707 19.1474 11.0307 19.0778 10.9596C19.0083 10.8885 18.9692 10.7921 18.9692 10.6916C18.9692 9.28355 18.4219 7.93321 17.4476 6.9376C16.4734 5.94199 15.152 5.38266 13.7743 5.38266C12.3965 5.38266 11.0751 5.94199 10.1009 6.9376C9.12664 7.93321 8.57932 9.28355 8.57932 10.6916C8.57932 10.7921 8.54024 10.8885 8.47067 10.9596C8.4011 11.0307 8.30674 11.0707 8.20836 11.0707C8.10997 11.0707 8.01562 11.0307 7.94605 10.9596C7.87648 10.8885 7.83739 10.7921 7.83739 10.6916C7.82741 9.88833 7.97359 9.09107 8.26746 8.34602C8.56134 7.60098 8.99705 6.92299 9.54933 6.35138C10.1016 5.77976 10.7595 5.32591 11.4847 5.01615C12.21 4.70638 12.9882 4.54687 13.7743 4.54688C14.5603 4.54687 15.3385 4.70638 16.0638 5.01615C16.7891 5.32591 17.4469 5.77976 17.9992 6.35138C18.5515 6.92299 18.9872 7.60098 19.2811 8.34602C19.5749 9.09107 19.7211 9.88833 19.7111 10.6916C19.7111 10.7921 19.672 10.8885 19.6025 10.9596C19.5329 11.0307 19.4385 11.0707 19.3402 11.0707Z" fill="white" stroke="white" stroke-width="0.5"/>
<path id="Path 8747" d="M8.20837 14.4828C8.10998 14.4828 8.01562 14.4429 7.94606 14.3718C7.87649 14.3007 7.8374 14.2043 7.8374 14.1037V12.2072C7.8374 12.1067 7.87649 12.0102 7.94606 11.9392C8.01562 11.8681 8.10998 11.8281 8.20837 11.8281C8.30675 11.8281 8.40111 11.8681 8.47068 11.9392C8.54025 12.0102 8.57933 12.1067 8.57933 12.2072V14.1037C8.57933 14.2043 8.54025 14.3007 8.47068 14.3718C8.40111 14.4429 8.30675 14.4828 8.20837 14.4828Z" fill="white" stroke="white" stroke-width="0.5"/>
<path id="Path 8748" d="M19.3402 14.4828C19.2418 14.4828 19.1475 14.4429 19.0779 14.3718C19.0083 14.3007 18.9692 14.2043 18.9692 14.1037V12.2072C18.9692 12.1067 19.0083 12.0102 19.0779 11.9392C19.1475 11.8681 19.2418 11.8281 19.3402 11.8281C19.4386 11.8281 19.5329 11.8681 19.6025 11.9392C19.6721 12.0102 19.7112 12.1067 19.7112 12.2072V14.1037C19.7112 14.2043 19.6721 14.3007 19.6025 14.3718C19.5329 14.4429 19.4386 14.4828 19.3402 14.4828Z" fill="white" stroke="white" stroke-width="0.5"/>
<path id="Path 8749" d="M20.0814 12.5863H7.46569C7.36731 12.5863 7.27295 12.5464 7.20338 12.4753C7.13381 12.4042 7.09473 12.3078 7.09473 12.2072C7.09473 12.1067 7.13381 12.0102 7.20338 11.9392C7.27295 11.8681 7.36731 11.8281 7.46569 11.8281H20.0814C20.1797 11.8281 20.2741 11.8681 20.3437 11.9392C20.4132 12.0102 20.4523 12.1067 20.4523 12.2072C20.4523 12.3078 20.4132 12.4042 20.3437 12.4753C20.2741 12.5464 20.1797 12.5863 20.0814 12.5863Z" fill="white" stroke="white" stroke-width="0.5"/>
<path id="Path 8750" d="M20.0814 12.5871C20.0296 12.5873 19.9783 12.5763 19.9309 12.5549C19.8835 12.5334 19.841 12.502 19.8063 12.4627C19.7967 12.4529 18.4509 11.0707 13.7731 11.0707C9.09531 11.0707 7.75044 12.4529 7.73415 12.4666C7.66672 12.539 7.57418 12.5814 7.47647 12.5847C7.37876 12.5879 7.28369 12.5519 7.21173 12.4843C7.13997 12.4169 7.09717 12.3233 7.09268 12.2238C7.08819 12.1244 7.12237 12.0271 7.18777 11.9533C7.2472 11.8857 8.70134 10.3125 13.7712 10.3125C18.841 10.3125 20.2952 11.8867 20.3546 11.9533C20.4029 12.0077 20.4347 12.0753 20.4461 12.1478C20.4575 12.2203 20.4481 12.2946 20.4189 12.3617C20.3898 12.4289 20.3422 12.4859 20.2819 12.5259C20.2217 12.5659 20.1514 12.5872 20.0795 12.5871H20.0814Z" fill="white" stroke="white" stroke-width="0.5"/>
<path id="Path 8751" d="M19.3402 12.0709C19.2418 12.0709 19.1475 12.0309 19.0779 11.9598C19.0083 11.8888 18.9692 11.7923 18.9692 11.6918V10.6838C18.9692 10.5832 19.0083 10.4868 19.0779 10.4157C19.1475 10.3446 19.2418 10.3047 19.3402 10.3047C19.4386 10.3047 19.5329 10.3446 19.6025 10.4157C19.6721 10.4868 19.7112 10.5832 19.7112 10.6838V11.6918C19.7112 11.7923 19.6721 11.8888 19.6025 11.9598C19.5329 12.0309 19.4386 12.0709 19.3402 12.0709Z" fill="white" stroke="white" stroke-width="0.5"/>
<path id="Path 8752" d="M8.20837 12.0709C8.10998 12.0709 8.01562 12.0309 7.94606 11.9598C7.87649 11.8888 7.8374 11.7923 7.8374 11.6918V10.6838C7.8374 10.5832 7.87649 10.4868 7.94606 10.4157C8.01562 10.3446 8.10998 10.3047 8.20837 10.3047C8.30675 10.3047 8.40111 10.3446 8.47068 10.4157C8.54025 10.4868 8.57933 10.5832 8.57933 10.6838V11.6918C8.57933 11.7923 8.54025 11.8888 8.47068 11.9598C8.40111 12.0309 8.30675 12.0709 8.20837 12.0709Z" fill="white" stroke="white" stroke-width="0.5"/>
<path id="Path 8753" d="M13.7739 9.55625C13.4804 9.55625 13.1935 9.46732 12.9495 9.30069C12.7055 9.13407 12.5153 8.89724 12.403 8.62015C12.2907 8.34306 12.2613 8.03816 12.3186 7.74401C12.3758 7.44986 12.5171 7.17966 12.7247 6.96758C12.9322 6.75551 13.1966 6.61109 13.4844 6.55258C13.7723 6.49406 14.0706 6.52409 14.3418 6.63887C14.6129 6.75364 14.8446 6.948 15.0077 7.19738C15.1707 7.44675 15.2578 7.73993 15.2578 8.03984C15.2572 8.44186 15.1008 8.82727 14.8226 9.11153C14.5444 9.3958 14.1673 9.55573 13.7739 9.55625ZM13.7739 7.28066C13.6272 7.28066 13.4837 7.32513 13.3617 7.40844C13.2397 7.49176 13.1446 7.61017 13.0884 7.74871C13.0323 7.88726 13.0176 8.03971 13.0462 8.18678C13.0749 8.33386 13.1455 8.46896 13.2493 8.575C13.353 8.68103 13.4852 8.75325 13.6292 8.7825C13.7731 8.81176 13.9223 8.79674 14.0578 8.73936C14.1934 8.68197 14.3093 8.58479 14.3908 8.4601C14.4723 8.33542 14.5158 8.18882 14.5158 8.03887C14.5161 7.93909 14.4971 7.84023 14.4599 7.74796C14.4228 7.65569 14.3682 7.57181 14.2993 7.50112C14.2304 7.43043 14.1485 7.37432 14.0583 7.33598C13.9682 7.29765 13.8715 7.27785 13.7739 7.27772V7.28066Z" fill="white" stroke="white" stroke-width="0.5"/>
<path id="Path 8754" d="M13.7738 5.37949C13.6754 5.37949 13.581 5.33955 13.5115 5.26846C13.4419 5.19736 13.4028 5.10094 13.4028 5.00039V4.62129C13.4028 4.52075 13.4419 4.42432 13.5115 4.35322C13.581 4.28213 13.6754 4.24219 13.7738 4.24219C13.8722 4.24219 13.9665 4.28213 14.0361 4.35322C14.1057 4.42432 14.1448 4.52075 14.1448 4.62129V5.00039C14.1448 5.10094 14.1057 5.19736 14.0361 5.26846C13.9665 5.33955 13.8722 5.37949 13.7738 5.37949Z" fill="white" stroke="white" stroke-width="0.5"/>
<path id="Path 8755" d="M12.6598 22.4459C12.6025 22.4457 12.5461 22.432 12.4949 22.4057L11.0111 21.6485C10.923 21.6035 10.856 21.5247 10.8248 21.4292C10.7936 21.3338 10.8008 21.2296 10.8448 21.1396C10.8887 21.0496 10.9659 20.9811 11.0593 20.9492C11.1527 20.9174 11.2546 20.9247 11.3427 20.9696L12.8266 21.7269C12.9013 21.7651 12.9611 21.8279 12.9965 21.9053C13.0318 21.9826 13.0406 22.0698 13.0215 22.1529C13.0023 22.2359 12.9562 22.31 12.8908 22.3629C12.8253 22.4159 12.7443 22.4448 12.6608 22.4449L12.6598 22.4459Z" fill="white" stroke="white" stroke-width="0.5"/>
<path id="Path 8756" d="M12.6607 22.4417C12.5722 22.4423 12.4864 22.4104 12.4189 22.352C12.3513 22.2936 12.3065 22.2124 12.2923 22.1231C12.2782 22.0338 12.2958 21.9423 12.3419 21.8651C12.388 21.7879 12.4596 21.7301 12.5438 21.7021L13.6567 21.324C13.7029 21.3083 13.7518 21.3021 13.8004 21.3057C13.849 21.3093 13.8964 21.3226 13.94 21.345C13.9836 21.3673 14.0224 21.3982 14.0543 21.4358C14.0862 21.4735 14.1105 21.5172 14.1259 21.5645C14.1412 21.6118 14.1473 21.6617 14.1438 21.7114C14.1403 21.7611 14.1272 21.8095 14.1054 21.8541C14.0835 21.8986 14.0533 21.9383 14.0165 21.9709C13.9796 22.0035 13.9368 22.0283 13.8906 22.044L12.7777 22.4221C12.7399 22.4348 12.7005 22.4414 12.6607 22.4417Z" fill="white" stroke="white" stroke-width="0.5"/>
<path id="Path 8757" d="M14.8877 22.4459C14.8038 22.4462 14.7223 22.4176 14.6565 22.3645C14.5906 22.3114 14.5443 22.2372 14.525 22.1537C14.5058 22.0703 14.5148 21.9827 14.5505 21.9052C14.5863 21.8277 14.6467 21.7648 14.7219 21.7268L16.2057 20.9696C16.2493 20.9474 16.2968 20.9341 16.3454 20.9306C16.3941 20.9271 16.4429 20.9334 16.4891 20.9492C16.5354 20.965 16.5781 20.9899 16.6149 21.0226C16.6518 21.0553 16.6819 21.095 16.7037 21.1396C16.7255 21.1842 16.7384 21.2327 16.7419 21.2824C16.7453 21.3321 16.7391 21.382 16.7237 21.4292C16.7082 21.4765 16.6838 21.5202 16.6519 21.5578C16.6199 21.5954 16.581 21.6262 16.5374 21.6485L15.0535 22.4057C15.0021 22.4322 14.9453 22.446 14.8877 22.4459Z" fill="white" stroke="white" stroke-width="0.5"/>
<path id="Path 8758" d="M14.8869 22.4417C14.8472 22.4414 14.8077 22.4348 14.77 22.4221L13.6571 22.044C13.6108 22.0283 13.568 22.0035 13.5312 21.9709C13.4943 21.9383 13.4641 21.8986 13.4422 21.8541C13.4204 21.8095 13.4073 21.761 13.4038 21.7113C13.4003 21.6617 13.4064 21.6118 13.4217 21.5645C13.4371 21.5172 13.4614 21.4735 13.4933 21.4358C13.5252 21.3982 13.564 21.3673 13.6076 21.3449C13.6512 21.3226 13.6986 21.3093 13.7472 21.3057C13.7959 21.3021 13.8447 21.3083 13.891 21.324L15.0039 21.7021C15.088 21.7301 15.1596 21.7879 15.2057 21.8651C15.2518 21.9423 15.2694 22.0338 15.2553 22.1231C15.2412 22.2124 15.1963 22.2936 15.1287 22.352C15.0612 22.4104 14.9754 22.4422 14.8869 22.4417Z" fill="white" stroke="white" stroke-width="0.5"/>
<path id="Path 8759" d="M13.7855 23.9613C13.6871 23.9613 13.5928 23.9214 13.5232 23.8503C13.4536 23.7792 13.4146 23.6828 13.4146 23.5822C13.4146 23.4817 13.4536 23.3852 13.5232 23.3142C13.5928 23.2431 13.6871 23.2031 13.7855 23.2031C13.8839 23.2031 13.9783 23.2431 14.0478 23.3142C14.1174 23.3852 14.1565 23.4817 14.1565 23.5822C14.1565 23.6828 14.1174 23.7792 14.0478 23.8503C13.9783 23.9214 13.8839 23.9613 13.7855 23.9613Z" fill="white" stroke="white" stroke-width="0.5"/>
<path id="Path 8760" d="M26.3895 27.7496H17.8583C17.7599 27.7496 17.6655 27.7097 17.596 27.6386C17.5264 27.5675 17.4873 27.4711 17.4873 27.3705V21.301C17.4873 21.2004 17.5264 21.104 17.596 21.0329C17.6655 20.9618 17.7599 20.9219 17.8583 20.9219H26.3895C26.4879 20.9219 26.5822 20.9618 26.6518 21.0329C26.7214 21.104 26.7605 21.2004 26.7605 21.301V27.3745C26.7595 27.4743 26.7199 27.5697 26.6505 27.64C26.581 27.7102 26.4872 27.7496 26.3895 27.7496ZM18.2264 26.9914H26.0157V21.683H18.2235L18.2264 26.9914Z" fill="white" stroke="white" stroke-width="0.5"/>
<path id="Path 8761" d="M17.8555 21.6208C17.7863 21.62 17.7187 21.5994 17.6603 21.5614C17.6019 21.5233 17.5551 21.4694 17.5252 21.4055C17.4953 21.3417 17.4834 21.2706 17.491 21.2003C17.4986 21.13 17.5252 21.0632 17.568 21.0076L18.6809 19.5539C18.7102 19.5128 18.7473 19.4782 18.7901 19.4521C18.8328 19.426 18.8802 19.409 18.9295 19.402C18.9788 19.3951 19.0289 19.3983 19.077 19.4115C19.125 19.4247 19.1699 19.4477 19.2091 19.4791C19.2483 19.5104 19.2809 19.5495 19.305 19.594C19.3291 19.6385 19.3441 19.6875 19.3493 19.7381C19.3545 19.7886 19.3497 19.8398 19.3351 19.8884C19.3206 19.937 19.2966 19.9822 19.2646 20.0211L18.1517 21.4748C18.1167 21.5209 18.0718 21.558 18.0204 21.5833C17.969 21.6086 17.9126 21.6214 17.8555 21.6208Z" fill="white" stroke="white" stroke-width="0.5"/>
<path id="Path 8762" d="M26.3904 21.6847C26.3327 21.6849 26.2758 21.6712 26.2242 21.6448C26.1726 21.6185 26.1278 21.5801 26.0933 21.5329L24.9804 20.0146C24.9493 19.9749 24.9263 19.9293 24.9128 19.8804C24.8994 19.8315 24.8956 19.7803 24.9019 19.7299C24.9081 19.6795 24.9242 19.6309 24.9492 19.5869C24.9742 19.543 25.0076 19.5047 25.0474 19.4742C25.0872 19.4437 25.1325 19.4217 25.1808 19.4095C25.2291 19.3973 25.2792 19.3952 25.3283 19.4032C25.3774 19.4112 25.4245 19.4292 25.4666 19.4561C25.5088 19.4831 25.5452 19.5184 25.5737 19.56L26.6866 21.0774C26.7278 21.1337 26.753 21.2006 26.7592 21.2706C26.7654 21.3407 26.7523 21.4111 26.7216 21.474C26.6909 21.5369 26.6436 21.5899 26.5851 21.6269C26.5266 21.6639 26.4592 21.6836 26.3904 21.6838V21.6847Z" fill="white" stroke="white" stroke-width="0.5"/>
<path id="Path 8763" d="M25.2764 20.1644H18.9681C18.8697 20.1644 18.7754 20.1245 18.7058 20.0534C18.6362 19.9823 18.5972 19.8859 18.5972 19.7853C18.5972 19.6848 18.6362 19.5884 18.7058 19.5173C18.7754 19.4462 18.8697 19.4062 18.9681 19.4062H25.2764C25.3748 19.4062 25.4692 19.4462 25.5387 19.5173C25.6083 19.5884 25.6474 19.6848 25.6474 19.7853C25.6474 19.8859 25.6083 19.9823 25.5387 20.0534C25.4692 20.1245 25.3748 20.1644 25.2764 20.1644Z" fill="white" stroke="white" stroke-width="0.5"/>
<path id="Path 8764" d="M21.1962 21.66C21.1397 21.66 21.084 21.6468 21.0333 21.6214C20.9825 21.5961 20.9381 21.5592 20.9034 21.5137C20.8686 21.4682 20.8445 21.4153 20.8328 21.3588C20.8211 21.3023 20.8221 21.2439 20.8358 21.1879L21.2068 19.695C21.232 19.5987 21.2934 19.5164 21.3776 19.466C21.4618 19.4156 21.5621 19.4012 21.6566 19.4258C21.7512 19.4504 21.8324 19.5121 21.8828 19.5975C21.9332 19.6829 21.9486 19.7851 21.9257 19.8821L21.5547 21.373C21.5347 21.4548 21.4886 21.5274 21.4236 21.5794C21.3587 21.6313 21.2787 21.6597 21.1962 21.66Z" fill="white" stroke="white" stroke-width="0.5"/>
<path id="Path 8765" d="M23.0499 21.6852C22.9672 21.6852 22.8869 21.6569 22.8218 21.6049C22.7567 21.5529 22.7105 21.4802 22.6904 21.3982L22.3194 19.8799C22.2971 19.7828 22.3131 19.6807 22.3639 19.5957C22.4147 19.5106 22.4963 19.4494 22.5909 19.4253C22.6855 19.4012 22.7857 19.4162 22.8696 19.467C22.9535 19.5178 23.0145 19.6003 23.0393 19.6967L23.4102 21.2151C23.434 21.3126 23.4189 21.4158 23.3682 21.502C23.3175 21.5881 23.2354 21.6502 23.14 21.6745C23.1104 21.6818 23.0802 21.6854 23.0499 21.6852Z" fill="white" stroke="white" stroke-width="0.5"/>
<path id="Path 8766" d="M21.1952 23.5766C21.0968 23.5766 21.0024 23.5367 20.9329 23.4656C20.8633 23.3945 20.8242 23.2981 20.8242 23.1975V21.2775C20.8242 21.177 20.8633 21.0806 20.9329 21.0095C21.0024 20.9384 21.0968 20.8984 21.1952 20.8984C21.2936 20.8984 21.3879 20.9384 21.4575 21.0095C21.5271 21.0806 21.5661 21.177 21.5661 21.2775V23.1975C21.5661 23.2981 21.5271 23.3945 21.4575 23.4656C21.3879 23.5367 21.2936 23.5766 21.1952 23.5766Z" fill="white" stroke="white" stroke-width="0.5"/>
<path id="Path 8767" d="M23.0506 23.5775C22.9523 23.5775 22.8579 23.5376 22.7883 23.4665C22.7188 23.3954 22.6797 23.299 22.6797 23.1985V21.301C22.6797 21.2004 22.7188 21.104 22.7883 21.0329C22.8579 20.9618 22.9523 20.9219 23.0506 20.9219C23.149 20.9219 23.2434 20.9618 23.313 21.0329C23.3825 21.104 23.4216 21.2004 23.4216 21.301V23.1955C23.422 23.2456 23.4127 23.2952 23.3942 23.3415C23.3757 23.3878 23.3485 23.43 23.314 23.4655C23.2795 23.501 23.2385 23.5292 23.1933 23.5484C23.1481 23.5676 23.0996 23.5775 23.0506 23.5775Z" fill="white" stroke="white" stroke-width="0.5"/>
<path id="Path 8768" d="M23.051 23.5785H21.1962C21.0978 23.5785 21.0034 23.5386 20.9338 23.4675C20.8643 23.3964 20.8252 23.3 20.8252 23.1994C20.8252 23.0989 20.8643 23.0024 20.9338 22.9313C21.0034 22.8602 21.0978 22.8203 21.1962 22.8203H23.051C23.1494 22.8203 23.2437 22.8602 23.3133 22.9313C23.3829 23.0024 23.4219 23.0989 23.4219 23.1994C23.4219 23.3 23.3829 23.3964 23.3133 23.4675C23.2437 23.5386 23.1494 23.5785 23.051 23.5785Z" fill="white" stroke="white" stroke-width="0.5"/>
</g>
</g>
</svg>
