<svg width="32" height="32" viewBox="0 0 32 32" fill="none" xmlns="http://www.w3.org/2000/svg">
<g id="Data Entry/Computer Operator">
<g id="employee">
<g id="Group 6456">
<g id="Group 6455">
<path id="Path 8734" d="M24.8713 23.456C24.7595 23.456 24.6523 23.493 24.5733 23.5588C24.4943 23.6246 24.4499 23.7139 24.4499 23.807V26.0861H6.13564V20.8619C6.14002 20.8137 6.13239 20.7652 6.11326 20.7196C6.09412 20.674 6.06388 20.6322 6.02443 20.5967C5.98498 20.5613 5.93717 20.533 5.88399 20.5137C5.83081 20.4943 5.77341 20.4844 5.71539 20.4844C5.65736 20.4844 5.59997 20.4943 5.54679 20.5137C5.49361 20.533 5.4458 20.5613 5.40635 20.5967C5.3669 20.6322 5.33666 20.674 5.31753 20.7196C5.29839 20.7652 5.29077 20.8137 5.29515 20.8619V27.4181C5.29546 27.6355 5.3993 27.844 5.58387 27.9977C5.76844 28.1514 6.01869 28.2379 6.27972 28.2382H24.3094C24.5704 28.2379 24.8206 28.1514 25.0052 27.9977C25.1898 27.844 25.2936 27.6355 25.2939 27.4181V23.807C25.2936 23.7138 25.249 23.6245 25.1697 23.5587C25.0905 23.4929 24.9832 23.456 24.8713 23.456ZM24.4487 27.4191C24.4487 27.4345 24.445 27.4497 24.438 27.4639C24.4309 27.4781 24.4206 27.491 24.4075 27.5019C24.3945 27.5127 24.379 27.5214 24.3619 27.5272C24.3449 27.5331 24.3266 27.5361 24.3082 27.5361H6.27612C6.25767 27.5361 6.2394 27.5331 6.22235 27.5272C6.20531 27.5214 6.18982 27.5127 6.17678 27.5019C6.16373 27.491 6.15339 27.4781 6.14633 27.4639C6.13927 27.4497 6.13564 27.4345 6.13564 27.4191V26.7901H24.4499L24.4487 27.4191Z" fill="white" stroke="white" stroke-width="0.5"/>
</g>
</g>
<g id="Group 6458">
<g id="Group 6457">
<path id="Path 8735" d="M24.2085 16.7737H22.5996C22.0575 15.9216 21.312 15.1708 20.4088 14.5673C19.5057 13.9639 18.464 13.5206 17.3477 13.2646C17.9713 12.9643 18.4891 12.5327 18.8492 12.0132C19.2094 11.4936 19.3992 10.9044 19.3997 10.3044V7.66333C19.3997 6.75599 18.967 5.88581 18.1966 5.24422C17.4263 4.60263 16.3815 4.24219 15.2921 4.24219C14.2028 4.24219 13.158 4.60263 12.3876 5.24422C11.6173 5.88581 11.1846 6.75599 11.1846 7.66333V10.3044C11.1851 10.9044 11.3749 11.4936 11.7351 12.0132C12.0952 12.5327 12.613 12.9643 13.2366 13.2646C12.1203 13.5206 11.0786 13.9639 10.1755 14.5673C9.27233 15.1708 8.52682 15.9216 7.9847 16.7737H6.37577C6.08917 16.7737 5.81431 16.8685 5.61165 17.0373C5.409 17.2061 5.29515 17.435 5.29515 17.6737V21.6909C5.29077 21.7391 5.29839 21.7875 5.31753 21.8331C5.33666 21.8788 5.3669 21.9206 5.40635 21.956C5.4458 21.9915 5.49361 22.0198 5.54679 22.0391C5.59997 22.0584 5.65736 22.0684 5.71539 22.0684C5.77341 22.0684 5.83081 22.0584 5.88399 22.0391C5.93717 22.0198 5.98498 21.9915 6.02443 21.956C6.06388 21.9206 6.09412 21.8788 6.11326 21.8331C6.13239 21.7875 6.14002 21.7391 6.13564 21.6909V17.6777C6.13564 17.6247 6.16094 17.5738 6.20597 17.5363C6.25101 17.4988 6.31209 17.4777 6.37577 17.4777H24.2085C24.2722 17.4777 24.3333 17.4988 24.3783 17.5363C24.4234 17.5738 24.4487 17.6247 24.4487 17.6777V24.643C24.4443 24.6912 24.4519 24.7396 24.471 24.7853C24.4902 24.8309 24.5204 24.8727 24.5599 24.9082C24.5993 24.9436 24.6471 24.9719 24.7003 24.9912C24.7535 25.0105 24.8109 25.0205 24.8689 25.0205C24.9269 25.0205 24.9843 25.0105 25.0375 24.9912C25.0907 24.9719 25.1385 24.9436 25.1779 24.9082C25.2174 24.8727 25.2476 24.8309 25.2668 24.7853C25.2859 24.7396 25.2935 24.6912 25.2891 24.643V17.6777C25.2898 17.5592 25.2623 17.4417 25.2083 17.3321C25.1543 17.2224 25.0748 17.1227 24.9743 17.0387C24.8739 16.9547 24.7546 16.8881 24.6232 16.8426C24.4917 16.7971 24.3508 16.7737 24.2085 16.7737ZM15.2934 4.94222C16.1586 4.94301 16.9881 5.22964 17.5999 5.73921C18.2117 6.24878 18.5559 6.93968 18.5568 7.66033V8.60237C18.0731 8.50717 17.6241 8.31621 17.2478 8.04567C16.8716 7.77513 16.5792 7.433 16.3956 7.0483C16.3671 6.98516 16.3173 6.93021 16.2523 6.89001C16.1872 6.84982 16.1096 6.82608 16.0288 6.82165C15.948 6.81722 15.8674 6.83228 15.7965 6.86503C15.7257 6.89777 15.6678 6.94682 15.6295 7.0063C15.2307 7.49812 14.6946 7.90206 14.0673 8.18352C13.4399 8.46498 12.74 8.61557 12.0275 8.62237V7.66333C12.0275 6.94182 12.3715 6.24984 12.9839 5.73957C13.5964 5.22929 14.4271 4.94248 15.2934 4.94222ZM12.0287 10.3044V9.3254C12.7679 9.31019 13.4957 9.17021 14.1681 8.91391C14.8405 8.65762 15.4435 8.29035 15.9405 7.83434C16.215 8.22869 16.5926 8.56645 17.0454 8.82251C17.4981 9.07858 18.0143 9.24637 18.5556 9.3134V10.3054C18.5547 11.0091 18.2265 11.6851 17.6399 12.1915C17.0534 12.6979 16.2541 12.9954 15.4098 13.0216H15.297H15.2849H15.1721C14.328 12.9949 13.5292 12.6971 12.9431 12.1905C12.357 11.6839 12.0293 11.0079 12.0287 10.3044ZM13.5355 16.7737H8.95006C9.91718 15.4518 11.4282 14.4676 13.2017 14.0046L13.9606 15.2336L13.5355 16.7737ZM14.4012 16.7737L14.7434 15.5387H15.8421L16.1843 16.7737H14.4012ZM15.9201 14.8356H14.6654L14.0434 13.8286C14.2175 13.8006 14.394 13.7776 14.5705 13.7606H14.5777C14.7282 13.7459 14.8795 13.7356 15.0316 13.7296H15.0772H15.1841H15.2945H15.405H15.5119H15.5575C15.7088 13.7362 15.8601 13.7466 16.0114 13.7606H16.0186C16.1951 13.7776 16.3716 13.8006 16.5457 13.8286L15.9201 14.8356ZM17.05 16.7737L16.6237 15.2336L17.3826 14.0046C19.156 14.4677 20.667 15.4518 21.6342 16.7737H17.05Z" fill="white" stroke="white" stroke-width="0.5"/>
</g>
</g>
<g id="Group 6460">
<g id="Group 6459">
<path id="Path 8736" d="M15.2929 20.4766C14.9474 20.4766 14.6096 20.5619 14.3223 20.7218C14.035 20.8817 13.8111 21.1089 13.6789 21.3748C13.5467 21.6407 13.5121 21.9332 13.5795 22.2155C13.6469 22.4977 13.8133 22.757 14.0576 22.9605C14.3019 23.164 14.6132 23.3026 14.9521 23.3587C15.291 23.4149 15.6422 23.3861 15.9615 23.2759C16.2807 23.1658 16.5535 22.9793 16.7455 22.74C16.9375 22.5007 17.0399 22.2194 17.0399 21.9316C17.0396 21.5458 16.8555 21.1759 16.5279 20.903C16.2003 20.6302 15.7562 20.4768 15.2929 20.4766ZM15.2929 22.6826C15.1143 22.6826 14.9398 22.6385 14.7913 22.5559C14.6428 22.4733 14.5271 22.3558 14.4587 22.2184C14.3904 22.081 14.3725 21.9298 14.4073 21.7839C14.4422 21.638 14.5282 21.504 14.6544 21.3988C14.7807 21.2937 14.9416 21.2221 15.1168 21.1931C15.2919 21.164 15.4735 21.1789 15.6385 21.2358C15.8034 21.2928 15.9445 21.3892 16.0437 21.5128C16.1429 21.6365 16.1958 21.7819 16.1958 21.9306C16.196 22.0295 16.1728 22.1275 16.1275 22.2189C16.0822 22.3103 16.0157 22.3934 15.9319 22.4634C15.848 22.5334 15.7485 22.589 15.6388 22.627C15.5292 22.6649 15.4117 22.6845 15.2929 22.6847V22.6826Z" fill="white"/>
</g>
</g>
</g>
</g>
</svg>
