<svg width="32" height="32" viewBox="0 0 32 32" fill="none" xmlns="http://www.w3.org/2000/svg">
<g id="Fire Safety/ Firefighter">
<g id="Group">
<path id="Vector" d="M22.6672 19.4264L19.6 18.7071V16.96C20.6864 16.0368 21.6 14.7752 21.6 13.3754C21.632 13.3754 21.6644 13.3716 21.6968 13.3641C21.7748 13.3457 23.6 12.9017 23.6 11.5C23.6 11.0785 23.5964 10.3259 22.5572 9.54437C21.9508 7.15788 20.3056 5.51087 18 4.972V4.75C18 4.33637 17.6412 4 17.2 4H14.8C14.3588 4 14 4.33637 14 4.75V4.972C11.6944 5.51087 10.0492 7.1575 9.4428 9.54437C8.4036 10.3259 8.4 11.0785 8.4 11.5C8.4 12.9017 10.2252 13.3457 10.3032 13.3637C10.3356 13.3713 10.3676 13.375 10.4 13.375V13.5107C10.4 14.9065 11.292 16.1275 12.4 17.0275V18.7067L9.3328 19.426C8.3803 19.6482 7.5346 20.1631 6.93055 20.8884C6.32651 21.6137 5.99891 22.5078 6 23.428V27.625C6 27.7245 6.04215 27.8198 6.11716 27.8902C6.19217 27.9605 6.29392 28 6.4 28C6.50609 28 6.60783 27.9605 6.68285 27.8902C6.75786 27.8198 6.8 27.7245 6.8 27.625H8C8.10609 27.625 8.20783 27.5855 8.28285 27.5152C8.35786 27.4448 8.4 27.3495 8.4 27.25V25C8.4 24.9005 8.35786 24.8052 8.28285 24.7348C8.20783 24.6645 8.10609 24.625 8 24.625H6.8V23.428C6.79909 22.6752 7.06707 21.9438 7.56121 21.3504C8.05534 20.7569 8.74718 20.3357 9.5264 20.1539L12.7192 19.4054C13.1957 19.7068 13.7059 19.9584 14.2408 20.1558L14.2496 20.1588C14.4256 20.2225 14.6092 20.2814 14.7996 20.3316V24.625H10.8C10.8 24.5255 10.7579 24.4302 10.6828 24.3598C10.6078 24.2895 10.5061 24.25 10.4 24.25C10.2939 24.25 10.1922 24.2895 10.1172 24.3598C10.0421 24.4302 10 24.5255 10 24.625V27.625C10 27.7245 10.0421 27.8198 10.1172 27.8902C10.1922 27.9605 10.2939 28 10.4 28C10.5061 28 10.6078 27.9605 10.6828 27.8902C10.7579 27.8198 10.8 27.7245 10.8 27.625V26.875H14.8V27.625C14.8 27.7245 14.8421 27.8198 14.9172 27.8902C14.9922 27.9605 15.0939 28 15.2 28C15.3061 28 15.4078 27.9605 15.4828 27.8902C15.5579 27.8198 15.6 27.7245 15.6 27.625V20.4779C15.7328 20.491 15.866 20.5 16 20.5C16.134 20.5 16.2672 20.491 16.4 20.4779V27.625C16.4 27.7245 16.4421 27.8198 16.5172 27.8902C16.5922 27.9605 16.6939 28 16.8 28C16.9061 28 17.0078 27.9605 17.0828 27.8902C17.1579 27.8198 17.2 27.7245 17.2 27.625V26.875H21.2V27.625C21.2 27.7245 21.2421 27.8198 21.3172 27.8902C21.3922 27.9605 21.4939 28 21.6 28C21.7061 28 21.8078 27.9605 21.8828 27.8902C21.9579 27.8198 22 27.7245 22 27.625V24.625C22 24.5255 21.9579 24.4302 21.8828 24.3598C21.8078 24.2895 21.7061 24.25 21.6 24.25C21.4939 24.25 21.3922 24.2895 21.3172 24.3598C21.2421 24.4302 21.2 24.5255 21.2 24.625H17.2V20.3316C18.1532 20.08 18.9528 19.6139 19.2804 19.405L22.4732 20.1535C23.2525 20.3354 23.9445 20.7566 24.4387 21.3501C24.9329 21.9436 25.2009 22.6751 25.2 23.428V24.625H24C23.8939 24.625 23.7922 24.6645 23.7172 24.7348C23.6421 24.8052 23.6 24.9005 23.6 25V27.25C23.6 27.3495 23.6421 27.4448 23.7172 27.5152C23.7922 27.5855 23.8939 27.625 24 27.625H25.2C25.2 27.7245 25.2421 27.8198 25.3172 27.8902C25.3922 27.9605 25.4939 28 25.6 28C25.7061 28 25.8078 27.9605 25.8828 27.8902C25.9579 27.8198 26 27.7245 26 27.625V23.428C26 21.5316 24.6296 19.8861 22.6672 19.4264ZM7.6 25.375V26.875H6.8V25.375H7.6ZM10.8 26.125V25.375H14.8V26.125H10.8ZM21.2 25.375V26.125H17.2V25.375H21.2ZM18.786 16.6315C18.7948 16.5471 18.8 16.4616 18.8 16.375C18.7991 16.1536 18.7682 15.9332 18.708 15.7191C19.562 14.8608 20 13.9476 20 13V10.576C20.2892 10.6105 20.5596 10.6476 20.8 10.6885V13.375C20.8 14.6508 19.8504 15.8155 18.786 16.6315ZM9.7972 10.2441C9.93058 10.1321 10.0726 10.0295 10.222 9.937C11.318 9.25225 13.37 8.875 16 8.875C18.63 8.875 20.682 9.25225 21.778 9.937C21.9274 10.0295 22.0694 10.1321 22.2028 10.2441C20.9588 9.83312 18.8896 9.625 16 9.625C13.1104 9.625 11.0412 9.83312 9.7972 10.2441ZM12.8 10.4943C13.6796 10.42 14.7376 10.375 16 10.375C17.2624 10.375 18.3204 10.42 19.2 10.4943V13C19.2 13.6649 18.9132 14.3223 18.3552 14.9609C17.8568 14.2338 16.9884 13.75 16 13.75C15.0116 13.75 14.1432 14.2338 13.6448 14.9609C13.0868 14.3223 12.8 13.6649 12.8 13V10.4943ZM14 16.375C14 15.3411 14.8972 14.5 16 14.5C17.1028 14.5 18 15.3411 18 16.375C18 17.4089 17.1028 18.25 16 18.25C14.8972 18.25 14 17.4089 14 16.375ZM21.6 12.6085V10.8535C22.4352 11.0642 22.8 11.3069 22.8 11.4996C22.8 12.1844 21.8988 12.517 21.6 12.6085ZM21.54 8.96575C20.644 8.58588 19.4384 8.32675 18 8.20525V5.74787C19.6592 6.19788 20.9052 7.33487 21.54 8.96575ZM17.2 4.75V8.15387C16.4005 8.11584 15.5995 8.11584 14.8 8.15387V4.75H17.2ZM14 5.74787V8.20525C12.5616 8.32713 11.356 8.58625 10.46 8.96575C11.0948 7.33487 12.3408 6.19788 14 5.74787ZM9.2 11.5C9.2 11.3073 9.5648 11.0646 10.4 10.8539V12.6085C10.1 12.5166 9.2 12.1836 9.2 11.5ZM11.2 13.5107V10.6885C11.4656 10.6447 11.7324 10.6072 12 10.576V13C12 13.9476 12.438 14.8608 13.292 15.7191C13.2318 15.9332 13.2009 16.1536 13.2 16.375C13.2 16.4811 13.2088 16.585 13.222 16.6877C12.1528 15.9014 11.2 14.7696 11.2 13.5107ZM13.7388 17.9166C13.8188 18.0194 13.9052 18.1176 14 18.2084V19.2359C13.7241 19.1074 13.4569 18.963 13.2 18.8035V17.6035C13.3792 17.7171 13.5596 17.8206 13.7388 17.9166ZM14.8 19.5468V18.7431C15.1745 18.9117 15.5846 18.9994 16 19C16.4518 18.9997 16.8967 18.8968 17.2968 18.7002C17.697 18.5036 18.0403 18.219 18.2976 17.8709C18.4636 17.7771 18.6316 17.6751 18.8 17.5634V18.8035C18.3748 19.069 17.1688 19.75 16 19.75C15.5928 19.75 15.182 19.666 14.8 19.5468ZM24.4 26.875V25.375H25.2V26.875H24.4Z" fill="white"/>
<path id="Vector_2" d="M16.0001 6.25C16.221 6.25 16.4001 6.08211 16.4001 5.875C16.4001 5.66789 16.221 5.5 16.0001 5.5C15.7792 5.5 15.6001 5.66789 15.6001 5.875C15.6001 6.08211 15.7792 6.25 16.0001 6.25Z" fill="white"/>
<path id="Vector_3" d="M17.1998 16.375C17.1998 15.7548 16.6614 15.25 15.9998 15.25C15.3382 15.25 14.7998 15.7548 14.7998 16.375C14.7998 16.9952 15.3382 17.5 15.9998 17.5C16.6614 17.5 17.1998 16.9952 17.1998 16.375ZM15.5998 16.375C15.5998 16.2755 15.6419 16.1802 15.717 16.1098C15.792 16.0395 15.8937 16 15.9998 16C16.1059 16 16.2076 16.0395 16.2826 16.1098C16.3577 16.1802 16.3998 16.2755 16.3998 16.375C16.3998 16.4745 16.3577 16.5698 16.2826 16.6402C16.2076 16.7105 16.1059 16.75 15.9998 16.75C15.8937 16.75 15.792 16.7105 15.717 16.6402C15.6419 16.5698 15.5998 16.4745 15.5998 16.375Z" fill="white"/>
</g>
</g>
</svg>
