<svg width="32" height="32" viewBox="0 0 32 32" fill="none" xmlns="http://www.w3.org/2000/svg">
<g id="Mason/ Construction worker">
<g id="Group 39525">
<path id="construction-and-tools" d="M26.5793 26.662L21.1391 24.227C21.0135 24.1706 20.9071 24.0807 20.8324 23.9676C20.7577 23.8546 20.7178 23.7233 20.7175 23.589V21.397C21.4826 20.4098 21.8958 19.208 21.8948 17.973V14.035H23.4237C23.6159 14.035 23.8002 13.9609 23.9361 13.8291C24.0721 13.6973 24.1484 13.5184 24.1484 13.332C24.1484 13.1456 24.0721 12.9667 23.9361 12.8349C23.8002 12.7031 23.6159 12.629 23.4237 12.629H22.8144V11.903C22.8141 10.8263 22.5426 9.7659 22.0236 8.81414C21.5045 7.86239 20.7535 7.04806 19.836 6.442V5.993C19.8396 5.82808 19.7831 5.66723 19.6764 5.53881C19.5696 5.41039 19.4196 5.32266 19.2527 5.29109C19.0857 5.25952 18.9127 5.28615 18.764 5.36627C18.6154 5.44638 18.5007 5.57485 18.4402 5.729C17.8888 5.52358 17.3121 5.3891 16.7247 5.329V4.703C16.7247 4.51655 16.6483 4.33774 16.5124 4.2059C16.3765 4.07407 16.1922 4 16 4C15.8077 4 15.6234 4.07407 15.4875 4.2059C15.3516 4.33774 15.2752 4.51655 15.2752 4.703V5.324C14.6878 5.38412 14.1111 5.5186 13.5597 5.724C13.4996 5.56862 13.3846 5.43901 13.2351 5.35829C13.0856 5.27757 12.9114 5.251 12.7436 5.28332C12.5758 5.31563 12.4252 5.40474 12.3189 5.53472C12.2125 5.66471 12.1572 5.82713 12.1628 5.993V6.44C11.2451 7.04625 10.4939 7.86089 9.97484 8.81303C9.45575 9.76516 9.18443 10.8259 9.18449 11.903V12.63H8.57521C8.383 12.63 8.19866 12.7041 8.06274 12.8359C7.92682 12.9677 7.85047 13.1466 7.85047 13.333C7.85047 13.5194 7.92682 13.6983 8.06274 13.8301C8.19866 13.9619 8.383 14.036 8.57521 14.036H10.1041V17.973C10.1029 19.208 10.5161 20.4099 11.2814 21.397V23.588C11.281 23.7222 11.2412 23.8536 11.1665 23.9666C11.0918 24.0796 10.9854 24.1696 10.8597 24.226L5.42057 26.662C5.26812 26.7269 5.14348 26.8408 5.06776 26.9846C4.99203 27.1284 4.96989 27.2932 5.00508 27.451C5.04026 27.6088 5.13061 27.75 5.26082 27.8506C5.39103 27.9512 5.55309 28.005 5.71954 28.003H26.2752C26.4426 28.0068 26.6061 27.9541 26.7377 27.8538C26.8694 27.7536 26.9611 27.6121 26.997 27.4535C27.0329 27.2949 27.0109 27.1291 26.9347 26.9846C26.8585 26.84 26.7329 26.7266 26.5793 26.662ZM12.9896 25.47C12.762 25.1858 12.5993 24.8579 12.5123 24.508C12.6559 24.2213 12.7303 23.9067 12.7298 23.588V22.729C13.6975 23.3562 14.8351 23.691 15.9989 23.691C17.1627 23.691 18.3004 23.3562 19.268 22.729V23.588C19.2679 23.9211 19.3495 24.2495 19.5061 24.546C19.4121 24.8807 19.2494 25.1936 19.0278 25.466C18.6467 25.8679 18.1751 26.179 17.6497 26.375C17.1244 26.571 16.5594 26.6466 15.9989 26.596C15.4414 26.6476 14.8791 26.5727 14.3567 26.3771C13.8342 26.1815 13.3658 25.8706 12.9886 25.469L12.9896 25.47ZM10.634 11.903C10.6327 10.5435 11.1817 9.23782 12.1628 8.267V9.403C12.1628 9.58945 12.2392 9.76826 12.3751 9.9001C12.511 10.0319 12.6954 10.106 12.8876 10.106C13.0798 10.106 13.2641 10.0319 13.4001 9.9001C13.536 9.76826 13.6123 9.58945 13.6123 9.403V7.241C14.1343 6.98706 14.6957 6.81814 15.2742 6.741V10.27C15.2742 10.4564 15.3505 10.6353 15.4865 10.7671C15.6224 10.8989 15.8067 10.973 15.9989 10.973C16.1911 10.973 16.3755 10.8989 16.5114 10.7671C16.6473 10.6353 16.7237 10.4564 16.7237 10.27V6.744C17.3025 6.82108 17.8643 6.99 18.3865 7.244V9.403C18.3865 9.58945 18.4629 9.76826 18.5988 9.9001C18.7347 10.0319 18.9191 10.106 19.1113 10.106C19.3035 10.106 19.4878 10.0319 19.6238 9.9001C19.7597 9.76826 19.836 9.58945 19.836 9.403V8.267C20.8175 9.23772 21.3669 10.5434 21.3659 11.903V12.63H10.634V11.903ZM20.4453 14.036V17.973C20.4453 19.1167 19.9769 20.2136 19.1431 21.0224C18.3094 21.8311 17.1786 22.2855 15.9994 22.2855C14.8203 22.2855 13.6895 21.8311 12.8557 21.0224C12.022 20.2136 11.5536 19.1167 11.5536 17.973V14.035L20.4453 14.036ZM11.3567 25.553C11.5372 25.9367 11.7809 26.2893 12.0783 26.597H9.02469L11.3567 25.553ZM19.935 26.597C20.2329 26.292 20.4783 25.9426 20.6618 25.562L22.9752 26.597H19.935Z" fill="white"/>
</g>
</g>
</svg>
