<svg width="32" height="32" viewBox="0 0 32 32" fill="none" xmlns="http://www.w3.org/2000/svg">
<g id="Commercial">
<g id="Group">
<path id="Vector" d="M7.5 15.9973C6.9 15.9973 6.4 15.9973 5.9 16.0973C5.2 16.1973 4.8 16.7973 4.8 17.3973C4.8 19.5973 4.8 21.7973 4.8 23.9973C4.8 23.9973 4.8 23.9973 4.8 24.0973C5.5 24.0973 6.1 24.0973 6.8 24.0973C6.8 24.3973 6.8 24.5973 6.8 24.8973C6 24.8973 5.2 24.8973 4.4 24.8973C4.2 24.8973 4 24.6973 4 24.4973C4 24.3973 4 24.3973 4 24.2973C4 22.0973 4 19.7973 4 17.5973C4 16.2973 4.8 15.3973 6.2 15.2973C6.2 15.2973 6.2 15.2973 6.3 15.2973C5.5 14.4973 5.1 13.5973 5.2 12.5973C5.3 11.7973 5.7 11.1973 6.3 10.5973C7.6 9.59732 9.4 9.59732 10.6 10.6973C11.3 11.2973 11.6 12.0973 11.6 12.9973C11.6 13.7973 11.4 14.1973 10.6 15.1973C10.9 15.2973 11.3 15.2973 11.6 15.4973C12.4 15.8973 12.9 16.4973 12.8 17.2973C12.8 17.9973 12.8 18.6973 12.8 19.4973C13 19.4973 13.3 19.4973 13.5 19.4973C13.8 19.4973 14 19.5973 14 19.9973C14 20.5973 14 21.1973 14 21.8973C14.2 21.8973 14.5 21.8973 14.7 21.8973C15.1 21.8973 15.2 21.9973 15.2 22.3973C15.2 22.8973 15.2 23.3973 15.2 23.9973C15.2 24.0973 15.2 24.1973 15.2 24.2973C15.6 24.2973 15.9 24.2973 16.3 24.2973C16.7 24.2973 16.8 24.3973 16.8 24.7973C16.8 25.1973 16.8 25.6973 16.8 26.0973C16.8 26.4973 16.7 26.5973 16.3 26.5973C16.2 26.5973 16.1 26.5973 16 26.5973C16.1 27.1973 16 27.6973 15.4 27.9973C15 28.1973 14.5 28.1973 14.1 27.9973C13.6 27.6973 13.5 27.1973 13.6 26.6973C12.8 26.6973 11.9 26.6973 11.1 26.6973C11.2 27.2973 11.1 27.7973 10.5 28.0973C10.1 28.2973 9.6 28.2973 9.3 27.9973C8.8 27.6973 8.7 27.1973 8.8 26.6973C8.7 26.6973 8.5 26.6973 8.4 26.6973C8.1 26.6973 8 26.5973 7.9 26.2973C7.6 24.9973 7.2 23.5973 6.9 22.2973C6.9 22.1973 6.9 22.0973 6.8 22.0973C6.4 22.0973 6 22.0973 5.5 22.0973C5.5 21.7973 5.5 21.5973 5.5 21.2973C6 21.2973 6.6 21.2973 7.1 21.2973C7.3 21.2973 7.4 21.4973 7.5 21.6973C7.7 22.4973 7.9 23.3973 8.1 24.1973C8.1 24.2973 8.1 24.3973 8.2 24.3973C8.6 24.3973 9 24.3973 9.5 24.3973C9.5 23.8973 9.5 23.3973 9.5 22.8973C9.5 22.7973 9.5 22.6973 9.5 22.5973C9.5 22.2973 9.7 22.1973 9.9 22.1973C10.1 22.1973 10.4 22.1973 10.6 22.1973C10.6 22.0973 10.6 22.0973 10.6 21.9973C10.6 21.4973 10.6 20.9973 10.6 20.3973C10.6 19.9973 10.7 19.8973 11.2 19.8973C11.4 19.8973 11.6 19.8973 11.8 19.8973C11.8 19.7973 11.8 19.6973 11.8 19.6973C11.8 18.9973 11.8 18.3973 11.8 17.6973C11.8 17.2973 11.6 16.8973 11.2 16.6973C11.2 16.1973 10.9 15.9973 10.6 15.9973C10.2 15.9973 9.8 15.9973 9.3 15.9973C9.3 16.0973 9.3 16.1973 9.4 16.1973C9.5 16.3973 9.5 16.5973 9.6 16.7973C10 17.5973 10 18.2973 9.6 19.0973C9.3 19.6973 9.1 20.3973 8.8 21.0973C8.7 21.2973 8.6 21.4973 8.4 21.4973C8.2 21.4973 8.1 21.2973 8 21.0973C7.6 20.0973 7.2 19.1973 6.9 18.1973C6.8 18.0973 6.9 17.8973 6.9 17.6973C7.1 17.0973 7.3 16.5973 7.5 15.9973ZM6 12.8973C6 13.7973 6.4 14.4973 7.2 14.8973C8 15.3973 8.9 15.2973 9.7 14.7973C10.4 14.2973 10.8 13.6973 10.8 12.7973C9.9 12.9973 9.1 12.7973 8.4 12.2973C7.6 12.7973 7.4 12.7973 6 12.8973ZM8.7 25.6973C11.1 25.6973 13.6 25.6973 16 25.6973C16 25.3973 16 25.1973 16 24.9973C13.5 24.9973 11 24.9973 8.5 24.9973C8.6 25.1973 8.6 25.3973 8.7 25.6973ZM10.6 12.0973C10.3 11.1973 9.4 10.5973 8.3 10.5973C7.3 10.5973 6.4 11.2973 6.1 12.0973C6.9 12.1973 7.5 11.9973 8 11.5973C8.4 11.2973 8.5 11.2973 8.8 11.5973C9.3 11.9973 9.9 12.1973 10.6 12.0973ZM8.4 19.7973C8.7 19.1973 8.9 18.5973 9.2 17.9973C9.2 17.8973 9.2 17.7973 9.2 17.7973C9 17.2973 8.8 16.6973 8.6 16.1973C8.6 16.0973 8.5 16.0973 8.5 16.0973L8.4 16.1973C8.2 16.6973 8 17.2973 7.8 17.7973C7.8 17.8973 7.8 17.8973 7.8 17.9973C7.9 18.5973 8.1 19.1973 8.4 19.7973ZM13.2 21.7973C13.2 21.2973 13.2 20.7973 13.2 20.2973C12.7 20.2973 12.1 20.2973 11.6 20.2973C11.6 20.7973 11.6 21.2973 11.6 21.7973C12.1 21.7973 12.7 21.7973 13.2 21.7973ZM12 22.5973C11.5 22.5973 10.9 22.5973 10.4 22.5973C10.4 23.0973 10.4 23.5973 10.4 24.0973C10.9 24.0973 11.4 24.0973 12 24.0973C12 23.5973 12 23.0973 12 22.5973ZM12.8 22.5973C12.8 23.0973 12.8 23.5973 12.8 24.0973C13.3 24.0973 13.8 24.0973 14.4 24.0973C14.4 23.5973 14.4 23.0973 14.4 22.5973C13.9 22.5973 13.3 22.5973 12.8 22.5973ZM10 27.1973C10.2 27.1973 10.4 26.9973 10.4 26.7973C10.4 26.5973 10.2 26.3973 10 26.3973C9.8 26.3973 9.6 26.5973 9.6 26.7973C9.6 26.9973 9.8 27.1973 10 27.1973ZM14.8 27.1973C15 27.1973 15.2 26.9973 15.2 26.7973C15.2 26.5973 15 26.3973 14.8 26.3973C14.6 26.3973 14.4 26.5973 14.4 26.7973C14.4 26.9973 14.6 27.1973 14.8 27.1973Z" fill="white"/>
<path id="Vector_2" d="M21.4 14.8017C19.7 13.1017 20.4 11.0017 21.5 10.1017C22.8 9.10171 24.6 9.10171 25.8 10.3017C26.9 11.4017 27.2 13.4017 25.7 14.8017C25.9 14.8017 26.1 14.8017 26.2 14.9017C27.1 15.1017 27.7 15.6017 27.9 16.5017C27.9 16.6017 27.9 16.7017 27.9 16.9017C27.9 19.3017 27.9 21.6017 27.9 24.0017C27.9 24.4017 27.8 24.5017 27.4 24.5017C26.5 24.5017 25.7 24.5017 24.7 24.5017C24.7 24.6017 24.7 24.7017 24.7 24.8017C24.7 25.6017 24.7 26.4017 24.7 27.1017C24.7 27.4017 24.6 27.6017 24.2 27.6017C22.1 27.6017 20.1 27.6017 18 27.6017C17.6 27.6017 17.5 27.5017 17.5 27.1017C17.5 24.6017 17.5 22.1017 17.5 19.6017C17.5 19.3017 17.6 19.1017 18 19.1017C18.4 19.1017 18.7 19.1017 19.1 19.1017C19.1 18.9017 19.1 18.8017 19.1 18.6017C19.1 18.1017 19.1 17.5017 19.1 17.0017C19 15.8017 19.9 15.1017 20.8 14.9017C21 14.9017 21.2 14.9017 21.4 14.8017ZM18.4 26.8017C20.3 26.8017 22.1 26.8017 24 26.8017C24 24.5017 24 22.2017 24 19.9017C22.1 19.9017 20.3 19.9017 18.4 19.9017C18.4 22.2017 18.4 24.5017 18.4 26.8017ZM27.2 23.7017C27.2 23.6017 27.2 23.5017 27.2 23.4017C27.2 21.2017 27.2 19.0017 27.2 16.8017C27.2 16.3017 27 16.0017 26.6 15.8017C26 15.4017 25.3 15.6017 24.6 15.5017C24.8 16.1017 25 16.6017 25.2 17.1017C25.3 17.3017 25.3 17.5017 25.2 17.7017C25 18.1017 24.9 18.5017 24.7 18.9017C24.7 19.0017 24.7 19.0017 24.7 19.1017C24.7 19.2017 24.8 19.4017 24.8 19.5017C24.8 20.8017 24.8 22.1017 24.8 23.4017C24.8 23.5017 24.8 23.6017 24.8 23.7017C25.6 23.7017 26.4 23.7017 27.2 23.7017ZM21.2 12.4017C21.2 13.4017 21.6 14.1017 22.5 14.5017C23.4 15.0017 24.3 14.9017 25.1 14.3017C25.7 13.9017 26 13.2017 26 12.5017C25.1 12.7017 24.3 12.5017 23.6 11.9017C22.9 12.4017 22.1 12.6017 21.2 12.4017ZM20 19.1017C20.9 19.1017 21.7 19.1017 22.6 19.1017C22.5 18.9017 22.5 18.8017 22.4 18.7017C22 18.0017 22 17.2017 22.4 16.5017C22.5 16.3017 22.6 16.0017 22.7 15.7017C22.2 15.7017 21.7 15.7017 21.2 15.8017C20.6 15.9017 20.1 16.3017 20.1 16.8017C20 17.5017 20 18.3017 20 19.1017ZM21.4 11.7017C22 11.8017 22.6 11.7017 23.1 11.3017C23.6 10.9017 23.6 10.9017 24.1 11.3017C24.6 11.7017 25.2 11.8017 25.8 11.7017C25.5 10.8017 24.6 10.2017 23.6 10.2017C22.6 10.2017 21.7 10.8017 21.4 11.7017ZM23.6 19.2017C23.7 19.1017 23.8 19.0017 23.8 18.9017C24 18.5017 24.1 18.1017 24.3 17.7017C24.3 17.6017 24.3 17.5017 24.3 17.4017C24.1 16.9017 23.9 16.3017 23.7 15.8017C23.7 15.7017 23.6 15.7017 23.6 15.6017C23.6 15.7017 23.5 15.7017 23.5 15.8017C23.3 16.3017 23.1 16.9017 22.9 17.4017C22.9 17.5017 22.9 17.6017 22.9 17.7017C23.1 18.1017 23.2 18.6017 23.4 19.0017C23.4 19.0017 23.5 19.1017 23.6 19.2017Z" fill="white"/>
<path id="Vector_3" d="M16.4002 5.19844C16.4002 4.89844 16.4002 4.69844 16.4002 4.49844C16.4002 4.29844 16.5002 4.19844 16.6002 4.09844C16.8002 3.99844 17.0002 3.99844 17.1002 4.09844C18.3002 4.99844 19.4002 5.89844 20.6002 6.69844C20.8002 6.79844 20.8002 6.99844 20.8002 7.19844C20.7002 7.39844 20.6002 7.49844 20.4002 7.49844C17.5002 7.49844 14.6002 7.49844 11.7002 7.49844C11.3002 7.49844 11.2002 7.29844 11.2002 6.99844C11.2002 6.49844 11.2002 6.09844 11.2002 5.59844C11.2002 5.29844 11.3002 5.09844 11.7002 5.09844C13.2002 5.09844 14.6002 5.09844 16.1002 5.09844C16.2002 5.19844 16.3002 5.19844 16.4002 5.19844ZM19.2002 6.69844C18.5002 6.19844 17.9002 5.69844 17.2002 5.19844C17.2002 5.29844 17.2002 5.29844 17.2002 5.39844C17.2002 5.89844 17.1002 5.99844 16.6002 5.99844C15.2002 5.99844 13.7002 5.99844 12.3002 5.99844C12.2002 5.99844 12.1002 5.99844 12.0002 5.99844C12.0002 6.29844 12.0002 6.49844 12.0002 6.79844C14.4002 6.69844 16.8002 6.69844 19.2002 6.69844Z" fill="white"/>
<path id="Vector_4" d="M15.1998 10.5953C15.1998 10.8953 15.1998 11.0953 15.1998 11.2953C15.1998 11.3953 15.0998 11.5953 14.9998 11.6953C14.8998 11.7953 14.6998 11.6953 14.4998 11.5953C13.2998 10.6953 12.1998 9.89531 10.9998 8.99531C10.7998 8.89531 10.7998 8.69531 10.7998 8.49531C10.8998 8.29531 10.9998 8.19531 11.2998 8.19531C12.2998 8.19531 13.2998 8.19531 14.2998 8.19531C16.0998 8.19531 17.9998 8.19531 19.7998 8.19531C20.2998 8.19531 20.3998 8.29531 20.3998 8.69531C20.3998 9.09531 20.3998 9.59531 20.3998 9.99531C20.3998 10.3953 20.2998 10.4953 19.8998 10.4953C18.3998 10.4953 16.9998 10.4953 15.4998 10.4953C15.3998 10.5953 15.2998 10.5953 15.1998 10.5953ZM14.3998 10.5953C14.3998 10.4953 14.3998 10.4953 14.3998 10.4953C14.3998 9.99531 14.4998 9.89531 14.9998 9.89531C16.3998 9.89531 17.8998 9.89531 19.2998 9.89531C19.3998 9.89531 19.4998 9.89531 19.5998 9.89531C19.5998 9.59531 19.5998 9.39531 19.5998 9.09531C17.1998 9.09531 14.7998 9.09531 12.3998 9.09531C13.0998 9.59531 13.6998 9.99531 14.3998 10.5953Z" fill="white"/>
<path id="Vector_5" d="M23.1998 21C23.1998 21.2 23.1998 21.5 23.1998 21.7C22.3998 21.7 21.5998 21.7 20.7998 21.7C20.7998 21.5 20.7998 21.2 20.7998 21C21.5998 21 22.3998 21 23.1998 21Z" fill="white"/>
<path id="Vector_6" d="M20.7998 23C21.5998 23 22.3998 23 23.1998 23C23.1998 23.2 23.1998 23.5 23.1998 23.7C22.3998 23.7 21.5998 23.7 20.7998 23.7C20.7998 23.5 20.7998 23.2 20.7998 23Z" fill="white"/>
<path id="Vector_7" d="M23.1998 24.8984C23.1998 25.1984 23.1998 25.3984 23.1998 25.5984C22.3998 25.5984 21.5998 25.5984 20.7998 25.5984C20.7998 25.3984 20.7998 25.0984 20.7998 24.8984C21.5998 24.8984 22.3998 24.8984 23.1998 24.8984Z" fill="white"/>
<path id="Vector_8" d="M20.0002 21C20.0002 21.3 20.0002 21.5 20.0002 21.7C19.7002 21.7 19.5002 21.7 19.2002 21.7C19.2002 21.5 19.2002 21.2 19.2002 21C19.5002 21 19.7002 21 20.0002 21Z" fill="white"/>
<path id="Vector_9" d="M19.2002 23.7C19.2002 23.4 19.2002 23.2 19.2002 23C19.5002 23 19.7002 23 20.0002 23C20.0002 23.2 20.0002 23.5 20.0002 23.7C19.7002 23.7 19.5002 23.7 19.2002 23.7Z" fill="white"/>
<path id="Vector_10" d="M19.2002 24.8984C19.5002 24.8984 19.7002 24.8984 20.0002 24.8984C20.0002 25.0984 20.0002 25.3984 20.0002 25.6984C19.8002 25.6984 19.5002 25.6984 19.2002 25.6984C19.2002 25.3984 19.2002 25.1984 19.2002 24.8984Z" fill="white"/>
</g>
</g>
</svg>
