<svg width="32" height="32" viewBox="0 0 32 32" fill="none" xmlns="http://www.w3.org/2000/svg">
<g id="NGO/Development">
<g id="flat">
<path id="Path 8656" d="M9.28608 18.7266C9.1044 18.7266 8.93017 18.7987 8.8017 18.9272C8.67324 19.0556 8.60107 19.2299 8.60107 19.4116V20.6006C8.60107 20.7822 8.67324 20.9565 8.8017 21.0849C8.93017 21.2134 9.1044 21.2856 9.28608 21.2856C9.46775 21.2856 9.64198 21.2134 9.77044 21.0849C9.89891 20.9565 9.97107 20.7822 9.97107 20.6006V19.4116C9.97107 19.2299 9.89891 19.0556 9.77044 18.9272C9.64198 18.7987 9.46775 18.7266 9.28608 18.7266Z" fill="white"/>
<path id="Path 8657" d="M12.0258 18.7266C11.8441 18.7266 11.6699 18.7987 11.5415 18.9272C11.413 19.0556 11.3408 19.2299 11.3408 19.4116V20.6006C11.3408 20.7822 11.413 20.9565 11.5415 21.0849C11.6699 21.2134 11.8441 21.2856 12.0258 21.2856C12.2075 21.2856 12.3817 21.2134 12.5102 21.0849C12.6386 20.9565 12.7108 20.7822 12.7108 20.6006V19.4116C12.7108 19.2299 12.6386 19.0556 12.5102 18.9272C12.3817 18.7987 12.2075 18.7266 12.0258 18.7266Z" fill="white"/>
<path id="Path 8658" d="M14.7661 18.7266C14.5844 18.7266 14.4101 18.7987 14.2817 18.9272C14.1532 19.0556 14.0811 19.2299 14.0811 19.4116V20.6006C14.0811 20.7822 14.1532 20.9565 14.2817 21.0849C14.4101 21.2134 14.5844 21.2856 14.7661 21.2856C14.9477 21.2856 15.122 21.2134 15.2504 21.0849C15.3789 20.9565 15.4511 20.7822 15.4511 20.6006V19.4116C15.4511 19.2299 15.3789 19.0556 15.2504 18.9272C15.122 18.7987 14.9477 18.7266 14.7661 18.7266Z" fill="white"/>
<path id="Path 8659" d="M17.2338 18.7266C17.0522 18.7266 16.8779 18.7987 16.7495 18.9272C16.621 19.0556 16.5488 19.2299 16.5488 19.4116V20.6006C16.5488 20.7822 16.621 20.9565 16.7495 21.0849C16.8779 21.2134 17.0522 21.2856 17.2338 21.2856C17.4155 21.2856 17.5897 21.2134 17.7182 21.0849C17.8466 20.9565 17.9188 20.7822 17.9188 20.6006V19.4116C17.9188 19.2299 17.8466 19.0556 17.7182 18.9272C17.5897 18.7987 17.4155 18.7266 17.2338 18.7266Z" fill="white"/>
<path id="Path 8660" d="M19.9741 18.7266C19.7924 18.7266 19.6181 18.7987 19.4897 18.9272C19.3612 19.0556 19.2891 19.2299 19.2891 19.4116V20.6006C19.2891 20.7822 19.3612 20.9565 19.4897 21.0849C19.6181 21.2134 19.7924 21.2856 19.9741 21.2856C20.1557 21.2856 20.33 21.2134 20.4584 21.0849C20.5869 20.9565 20.6591 20.7822 20.6591 20.6006V19.4116C20.6591 19.2299 20.5869 19.0556 20.4584 18.9272C20.33 18.7987 20.1557 18.7266 19.9741 18.7266Z" fill="white"/>
<path id="Path 8661" d="M22.7138 18.7266C22.5321 18.7266 22.3579 18.7987 22.2294 18.9272C22.101 19.0556 22.0288 19.2299 22.0288 19.4116V20.6006C22.0288 20.7822 22.101 20.9565 22.2294 21.0849C22.3579 21.2134 22.5321 21.2856 22.7138 21.2856C22.8955 21.2856 23.0697 21.2134 23.1982 21.0849C23.3266 20.9565 23.3988 20.7822 23.3988 20.6006V19.4116C23.3988 19.2299 23.3266 19.0556 23.1982 18.9272C23.0697 18.7987 22.8955 18.7266 22.7138 18.7266Z" fill="white"/>
<path id="Path 8662" d="M9.28608 14.8984C9.19612 14.8984 9.10705 14.9162 9.02394 14.9506C8.94083 14.985 8.86531 15.0355 8.8017 15.0991C8.7381 15.1627 8.68764 15.2382 8.65322 15.3213C8.61879 15.4044 8.60107 15.4935 8.60107 15.5834V16.7724C8.60107 16.9541 8.67324 17.1283 8.8017 17.2568C8.93017 17.3853 9.1044 17.4574 9.28608 17.4574C9.46775 17.4574 9.64198 17.3853 9.77044 17.2568C9.89891 17.1283 9.97107 16.9541 9.97107 16.7724V15.5844C9.9712 15.4944 9.95359 15.4052 9.91922 15.322C9.88485 15.2388 9.83442 15.1631 9.7708 15.0994C9.70718 15.0357 9.63162 14.9852 9.54844 14.9507C9.46527 14.9162 9.37612 14.8984 9.28608 14.8984Z" fill="white"/>
<path id="Path 8663" d="M12.0258 14.8984C11.9359 14.8984 11.8468 14.9162 11.7637 14.9506C11.6806 14.985 11.6051 15.0355 11.5415 15.0991C11.4778 15.1627 11.4274 15.2382 11.393 15.3213C11.3585 15.4044 11.3408 15.4935 11.3408 15.5834V16.7724C11.3408 16.9541 11.413 17.1283 11.5415 17.2568C11.6699 17.3853 11.8441 17.4574 12.0258 17.4574C12.2075 17.4574 12.3817 17.3853 12.5102 17.2568C12.6386 17.1283 12.7108 16.9541 12.7108 16.7724V15.5844C12.711 15.4944 12.6933 15.4052 12.659 15.322C12.6246 15.2388 12.5742 15.1631 12.5105 15.0994C12.4469 15.0357 12.3714 14.9852 12.2882 14.9507C12.205 14.9162 12.1159 14.8984 12.0258 14.8984Z" fill="white"/>
<path id="Path 8664" d="M14.7661 14.8984C14.6761 14.8984 14.587 14.9162 14.5039 14.9506C14.4208 14.985 14.3453 15.0355 14.2817 15.0991C14.2181 15.1627 14.1676 15.2382 14.1332 15.3213C14.0988 15.4044 14.0811 15.4935 14.0811 15.5834V16.7724C14.0811 16.9541 14.1532 17.1283 14.2817 17.2568C14.4101 17.3853 14.5844 17.4574 14.7661 17.4574C14.9477 17.4574 15.122 17.3853 15.2504 17.2568C15.3789 17.1283 15.4511 16.9541 15.4511 16.7724V15.5844C15.4512 15.4944 15.4336 15.4052 15.3992 15.322C15.3648 15.2388 15.3144 15.1631 15.2508 15.0994C15.1872 15.0357 15.1116 14.9852 15.0284 14.9507C14.9453 14.9162 14.8561 14.8984 14.7661 14.8984Z" fill="white"/>
<path id="Path 8665" d="M17.2338 14.8984C17.1439 14.8984 17.0548 14.9162 16.9717 14.9506C16.8886 14.985 16.8131 15.0355 16.7495 15.0991C16.6858 15.1627 16.6354 15.2382 16.601 15.3213C16.5665 15.4044 16.5488 15.4935 16.5488 15.5834V16.7724C16.5488 16.9541 16.621 17.1283 16.7495 17.2568C16.8779 17.3853 17.0522 17.4574 17.2338 17.4574C17.4155 17.4574 17.5897 17.3853 17.7182 17.2568C17.8466 17.1283 17.9188 16.9541 17.9188 16.7724V15.5844C17.919 15.4944 17.9013 15.4052 17.867 15.322C17.8326 15.2388 17.7822 15.1631 17.7186 15.0994C17.6549 15.0357 17.5794 14.9852 17.4962 14.9507C17.413 14.9162 17.3239 14.8984 17.2338 14.8984Z" fill="white"/>
<path id="Path 8666" d="M19.9741 14.8984C19.8841 14.8984 19.795 14.9162 19.7119 14.9506C19.6288 14.985 19.5533 15.0355 19.4897 15.0991C19.4261 15.1627 19.3756 15.2382 19.3412 15.3213C19.3068 15.4044 19.2891 15.4935 19.2891 15.5834V16.7724C19.2891 16.9541 19.3612 17.1283 19.4897 17.2568C19.6181 17.3853 19.7924 17.4574 19.9741 17.4574C20.1557 17.4574 20.33 17.3853 20.4584 17.2568C20.5869 17.1283 20.6591 16.9541 20.6591 16.7724V15.5844C20.6592 15.4944 20.6416 15.4052 20.6072 15.322C20.5728 15.2388 20.5224 15.1631 20.4588 15.0994C20.3952 15.0357 20.3196 14.9852 20.2364 14.9507C20.1533 14.9162 20.0641 14.8984 19.9741 14.8984Z" fill="white"/>
<path id="Path 8667" d="M22.7138 14.8984C22.6239 14.8984 22.5348 14.9162 22.4517 14.9506C22.3686 14.985 22.2931 15.0355 22.2294 15.0991C22.1658 15.1627 22.1154 15.2382 22.081 15.3213C22.0465 15.4044 22.0288 15.4935 22.0288 15.5834V16.7724C22.0288 16.9541 22.101 17.1283 22.2294 17.2568C22.3579 17.3853 22.5321 17.4574 22.7138 17.4574C22.8955 17.4574 23.0697 17.3853 23.1982 17.2568C23.3266 17.1283 23.3988 16.9541 23.3988 16.7724V15.5844C23.399 15.4944 23.3813 15.4052 23.347 15.322C23.3126 15.2388 23.2622 15.1631 23.1985 15.0994C23.1349 15.0357 23.0594 14.9852 22.9762 14.9507C22.893 14.9162 22.8039 14.8984 22.7138 14.8984Z" fill="white"/>
<path id="Path 8668" d="M13.2602 7.90625C13.0785 7.90625 12.9043 7.97842 12.7758 8.10688C12.6474 8.23535 12.5752 8.40958 12.5752 8.59125V9.78025C12.5752 9.96192 12.6474 10.1362 12.7758 10.2646C12.9043 10.3931 13.0785 10.4653 13.2602 10.4653C13.4419 10.4653 13.6161 10.3931 13.7446 10.2646C13.873 10.1362 13.9452 9.96192 13.9452 9.78025V8.59225C13.9453 8.50221 13.9277 8.41303 13.8933 8.32981C13.859 8.24658 13.8085 8.17095 13.7449 8.10723C13.6813 8.04352 13.6057 7.99298 13.5226 7.95849C13.4394 7.924 13.3502 7.90625 13.2602 7.90625Z" fill="white"/>
<path id="Path 8669" d="M15.9999 7.90625C15.8183 7.90625 15.644 7.97842 15.5156 8.10688C15.3871 8.23535 15.3149 8.40958 15.3149 8.59125V9.78025C15.3149 9.87021 15.3327 9.95928 15.3671 10.0424C15.4015 10.1255 15.452 10.201 15.5156 10.2646C15.5792 10.3282 15.6547 10.3787 15.7378 10.4131C15.8209 10.4475 15.91 10.4653 15.9999 10.4653C16.0899 10.4653 16.179 10.4475 16.2621 10.4131C16.3452 10.3787 16.4207 10.3282 16.4843 10.2646C16.5479 10.201 16.5984 10.1255 16.6328 10.0424C16.6672 9.95928 16.6849 9.87021 16.6849 9.78025V8.59225C16.6851 8.50221 16.6675 8.41303 16.6331 8.32981C16.5987 8.24658 16.5483 8.17095 16.4847 8.10723C16.421 8.04352 16.3455 7.99298 16.2623 7.95849C16.1791 7.924 16.09 7.90625 15.9999 7.90625Z" fill="white"/>
<path id="Path 8670" d="M18.7402 7.90625C18.5585 7.90625 18.3843 7.97842 18.2558 8.10688C18.1274 8.23535 18.0552 8.40958 18.0552 8.59125V9.78025C18.0552 9.96192 18.1274 10.1362 18.2558 10.2646C18.3843 10.3931 18.5585 10.4653 18.7402 10.4653C18.9218 10.4653 19.0961 10.3931 19.2245 10.2646C19.353 10.1362 19.4252 9.96192 19.4252 9.78025V8.59225C19.4253 8.50221 19.4077 8.41303 19.3733 8.32981C19.339 8.24658 19.2885 8.17095 19.2249 8.10723C19.1613 8.04352 19.0857 7.99298 19.0025 7.95849C18.9194 7.924 18.8302 7.90625 18.7402 7.90625Z" fill="white"/>
<path id="Path 8671" d="M27.315 11.572H22.243V5.685C22.243 5.50333 22.1708 5.32909 22.0424 5.20063C21.9139 5.07217 21.7397 5 21.558 5H10.442C10.352 5 10.263 5.01772 10.1799 5.05214C10.0968 5.08657 10.0212 5.13702 9.95763 5.20063C9.89402 5.26424 9.84357 5.33975 9.80914 5.42286C9.77472 5.50597 9.757 5.59504 9.757 5.685V11.572H4.685C4.50333 11.572 4.32909 11.6442 4.20063 11.7726C4.07217 11.9011 4 12.0753 4 12.257C4 12.4387 4.07217 12.6129 4.20063 12.7414C4.32909 12.8698 4.50333 12.942 4.685 12.942H5.329V26.924C5.329 27.1057 5.40117 27.2799 5.52963 27.4084C5.65809 27.5368 5.83233 27.609 6.014 27.609H25.986C26.1677 27.609 26.3419 27.5368 26.4704 27.4084C26.5988 27.2799 26.671 27.1057 26.671 26.924V12.942H27.315C27.405 12.942 27.494 12.9243 27.5771 12.8899C27.6602 12.8554 27.7358 12.805 27.7994 12.7414C27.863 12.6778 27.9134 12.6022 27.9479 12.5191C27.9823 12.436 28 12.347 28 12.257C28 12.167 27.9823 12.078 27.9479 11.9949C27.9134 11.9118 27.863 11.8362 27.7994 11.7726C27.7358 11.709 27.6602 11.6586 27.5771 11.6241C27.494 11.5897 27.405 11.572 27.315 11.572ZM19.375 26.239H16.68C16.6814 26.2134 16.6814 26.1876 16.68 26.162V25.132H19.37V26.239H19.375ZM15.32 26.239H12.625V25.132H15.315V26.161C15.3136 26.1866 15.3136 26.2124 15.315 26.238L15.32 26.239ZM20.745 26.239V24.447C20.745 24.2653 20.6728 24.0911 20.5444 23.9626C20.4159 23.8342 20.2417 23.762 20.06 23.762H11.94C11.7583 23.762 11.5841 23.8342 11.4556 23.9626C11.3272 24.0911 11.255 24.2653 11.255 24.447V26.239H6.7V12.939H25.3V26.239H20.745ZM11.127 6.37H20.874V11.57H11.127V6.37Z" fill="white"/>
</g>
</g>
</svg>
