<svg width="32" height="32" viewBox="0 0 32 32" fill="none" xmlns="http://www.w3.org/2000/svg">
<path d="M27.294 23.1386H26.306V20.3976C26.306 20.2104 26.2316 20.0308 26.0992 19.8984C25.9668 19.766 25.7872 19.6916 25.6 19.6916H24.609V14.5246H25.6C25.7872 14.5246 25.9668 14.4503 26.0992 14.3179C26.2316 14.1855 26.306 14.0059 26.306 13.8186V10.3706C26.306 10.2435 26.2717 10.1187 26.2068 10.0095C26.1419 9.90016 26.0487 9.81041 25.937 9.74963L16.359 4.09763C16.2503 4.03371 16.1266 4 16.0005 4C15.8744 4 15.7507 4.03371 15.642 4.09763L6.064 9.74963C5.95227 9.81033 5.85901 9.90006 5.79406 10.0094C5.72911 10.1187 5.69489 10.2435 5.695 10.3706V13.8186C5.695 14.0059 5.76938 14.1855 5.90178 14.3179C6.03418 14.4503 6.21376 14.5246 6.401 14.5246H7.392V19.6906H6.4C6.21276 19.6906 6.03318 19.765 5.90078 19.8974C5.76838 20.0298 5.694 20.2094 5.694 20.3966V23.1396H4.706C4.51893 23.1396 4.33951 23.2139 4.20714 23.3461C4.07476 23.4782 4.00026 23.6576 4 23.8446V27.2976C4.00158 27.4838 4.07666 27.6619 4.20889 27.793C4.34112 27.9241 4.51979 27.9976 4.706 27.9976H27.294C27.4802 27.9976 27.6589 27.9241 27.7911 27.793C27.9233 27.6619 27.9984 27.4838 28 27.2976V23.8446C28 23.6574 27.9256 23.4778 27.7932 23.3454C27.6608 23.213 27.4812 23.1386 27.294 23.1386ZM16 5.52463L23.015 9.66463H8.985L16 5.52463ZM7.106 13.1126V11.0766H24.894V13.1126H7.106ZM23.2 14.5246V19.6906H21.484V14.5246H23.2ZM20.075 14.5246V19.6906H18.378V14.5246H20.075ZM16.97 14.5246V19.6906H15.033V14.5246H16.97ZM13.625 14.5246V19.6906H11.928V14.5246H13.625ZM10.52 14.5246V19.6906H8.8V14.5246H10.52ZM7.106 21.0976H24.894V23.1346H7.106V21.0976ZM26.588 26.5876H5.412V24.5506H26.588V26.5876Z" fill="white"/>
</svg>
