<svg width="32" height="32" viewBox="0 0 32 32" fill="none" xmlns="http://www.w3.org/2000/svg">
<g id="HR/Org. Development">
<g id="Group 39522">
<path id="graph" d="M27.298 23.6152H26.639V11.6989C26.639 11.5152 26.5646 11.3391 26.4322 11.2092C26.2998 11.0794 26.1202 11.0064 25.933 11.0064H22.064C21.8768 11.0064 21.6972 11.0794 21.5648 11.2092C21.4324 11.3391 21.358 11.5152 21.358 11.6989V23.6152H19.366V7.69242C19.366 7.50878 19.2916 7.33266 19.1592 7.20281C19.0268 7.07295 18.8472 7 18.66 7H14.79C14.6028 7 14.4232 7.07295 14.2908 7.20281C14.1584 7.33266 14.084 7.50878 14.084 7.69242V23.6152H12.093V14.9442C12.093 14.7606 12.0186 14.5844 11.8862 14.4546C11.7538 14.3247 11.5742 14.2518 11.387 14.2518H7.518C7.33076 14.2518 7.15118 14.3247 7.01878 14.4546C6.88638 14.5844 6.812 14.7606 6.812 14.9442V23.6142H5.412V7.69242C5.412 7.50878 5.33762 7.33266 5.20522 7.20281C5.07282 7.07295 4.89324 7 4.706 7C4.51876 7 4.33918 7.07295 4.20678 7.20281C4.07438 7.33266 4 7.50878 4 7.69242V24.3076C4 24.3985 4.01826 24.4886 4.05374 24.5726C4.08922 24.6566 4.14122 24.7329 4.20678 24.7972C4.27234 24.8615 4.35017 24.9125 4.43583 24.9473C4.52148 24.9821 4.61329 25 4.706 25H27.298C27.4852 25 27.6648 24.9271 27.7972 24.7972C27.9296 24.6673 28.004 24.4912 28.004 24.3076C28.004 24.1239 27.9296 23.9478 27.7972 23.818C27.6648 23.6881 27.4852 23.6152 27.298 23.6152ZM8.224 23.6152V15.6376H10.682V23.6152H8.224ZM15.497 23.6152V8.38484H17.955V23.6152H15.497ZM22.77 23.6152V12.3942H25.228V23.6152H22.77Z" fill="white"/>
</g>
</g>
</svg>
