<svg width="32" height="32" viewBox="0 0 32 32" fill="none" xmlns="http://www.w3.org/2000/svg">
<g id="Electrician/Electronics Technician">
<g id="electrician">
<g id="Group 6462">
<g id="Group 6461">
<path id="Path 8774" d="M15.6374 24.9559C15.5657 25.0244 15.5169 25.1117 15.4972 25.2067C15.4774 25.3017 15.4875 25.4002 15.5263 25.4897C15.565 25.5792 15.6307 25.6557 15.7149 25.7096C15.7992 25.7634 15.8982 25.7921 15.9995 25.7921C16.1009 25.7921 16.1999 25.7634 16.2842 25.7096C16.3684 25.6557 16.4341 25.5792 16.4728 25.4897C16.5116 25.4002 16.5217 25.3017 16.5019 25.2067C16.4822 25.1117 16.4334 25.0244 16.3617 24.9559C16.2656 24.8641 16.1354 24.8125 15.9995 24.8125C15.8637 24.8125 15.7334 24.8641 15.6374 24.9559Z" fill="white" stroke="white" stroke-width="0.5"/>
<path id="Path 8775" d="M15.6374 22.995C15.5657 23.0635 15.5169 23.1507 15.4972 23.2457C15.4774 23.3407 15.4875 23.4392 15.5263 23.5287C15.565 23.6182 15.6307 23.6948 15.7149 23.7486C15.7992 23.8024 15.8982 23.8312 15.9995 23.8312C16.1009 23.8312 16.1999 23.8024 16.2842 23.7486C16.3684 23.6948 16.4341 23.6182 16.4728 23.5287C16.5116 23.4392 16.5217 23.3407 16.5019 23.2457C16.4822 23.1507 16.4334 23.0635 16.3617 22.995C16.2656 22.9031 16.1354 22.8516 15.9995 22.8516C15.8637 22.8516 15.7334 22.9031 15.6374 22.995Z" fill="white" stroke="white" stroke-width="0.5"/>
<path id="Path 8776" d="M25.8067 21.9836L25.7196 21.9591C24.939 21.7426 24.1802 21.4597 23.4524 21.1137C22.6012 20.8498 21.8018 20.4526 21.0868 19.9382L20.7938 17.8615C21.796 16.6108 22.4152 15.1186 22.5826 13.5512H23.1369C23.193 13.5605 23.2508 13.5533 23.3026 13.5306C23.3544 13.5079 23.3978 13.4708 23.4272 13.4241C23.4565 13.3773 23.4704 13.3233 23.4671 13.2689C23.4637 13.2145 23.4432 13.1623 23.4084 13.1192C23.2489 12.8728 23.0497 12.652 22.8182 12.4649V11.2502C22.8072 9.60885 22.1534 8.03104 20.9858 6.82789C19.8181 5.62474 18.2213 4.88359 16.5104 4.7506C16.5104 4.74374 16.5104 4.73786 16.5104 4.73198C16.5104 4.60208 16.4564 4.4775 16.3603 4.38565C16.2643 4.29379 16.134 4.24219 15.9981 4.24219C15.8623 4.24219 15.732 4.29379 15.6359 4.38565C15.5398 4.4775 15.4859 4.60208 15.4859 4.73198C15.4859 4.73786 15.4859 4.74374 15.4859 4.7506C13.7758 4.88475 12.1803 5.6264 11.0137 6.82944C9.84712 8.03247 9.19403 9.60963 9.18313 11.2502V12.4619C8.95195 12.649 8.75313 12.8699 8.59404 13.1163C8.55915 13.1594 8.53869 13.2115 8.53533 13.2659C8.53197 13.3203 8.54588 13.3744 8.57523 13.4211C8.60458 13.4678 8.64801 13.5049 8.69981 13.5276C8.75161 13.5503 8.80938 13.5575 8.86554 13.5483H9.41569C9.58321 15.1157 10.2025 16.6078 11.2045 17.8585L10.9125 19.9352C10.1975 20.4497 9.39812 20.847 8.54692 21.1108C7.81914 21.4568 7.06036 21.7398 6.27969 21.9561L6.19261 21.9806C5.63087 22.1566 5.14146 22.4975 4.79401 22.9547C4.44656 23.412 4.25876 23.9624 4.25732 24.5276V27.7524H27.7471V24.5335C27.746 23.9671 27.5577 23.4156 27.2093 22.9577C26.8608 22.4998 26.3699 22.1589 25.8067 21.9836ZM10.2076 11.2502C10.206 10.5092 10.3633 9.77572 10.6697 9.09509C11.2705 7.76668 12.3817 6.70948 13.7739 6.14162C14.4777 5.85517 15.2348 5.70753 15.9997 5.70753C16.7646 5.70753 17.5216 5.85517 18.2254 6.14162C19.6184 6.70876 20.7302 7.76616 21.3307 9.09509C21.6366 9.77584 21.7935 10.5093 21.7917 11.2502V11.7723C19.9957 10.92 18.002 10.5198 15.9991 10.6095C13.9966 10.5197 12.0032 10.9199 10.2076 11.7723V11.2502ZM21.1801 12.5687H10.8193C11.4173 12.276 12.0518 12.0568 12.7074 11.9163C13.788 11.6874 14.8924 11.5776 15.9991 11.5891C17.1062 11.5773 18.2109 11.6867 19.2919 11.9153C19.9476 12.0562 20.582 12.2757 21.1801 12.5687ZM10.4433 13.5483H21.555C21.3467 15.1599 20.62 16.6698 19.4753 17.8693C18.9279 18.4774 18.2851 19.0006 17.5697 19.42C17.1007 19.7165 16.5607 19.8945 16.0002 19.9372C15.4397 19.8945 14.8997 19.7165 14.4306 19.42C13.7153 19.0006 13.0724 18.4775 12.5251 17.8693C11.3796 16.67 10.6522 15.1601 10.4433 13.5483ZM13.9501 26.7728H5.2808V24.5335C5.28149 24.1766 5.39919 23.8289 5.61733 23.5393C5.83548 23.2497 6.14309 23.0328 6.49689 22.9191L6.55426 22.9034C7.21449 22.7384 7.85513 22.5086 8.46598 22.2177C8.6299 22.1423 8.77333 22.0776 8.91061 22.0277C9.77639 21.7398 10.5989 21.3446 11.3571 20.8521L13.0568 22.6585C13.1464 22.7544 13.2717 22.8127 13.4059 22.821C13.5401 22.8292 13.6723 22.7867 13.7739 22.7026L13.9512 22.5557L13.9501 26.7728ZM13.483 21.6486L11.936 20.0009L12.0948 18.8685C12.8288 19.622 13.7151 20.2252 14.7001 20.6415L13.483 21.6486ZM17.0247 26.7728H14.9757V21.7122L15.9408 20.9148H16.0596L17.0247 21.7122V26.7728ZM17.2972 20.6415C18.2825 20.2252 19.1692 19.622 19.9035 18.8685L20.0623 20.0009L18.5153 21.6486L17.2972 20.6415ZM26.7226 26.7728H18.0482V22.5606L18.2264 22.7075C18.3281 22.7916 18.4603 22.8341 18.5944 22.8259C18.7286 22.8176 18.854 22.7593 18.9436 22.6634L20.6422 20.8531C21.4006 21.3458 22.2235 21.741 23.0897 22.0286C23.226 22.0786 23.3684 22.1432 23.5333 22.2187C24.1442 22.5096 24.7848 22.7393 25.4451 22.9044L25.5024 22.9201C25.8568 23.033 26.1652 23.2495 26.3841 23.539C26.603 23.8284 26.7214 24.1763 26.7226 24.5335V26.7728Z" fill="white" stroke="white" stroke-width="0.5"/>
<path id="Path 8777" d="M16.4244 9.90264L17.4489 8.44403C17.5007 8.37032 17.5306 8.28451 17.5354 8.19581C17.5402 8.1071 17.5196 8.01882 17.4759 7.94043C17.4322 7.86204 17.3671 7.79647 17.2874 7.75076C17.2078 7.70505 17.1166 7.68091 17.0237 7.68092H15.9357L16.4244 6.98541C16.4642 6.9321 16.4925 6.87168 16.5074 6.80774C16.5224 6.74379 16.5238 6.67763 16.5115 6.61316C16.4993 6.54869 16.4736 6.48723 16.4361 6.43242C16.3986 6.3776 16.3499 6.33054 16.293 6.29403C16.2361 6.25752 16.1721 6.23229 16.1048 6.21985C16.0376 6.20741 15.9683 6.208 15.9013 6.22159C15.8343 6.23518 15.7708 6.26149 15.7146 6.29897C15.6584 6.33645 15.6106 6.38433 15.5741 6.43978L14.5496 7.89741C14.4977 7.97112 14.4678 8.05693 14.4631 8.14563C14.4583 8.23434 14.4789 8.32262 14.5225 8.40101C14.5662 8.4794 14.6314 8.54497 14.711 8.59068C14.7907 8.63639 14.8818 8.66053 14.9747 8.66052H16.0628L15.5741 9.35603C15.5342 9.40934 15.506 9.46976 15.491 9.5337C15.4761 9.59765 15.4747 9.66381 15.4869 9.72828C15.4992 9.79275 15.5248 9.85421 15.5623 9.90902C15.5999 9.96384 15.6485 10.0109 15.7055 10.0474C15.7624 10.0839 15.8263 10.1091 15.8936 10.1216C15.9609 10.134 16.0301 10.1334 16.0972 10.1199C16.1642 10.1063 16.2277 10.0799 16.2839 10.0425C16.3401 10.005 16.3879 9.95711 16.4244 9.90166V9.90264Z" fill="white"/>
</g>
</g>
</g>
</g>
</svg>
