<svg width="32" height="32" viewBox="0 0 32 32" fill="none" xmlns="http://www.w3.org/2000/svg">
<g id="Nurse">
<g id="nurse">
<g id="Group 6472">
<g id="Group 6471">
<path id="Path 8787" d="M22.6674 21.9007H18.8578V20.023C19.7252 19.5957 20.4457 18.9814 20.9471 18.2418C21.4485 17.5021 21.7131 16.6631 21.7144 15.8087V13.778H22.1904V12.9661H20.1038L18.8144 10.7535C18.7705 10.6905 18.7081 10.6384 18.6334 10.6021C18.5587 10.5659 18.4743 10.5469 18.3883 10.5469C18.3024 10.5469 18.218 10.5659 18.1433 10.6021C18.0686 10.6384 18.0062 10.6905 17.9623 10.7535L16.6635 12.9661H9.81081V13.778H10.2867V15.8087C10.2881 16.6631 10.5527 17.5021 11.0541 18.2418C11.5554 18.9814 12.2759 19.5957 13.1434 20.023V21.9007H9.33373C8.44985 21.9015 7.60244 22.2013 6.97745 22.7344C6.35246 23.2675 6.00093 23.9903 6 24.7442V27.5877C6 27.6954 6.05014 27.7986 6.13939 27.8747C6.22864 27.9509 6.34969 27.9936 6.47591 27.9936H25.5241C25.6503 27.9936 25.7714 27.9509 25.8606 27.8747C25.9499 27.7986 26 27.6954 26 27.5877V24.7462C25.9997 23.9921 25.6486 23.2689 25.0238 22.7354C24.399 22.2019 23.5515 21.9017 22.6674 21.9007ZM19.7499 22.7125H21.2034C21.1218 23.2825 20.8662 23.8243 20.4622 24.2836C20.0582 24.743 19.5199 25.1038 18.9012 25.3301L18.5202 25.4691L17.0175 23.9313H17.906C18.3281 23.9309 18.7382 23.811 19.0719 23.5904C19.4055 23.3698 19.644 23.0611 19.7499 22.7125ZM18.3819 22.7125H18.7254C18.6423 22.8356 18.5228 22.9379 18.3788 23.0091C18.2348 23.0804 18.0713 23.1181 17.9048 23.1185H14.0952C13.9287 23.1181 13.7652 23.0804 13.6212 23.0091C13.4772 22.9379 13.3577 22.8356 13.2746 22.7125H13.6181C13.6806 22.7125 13.7425 22.702 13.8002 22.6816C13.858 22.6612 13.9104 22.6313 13.9546 22.5936C13.9988 22.5559 14.0339 22.5112 14.0578 22.4619C14.0817 22.4127 14.094 22.3599 14.094 22.3066V20.3979C15.325 20.777 16.6727 20.777 17.9036 20.3979V22.3066C17.9036 22.3601 17.916 22.413 17.9401 22.4624C17.9642 22.5118 17.9994 22.5566 18.0439 22.5943C18.0883 22.6321 18.141 22.6619 18.1991 22.6822C18.2571 22.7025 18.3192 22.7128 18.3819 22.7125ZM11.2397 15.8077V13.777H16.9542C17.0435 13.7769 17.131 13.7554 17.2066 13.7149C17.2823 13.6745 17.3431 13.6166 17.382 13.5481L18.3819 11.8373L19.3818 13.5481C19.4215 13.616 19.4827 13.6731 19.5586 13.7129C19.6344 13.7527 19.7218 13.7735 19.8108 13.773H20.7626V15.8037C20.7626 16.8809 20.2609 17.9141 19.3679 18.6758C18.4748 19.4376 17.2636 19.8655 16.0006 19.8655C14.7376 19.8655 13.5264 19.4376 12.6333 18.6758C11.7403 17.9141 11.2385 16.8809 11.2385 15.8037L11.2397 15.8077ZM12.2525 22.7125C12.3583 23.0611 12.5968 23.3698 12.9305 23.5904C13.2642 23.811 13.6742 23.9309 14.0963 23.9313H14.9849L13.4786 25.4691L13.0976 25.3301C12.4789 25.1038 11.9406 24.743 11.5366 24.2836C11.1326 23.8243 10.877 23.2825 10.7955 22.7125H12.2525ZM15.5253 27.1798H6.953V24.7462C6.95393 24.2079 7.20505 23.6918 7.65132 23.3112C8.0976 22.9305 8.7026 22.7163 9.33373 22.7155H9.8448C9.92722 23.4448 10.2379 24.1417 10.7444 24.7334C11.2509 25.3251 11.9345 25.7899 12.7237 26.079L13.427 26.3379C13.4862 26.3598 13.5501 26.371 13.6146 26.3709C13.6844 26.3709 13.7533 26.3579 13.8165 26.3326C13.8797 26.3074 13.9356 26.2706 13.9803 26.2249L15.5194 24.6502L15.5253 27.1798ZM25.0493 27.1798H16.4771V24.6462L18.0162 26.2209C18.0818 26.2881 18.1711 26.3353 18.2708 26.3557C18.3705 26.3761 18.4753 26.3684 18.5694 26.3339L19.2728 26.075C20.062 25.7859 20.7456 25.3211 21.2521 24.7294C21.7586 24.1377 22.0693 23.4408 22.1517 22.7115H22.6628C22.9761 22.7114 23.2863 22.7639 23.5758 22.8661C23.8653 22.9683 24.1283 23.1182 24.3498 23.3072C24.5714 23.4961 24.7471 23.7205 24.8669 23.9674C24.9867 24.2143 25.0483 24.4789 25.0482 24.7462L25.0493 27.1798Z" fill="white" stroke="white" stroke-width="0.5"/>
</g>
</g>
<g id="Group 6474">
<g id="Group 6473">
<path id="Path 8788" d="M21.8645 7.81751L22.6511 5.35793C22.6678 5.30639 22.6724 5.25255 22.6646 5.19949C22.6569 5.14643 22.6369 5.09521 22.6058 5.04875C22.5748 5.0023 22.5333 4.96154 22.4837 4.9288C22.4342 4.89607 22.3775 4.87201 22.317 4.85801H22.2983L19.8378 4.37009C17.3152 3.87664 14.6943 3.87664 12.1717 4.37009L9.71006 4.85501C9.58798 4.88017 9.48251 4.94547 9.41664 5.03668C9.35077 5.12789 9.32983 5.23761 9.3584 5.34193V5.35793L10.1625 7.8725C8.72545 9.20064 7.92303 10.9394 7.91309 12.7467C7.91181 14.0198 8.20747 15.2804 8.78286 16.4551L10.3313 19.6235C10.3675 19.6976 10.4285 19.7608 10.5067 19.8053C10.5849 19.8498 10.6769 19.8735 10.7709 19.8735H11.7227V19.0616H11.0874L9.65849 16.1431C9.13231 15.0661 8.86255 13.9105 8.86491 12.7437C8.87193 11.3203 9.4331 9.93919 10.4603 8.81735L10.7826 9.82618C10.799 9.87778 10.8272 9.92611 10.8656 9.96839C10.904 10.0107 10.9518 10.0461 11.0062 10.0725C11.0607 10.099 11.1208 10.1161 11.183 10.1227C11.2452 10.1293 11.3083 10.1254 11.3687 10.1111H11.3804C14.397 9.33735 17.6137 9.33735 20.6302 10.1111C20.6901 10.1265 20.753 10.1317 20.8152 10.1264C20.8774 10.121 20.9378 10.1053 20.9929 10.08C21.048 10.0548 21.0967 10.0205 21.1362 9.97916C21.1758 9.93784 21.2054 9.89027 21.2234 9.83918V9.82918L21.5656 8.75636C22.5898 9.83352 23.1474 11.1789 23.1446 12.5657V12.7497C23.1467 13.9167 22.8761 15.0723 22.3487 16.1491L20.9198 19.0686H20.288V19.8805H21.2398C21.3338 19.8805 21.4257 19.8568 21.504 19.8123C21.5822 19.7678 21.6432 19.7046 21.6793 19.6305L23.2278 16.4621C23.8034 15.2871 24.099 14.0261 24.0976 12.7527V12.5617C24.0999 10.7936 23.2996 9.0934 21.8645 7.81751ZM20.4239 9.21628C17.5235 8.54814 14.4672 8.54814 11.5668 9.21628L10.3946 5.55189L12.3768 5.16196C14.7586 4.69578 17.2333 4.69578 19.6151 5.16196L21.5961 5.55189L20.4239 9.21628Z" fill="white" stroke="white" stroke-width="0.5"/>
</g>
</g>
<g id="Group 6476">
<g id="Group 6475">
<path id="Path 8789" d="M16.4774 6.47611V5.66406H15.5255V6.47611H14.5737V7.28815H15.5255V8.10019H16.4774V7.28815H17.4292V6.47611H16.4774Z" fill="white"/>
</g>
</g>
<g id="Group 6478">
<g id="Group 6477">
<path id="Path 8790" d="M13.6201 14.6953C13.4552 14.6953 13.2941 14.737 13.157 14.8151C13.02 14.8933 12.9131 15.0043 12.8501 15.1343C12.787 15.2642 12.7705 15.4071 12.8026 15.5451C12.8348 15.683 12.9142 15.8097 13.0307 15.9091C13.1473 16.0086 13.2958 16.0763 13.4575 16.1037C13.6191 16.1312 13.7867 16.1171 13.939 16.0633C14.0913 16.0094 14.2214 15.9183 14.313 15.8014C14.4046 15.6845 14.4535 15.547 14.4535 15.4063C14.4535 15.2178 14.3657 15.0369 14.2094 14.9036C14.0531 14.7702 13.8411 14.6953 13.6201 14.6953ZM13.5028 15.4063C13.5028 15.3798 13.5152 15.3544 13.5372 15.3356C13.5592 15.3169 13.589 15.3064 13.6201 15.3064C13.6511 15.3064 13.681 15.3169 13.7029 15.3356C13.7249 15.3544 13.7373 15.3798 13.7373 15.4063C13.7385 15.5184 13.5005 15.5184 13.5005 15.4063H13.5028Z" fill="white"/>
</g>
</g>
<g id="Group 6480">
<g id="Group 6479">
<path id="Path 8791" d="M18.3823 14.6953C18.2174 14.6953 18.0563 14.737 17.9192 14.8151C17.7822 14.8933 17.6754 15.0043 17.6123 15.1343C17.5492 15.2642 17.5327 15.4071 17.5648 15.5451C17.597 15.683 17.6764 15.8097 17.7929 15.9091C17.9095 16.0086 18.058 16.0763 18.2197 16.1037C18.3813 16.1312 18.5489 16.1171 18.7012 16.0633C18.8535 16.0094 18.9837 15.9183 19.0752 15.8014C19.1668 15.6845 19.2157 15.547 19.2157 15.4063C19.2157 15.2178 19.1279 15.0369 18.9716 14.9036C18.8153 14.7702 18.6033 14.6953 18.3823 14.6953ZM18.2651 15.4063C18.2651 15.3798 18.2774 15.3544 18.2994 15.3356C18.3214 15.3169 18.3512 15.3064 18.3823 15.3064C18.4134 15.3064 18.4432 15.3169 18.4652 15.3356C18.4871 15.3544 18.4995 15.3798 18.4995 15.4063C18.5006 15.5184 18.2627 15.5184 18.2627 15.4063H18.2651Z" fill="white"/>
</g>
</g>
<g id="Group 6482">
<g id="Group 6481">
<path id="Path 8792" d="M17.0715 17.4297C17.0715 17.6721 16.9586 17.9046 16.7577 18.076C16.5568 18.2474 16.2842 18.3437 16.0001 18.3437C15.7159 18.3437 15.4434 18.2474 15.2425 18.076C15.0416 17.9046 14.9287 17.6721 14.9287 17.4297H14.2148C14.2148 17.8338 14.403 18.2213 14.7379 18.507C15.0728 18.7927 15.527 18.9533 16.0007 18.9533C16.4743 18.9533 16.9286 18.7927 17.2635 18.507C17.5984 18.2213 17.7865 17.8338 17.7865 17.4297H17.0715Z" fill="white"/>
</g>
</g>
</g>
</g>
</svg>
