<svg width="32" height="32" viewBox="0 0 32 32" fill="none" xmlns="http://www.w3.org/2000/svg">
<g id="Waiter/Waitress">
<path id="waiter (1)" d="M18.057 17.285L21.1146 19.645C21.175 19.6917 21.2258 19.75 21.264 19.8166C21.3022 19.8831 21.3271 19.9567 21.3373 20.033C21.3474 20.1093 21.3427 20.187 21.3233 20.2614C21.3038 20.3359 21.2701 20.4057 21.2241 20.467C21.1781 20.5283 21.1206 20.5797 21.0549 20.6185C20.9892 20.6572 20.9167 20.6824 20.8414 20.6927C20.7661 20.703 20.6895 20.6982 20.6161 20.6785C20.5427 20.6588 20.4738 20.6247 20.4133 20.578L17.3557 18.218C17.2953 18.1713 17.2445 18.113 17.2063 18.0464C17.1681 17.9799 17.1432 17.9063 17.133 17.83C17.1229 17.7537 17.1276 17.676 17.147 17.6016C17.1665 17.5271 17.2001 17.4573 17.2462 17.396C17.2922 17.3347 17.3497 17.2833 17.4154 17.2445C17.4811 17.2058 17.5536 17.1806 17.6289 17.1703C17.7042 17.16 17.7807 17.1648 17.8542 17.1845C17.9276 17.2042 17.9965 17.2383 18.057 17.285ZM10.4385 9.1C9.90537 8.47832 9.51803 7.74231 9.30553 6.9472C9.09303 6.15209 9.06087 5.31851 9.21147 4.509C9.23009 4.36823 9.29842 4.23907 9.40379 4.14547C9.50917 4.05188 9.64444 4.00019 9.78454 4H10.3043C10.3913 3.99992 10.4772 4.01975 10.5556 4.05801C10.634 4.09628 10.7029 4.15199 10.7571 4.221C10.906 4.41256 11.0739 4.58815 11.2581 4.745L11.2818 4.765C11.6114 5.03822 11.9948 5.23698 12.4062 5.348C13.3375 5.5015 14.2833 5.54312 15.2242 5.472C15.5556 5.463 15.8683 5.454 16.1435 5.454C16.6553 5.45373 17.1554 5.60942 17.5789 5.90086C18.0024 6.19231 18.3298 6.60605 18.5185 7.08843C18.7072 7.5708 18.7486 8.09955 18.6373 8.60606C18.526 9.11258 18.2671 9.57349 17.8942 9.929V12C17.8942 12.0362 17.8909 12.0724 17.8844 12.108L17.3557 14.972C17.3147 15.403 17.1208 15.8042 16.81 16.1012C16.4993 16.3982 16.0928 16.5708 15.6661 16.587H12.6666C12.2399 16.5708 11.8334 16.3982 11.5226 16.1012C11.2119 15.8042 11.018 15.403 10.977 14.972L10.4483 12.108C10.4418 12.0724 10.4385 12.0362 10.4385 12V9.1ZM16.7353 10.563C16.5414 10.61 16.3428 10.6338 16.1435 10.634C15.9462 10.634 15.7568 10.634 15.5625 10.634C14.2085 10.7693 12.8428 10.5511 11.5955 10V11.945L12.1143 14.755C12.135 14.865 12.2563 15.413 12.6666 15.413H15.6641C16.0744 15.413 16.1967 14.865 16.2165 14.755L16.7353 11.944V10.563ZM11.3893 8.407L11.4031 8.42L11.4189 8.435C12.5423 9.497 14.0031 9.482 15.5477 9.465C15.745 9.465 15.9423 9.465 16.1395 9.465C16.4254 9.46532 16.7043 9.37628 16.9385 9.21C16.9575 9.1937 16.9776 9.17867 16.9986 9.165C17.228 8.98349 17.3958 8.73392 17.4785 8.45112C17.5613 8.16831 17.555 7.86637 17.4604 7.58739C17.3658 7.30842 17.1877 7.06632 16.9509 6.89488C16.7141 6.72343 16.4305 6.63119 16.1395 6.631C15.8801 6.631 15.5753 6.64 15.2518 6.649C14.34 6.70324 13.4253 6.67815 12.5177 6.574C13.0179 7.0085 13.6376 7.27691 14.2931 7.343C14.4307 7.3751 14.552 7.45716 14.634 7.57369C14.716 7.69022 14.7531 7.83316 14.7383 7.97553C14.7235 8.11789 14.6578 8.24984 14.5536 8.34646C14.4494 8.44309 14.3139 8.4977 14.1728 8.5C13.3419 8.40581 12.5527 8.08157 11.8916 7.56281C11.2305 7.04404 10.723 6.35079 10.4247 5.559C10.3846 5.523 10.3451 5.48633 10.3063 5.449C10.2755 5.99115 10.3558 6.53389 10.5422 7.043C10.7286 7.5521 11.0171 8.01653 11.3893 8.407ZM15.5862 25.168L14.7419 24.316V21.544C14.7419 21.3885 14.6809 21.2393 14.5724 21.1293C14.464 21.0193 14.3168 20.9575 14.1634 20.9575C14.01 20.9575 13.8628 21.0193 13.7543 21.1293C13.6458 21.2393 13.5849 21.3885 13.5849 21.544V24.316L11.0974 26.826H9.81117V23.133C9.81117 22.9774 9.75022 22.8283 9.64173 22.7183C9.53324 22.6083 9.3861 22.5465 9.23268 22.5465C9.07925 22.5465 8.93211 22.6083 8.82363 22.7183C8.71514 22.8283 8.65419 22.9774 8.65419 23.133V27.413C8.65445 27.5683 8.71543 27.7172 8.82377 27.8271C8.93211 27.9369 9.07897 27.9987 9.23219 27.999H11.337C11.4901 27.9991 11.637 27.9376 11.7454 27.828L14.1639 25.387L14.7705 25.999C14.8243 26.0534 14.8882 26.0965 14.9584 26.1258C15.0286 26.1552 15.1039 26.1702 15.1799 26.17C15.2558 26.1699 15.331 26.1546 15.4012 26.125C15.4713 26.0954 15.535 26.0521 15.5886 25.9975C15.6423 25.9429 15.6848 25.8782 15.7137 25.807C15.7427 25.7358 15.7575 25.6595 15.7574 25.5824C15.7572 25.5054 15.7421 25.4292 15.7129 25.3581C15.6837 25.2869 15.64 25.2224 15.5862 25.168ZM16.103 18.017C16.0733 17.9461 16.0301 17.8819 15.9759 17.8279C15.9217 17.774 15.8576 17.7314 15.7871 17.7026C15.7167 17.6738 15.6414 17.6594 15.5654 17.6602C15.4895 17.6609 15.4144 17.6768 15.3445 17.707L14.1609 18.216L12.9773 17.707C12.9074 17.6769 12.8324 17.661 12.7564 17.6602C12.6805 17.6595 12.6052 17.6739 12.5347 17.7027C12.4643 17.7315 12.4002 17.7741 12.346 17.828C12.2917 17.8819 12.2485 17.9462 12.2188 18.017C12.1891 18.0878 12.1734 18.1639 12.1727 18.2409C12.172 18.3179 12.1862 18.3943 12.2146 18.4657C12.243 18.5371 12.285 18.6022 12.3382 18.6571C12.3914 18.7121 12.4547 18.7559 12.5246 18.786L12.6804 18.853L12.5246 18.92C12.3833 18.9818 12.2721 19.098 12.2153 19.2429C12.1585 19.3879 12.1608 19.5498 12.2218 19.693C12.2827 19.8362 12.3973 19.949 12.5403 20.0066C12.6833 20.0642 12.843 20.0618 12.9842 20L14.1678 19.491L15.3514 20C15.4926 20.0609 15.6518 20.0624 15.794 20.0043C15.9363 19.9461 16.0499 19.8331 16.1099 19.69C16.17 19.5469 16.1715 19.3855 16.1141 19.2413C16.0568 19.0971 15.9453 18.9819 15.8042 18.921L15.6483 18.854L15.8042 18.787C15.9447 18.7253 16.0553 18.6095 16.1117 18.4651C16.1681 18.3207 16.1657 18.1596 16.105 18.017H16.103ZM26 27.417C25.9997 27.5723 25.9387 27.7212 25.8304 27.8311C25.722 27.9409 25.5752 28.0027 25.422 28.003H16.1001C15.9466 28.003 15.7995 27.9412 15.691 27.8312C15.5825 27.7212 15.5216 27.5721 15.5216 27.4165C15.5216 27.261 15.5825 27.1118 15.691 27.0018C15.7995 26.8918 15.9466 26.83 16.1001 26.83H16.6445V26.609C16.6457 25.6038 17.0041 24.6327 17.6541 23.8736C18.304 23.1145 19.202 22.6184 20.1835 22.476V21.989C20.1835 21.8335 20.2445 21.6843 20.3529 21.5743C20.4614 21.4643 20.6086 21.4025 20.762 21.4025C20.9154 21.4025 21.0626 21.4643 21.1711 21.5743C21.2795 21.6843 21.3405 21.8335 21.3405 21.989V22.476C22.3219 22.6186 23.2198 23.1148 23.8697 23.8738C24.5196 24.6328 24.8781 25.6039 24.8795 26.609V26.83H25.4239C25.5765 26.8303 25.7229 26.8917 25.831 27.0009C25.9391 27.1101 26.0002 27.2583 26.0009 27.413L26 27.417ZM23.7185 26.606C23.7185 25.8104 23.4068 25.0473 22.8519 24.4847C22.2969 23.9221 21.5443 23.606 20.7595 23.606C19.9748 23.606 19.2221 23.9221 18.6672 24.4847C18.1123 25.0473 17.8005 25.8104 17.8005 26.606V26.827H23.7185V26.606ZM11.0875 17.4C11.0415 17.3387 10.984 17.2872 10.9183 17.2484C10.8527 17.2096 10.7801 17.1844 10.7048 17.174C10.6295 17.1637 10.5529 17.1686 10.4795 17.1883C10.406 17.208 10.3371 17.2422 10.2767 17.289L6.23273 20.413C6.16186 20.4678 6.10442 20.5385 6.0649 20.6195C6.02538 20.7005 6.00484 20.7896 6.00488 20.88V27.418C6.00488 27.5735 6.06583 27.7227 6.17432 27.8327C6.28281 27.9427 6.42995 28.0045 6.58337 28.0045C6.7368 28.0045 6.88394 27.9427 6.99242 27.8327C7.10091 27.7227 7.16186 27.5735 7.16186 27.418V21.166L10.981 18.218C11.0414 18.1714 11.0923 18.1131 11.1305 18.0465C11.1687 17.9799 11.1937 17.9064 11.2038 17.83C11.214 17.7537 11.2092 17.676 11.1898 17.6016C11.1703 17.5271 11.1366 17.4572 11.0904 17.396L11.0875 17.4Z" fill="white"/>
</g>
</svg>
