<svg width="32" height="32" viewBox="0 0 32 32" fill="none" xmlns="http://www.w3.org/2000/svg">
<g id="Housekeeper">
<path id="cleaning" d="M27.5872 24.2409H22.7196L18.1839 4.92749C18.1477 4.77371 18.0817 4.62856 17.9894 4.50033C17.8972 4.3721 17.7806 4.2633 17.6464 4.18015C17.5121 4.09699 17.3628 4.0411 17.207 4.01568C17.0512 3.99026 16.8918 3.99579 16.7381 4.03197C16.5844 4.06815 16.4394 4.13427 16.3112 4.22654C16.183 4.31882 16.0743 4.43545 15.9912 4.56977C15.9081 4.70409 15.8522 4.85348 15.8268 5.0094C15.8014 5.16532 15.8069 5.32472 15.8431 5.4785L17.6542 13.1907H5.22139C5.11165 13.1907 5.0064 13.2343 4.9288 13.3119C4.85119 13.3896 4.8076 13.4949 4.8076 13.6047V14.1047H4.41379C4.30405 14.1047 4.1988 14.1483 4.1212 14.226C4.0436 14.3036 4 14.4089 4 14.5187V15.8157C3.99854 17.7229 4.6979 19.564 5.96502 20.9888L6.67167 27.034C6.70277 27.3 6.83038 27.5453 7.03028 27.7233C7.23018 27.9014 7.48847 27.9999 7.75612 28H27.5862C27.6405 28 27.6944 27.9893 27.7446 27.9685C27.7948 27.9477 27.8404 27.9172 27.8788 27.8787C27.9172 27.8403 27.9477 27.7947 27.9685 27.7444C27.9893 27.6942 28 27.6404 28 27.586V24.6559C28.0001 24.6016 27.9896 24.5477 27.9689 24.4974C27.9482 24.4471 27.9178 24.4014 27.8795 24.3629C27.8412 24.3243 27.7956 24.2937 27.7455 24.2728C27.6953 24.2519 27.6415 24.241 27.5872 24.2409ZM27.1734 25.5169H15.99V25.0689H27.1734V25.5169ZM6.75662 20.6258L6.1989 15.8547H7.68416V20.0548C7.68416 20.1092 7.69486 20.163 7.71566 20.2133C7.73645 20.2635 7.76693 20.3091 7.80536 20.3476C7.84378 20.386 7.8894 20.4165 7.9396 20.4373C7.9898 20.4581 8.04361 20.4688 8.09795 20.4688H13.1814C13.2358 20.4688 13.2896 20.4581 13.3398 20.4373C13.39 20.4165 13.4356 20.386 13.474 20.3476C13.5124 20.3091 13.5429 20.2635 13.5637 20.2133C13.5845 20.163 13.5952 20.1092 13.5952 20.0548V15.8547H17.4063L16.8486 20.6278C16.1983 21.313 15.4155 21.8586 14.5477 22.2315C13.68 22.6043 12.7455 22.7966 11.8011 22.7966C10.8567 22.7966 9.92223 22.6043 9.05448 22.2315C8.18674 21.8586 7.4039 21.313 6.75362 20.6278L6.75662 20.6258ZM12.7686 18.2698H8.51274V18.0038H12.7686V18.2698ZM8.51274 19.0978H12.7686V19.6398H8.51274V19.0978ZM12.7686 15.4397V17.1758H8.51274V14.0187H12.7686V15.4397ZM18.2409 15.8547H18.2799L18.6197 17.3008C18.4663 18.0094 18.2021 18.6894 17.8371 19.3158L18.2409 15.8547ZM17.6412 20.9888C18.2018 20.3585 18.6561 19.6411 18.9865 18.8648L20.2489 24.2409H17.2604L17.6412 20.9888ZM16.7196 4.96849C16.7634 4.91324 16.8218 4.87144 16.8882 4.84789C16.9546 4.82433 17.0263 4.81998 17.0951 4.83533C17.1638 4.85067 17.2269 4.88509 17.277 4.93465C17.3271 4.9842 17.3622 5.04688 17.3783 5.1155L21.8701 24.2409H21.0994L16.6437 5.2885C16.6304 5.23328 16.6298 5.17574 16.6421 5.12028C16.6544 5.06482 16.6792 5.0129 16.7146 4.96849H16.7196ZM17.971 14.5407V15.0267H13.5962V14.0187H17.8481L17.971 14.5407ZM7.68516 14.0187V15.0267H5.63618V14.0187H7.68516ZM4.82759 15.8187V15.5637C4.85308 15.6485 4.90511 15.7228 4.97601 15.7757C5.04691 15.8287 5.13293 15.8574 5.22139 15.8577H5.36532L5.76512 19.3138C5.14632 18.2514 4.82103 17.0434 4.82259 15.8137L4.82759 15.8187ZM7.49326 26.941L6.90255 21.8899C8.28833 23.0143 10.0184 23.628 11.8026 23.628C13.5868 23.628 15.3169 23.0143 16.7026 21.8899L16.4268 24.2469H15.5752C15.4655 24.2469 15.3602 24.2905 15.2826 24.3682C15.205 24.4458 15.1614 24.5511 15.1614 24.6609V27.177H7.75612C7.69034 27.1768 7.62699 27.1521 7.5784 27.1077C7.52981 27.0634 7.49946 27.0025 7.49326 26.937V26.941ZM15.989 27.175V26.349H27.1734V27.175H15.989Z" fill="white"/>
</g>
</svg>
