<svg width="32" height="32" viewBox="0 0 32 32" fill="none" xmlns="http://www.w3.org/2000/svg">
<g id="Welder">
<g id="welder">
<g id="Group 6489">
<g id="Group 6488">
<path id="Path 8804" d="M18.4006 27.5708L18.0596 20.9861C18.0376 20.5678 17.8891 20.1665 17.6344 19.8372C17.3797 19.508 17.0312 19.2667 16.6366 19.1464L14.7606 18.5749L14.9466 18.5058C15.2554 18.3917 15.5223 18.1838 15.7109 17.9101C15.8994 17.6365 16.0006 17.3104 16.0006 16.9763V14.1695H16.4006C16.6128 14.1695 16.8162 14.0838 16.9663 13.9312C17.1163 13.7786 17.2006 13.5717 17.2006 13.3559V12.1356C17.3067 12.1356 17.4084 12.0927 17.4834 12.0164C17.5584 11.9402 17.6006 11.8367 17.6006 11.7288V10.1017C17.6006 10.0483 17.5902 9.99538 17.5701 9.94603C17.55 9.89667 17.5206 9.85183 17.4834 9.81406C17.4463 9.77629 17.4022 9.74632 17.3537 9.72588C17.3051 9.70544 17.2531 9.69492 17.2006 9.69492H16.7276C16.6036 5.0017 14.3276 4 12.4006 4H10.0006C8.08058 4 5.80058 5.00068 5.67358 9.69492H5.20058C5.14805 9.69492 5.09604 9.70544 5.04751 9.72588C4.99898 9.74632 4.95488 9.77629 4.91774 9.81406C4.8806 9.85183 4.85113 9.89667 4.83103 9.94603C4.81093 9.99538 4.80058 10.0483 4.80058 10.1017V11.7288C4.80058 11.8367 4.84272 11.9402 4.91774 12.0164C4.99275 12.0927 5.0945 12.1356 5.20058 12.1356V13.3559C5.20058 13.5717 5.28487 13.7786 5.4349 13.9312C5.58493 14.0838 5.78841 14.1695 6.00058 14.1695H6.40058V16.9763C6.40132 17.3096 6.50271 17.6347 6.69104 17.9075C6.87937 18.1803 7.14555 18.3877 7.45358 18.5017L7.63958 18.5708L5.76458 19.1464C5.37015 19.2669 5.02189 19.5082 4.76738 19.8375C4.51287 20.1667 4.36451 20.5679 4.34258 20.9861L4.00058 27.5708C3.99775 27.6242 4.00528 27.6776 4.02274 27.728C4.04021 27.7784 4.06726 27.8248 4.10237 27.8646C4.13747 27.9043 4.17993 27.9366 4.22732 27.9597C4.27472 27.9828 4.32612 27.9961 4.37858 27.999H18.0006C18.1067 27.999 18.2084 27.9561 18.2834 27.8798C18.3584 27.8036 18.4006 27.7001 18.4006 27.5922C18.4006 27.5871 18.4006 27.579 18.4006 27.5708ZM16.4006 13.3559H16.0006V12.1356H16.4006V13.3559ZM6.40058 13.3559H6.00058V12.1356H6.40058V13.3559ZM7.20058 16.9763V11.7288C7.20058 11.6209 7.15844 11.5175 7.08343 11.4412C7.00841 11.3649 6.90667 11.322 6.80058 11.322H5.60058V10.5085H8.00058V9.69492H6.47658C6.56458 6.41424 7.71658 4.81356 10.0006 4.81356H12.4006C14.7776 4.81356 15.9326 6.54237 15.9326 10.1017C15.9326 10.2096 15.9747 10.313 16.0497 10.3893C16.1248 10.4656 16.2265 10.5085 16.3326 10.5085H16.8006V11.322H15.6006C15.4945 11.322 15.3928 11.3649 15.3177 11.4412C15.2427 11.5175 15.2006 11.6209 15.2006 11.7288V16.9763C15.2007 17.1432 15.1502 17.3062 15.0561 17.443C14.962 17.5798 14.8288 17.6838 14.6746 17.741L13.6006 18.1376C12.05 18.7095 10.3512 18.7095 8.80058 18.1376L7.72758 17.741C7.57315 17.684 7.43973 17.58 7.34544 17.4432C7.25116 17.3064 7.20058 17.1433 7.20058 16.9763ZM11.2006 21.0369L9.20058 20.02V19.1149C10.5113 19.468 11.8899 19.468 13.2006 19.1149V20.02L11.2006 21.0369ZM13.2006 20.9292V22.3051H9.20058V20.9292L11.0216 21.8576C11.0772 21.8859 11.1384 21.9006 11.2006 21.9006C11.2627 21.9006 11.324 21.8859 11.3796 21.8576L13.2006 20.9292ZM6.80058 27.1854H4.82258L5.14158 21.0288C5.15461 20.7778 5.24354 20.537 5.39621 20.3393C5.54889 20.1416 5.75787 19.9967 5.99458 19.9244L6.80058 19.6783V27.1854ZM14.8006 27.1854H7.60058V19.4342L8.40058 19.1902V22.7108C8.40058 22.7643 8.41093 22.8172 8.43103 22.8665C8.45113 22.9159 8.4806 22.9607 8.51774 22.9985C8.55488 23.0363 8.59898 23.0662 8.64751 23.0867C8.69604 23.1071 8.74805 23.1176 8.80058 23.1176H13.6006C13.7067 23.1176 13.8084 23.0748 13.8834 22.9985C13.9584 22.9222 14.0006 22.8187 14.0006 22.7108V19.1902L14.8006 19.4342V27.1854ZM15.6006 27.1854V19.6783L16.4066 19.9224C16.6438 19.9947 16.8532 20.1398 17.0061 20.3379C17.159 20.536 17.2479 20.7773 17.2606 21.0288L17.5796 27.1854H15.6006Z" fill="white" stroke="white" stroke-width="0.2"/>
</g>
</g>
<g id="Group 6491">
<g id="Group 6490">
<path id="Path 8805" d="M14.4006 11.3203H8.00059C7.94806 11.3203 7.89604 11.3308 7.84751 11.3513C7.79898 11.3717 7.75489 11.4017 7.71774 11.4395C7.6806 11.4772 7.65114 11.5221 7.63103 11.5714C7.61093 11.6208 7.60059 11.6737 7.60059 11.7271V14.1678C7.60059 14.2212 7.61093 14.2741 7.63103 14.3234C7.65114 14.3728 7.6806 14.4176 7.71774 14.4554C7.75489 14.4932 7.79898 14.5231 7.84751 14.5436C7.89604 14.564 7.94806 14.5745 8.00059 14.5745H10.0006C10.0531 14.5746 10.1052 14.5641 10.1537 14.5437C10.2023 14.5233 10.2464 14.4933 10.2836 14.4556L11.2006 13.523L12.1176 14.4556C12.1548 14.4933 12.1989 14.5233 12.2474 14.5437C12.296 14.5641 12.348 14.5746 12.4006 14.5745H14.4006C14.5067 14.5745 14.6084 14.5317 14.6834 14.4554C14.7584 14.3791 14.8006 14.2757 14.8006 14.1678V11.7271C14.8006 11.6192 14.7584 11.5157 14.6834 11.4395C14.6084 11.3632 14.5067 11.3203 14.4006 11.3203ZM14.0006 13.761H12.5656L11.4836 12.6596C11.4464 12.6218 11.4023 12.5918 11.3538 12.5713C11.3052 12.5509 11.2532 12.5403 11.2006 12.5403C11.148 12.5403 11.096 12.5509 11.0474 12.5713C10.9988 12.5918 10.9547 12.6218 10.9176 12.6596L9.83459 13.761H8.40058V12.1339H14.0006V13.761Z" fill="white"/>
</g>
</g>
<g id="Group 6493">
<g id="Group 6492">
<path id="Path 8806" d="M22.4007 7.65731V7.25053C22.4007 7.14264 22.3586 7.03918 22.2835 6.96289C22.2085 6.88661 22.1068 6.84375 22.0007 6.84375H19.6007C19.4946 6.84375 19.3929 6.88661 19.3178 6.96289C19.2428 7.03918 19.2007 7.14264 19.2007 7.25053V10.9115C19.2007 11.0194 19.2428 11.1229 19.3178 11.1992C19.3929 11.2755 19.4946 11.3183 19.6007 11.3183V14.1658C19.4946 14.1658 19.3929 14.2086 19.3178 14.2849C19.2428 14.3612 19.2007 14.4647 19.2007 14.5726V27.5895C19.2007 27.6429 19.211 27.6958 19.2311 27.7452C19.2512 27.7945 19.2807 27.8394 19.3178 27.8771C19.355 27.9149 19.3991 27.9449 19.4476 27.9653C19.4962 27.9858 19.5482 27.9963 19.6007 27.9963H22.0007C22.0532 27.9963 22.1052 27.9858 22.1538 27.9653C22.2023 27.9449 22.2464 27.9149 22.2835 27.8771C22.3207 27.8394 22.3501 27.7945 22.3702 27.7452C22.3903 27.6958 22.4007 27.6429 22.4007 27.5895V14.5726C22.4007 14.4647 22.3586 14.3612 22.2835 14.2849C22.2085 14.2086 22.1068 14.1658 22.0007 14.1658V11.3183C22.1068 11.3183 22.2085 11.2755 22.2835 11.1992C22.3586 11.1229 22.4007 11.0194 22.4007 10.9115V8.47087H24.0007V7.65731H22.4007ZM21.6007 27.1827H20.0007V14.9793H21.6007V27.1827ZM20.4007 14.1658V11.3183H21.2007V14.1658H20.4007ZM21.6007 10.5048H20.0007V7.65731H21.6007V10.5048Z" fill="white"/>
</g>
</g>
<g id="Group 6495">
<g id="Group 6494">
<path id="Rectangle 3504" d="M26.4007 7.65625H25.2007V8.46981H26.4007V7.65625Z" fill="white"/>
</g>
</g>
<g id="Group 6497">
<g id="Group 6496">
<path id="Rectangle 3505" d="M28.0008 7.65625H26.8008V8.46981H28.0008V7.65625Z" fill="white"/>
</g>
</g>
<g id="Group 6499">
<g id="Group 6498">
<path id="Rectangle 3506" d="M25.3173 5.74139L24.5176 6.55469L25.0833 7.12996L25.883 6.31667L25.3173 5.74139Z" fill="white"/>
</g>
</g>
<g id="Group 6501">
<g id="Group 6500">
<path id="Rectangle 3507" d="M26.5185 4.52264L25.7188 5.33594L26.2844 5.91121L27.0842 5.09792L26.5185 4.52264Z" fill="white"/>
</g>
</g>
<g id="Group 6503">
<g id="Group 6502">
<path id="Rectangle 3508" d="M25.0833 8.99504L24.5176 9.57031L25.3173 10.3836L25.883 9.80833L25.0833 8.99504Z" fill="white"/>
</g>
</g>
<g id="Group 6505">
<g id="Group 6504">
<path id="Rectangle 3509" d="M26.2835 10.2216L25.7178 10.7969L26.5175 11.6102L27.0832 11.0349L26.2835 10.2216Z" fill="white"/>
</g>
</g>
</g>
</g>
</svg>
