<svg width="32" height="32" viewBox="0 0 32 32" fill="none" xmlns="http://www.w3.org/2000/svg">
<g id="Design/Creative">
<g id="paint-brush-and-palette">
<path id="Path 8574" d="M20.0013 16.6458C20.5452 16.1128 20.9773 15.4765 21.2724 14.7741C21.5674 14.0717 21.7193 13.3175 21.7193 12.5556C21.7193 11.7936 21.5674 11.0394 21.2724 10.337C20.9773 9.63463 20.5452 8.99829 20.0013 8.46528C19.2208 7.69535 18.2956 7.088 17.2791 6.67836C16.2626 6.26872 15.175 6.06494 14.0793 6.07879C11.3622 6.12077 8.77106 7.23284 6.86733 9.17402C5.0315 11.0116 4.00009 13.504 4 16.1029C3.99991 18.7018 5.03114 21.1943 6.86683 23.032C8.70253 24.8698 11.1923 25.9023 13.7885 25.9023C16.3846 25.9024 18.8745 24.8701 20.7103 23.0325C21.1279 22.6027 21.3615 22.0268 21.3615 21.4273C21.3615 20.8278 21.1279 20.2519 20.7103 19.8222C20.3128 19.519 19.8548 19.3049 19.3673 19.1945C19.1458 19.1488 18.9314 19.073 18.7303 18.9693C18.6004 18.8255 18.5285 18.6386 18.5285 18.4447C18.5285 18.2509 18.6004 18.0639 18.7303 17.9202L20.0013 16.6458ZM17.6493 20.0494C18.0444 20.3526 18.5 20.567 18.9853 20.678C19.2096 20.7247 19.4266 20.8014 19.6303 20.9063C19.7601 21.0491 19.832 21.2353 19.832 21.4283C19.832 21.6214 19.7601 21.8076 19.6303 21.9504C18.0816 23.5009 15.981 24.372 13.7907 24.3721C11.6004 24.3722 9.4997 23.5012 7.95083 21.9509C6.40197 20.4005 5.53177 18.2977 5.53168 16.1051C5.53159 13.9125 6.4016 11.8096 7.95033 10.2592C9.56651 8.60434 11.7688 7.65344 14.0803 7.61239C14.9747 7.59904 15.8628 7.76326 16.6934 8.09557C17.524 8.42787 18.2805 8.92167 18.9193 9.54841C19.3197 9.94001 19.6378 10.4078 19.855 10.9242C20.0722 11.4406 20.184 11.9952 20.184 12.5556C20.184 13.1159 20.0722 13.6705 19.855 14.1869C19.6378 14.7034 19.3197 15.1711 18.9193 15.5627L17.6443 16.838C17.2257 17.2688 16.9918 17.8463 16.9928 18.4472C16.9937 19.0482 17.2293 19.625 17.6493 20.0544V20.0494Z" fill="white"/>
<path id="Path 8575" d="M9.18239 16.4141C8.7038 16.4215 8.2425 16.5944 7.87666 16.9034C7.51081 17.2123 7.26291 17.6384 7.17497 18.1094C7.08703 18.5804 7.16446 19.0673 7.39413 19.4877C7.6238 19.9081 7.99159 20.2361 8.43518 20.4161C8.87878 20.596 9.37089 20.617 9.82814 20.4753C10.2854 20.3337 10.6797 20.0381 10.9441 19.6387C11.2086 19.2394 11.327 18.7608 11.2793 18.284C11.2316 17.8072 11.0207 17.3616 10.6824 17.0227C10.2821 16.6298 9.743 16.4111 9.18239 16.4141ZM9.5974 18.9367C9.48332 19.039 9.33555 19.0956 9.18239 19.0956C9.02924 19.0956 8.88148 19.039 8.7674 18.9367C8.66431 18.8228 8.60722 18.6745 8.60722 18.5208C8.60722 18.3671 8.66431 18.2188 8.7674 18.1049C8.8789 18.0011 9.02624 17.9447 9.17844 17.9475C9.33063 17.9503 9.47581 18.0121 9.58345 18.1198C9.69108 18.2276 9.75278 18.3729 9.75557 18.5253C9.75836 18.6776 9.70102 18.8251 9.5974 18.9367Z" fill="white"/>
<path id="Path 8576" d="M10.0412 15.5504C10.3994 15.2027 10.6256 14.7411 10.6812 14.2447C10.7368 13.7484 10.6183 13.2481 10.3459 12.8296C10.0736 12.4111 9.66442 12.1003 9.18842 11.9506C8.71242 11.8009 8.19922 11.8214 7.73671 12.0088C7.27419 12.1962 6.89113 12.5386 6.65311 12.9776C6.41509 13.4166 6.33692 13.9248 6.43199 14.4151C6.52706 14.9054 6.78945 15.3474 7.17423 15.6654C7.55901 15.9833 8.04225 16.1575 8.5412 16.1581C9.10169 16.1615 9.64082 15.9431 10.0412 15.5504ZM7.9692 14.0489C7.97595 13.9241 8.02527 13.8054 8.10892 13.7127C8.19257 13.62 8.30548 13.5588 8.42878 13.5394C8.55208 13.52 8.6783 13.5435 8.78633 13.6061C8.89437 13.6687 8.97768 13.7665 9.02233 13.8832C9.06699 13.9998 9.07028 14.1283 9.03167 14.2471C8.99306 14.3659 8.91487 14.4679 8.81019 14.5359C8.70551 14.604 8.58066 14.634 8.45653 14.6209C8.3324 14.6079 8.2165 14.5526 8.1282 14.4643C8.02369 14.3527 7.96666 14.2048 7.9692 14.0519V14.0489Z" fill="white"/>
<path id="Path 8577" d="M11.7341 8.75003C11.2555 8.75771 10.7943 8.93079 10.4286 9.23995C10.0629 9.54911 9.8152 9.97532 9.72751 10.4464C9.63981 10.9174 9.7175 11.4044 9.94741 11.8246C10.1773 12.2449 10.5453 12.5727 10.989 12.7524C11.4327 12.9322 11.9249 12.9528 12.3821 12.8109C12.8392 12.6689 13.2333 12.3731 13.4976 11.9736C13.7618 11.5741 13.8799 11.0953 13.8319 10.6186C13.7839 10.1418 13.5727 9.69638 13.2341 9.35767C12.8336 8.96521 12.2946 8.74684 11.7341 8.75003ZM12.1491 11.2727C12.0519 11.3805 11.9201 11.4508 11.7765 11.4715C11.6329 11.4921 11.4866 11.4618 11.363 11.3858C11.2394 11.3097 11.1463 11.1928 11.0998 11.0552C11.0534 10.9176 11.0565 10.768 11.1087 10.6325C11.1609 10.497 11.2589 10.3841 11.3855 10.3133C11.5122 10.2425 11.6597 10.2184 11.8023 10.2451C11.9449 10.2718 12.0737 10.3476 12.1663 10.4594C12.2588 10.5713 12.3094 10.712 12.3091 10.8572C12.3123 11.0114 12.2549 11.1606 12.1491 11.2727Z" fill="white"/>
<path id="Path 8578" d="M17.7005 9.99237C17.2988 9.60149 16.7607 9.38281 16.2005 9.38281C15.6403 9.38281 15.1022 9.60149 14.7005 9.99237C14.3096 10.3942 14.0908 10.933 14.0908 11.4939C14.0908 12.0549 14.3096 12.5936 14.7005 12.9955C15.0983 13.3937 15.6379 13.6175 16.2005 13.6175C16.7631 13.6175 17.3027 13.3937 17.7005 12.9955C18.0983 12.5973 18.3218 12.0571 18.3218 11.4939C18.3218 10.9307 18.0983 10.3906 17.7005 9.99237ZM16.6185 11.9074C16.505 12.0141 16.3542 12.072 16.1985 12.0685C16.0453 12.0724 15.8967 12.0159 15.7845 11.9114C15.6828 11.796 15.6267 11.6473 15.6267 11.4934C15.6267 11.3395 15.6828 11.1909 15.7845 11.0755C15.8989 10.9731 16.047 10.9164 16.2005 10.9164C16.354 10.9164 16.5021 10.9731 16.6165 11.0755C16.718 11.1901 16.7743 11.3379 16.7746 11.4911C16.775 11.6442 16.7195 11.7923 16.6185 11.9074Z" fill="white"/>
<path id="Path 8579" d="M27.3533 20.4863C27.2662 20.3989 27.1722 20.3185 27.0723 20.246C27.1635 19.4377 27.2075 18.6248 27.2043 17.8115C27.2113 16.2919 27.0733 13.3758 26.8753 10.8762C26.4753 5.84094 26.1183 5.48557 25.8813 5.25132C25.8018 5.1705 25.7068 5.10658 25.6019 5.06341C25.4971 5.02023 25.3847 4.99869 25.2713 5.00006C24.4183 5.01207 24.2523 6.03314 24.0773 7.11527C23.9393 7.96716 23.7963 9.17943 23.6653 10.6189C23.4343 13.1586 23.2543 16.2628 23.2463 17.8385C23.2359 18.6531 23.273 19.4677 23.3573 20.278L23.3653 20.3631C23.1099 20.5726 22.9041 20.8363 22.7628 21.1351C22.6215 21.4339 22.5483 21.7604 22.5483 22.0909C22.5568 22.8605 22.8476 23.6001 23.3653 24.1691C23.8319 24.6894 24.1024 25.3564 24.1303 26.0551C24.1293 26.178 24.1525 26.2999 24.1986 26.4138C24.2447 26.5277 24.3128 26.6314 24.399 26.7189C24.4852 26.8064 24.5878 26.876 24.701 26.9238C24.8141 26.9715 24.9356 26.9964 25.0583 26.9971C25.8533 26.9971 26.6093 25.9279 26.9893 25.2953C27.5924 24.3215 27.9366 23.2094 27.9893 22.0649C27.9951 21.7724 27.9418 21.4818 27.8325 21.2105C27.7232 20.9392 27.5602 20.6929 27.3533 20.4863ZM24.7763 17.8485C24.7853 16.0256 24.9993 12.614 25.2643 9.94023C25.5033 12.599 25.6833 15.9896 25.6743 17.8004C25.6743 18.7064 25.6293 19.29 25.5873 19.7225C25.4943 19.7154 25.2673 19.7114 25.2673 19.7114C25.1252 19.713 24.9833 19.723 24.8423 19.7415C24.8063 19.317 24.7723 18.7384 24.7763 17.8485ZM25.4623 24.8428C25.2728 24.2599 24.9749 23.7182 24.5843 23.2461C24.2763 22.9436 24.0953 22.5346 24.0783 22.1029C24.0783 21.4793 24.7303 21.2511 25.2833 21.246H25.3043C25.6542 21.2245 25.999 21.3385 26.2673 21.5644C26.3304 21.6283 26.3797 21.7046 26.4118 21.7885C26.444 21.8724 26.4585 21.9621 26.4543 22.0519C26.3883 23.0557 26.046 24.0217 25.4653 24.8428H25.4623Z" fill="white"/>
</g>
</g>
</svg>
