<svg width="32" height="32" viewBox="0 0 32 32" fill="none" xmlns="http://www.w3.org/2000/svg">
<g id="Plumber/Pipe fitting">
<g id="leak">
<g id="Group 6485">
<g id="Group 6484">
<path id="Path 8797" d="M23.126 16.2437C23.0445 15.9586 22.8923 15.7115 22.6904 15.5366C22.4886 15.3618 22.2471 15.2678 21.9995 15.2678C21.7519 15.2678 21.5104 15.3618 21.3086 15.5366C21.1067 15.7115 20.9545 15.9586 20.873 16.2437H20C19.8939 16.2437 19.7922 16.1923 19.7172 16.1009C19.6421 16.0094 19.6 15.8853 19.6 15.7559V14.6901C19.8338 14.5907 20.0364 14.4051 20.1798 14.1589C20.3232 13.9128 20.4003 13.6183 20.4003 13.3163C20.4003 13.0144 20.3232 12.7199 20.1798 12.4738C20.0364 12.2276 19.8338 12.042 19.6 11.9426V6H12.4V11.9414C12.2328 12.0105 12.0812 12.1262 11.957 12.2792C11.8431 12.4138 11.7527 12.5751 11.6914 12.7535C11.63 12.9319 11.5989 13.1235 11.6 13.317C11.6011 13.6185 11.6786 13.9122 11.8217 14.158C11.9649 14.4038 12.1669 14.5896 12.4 14.6901V15.7559C12.4 15.8853 12.3579 16.0094 12.2828 16.1009C12.2078 16.1923 12.1061 16.2437 12 16.2437H11.126C11.0442 15.9588 10.8918 15.7118 10.6899 15.5371C10.488 15.3624 10.2466 15.2686 9.999 15.2686C9.75143 15.2686 9.50997 15.3624 9.30806 15.5371C9.10615 15.7118 8.95377 15.9588 8.872 16.2437H4V25.0241H8.874C8.95551 25.3092 9.10774 25.5563 9.30959 25.7312C9.51144 25.9061 9.7529 26 10.0005 26C10.2481 26 10.4896 25.9061 10.6914 25.7312C10.8933 25.5563 11.0455 25.3092 11.127 25.0241H20.874C20.9558 25.3091 21.1082 25.556 21.3101 25.7307C21.512 25.9054 21.7534 25.9993 22.001 25.9993C22.2486 25.9993 22.49 25.9054 22.6919 25.7307C22.8939 25.556 23.0462 25.3091 23.128 25.0241H28V16.2437H23.126ZM8.8 24.0485H4.8V17.2193H8.8V24.0485ZM10.4 24.5363C10.4 24.6004 10.3897 24.6638 10.3696 24.723C10.3494 24.7821 10.32 24.8359 10.2828 24.8812C10.2457 24.9265 10.2016 24.9624 10.1531 24.987C10.1045 25.0115 10.0525 25.0241 10 25.0241C9.94747 25.0241 9.89546 25.0115 9.84693 24.987C9.7984 24.9624 9.7543 24.9265 9.71716 24.8812C9.68001 24.8359 9.65055 24.7821 9.63045 24.723C9.61035 24.6638 9.6 24.6004 9.6 24.5363V16.7315C9.5999 16.6664 9.61077 16.602 9.63192 16.5422C9.65308 16.4824 9.68408 16.4286 9.723 16.384C9.75899 16.339 9.8021 16.3033 9.84971 16.2792C9.89732 16.2551 9.94845 16.243 10 16.2437C10.1061 16.2437 10.2078 16.2951 10.2828 16.3866C10.3579 16.4781 10.4 16.6022 10.4 16.7315V24.5363ZM13.2 6.97559H18.8V11.8536H13.2V6.97559ZM12.523 12.9694C12.559 12.9244 12.6021 12.8888 12.6497 12.8646C12.6973 12.8405 12.7485 12.8285 12.8 12.8292H19.2C19.2525 12.8292 19.3045 12.8418 19.3531 12.8663C19.4016 12.8908 19.4457 12.9267 19.4828 12.972C19.52 13.0173 19.5494 13.0711 19.5696 13.1303C19.5897 13.1895 19.6 13.2529 19.6 13.317C19.6 13.381 19.5897 13.4444 19.5696 13.5036C19.5494 13.5628 19.52 13.6166 19.4828 13.6619C19.4457 13.7072 19.4016 13.7431 19.3531 13.7676C19.3045 13.7921 19.2525 13.8048 19.2 13.8048H12.8C12.6939 13.8048 12.5922 13.7534 12.5172 13.6619C12.4421 13.5704 12.4 13.4463 12.4 13.317C12.3999 13.2518 12.4108 13.1874 12.4319 13.1276C12.4531 13.0678 12.4841 13.014 12.523 12.9694ZM20.8 24.0485H11.2V17.2193H12C12.3183 17.2193 12.6235 17.0652 12.8485 16.7907C13.0736 16.5163 13.2 16.1441 13.2 15.7559V14.7803H18.8V15.7559C18.8 15.9481 18.831 16.1384 18.8913 16.316C18.9517 16.4935 19.04 16.6548 19.1515 16.7907C19.2629 16.9266 19.3952 17.0344 19.5408 17.1079C19.6864 17.1815 19.8424 17.2193 20 17.2193H20.8V24.0485ZM22.4 24.5363C22.4002 24.6013 22.3894 24.6657 22.3685 24.7254C22.3475 24.7852 22.3167 24.8391 22.278 24.8839C22.2418 24.9289 22.1985 24.9646 22.1508 24.9887C22.103 25.0128 22.0517 25.0248 22 25.0241C21.8939 25.0241 21.7922 24.9727 21.7172 24.8812C21.6421 24.7897 21.6 24.6657 21.6 24.5363V16.7315C21.6 16.6022 21.6421 16.4781 21.7172 16.3866C21.7922 16.2951 21.8939 16.2437 22 16.2437C22.1061 16.2437 22.2078 16.2951 22.2828 16.3866C22.3579 16.4781 22.4 16.6022 22.4 16.7315V24.5363ZM27.2 24.0485H23.2V17.2193H27.2V24.0485Z" fill="white" stroke="white" stroke-width="0.5"/>
</g>
</g>
</g>
</g>
</svg>
