<svg width="32" height="32" viewBox="0 0 32 32" fill="none" xmlns="http://www.w3.org/2000/svg">
<g id="Pathologist/ Lab Assistant">
<g id="Pathologist/ Lab Assistant_2">
<path id="Path 8796" d="M25.483 22.7749C25.4831 22.3595 25.3806 21.9505 25.1847 21.5842C24.9888 21.2178 24.7055 20.9055 24.36 20.6749V14.9749C24.3409 14.4535 24.1698 13.949 23.8677 13.5235C23.5657 13.098 23.1459 12.77 22.66 12.5799L18.898 11.2719C18.8763 10.9865 18.8203 10.7048 18.731 10.4329L21.442 7.72592L22.476 6.68892C22.5116 6.65335 22.5399 6.6111 22.5591 6.5646C22.5784 6.5181 22.5883 6.46826 22.5883 6.41792C22.5883 6.36758 22.5784 6.31774 22.5591 6.27123C22.5399 6.22473 22.5116 6.18249 22.476 6.14692L20.725 4.40092C20.6532 4.32929 20.5559 4.28906 20.4545 4.28906C20.3531 4.28906 20.2558 4.32929 20.184 4.40092L16.438 8.14192C15.8998 7.96648 15.3277 7.92087 14.7685 8.00882C14.2093 8.09676 13.6789 8.31576 13.2205 8.64793C12.7622 8.98009 12.3889 9.41599 12.1312 9.92001C11.8736 10.424 11.7388 10.9819 11.738 11.5479C11.738 11.5609 11.738 11.5749 11.738 11.5879L10.128 12.2879C10.0355 12.3282 9.96271 12.4032 9.92527 12.4968C9.88782 12.5904 9.8888 12.695 9.92798 12.7879L10.736 14.6419C10.7762 14.7344 10.8513 14.8072 10.9449 14.8446C11.0385 14.8821 11.1431 14.8811 11.236 14.8419L12.848 14.1419C13.1612 14.4403 13.5257 14.6798 13.924 14.8489V16.6009C13.924 16.7025 13.9643 16.7999 14.0362 16.8717C14.108 16.9436 14.2054 16.9839 14.307 16.9839H16.331C16.4326 16.9839 16.53 16.9436 16.6018 16.8717C16.6736 16.7999 16.714 16.7025 16.714 16.6009V14.8499C17.213 14.6369 17.6574 14.3139 18.014 13.9049L20.525 15.4159C20.6595 15.5117 20.7714 15.6359 20.8528 15.7797C20.9342 15.9234 20.9831 16.0832 20.996 16.2479V17.3779C20.996 17.4795 21.0363 17.5769 21.1082 17.6487C21.18 17.7206 21.2774 17.7609 21.379 17.7609C21.4806 17.7609 21.578 17.7206 21.6498 17.6487C21.7216 17.5769 21.762 17.4795 21.762 17.3779V16.2479C21.75 15.9509 21.6675 15.6611 21.5212 15.4023C21.375 15.1436 21.1692 14.9234 20.921 14.7599L18.463 13.2779C18.6698 12.9056 18.808 12.4991 18.871 12.0779L22.404 13.3069C22.7398 13.4447 23.0298 13.6748 23.2404 13.9705C23.451 14.2662 23.5736 14.6155 23.594 14.9779V18.5299H12.386C12.2844 18.5299 12.187 18.5703 12.1152 18.6421C12.0433 18.7139 12.003 18.8113 12.003 18.9129C12.003 19.0145 12.0433 19.1119 12.1152 19.1837C12.187 19.2556 12.2844 19.2959 12.386 19.2959H17.568V23.9709H14.111C14.0094 23.9709 13.912 24.0113 13.8402 24.0831C13.7683 24.1549 13.728 24.2523 13.728 24.3539V26.0109H8.15098C7.64707 26.0109 7.1638 26.2111 6.80748 26.5674C6.45116 26.9237 6.25098 27.407 6.25098 27.9109C6.25098 28.0125 6.29133 28.1099 6.36316 28.1817C6.43498 28.2536 6.5324 28.2939 6.63398 28.2939H23.976C24.0776 28.2939 24.175 28.2536 24.2468 28.1817C24.3186 28.1099 24.359 28.0125 24.359 27.9109V24.8739C24.7046 24.6435 24.988 24.3314 25.184 23.9653C25.3801 23.5991 25.4828 23.1903 25.483 22.7749ZM19.419 6.24692L20.629 7.45492L18.288 9.78892L17.079 8.58892L19.419 6.24692ZM20.454 5.21292L21.668 6.42092L21.175 6.91292L19.965 5.70492L20.454 5.21292ZM10.782 12.8379L11.832 12.3809C11.9293 12.7911 12.0985 13.1808 12.332 13.5319L11.284 13.9889L10.782 12.8379ZM15.951 16.2199H14.692V15.0759C15.108 15.151 15.534 15.151 15.95 15.0759L15.951 16.2199ZM15.322 14.3669C14.9094 14.366 14.5021 14.2745 14.1288 14.0989C13.7554 13.9232 13.4252 13.6678 13.1615 13.3505C12.8977 13.0333 12.7068 12.662 12.6023 12.2629C12.4978 11.8638 12.4821 11.4466 12.5565 11.0408C12.6309 10.635 12.7935 10.2505 13.0328 9.9144C13.2721 9.57832 13.5823 9.29889 13.9414 9.09584C14.3006 8.89279 14.6999 8.77108 15.1113 8.7393C15.5226 8.70752 15.9359 8.76645 16.322 8.91192L17.961 10.5489C18.1224 10.9759 18.1777 11.4357 18.1222 11.8887C18.0667 12.3418 17.9021 12.7746 17.6424 13.15C17.3828 13.5255 17.0359 13.8322 16.6315 14.044C16.2272 14.2558 15.7774 14.3663 15.321 14.3659L15.322 14.3669ZM14.495 24.7339H17.568V26.0079H14.494L14.495 24.7339ZM23.595 27.5239H7.08298C7.16245 27.3044 7.30758 27.1146 7.49866 26.9804C7.68974 26.8463 7.91749 26.7741 8.15098 26.7739H22.444C22.4943 26.7739 22.5441 26.764 22.5905 26.7448C22.637 26.7255 22.6792 26.6973 22.7148 26.6617C22.7504 26.6262 22.7786 26.584 22.7978 26.5375C22.8171 26.491 22.827 26.4412 22.827 26.3909C22.827 26.3406 22.8171 26.2908 22.7978 26.2444C22.7786 26.1979 22.7504 26.1557 22.7148 26.1201C22.6792 26.0845 22.637 26.0563 22.5905 26.0371C22.5441 26.0178 22.4943 26.0079 22.444 26.0079H18.338V19.2889H23.593V20.3289C23.2196 20.2317 22.829 20.2213 22.451 20.2986C22.073 20.3758 21.7177 20.5387 21.4125 20.7746C21.1072 21.0106 20.8601 21.3133 20.6901 21.6596C20.52 22.0059 20.4316 22.3866 20.4316 22.7724C20.4316 23.1582 20.52 23.5389 20.6901 23.8852C20.8601 24.2315 21.1072 24.5343 21.4125 24.7702C21.7177 25.0062 22.073 25.169 22.451 25.2463C22.829 25.3235 23.2196 25.3131 23.593 25.2159L23.595 27.5239ZM23.795 24.3239C23.527 24.4687 23.2261 24.5415 22.9216 24.535C22.6171 24.5286 22.3195 24.4432 22.0579 24.2872C21.7963 24.1312 21.5797 23.91 21.4292 23.6452C21.2788 23.3803 21.1997 23.081 21.1997 22.7764C21.1997 22.4718 21.2788 22.1725 21.4292 21.9077C21.5797 21.6428 21.7963 21.4216 22.0579 21.2656C22.3195 21.1096 22.6171 21.0242 22.9216 21.0178C23.2261 21.0114 23.527 21.0841 23.795 21.2289C24.0736 21.3796 24.3063 21.6027 24.4684 21.8748C24.6306 22.1469 24.7162 22.4577 24.7162 22.7744C24.7162 23.0911 24.6306 23.402 24.4684 23.674C24.3063 23.9461 24.0736 24.1693 23.795 24.3199V24.3239Z" fill="white" stroke="white" stroke-width="0.5"/>
</g>
</g>
</svg>
