<svg width="32" height="32" viewBox="0 0 32 32" fill="none" xmlns="http://www.w3.org/2000/svg">
<g id="Supply Chain">
<g id="Group">
<path id="Vector" d="M27.9999 23.8C27.9999 23 27.9999 22.3 27.9999 21.5C27.9999 21.2 27.8999 21.1 27.6999 20.9C26.3999 20.2 25.0999 19.4 23.7999 18.7C23.5999 18.6 23.3999 18.6 23.0999 18.7C21.7999 19.5 20.4999 20.2 19.1999 20.9C18.9999 21 18.8999 21.2 18.8999 21.5C18.8999 23 18.8999 24.5 18.8999 26C18.8999 26.3 18.9999 26.4 19.1999 26.6C20.4999 27.3 21.7999 28.1 23.0999 28.9C23.2999 29 23.4999 29 23.6999 28.9C24.9999 28.1 26.2999 27.4 27.6999 26.6C27.8999 26.5 27.9999 26.3 27.9999 26.1C27.9999 25.3 27.9999 24.6 27.9999 23.8ZM25.2999 20.6C25.0999 20.7 24.9999 20.8 24.8999 20.9C23.9999 21.4 23.1999 21.9 22.2999 22.4C21.8999 22.6 21.8999 22.6 21.5999 22.3C21.8999 22.1 22.1999 21.9 22.4999 21.8C23.1999 21.4 23.8999 21 24.6999 20.6C24.9999 20.3 24.9999 20.3 25.2999 20.6ZM21.0999 23C21.4999 23.1 21.4999 23.2 21.4999 23.5C21.4999 23.7 21.4999 23.9 21.4999 24.1C21.1999 24 20.9999 23.8 21.0999 23.5C21.1999 23.4 21.0999 23.2 21.0999 23ZM23.2999 19.5C23.3999 19.5 23.4999 19.5 23.4999 19.5C23.6999 19.6 23.8999 19.7 24.0999 19.8C23.9999 19.8 23.9999 19.9 23.8999 19.9C22.8999 20.5 21.8999 21.1 20.8999 21.7C20.7999 21.8 20.6999 21.8 20.5999 21.7C20.3999 21.6 20.2999 21.5 20.0999 21.4C21.1999 20.8 22.1999 20.1 23.2999 19.5ZM22.7999 27.8C21.7999 27.2 20.7999 26.6 19.7999 26.1C19.6999 26.1 19.5999 25.9 19.5999 25.8C19.5999 24.6 19.5999 23.4 19.5999 22.2V22.1C19.7999 22.2 19.9999 22.3 20.1999 22.4C20.2999 22.4 20.2999 22.5 20.2999 22.6C20.2999 23.1 20.2999 23.5 20.2999 24C20.2999 24.2 20.3999 24.4 20.5999 24.5C20.9999 24.7 21.2999 24.9 21.6999 25.1C22.0999 25.3 22.2999 25.1 22.2999 24.7C22.2999 24.3 22.2999 24 22.2999 23.6C22.4999 23.7 22.6999 23.8 22.8999 24C22.8999 24 22.9999 24.1 22.9999 24.2C22.9999 25.4 22.9999 26.7 22.9999 28C22.9999 27.9 22.8999 27.9 22.7999 27.8ZM23.5999 23.3C23.4999 23.4 23.2999 23.4 23.1999 23.3C22.9999 23.2 22.8999 23.1 22.6999 23C22.8999 22.9 22.9999 22.8 23.1999 22.7C24.0999 22.2 24.9999 21.7 25.8999 21.1C26.0999 21 26.1999 21 26.2999 21.1C26.3999 21.2 26.5999 21.3 26.7999 21.4C26.2999 21.7 25.8999 21.9 25.3999 22.2C24.8999 22.5 24.1999 22.9 23.5999 23.3ZM27.1999 22.3C27.1999 23.5 27.1999 24.6 27.1999 25.8C27.1999 25.9 27.0999 26 27.0999 26.1C26.0999 26.7 24.9999 27.3 23.9999 27.9C23.9999 27.9 23.8999 27.9 23.8999 28C23.8999 27.8 23.8999 27.6 23.8999 27.4C23.8999 26.4 23.8999 25.4 23.8999 24.4C23.8999 24.3 23.8999 24.2 23.9999 24.1C25.0999 23.5 26.0999 22.9 27.1999 22.3C27.1999 22.3 27.1999 22.3 27.2999 22.3C27.1999 22.2 27.1999 22.2 27.1999 22.3Z" fill="white"/>
<path id="Vector_2" d="M13.9001 24.1034C13.8001 23.3034 13.5001 22.5034 13.0001 21.8034C12.4001 21.0034 11.6001 20.4034 10.6001 20.0034C12.1001 18.7034 11.9001 16.9034 10.9001 15.9034C9.90009 14.9034 8.20009 14.8034 7.10009 15.8034C6.10009 16.7034 5.80009 18.6034 7.30009 20.0034C7.30009 20.0034 7.20009 20.0034 7.20009 20.1034C5.40009 20.8034 4.30009 22.1034 4.00009 24.0034C3.90009 24.5034 4.10009 24.6034 4.50009 24.6034C5.70009 24.6034 6.90009 24.6034 8.10009 24.6034C9.80009 24.6034 11.6001 24.6034 13.3001 24.6034C13.8001 24.7034 13.9001 24.5034 13.9001 24.1034ZM7.00009 17.9034C7.00009 16.8034 7.90009 16.0034 8.90009 16.0034C10.0001 16.0034 10.8001 16.9034 10.8001 17.9034C10.8001 19.0034 9.90009 19.8034 8.90009 19.8034C7.90009 19.8034 7.00009 18.9034 7.00009 17.9034ZM4.90009 23.9034C5.00009 22.2034 7.00009 20.6034 8.90009 20.6034C11.4001 20.6034 12.8001 22.5034 13.1001 23.9034C10.3001 23.9034 7.60009 23.9034 4.90009 23.9034Z" fill="white"/>
<path id="Vector_3" d="M19.9 13.1C20.1 12.9 20.2 12.7 20 12.5C19.8 12.2 19.8 11.9 20 11.6C20.1 11.3 20.3 11 20.7 11C20.9 10.9 21 10.7 21 10.5C21 10.2 21 9.8 21 9.5C21 9.2 20.9 9 20.6 8.9C20.3 8.8 20.1 8.7 20 8.3C20 8.2 19.9 8.1 19.9 8C19.9 7.9 19.9 7.8 19.9 7.7C20 7.5 20 7.3 20.1 7.1C20 7.1 20 6.9 19.9 6.8C19.7 6.5 19.4 6.3 19.2 6.1C19 5.9 18.8 5.9 18.5 6C18.2 6.2 18 6.2 17.6 6C17.2 5.9 17 5.7 16.9 5.3C16.9 5.1 16.8 5 16.5 5C16.2 5 15.8 5 15.5 5C15.1 5 15.1 5 15 5.4C14.9 5.7 14.7 5.9 14.4 6C14 6.2 13.7 6.2 13.4 6C13.2 5.9 13 5.9 12.9 6.1C12.6 6.3 12.4 6.5 12.2 6.8C11.9 7.1 11.9 7.1 12 7.5C12.2 7.8 12.2 8 12 8.3C12 8.3 12 8.3 12 8.4C11.9 8.7 11.7 8.9 11.4 9C11.1 9 11 9.2 11 9.5C11 9.8 11 10.2 11 10.5C11 10.8 11.1 10.9 11.4 11C11.7 11.1 11.9 11.3 12 11.6C12.2 12 12.2 12.2 12 12.6C11.9 12.8 11.9 12.9 12.1 13.1C12.3 13.3 12.6 13.6 12.8 13.8C13 14 13.2 14.1 13.4 13.9C13.7 13.7 13.9 13.8 14.3 13.9C14.7 14 14.9 14.2 15 14.6C15 14.8 15.2 14.9 15.5 14.9C15.9 14.9 16.2 14.9 16.6 14.9C16.9 14.9 17.1 14.8 17.1 14.5C17.2 14.2 17.4 14 17.7 13.9C18 13.8 18.3 13.7 18.7 13.9C18.8 14.1 19 14 19.1 13.9C19.4 13.6 19.6 13.4 19.9 13.1ZM18.7 13.2C18.7 13.2 18.5 13.2 18.5 13.1C18.2 12.9 17.9 12.9 17.6 13.1C17.4 13.2 17.2 13.3 17 13.3C16.7 13.4 16.5 13.5 16.4 13.8C16.4 14 16.2 14.1 16 14.1C15.6 14.1 15.6 14.1 15.4 13.7C15.3 13.5 15.2 13.4 14.9 13.3C14.7 13.2 14.4 13.1 14.2 13C13.9 12.8 13.7 12.8 13.4 13C13.4 13.2 13.2 13.2 13.1 13C12.8 12.7 12.8 12.7 13 12.3C13.1 12.1 13.1 11.9 13 11.7C12.8 11.5 12.7 11.3 12.6 11C12.5 10.7 12.4 10.5 12.1 10.4C12 10.4 11.8 10.3 11.8 10.3C11.8 10.1 11.8 9.9 11.8 9.7C11.8 9.6 12 9.6 12.1 9.6C12.4 9.4 12.5 9.3 12.6 9C12.7 8.8 12.8 8.5 12.9 8.3C13 8 13.1 7.8 12.9 7.6C12.9 7.5 12.8 7.3 12.8 7.2C13 7.1 13.1 6.9 13.3 6.8C13.3 6.8 13.5 6.8 13.5 6.9C13.8 7.1 14.1 7.1 14.4 6.9C14.6 6.8 14.8 6.7 15 6.7C15.3 6.6 15.5 6.5 15.6 6.2C15.6 6 15.8 5.9 16 5.9C16.1 5.9 16.1 5.9 16.2 5.9C16.4 5.9 16.5 5.9 16.5 6.1C16.5 6.2 16.6 6.2 16.6 6.3C16.7 6.5 16.8 6.6 17 6.7C17.3 6.8 17.6 6.9 17.8 7C18 7.1 18.3 7.2 18.5 7C18.6 6.7 18.8 6.8 19 7C19.2 7.2 19.2 7.3 19.1 7.6C18.9 7.8 19 8.1 19.1 8.3C19.2 8.5 19.3 8.8 19.4 9C19.5 9.3 19.6 9.4 19.9 9.5C20.2 9.6 20.3 9.7 20.2 10C20.3 10.3 20.2 10.4 19.9 10.5C19.6 10.6 19.5 10.7 19.4 11C19.3 11.2 19.2 11.5 19.1 11.7C18.9 12 18.9 12.2 19.1 12.4C19.2 12.5 19.2 12.7 19.2 12.7C19 12.9 18.9 13 18.7 13.2Z" fill="white"/>
<path id="Vector_4" d="M17.7 26.5031C16.9 26.7031 16.2 26.7031 15.4 26.6031C14.9 26.5031 14.4 26.4031 13.9 26.1031C13.9 26.1031 13.9 26.1031 13.9 26.0031C14 26.0031 14.2 26.0031 14.3 26.0031C14.6 26.0031 14.8 25.8031 14.8 25.6031C14.8 25.4031 14.6 25.2031 14.3 25.2031C13.7 25.2031 13.2 25.2031 12.6 25.3031C12.2 25.3031 12 25.6031 12.2 25.9031C12.5 26.5031 12.7 27.0031 13 27.6031C13.1 28.0031 13.3 28.1031 13.5 28.0031C13.7 27.9031 13.8 27.7031 13.7 27.4031C13.6 27.2031 13.5 27.0031 13.4 26.8031C13.5 26.9031 13.6 26.9031 13.6 26.9031C15 27.5031 16.4 27.7031 17.8 27.3031C18.1 27.2031 18.2 27.1031 18.2 26.8031C18.1 26.6031 17.9 26.5031 17.7 26.5031Z" fill="white"/>
<path id="Vector_5" d="M6.30029 14.2009C6.30029 14.4009 6.40029 14.6009 6.60029 14.7009C6.80029 14.7009 7.00029 14.6009 7.00029 14.4009C7.00029 14.3009 7.00029 14.3009 7.00029 14.2009C7.20029 13.0009 7.70029 11.9009 8.50029 11.0009L8.60029 10.9009C8.60029 11.1009 8.50029 11.2009 8.50029 11.4009C8.40029 11.6009 8.50029 11.8009 8.70029 11.9009C8.90029 12.0009 9.10029 11.9009 9.20029 11.6009C9.60029 10.9009 9.80029 10.4009 10.0003 9.80087C10.1003 9.50087 9.90029 9.20087 9.60029 9.30087C8.90029 9.30087 8.30029 9.40087 7.60029 9.40087C7.30029 9.40087 7.20029 9.60087 7.20029 9.80087C7.20029 10.0009 7.40029 10.2009 7.70029 10.2009C7.90029 10.2009 8.10029 10.2009 8.40029 10.2009C8.10029 10.4009 7.90029 10.6009 7.70029 10.8009C7.00029 11.8009 6.50029 12.9009 6.30029 14.2009Z" fill="white"/>
<path id="Vector_6" d="M22.5002 11.6016C23.2002 12.4016 23.7002 13.4016 23.9002 14.5016C24.0002 14.6016 24.0002 14.8016 24.0002 15.0016C23.9002 14.9016 23.8002 14.8016 23.7002 14.7016C23.5002 14.5016 23.3002 14.4016 23.1002 14.5016C22.9002 14.6016 22.9002 14.8016 23.0002 15.1016C23.3002 15.6016 23.6002 16.1016 23.9002 16.6016C24.1002 16.9016 24.4002 16.9016 24.6002 16.6016C25.0002 16.1016 25.4002 15.5016 25.7002 15.0016C26.0002 14.8016 26.0002 14.6016 25.8002 14.4016C25.6002 14.3016 25.4002 14.3016 25.2002 14.5016C25.1002 14.7016 24.9002 14.8016 24.8002 15.1016C24.8002 15.0016 24.8002 14.9016 24.8002 14.9016C24.7002 14.1016 24.5002 13.3016 24.2002 12.6016C23.8002 12.0016 23.5002 11.5016 23.0002 11.0016C22.8002 10.8016 22.6002 10.8016 22.4002 11.0016C22.3002 11.1016 22.3002 11.3016 22.5002 11.6016Z" fill="white"/>
<path id="Vector_7" d="M16 7.39844C14.6 7.39844 13.5 8.49844 13.5 9.89844C13.5 11.2984 14.6 12.4984 16.1 12.4984C17.5 12.4984 18.6 11.3984 18.6 9.99844C18.6 8.59844 17.4 7.39844 16 7.39844ZM16 11.6984C15 11.6984 14.2 10.8984 14.2 9.89844C14.2 8.89844 15 8.09844 16 8.09844C17 8.09844 17.7 8.89844 17.7 9.89844C17.8 10.9984 17 11.7984 16 11.6984Z" fill="white"/>
</g>
</g>
</svg>
