<svg width="32" height="32" viewBox="0 0 32 32" fill="none" xmlns="http://www.w3.org/2000/svg">
<g id="Media/Advertisement/Event Mgt.">
<g id="camera">
<path id="Path 8647" d="M28 17.5983L21.419 18.6222V15.7237H18.458L17.829 13.4357C18.4662 13.1824 19.0348 12.7812 19.4885 12.2648C19.9422 11.7484 20.268 11.1314 20.4394 10.4642C20.6108 9.79702 20.6229 9.09853 20.4747 8.42574C20.3266 7.75295 20.0224 7.12493 19.5869 6.59291C19.1514 6.0609 18.597 5.63997 17.969 5.36449C17.341 5.089 16.6571 4.96676 15.9731 5.00774C15.2891 5.04872 14.6245 5.25175 14.0334 5.60028C13.4423 5.94881 12.9416 6.43295 12.572 7.0132C12.2021 6.43483 11.7018 5.95241 11.1116 5.60516C10.5214 5.25792 9.85809 5.05566 9.17554 5.01483C8.49299 4.97399 7.8105 5.09574 7.18355 5.37017C6.5566 5.6446 6.0029 6.06397 5.56748 6.59417C5.13205 7.12437 4.82719 7.75043 4.67768 8.42145C4.52817 9.09248 4.53824 9.78951 4.70707 10.4559C4.87589 11.1223 5.1987 11.7392 5.64926 12.2564C6.09982 12.7737 6.66539 13.1767 7.3 13.4327L6.684 15.7247H4V27.0018H21.419V24.0852L28 25.106V17.5983ZM17 15.7237H15.46L15.994 13.7364C16.072 13.7364 16.379 13.7364 16.453 13.7364L17 15.7237ZM16.23 6.41581C16.8115 6.41581 17.3799 6.58922 17.8634 6.91412C18.3469 7.23902 18.7237 7.70081 18.9462 8.24109C19.1687 8.78137 19.2269 9.37589 19.1135 9.94945C19.0001 10.523 18.7201 11.0499 18.3089 11.4634C17.8977 11.8769 17.3739 12.1585 16.8036 12.2726C16.2333 12.3867 15.6421 12.3281 15.1049 12.1043C14.5677 11.8805 14.1085 11.5016 13.7855 11.0153C13.4624 10.5291 13.29 9.95741 13.29 9.37261C13.2908 8.58866 13.6008 7.83705 14.152 7.28272C14.7032 6.72838 15.4505 6.41661 16.23 6.41581ZM5.974 9.37261C5.974 8.78781 6.14643 8.21614 6.46948 7.7299C6.79253 7.24366 7.2517 6.86467 7.78891 6.64088C8.32613 6.41709 8.91726 6.35853 9.48757 6.47262C10.0579 6.58671 10.5817 6.86832 10.9929 7.28183C11.4041 7.69535 11.6841 8.2222 11.7975 8.79577C11.9109 9.36933 11.8527 9.96384 11.6302 10.5041C11.4077 11.0444 11.0309 11.5062 10.5474 11.8311C10.0639 12.156 9.49548 12.3294 8.914 12.3294C8.13451 12.3286 7.38717 12.0168 6.83598 11.4625C6.2848 10.9082 5.97479 10.1566 5.974 9.37261ZM9.138 13.7374L9.685 15.7237H8.145L8.679 13.7364C8.757 13.7414 9.064 13.7414 9.138 13.7374ZM10.514 13.4357C11.3605 13.0955 12.08 12.4978 12.572 11.726C13.0628 12.4927 13.7785 13.0871 14.62 13.4266L14 15.7237H11.143L10.514 13.4357ZM20.014 25.5877H5.406V17.1397H20.013L20.014 25.5877ZM21.42 20.0563L22.994 19.8119V22.9005L21.42 22.6561V20.0563ZM26.595 23.4607L24.395 23.1197V19.5887L26.595 19.2477V23.4607Z" fill="white"/>
<path id="Path 8648" d="M6.97607 22.4766H12.5701V23.8906H6.97607V22.4766Z" fill="white"/>
<path id="Path 8649" d="M6.97607 19.4141H8.46207V20.8281H6.97607V19.4141Z" fill="white"/>
<path id="Path 8650" d="M10.368 20.8221C10.5064 20.8221 10.6418 20.7808 10.7569 20.7034C10.872 20.626 10.9617 20.5161 11.0147 20.3875C11.0677 20.2588 11.0815 20.1173 11.0545 19.9807C11.0275 19.8441 10.9608 19.7187 10.8629 19.6202C10.765 19.5218 10.6403 19.4548 10.5045 19.4276C10.3687 19.4004 10.228 19.4144 10.1001 19.4676C9.97218 19.5209 9.86286 19.6112 9.78594 19.7269C9.70903 19.8427 9.66797 19.9788 9.66797 20.118C9.67081 20.3039 9.74546 20.4813 9.87613 20.6127C10.0068 20.7441 10.1832 20.8192 10.368 20.8221Z" fill="white"/>
<path id="Path 8651" d="M9.6168 9.37587C9.6168 9.23663 9.57574 9.10052 9.49883 8.98475C9.42191 8.86898 9.31259 8.77875 9.18468 8.72546C9.05677 8.67218 8.91602 8.65824 8.78024 8.6854C8.64445 8.71257 8.51972 8.77962 8.42182 8.87807C8.32393 8.97653 8.25726 9.10196 8.23025 9.23853C8.20324 9.37509 8.2171 9.51664 8.27008 9.64528C8.32306 9.77392 8.41279 9.88387 8.5279 9.96123C8.64302 10.0386 8.77835 10.0799 8.9168 10.0799C9.10125 10.076 9.27708 10.0006 9.40753 9.86941C9.53799 9.73821 9.61297 9.56138 9.6168 9.37587Z" fill="white"/>
<path id="Path 8652" d="M16.2288 10.0799C16.3673 10.0799 16.5026 10.0386 16.6177 9.96123C16.7328 9.88387 16.8226 9.77393 16.8755 9.64529C16.9285 9.51665 16.9424 9.3751 16.9154 9.23853C16.8883 9.10197 16.8217 8.97653 16.7238 8.87807C16.6259 8.77962 16.5012 8.71257 16.3654 8.6854C16.2296 8.65824 16.0888 8.67218 15.9609 8.72546C15.833 8.77875 15.7237 8.86898 15.6468 8.98475C15.5699 9.10052 15.5288 9.23663 15.5288 9.37587C15.5316 9.5617 15.6063 9.73911 15.737 9.87052C15.8676 10.0019 16.0441 10.077 16.2288 10.0799Z" fill="white"/>
</g>
</g>
</svg>
