<svg width="32" height="32" viewBox="0 0 32 32" fill="none" xmlns="http://www.w3.org/2000/svg">
<g id="IT/Telecommunication">
<g id="Group 39521">
<path id="personal-computer" d="M28 20.5C27.9989 21.4942 27.6035 22.4474 26.9005 23.1505C26.1974 23.8535 25.2442 24.2489 24.25 24.25H21.156V26.125H23.031C23.2743 26.1329 23.5051 26.2352 23.6744 26.4102C23.8437 26.5851 23.9384 26.819 23.9384 27.0625C23.9384 27.306 23.8437 27.5399 23.6744 27.7148C23.5051 27.8898 23.2743 27.9921 23.031 28H17.406C17.1627 27.9921 16.9319 27.8898 16.7626 27.7148C16.5933 27.5399 16.4986 27.306 16.4986 27.0625C16.4986 26.819 16.5933 26.5851 16.7626 26.4102C16.9319 26.2352 17.1627 26.1329 17.406 26.125H19.281V24.25H17.406C17.1627 24.2421 16.9319 24.1398 16.7626 23.9648C16.5933 23.7899 16.4986 23.556 16.4986 23.3125C16.4986 23.069 16.5933 22.8351 16.7626 22.6602C16.9319 22.4852 17.1627 22.3829 17.406 22.375H24.25C24.7471 22.3745 25.2237 22.1768 25.5752 21.8252C25.9268 21.4737 26.1245 20.9971 26.125 20.5C26.1329 20.2567 26.2352 20.0259 26.4102 19.8566C26.5851 19.6873 26.819 19.5926 27.0625 19.5926C27.306 19.5926 27.5399 19.6873 27.7148 19.8566C27.8898 20.0259 27.9921 20.2567 28 20.5ZM24.25 8.313H17.406C17.1627 8.32095 16.9319 8.4232 16.7626 8.59815C16.5933 8.7731 16.4986 9.00703 16.4986 9.2505C16.4986 9.49397 16.5933 9.7279 16.7626 9.90285C16.9319 10.0778 17.1627 10.1801 17.406 10.188H24.25C24.7471 10.1885 25.2237 10.3862 25.5752 10.7378C25.9268 11.0893 26.1245 11.5659 26.125 12.063V15.813C26.1329 16.0563 26.2352 16.2871 26.4102 16.4564C26.5851 16.6257 26.819 16.7204 27.0625 16.7204C27.306 16.7204 27.5399 16.6257 27.7148 16.4564C27.8898 16.2871 27.9921 16.0563 28 15.813V12.063C27.9989 11.0688 27.6035 10.1156 26.9005 9.41252C26.1974 8.70949 25.2442 8.31406 24.25 8.313ZM14.594 6.813V25.188C14.5929 25.9336 14.2962 26.6484 13.7689 27.1756C13.2415 27.7027 12.5266 27.9992 11.781 28H6.813C6.06736 27.9992 5.35248 27.7027 4.82514 27.1756C4.2978 26.6484 4.00106 25.9336 4 25.188L4 6.813C4.00079 6.06719 4.29742 5.35215 4.82479 4.82479C5.35215 4.29742 6.06719 4.00079 6.813 4L11.781 4C12.5268 4.00079 13.2418 4.29742 13.7692 4.82479C14.2966 5.35215 14.5932 6.06719 14.594 6.813ZM12.719 6.813C12.7185 6.56465 12.6196 6.32663 12.444 6.15102C12.2684 5.97542 12.0303 5.87653 11.782 5.876H6.813C6.56448 5.87653 6.32631 5.97556 6.15067 6.15138C5.97504 6.3272 5.87626 6.56548 5.876 6.814V25.188C5.87626 25.4367 5.97517 25.6751 6.15103 25.851C6.32688 26.0268 6.56531 26.1257 6.814 26.126H11.781C12.0295 26.1257 12.2678 26.027 12.4436 25.8513C12.6194 25.6757 12.7185 25.4375 12.719 25.189V6.813ZM10.375 16.281H8.219C7.97566 16.2889 7.74494 16.3912 7.57562 16.5662C7.40629 16.7411 7.31162 16.975 7.31162 17.2185C7.31162 17.462 7.40629 17.6959 7.57562 17.8708C7.74494 18.0458 7.97566 18.1481 8.219 18.156H10.375C10.6183 18.1481 10.8491 18.0458 11.0184 17.8708C11.1877 17.6959 11.2824 17.462 11.2824 17.2185C11.2824 16.975 11.1877 16.7411 11.0184 16.5662C10.8491 16.3912 10.6183 16.2889 10.375 16.281ZM10.375 7.75H8.219C7.97566 7.75795 7.74494 7.8602 7.57562 8.03515C7.40629 8.2101 7.31162 8.44403 7.31162 8.6875C7.31162 8.93097 7.40629 9.1649 7.57562 9.33985C7.74494 9.5148 7.97566 9.61705 8.219 9.625H10.375C10.6183 9.61705 10.8491 9.5148 11.0184 9.33985C11.1877 9.1649 11.2824 8.93097 11.2824 8.6875C11.2824 8.44403 11.1877 8.2101 11.0184 8.03515C10.8491 7.8602 10.6183 7.75795 10.375 7.75ZM10.375 19.563H8.219C7.97566 19.5709 7.74494 19.6732 7.57562 19.8482C7.40629 20.0231 7.31162 20.257 7.31162 20.5005C7.31162 20.744 7.40629 20.9779 7.57562 21.1528C7.74494 21.3278 7.97566 21.4301 8.219 21.438H10.375C10.6183 21.4301 10.8491 21.3278 11.0184 21.1528C11.1877 20.9779 11.2824 20.744 11.2824 20.5005C11.2824 20.257 11.1877 20.0231 11.0184 19.8482C10.8491 19.6732 10.6183 19.5709 10.375 19.563ZM9.391 22.844C9.20548 22.844 9.02413 22.899 8.86987 23.0021C8.71562 23.1052 8.5954 23.2516 8.5244 23.423C8.45341 23.5944 8.43483 23.783 8.47102 23.965C8.50722 24.1469 8.59655 24.3141 8.72773 24.4453C8.85892 24.5764 9.02605 24.6658 9.20801 24.702C9.38996 24.7382 9.57856 24.7196 9.74996 24.6486C9.92135 24.5776 10.0678 24.4574 10.1709 24.3031C10.274 24.1489 10.329 23.9675 10.329 23.782C10.3291 23.6588 10.305 23.5368 10.2579 23.4229C10.2108 23.309 10.1417 23.2056 10.0546 23.1184C9.96743 23.0313 9.86398 22.9622 9.75011 22.9151C9.63625 22.868 9.51422 22.8439 9.391 22.844Z" fill="white"/>
</g>
</g>
</svg>
