<svg width="32" height="32" viewBox="0 0 32 32" fill="none" xmlns="http://www.w3.org/2000/svg">
<g id="Pharmaceutical ">
<g id="Clip path group">
<mask id="mask0_14921_5116" style="mask-type:luminance" maskUnits="userSpaceOnUse" x="4" y="4" width="24" height="24">
<g id="clip0_10952_25385">
<path id="Vector" d="M28 4H4V28H28V4Z" fill="white"/>
</g>
</mask>
<g mask="url(#mask0_14921_5116)">
<g id="Group">
<path id="Vector_2" d="M18.0102 6.23803L12.1108 12.1392L19.8517 19.8824L25.7512 13.9813C27.8886 11.8432 27.8886 8.37614 25.7512 6.23803C24.6791 5.16569 23.2783 4.63281 21.8774 4.63281C20.4831 4.63281 19.0823 5.16569 18.0102 6.23803Z" fill="white"/>
<path id="Vector_3" d="M17.5429 5.77027C15.8198 7.49391 14.0966 9.21755 12.3735 10.9412C12.1302 11.1846 11.8868 11.428 11.6435 11.6714C11.3936 11.9214 11.3936 12.349 11.6435 12.599C13.9059 14.8622 16.1683 17.1253 18.4242 19.3818C18.7465 19.7042 19.0622 20.02 19.3844 20.3423C19.6343 20.5923 20.0618 20.5923 20.3118 20.3423C22.0217 18.6318 23.7251 16.9279 25.4351 15.2174C25.685 14.9674 25.9415 14.7109 26.1915 14.4609C26.8952 13.7503 27.4279 12.8885 27.7304 11.928C28.4605 9.6057 27.691 6.94787 25.8034 5.39528C23.37 3.4019 19.7988 3.55979 17.5429 5.77027C16.9378 6.36236 17.8652 7.29654 18.4702 6.69787C20.1605 5.04002 22.8373 4.82292 24.7577 6.23736C26.4348 7.47417 27.0925 9.71096 26.4348 11.6714C26.0665 12.7701 25.2773 13.5201 24.4881 14.3096C23.5015 15.2964 22.515 16.2832 21.5285 17.27C20.8116 17.9871 20.0947 18.7042 19.3778 19.4213C19.687 19.4213 19.9961 19.4213 20.3052 19.4213C18.0427 17.1582 15.7803 14.8951 13.5245 12.6385C13.2022 12.3162 12.8865 12.0004 12.5643 11.678C12.5643 11.9872 12.5643 12.2964 12.5643 12.6056C14.2874 10.882 16.0105 9.15834 17.7336 7.4347C17.977 7.19128 18.2203 6.94787 18.4637 6.70445C19.0753 6.09921 18.1414 5.1716 17.5429 5.77027Z" fill="white"/>
<path id="Vector_4" d="M11.6443 11.6701C10.3947 12.9201 9.13854 14.1766 7.88894 15.4265C7.25098 16.0647 6.61303 16.7028 5.98165 17.3344C5.08062 18.2357 4.39664 19.3014 4.13356 20.5646C3.75868 22.3737 4.19933 24.2487 5.3437 25.696C6.47492 27.1302 8.25724 27.9789 10.079 27.9986C11.7298 28.0118 13.3148 27.3407 14.4789 26.1829C14.9722 25.696 15.4654 25.196 15.9587 24.7026C17.3793 23.2816 18.8262 21.8803 20.2271 20.433C20.2599 20.4001 20.2863 20.3738 20.3191 20.3409C20.5691 20.0909 20.5691 19.6633 20.3191 19.4133C18.0567 17.1502 15.7943 14.8871 13.5385 12.6306C13.2162 12.3082 12.9005 11.9925 12.5782 11.6701C11.9797 11.0714 11.0458 11.999 11.6509 12.5977C13.9133 14.8608 16.1757 17.1239 18.4316 19.3804C18.7538 19.7028 19.0695 20.0185 19.3918 20.3409C19.3918 20.0317 19.3918 19.7225 19.3918 19.4133C18.208 20.5975 17.0241 21.7816 15.8403 22.9658C15.1826 23.6237 14.5249 24.2816 13.8739 24.9329C13.203 25.6039 12.4927 26.1763 11.5654 26.4657C10.0725 26.9263 8.40193 26.6368 7.16548 25.6631C5.90931 24.6763 5.23847 23.1303 5.32397 21.5448C5.39631 20.3212 5.96192 19.2225 6.81691 18.3607C7.36279 17.8146 7.90867 17.2686 8.45455 16.7226C9.8028 15.3739 11.1708 14.045 12.4993 12.6767C12.5256 12.6503 12.5585 12.6174 12.5848 12.5911C13.1767 11.999 12.2428 11.0714 11.6443 11.6701Z" fill="white"/>
</g>
</g>
</g>
</g>
</svg>
