<svg width="32" height="32" viewBox="0 0 32 32" fill="none" xmlns="http://www.w3.org/2000/svg">
<g id="Healthcare/Medical">
<g id="medicine (1)">
<path id="Path 8672" d="M9.40527 23.922H18.9709V16H9.40527V23.922ZM10.7918 17.406H17.5873V22.515H10.7918V17.406Z" fill="white"/>
<path id="Path 8673" d="M23.1461 18.031C22.8871 18.0312 22.6293 18.0672 22.3799 18.138V16.77C22.3801 14.9336 21.7187 13.1605 20.52 11.784L19.5526 10.672V8.9H20.7271V4H7.65081V8.9H8.82629V10.672L7.85888 11.784C6.66055 13.1606 5.99948 14.9338 6 16.77V28H23.1461C23.9029 27.9987 24.6283 27.6932 25.1634 27.1506C25.6985 26.608 25.9997 25.8724 26.001 25.105V20.925C25.9997 20.1576 25.6985 19.422 25.1634 18.8794C24.6283 18.3368 23.9029 18.0313 23.1461 18.03V18.031ZM24.6135 20.926V22.313H21.6777V20.926C21.6777 20.5312 21.8324 20.1526 22.1077 19.8735C22.3829 19.5943 22.7563 19.4375 23.1456 19.4375C23.5349 19.4375 23.9083 19.5943 24.1835 19.8735C24.4588 20.1526 24.6135 20.5312 24.6135 20.926ZM19.3465 7.492H17.815V5.406H19.3465V7.492ZM11.9563 7.492V5.406H13.5006V7.492H11.9563ZM14.8881 5.407H16.4275V7.492H14.8832L14.8881 5.407ZM9.04324 5.407H10.5708V7.492H9.03732L9.04324 5.407ZM18.1631 8.9V10.656H10.2128V8.9H18.1631ZM7.38652 16.77C7.38596 15.2763 7.92358 13.8339 8.89828 12.714L9.46531 12.062H18.9126L19.4796 12.714C20.4543 13.8339 20.9919 15.2763 20.9914 16.77V19.029C20.5382 19.5552 20.289 20.2304 20.2902 20.929V25.109C20.2897 25.6334 20.4306 26.1479 20.6975 26.597H7.38455L7.38652 16.77ZM23.1461 26.594C22.7571 26.5935 22.3842 26.4365 22.1091 26.1576C21.834 25.8787 21.6792 25.5005 21.6787 25.106V23.719H24.6145V25.106C24.6139 25.5007 24.459 25.879 24.1838 26.1579C23.9085 26.4369 23.5353 26.5937 23.1461 26.594Z" fill="white"/>
</g>
</g>
</svg>
