<svg width="32" height="32" viewBox="0 0 32 32" fill="none" xmlns="http://www.w3.org/2000/svg">
<g id="Caregiver/Nanny">
<g id="Group">
<path id="Vector" d="M27.1325 4.86714C26.5892 4.32306 25.8639 4.02344 25.0903 4.02344C24.3788 4.02344 23.7083 4.27684 23.1827 4.74053C22.657 4.27684 21.9868 4.02344 21.2758 4.02344C20.5026 4.02344 19.7776 4.32306 19.2343 4.86714C18.1089 5.99275 18.1089 7.82416 19.2344 8.94967L22.9183 12.6348C22.953 12.6696 22.9942 12.6971 23.0396 12.716C23.085 12.7348 23.1336 12.7444 23.1827 12.7444H23.1828C23.2819 12.7444 23.377 12.705 23.4472 12.6349L27.1323 8.94972C28.258 7.82411 28.258 5.99261 27.1325 4.86714ZM26.6035 8.42087L23.1828 11.8416L19.7633 8.42087C18.9293 7.58687 18.9293 6.22984 19.7633 5.3958L19.7635 5.39561C20.1655 4.99305 20.7025 4.77133 21.2758 4.77133C21.849 4.77133 22.3861 4.99305 22.7883 5.3958L22.9183 5.52573C22.9884 5.59586 23.0835 5.63525 23.1827 5.63525C23.2819 5.63525 23.377 5.59586 23.4471 5.52573L23.5773 5.39556C23.9793 4.993 24.5166 4.77128 25.0903 4.77128C25.6639 4.77128 26.2013 4.993 26.6035 5.39575C27.4375 6.22984 27.4375 7.58687 26.6035 8.42087ZM23.2775 24.5402C23.4169 24.3151 23.4907 24.0555 23.4904 23.7907C23.4904 23.1333 23.0433 22.5786 22.4374 22.4139V20.5431C22.4374 19.3147 21.438 18.3153 20.2096 18.3153H20.1181V17.4798C20.1187 17.0174 20.0072 16.5617 19.7931 16.1519C19.579 15.742 19.2687 15.3901 18.8888 15.1265C19.5703 14.5154 20.0001 13.6289 20.0001 12.6436C20.0001 10.8046 18.5039 9.3085 16.6649 9.3085C14.826 9.3085 13.3298 10.8046 13.3298 12.6436C13.3298 13.4581 13.6237 14.205 14.1104 14.7848C13.9422 14.9094 13.8025 15.0683 13.7004 15.251C13.5089 14.9499 13.1725 14.7495 12.7901 14.7495H11.7922C11.5714 14.288 11.0995 13.9684 10.5543 13.9684H9.50411V10.1228C9.50411 9.35805 9.0213 8.70423 8.3448 8.45003C8.74309 8.04752 8.98961 7.4943 8.98961 6.88445V6.25061C8.98961 5.02291 7.99136 4.02409 6.76441 4.02409C5.5367 4.02409 4.53789 5.02291 4.53789 6.25061V6.8845C4.53789 7.49444 4.78455 8.04766 5.18322 8.45022C4.50644 8.70452 4.02344 9.35819 4.02344 10.1228V17.7611C4.02344 17.7648 4.02391 17.7684 4.024 17.7721C4.0243 17.7846 4.02529 17.7971 4.02695 17.8095C4.02854 17.8219 4.03074 17.8342 4.03356 17.8464C4.04032 17.8758 4.05077 17.9042 4.06464 17.9311C4.07374 17.9487 4.08417 17.9655 4.09586 17.9815C4.09769 17.984 4.09923 17.9867 4.10116 17.9891C5.42158 19.7046 5.43733 22.7747 5.27861 25.5517C5.27842 25.555 5.27866 25.5582 5.27856 25.5615C5.27847 25.5654 5.278 25.5692 5.278 25.573V27.6006C5.278 27.6497 5.28767 27.6984 5.30647 27.7437C5.32526 27.7891 5.35281 27.8303 5.38753 27.8651C5.42226 27.8998 5.46349 27.9273 5.50886 27.9461C5.55423 27.9649 5.60286 27.9746 5.65197 27.9746H10.0559C10.105 27.9746 10.1537 27.9649 10.199 27.9461C10.2444 27.9273 10.2856 27.8998 10.3204 27.8651C10.3551 27.8303 10.3826 27.7891 10.4014 27.7437C10.4202 27.6984 10.4299 27.6497 10.4299 27.6006V26.5875C10.4299 25.8219 9.80763 25.1991 9.04277 25.1991H8.90823L9.50303 17.791C9.50341 17.7865 9.50322 17.7821 9.50345 17.7777C9.50369 17.7722 9.5043 17.7667 9.5043 17.7611V16.7095H10.2468V22.0921C10.2468 22.654 10.679 23.1166 11.2283 23.1657C11.2909 25.8281 13.4761 27.9746 16.1532 27.9746C17.3315 27.9746 18.4144 27.5586 19.2631 26.866H22.8765C23.5375 26.866 24.0753 26.3289 24.0753 25.6685C24.0752 25.1487 23.7418 24.7054 23.2775 24.5402ZM22.0635 23.1118C22.4379 23.1118 22.7425 23.4164 22.7425 23.7908C22.7425 24.1659 22.4379 24.471 22.0635 24.471H20.8698C21.0029 24.03 21.0732 23.5724 21.0787 23.1118H22.0635ZM20.1182 19.0633H20.2097C21.0257 19.0633 21.6895 19.7271 21.6895 20.5432V22.3638H21.0318C20.9162 21.5354 20.5937 20.7723 20.1182 20.1287V19.0633H20.1182ZM19.3702 17.4799V19.3211C18.5064 18.575 17.3816 18.1231 16.1531 18.1231C15.983 18.1231 15.814 18.1318 15.6468 18.1486L16.3551 16.604C16.4454 16.4064 16.4914 16.1914 16.4897 15.9742C16.5477 15.9772 16.6062 15.9788 16.665 15.9788C17.2062 15.9793 17.7393 15.8471 18.2178 15.594C18.9231 15.9563 19.3702 16.6788 19.3702 17.4799ZM14.0778 12.6437C14.0778 11.2171 15.2384 10.0565 16.665 10.0565C18.0916 10.0565 19.2521 11.2171 19.2521 12.6437C19.2521 14.0702 18.0916 15.2309 16.665 15.2309C15.2384 15.2309 14.0778 14.0703 14.0778 12.6437ZM14.3238 15.6728C14.3947 15.517 14.5177 15.3908 14.6717 15.316C14.9896 15.5536 15.3476 15.7325 15.7285 15.844C15.7574 15.9945 15.7399 16.1514 15.6754 16.2923L14.5734 18.6952C14.5422 18.7632 14.5321 18.839 14.5445 18.9127C14.5568 18.9865 14.5909 19.0549 14.6425 19.109L16.1814 20.7245L16.1857 20.729L16.3713 20.9239C16.6538 21.2214 16.6425 21.693 16.3462 21.9751C16.0495 22.2577 15.5773 22.2459 15.2943 21.9496L13.1037 19.6476C12.8531 19.3841 12.855 18.8785 13.0003 18.5613L14.3238 15.6728ZM17.2927 21.1372C17.9465 21.5273 18.3769 22.2415 18.3769 23.0481C18.3769 24.275 17.3793 25.2732 16.1531 25.2732C14.9262 25.2732 13.928 24.275 13.928 23.0481C13.928 22.6518 14.034 22.2628 14.2349 21.9213L14.7529 22.4657C15.046 22.7725 15.4396 22.9271 15.8338 22.9271C16.2036 22.927 16.574 22.7909 16.8619 22.5167C17.2469 22.15 17.392 21.6243 17.2927 21.1372ZM8.75622 10.1228V13.9684H6.79497C6.78695 13.9682 6.77931 13.965 6.77363 13.9593C6.76796 13.9536 6.76469 13.946 6.7645 13.938V13.3691H7.30286C7.40204 13.3691 7.49716 13.3297 7.5673 13.2596C7.63743 13.1894 7.67683 13.0943 7.67683 12.9951V9.9955C7.67712 9.67155 7.58199 9.3547 7.40331 9.08448H7.7193C8.29103 9.08444 8.75622 9.55023 8.75622 10.1228ZM5.28587 6.25061C5.28587 5.43531 5.94911 4.77203 6.76441 4.77203C7.57895 4.77203 8.24167 5.43531 8.24167 6.25061V6.8845C8.24167 7.60483 7.72422 8.20614 7.04191 8.33655H6.48667C5.80375 8.20614 5.28592 7.60483 5.28592 6.8845V6.25061H5.28587ZM4.77137 10.1228C4.77137 9.55028 5.23712 9.08448 5.80966 9.08448H6.01783C6.52019 9.08448 6.92884 9.49314 6.92884 9.9955V12.6212H4.77137V10.1228ZM4.77137 16.5549C4.96716 16.6566 5.18458 16.7096 5.40522 16.7095H8.75622V17.387H4.77137V16.5549ZM5.08666 18.135H8.725L8.15777 25.199H6.04642C6.172 22.6808 6.11294 19.9811 5.08666 18.135ZM9.04267 25.947C9.39513 25.947 9.68186 26.2343 9.68186 26.5874V27.2266H6.02584V25.947H8.50291H9.04267ZM5.40522 15.9615C5.05572 15.9615 4.77137 15.6772 4.77137 15.3277V13.369H6.01652V13.9379C6.01652 14.3671 6.36573 14.7163 6.79492 14.7163H10.5544C10.898 14.7163 11.1776 14.9953 11.1776 15.3382C11.1776 15.6819 10.898 15.9615 10.5544 15.9615L5.40522 15.9615ZM10.9947 22.092V16.6365C11.487 16.4691 11.8543 16.0293 11.9161 15.4974H12.7902C12.8777 15.4975 12.9617 15.5323 13.0236 15.5942C13.0855 15.6561 13.1203 15.7401 13.1204 15.8276V16.5036L12.3203 18.2498C12.1051 18.7195 12.0723 19.3884 12.3652 19.8987C11.7641 20.6204 11.3858 21.4906 11.2672 22.4169C11.1125 22.3894 10.9947 22.2544 10.9947 22.092ZM16.1531 27.2266C13.8491 27.2266 11.9747 25.3522 11.9747 23.0481C11.9747 22.1079 12.2865 21.2085 12.8597 20.4763L13.7043 21.3638C13.363 21.8592 13.1802 22.4465 13.18 23.0481C13.18 24.6874 14.5138 26.0212 16.1531 26.0212C17.7917 26.0212 19.1249 24.6874 19.1249 23.0481C19.1249 21.5841 18.0635 20.347 16.6338 20.1152L15.4968 18.9215C15.714 18.8878 15.9334 18.8709 16.1531 18.871C18.4572 18.871 20.3316 20.7448 20.3316 23.0481C20.3316 25.3522 18.4572 27.2266 16.1531 27.2266ZM22.8764 26.118H20.0032C20.2255 25.8398 20.4171 25.5384 20.5747 25.219H22.8764C23.125 25.219 23.3272 25.4206 23.3272 25.6685C23.3272 25.9164 23.125 26.118 22.8764 26.118ZM24.904 8.00636C24.904 8.10554 24.8646 8.20066 24.7945 8.27079C24.7243 8.34093 24.6292 8.38033 24.53 8.38033H23.5567V9.35369C23.5567 9.45287 23.5173 9.54799 23.4472 9.61812C23.3771 9.68826 23.2819 9.72766 23.1828 9.72766C23.0836 9.72766 22.9884 9.68826 22.9183 9.61812C22.8482 9.54799 22.8088 9.45287 22.8088 9.35369V8.38033H21.8355C21.7363 8.38033 21.6412 8.34093 21.571 8.27079C21.5009 8.20066 21.4615 8.10554 21.4615 8.00636C21.4615 7.90718 21.5009 7.81206 21.571 7.74192C21.6412 7.67179 21.7363 7.63239 21.8355 7.63239H22.8088V6.66039C22.8088 6.56121 22.8482 6.46609 22.9183 6.39595C22.9884 6.32582 23.0836 6.28642 23.1828 6.28642C23.2819 6.28642 23.3771 6.32582 23.4472 6.39595C23.5173 6.46609 23.5567 6.56121 23.5567 6.66039V7.63239H24.53C24.6292 7.63239 24.7243 7.67179 24.7945 7.74192C24.8646 7.81206 24.904 7.90718 24.904 8.00636Z" fill="white"/>
</g>
</g>
</svg>
