<svg width="32" height="32" viewBox="0 0 32 32" fill="none" xmlns="http://www.w3.org/2000/svg">
<g id="Gym/ Fitness Trainer">
<g id="Group">
<path id="Vector" d="M20.0959 20.4759H19.7476C19.2095 20.4759 18.772 20.0383 18.772 19.5003V17.7803C18.772 17.2422 19.2095 16.8047 19.7476 16.8047H20.0959C20.6339 16.8047 21.0715 17.2422 21.0715 17.7803V19.4998C21.072 20.0383 20.6339 20.4759 20.0959 20.4759ZM19.7481 17.554C19.6232 17.554 19.5212 17.6554 19.5212 17.7808V19.5003C19.5212 19.6252 19.6227 19.7271 19.7481 19.7271H20.0964C20.2212 19.7271 20.3232 19.6257 20.3232 19.5003V17.7803C20.3232 17.6554 20.2217 17.5535 20.0964 17.5535H19.7481V17.554Z" fill="white"/>
<path id="Vector_2" d="M24.1408 19.0149H20.6989C20.492 19.0149 20.3242 18.8471 20.3242 18.6403C20.3242 18.4334 20.492 18.2656 20.6989 18.2656H24.1408C24.3476 18.2656 24.5154 18.4334 24.5154 18.6403C24.5154 18.8471 24.3476 19.0149 24.1408 19.0149Z" fill="white"/>
<path id="Vector_3" d="M25.0889 20.4752H24.7407C24.2026 20.4752 23.765 20.0376 23.765 19.4996V17.7796C23.765 17.2415 24.2026 16.804 24.7407 16.804H25.0889C25.627 16.804 26.0646 17.2415 26.0646 17.7796V19.4991C26.065 20.0376 25.627 20.4752 25.0889 20.4752ZM24.7411 17.5532C24.6163 17.5532 24.5143 17.6547 24.5143 17.78V19.4996C24.5143 19.6244 24.6158 19.7264 24.7411 19.7264H25.0894C25.2143 19.7264 25.3163 19.6249 25.3163 19.4996V17.7796C25.3163 17.6547 25.2148 17.5527 25.0894 17.5527H24.7411V17.5532ZM13.1704 20.6113C11.825 20.6113 10.6465 19.9108 10.0163 18.7366C9.91822 18.5542 9.987 18.3274 10.1694 18.2293C10.3519 18.1313 10.5787 18.2 10.6768 18.3825C11.1738 19.3088 12.106 19.862 13.1704 19.862H13.1724C14.2372 19.8615 15.1699 19.3069 15.666 18.3796C15.7636 18.1971 15.9904 18.1283 16.1733 18.2259C16.3558 18.3235 16.4246 18.5508 16.327 18.7327C15.6982 19.9079 14.5192 20.6103 13.1728 20.6108C13.1719 20.6113 13.1709 20.6113 13.1704 20.6113ZM8.60944 26.6459C8.40261 26.6459 8.2348 26.4781 8.2348 26.2713V23.3347C8.2348 23.1279 8.40261 22.96 8.60944 22.96C8.81626 22.96 8.98407 23.1279 8.98407 23.3347V26.2713C8.98407 26.4781 8.81626 26.6459 8.60944 26.6459ZM16.7309 13.4537C16.6601 13.4537 16.5907 13.4336 16.5309 13.3957C16.4593 13.3505 16.4052 13.2824 16.3773 13.2025C16.3494 13.1226 16.3494 13.0356 16.3772 12.9557C16.3841 12.9347 17.107 10.5727 15.6836 9.85566C14.0582 10.6713 12.2889 10.6708 10.6641 9.85517C9.24065 10.5718 9.96309 12.9342 9.9709 12.9586C10.0177 13.0927 9.98358 13.24 9.88456 13.3415C9.78504 13.443 9.63626 13.4781 9.50114 13.4342C9.08163 13.2991 8.5987 12.3752 8.50602 12.1913C8.28017 11.7425 7.90407 10.8493 7.92358 9.90785C7.94212 9.01322 8.31919 7.86151 9.94163 7.26395C9.64797 6.38346 10.1333 5.93176 10.3811 5.76688C11.0753 5.30542 12.4094 5.30688 13.9499 5.77127C15.5372 6.24981 16.9104 7.09371 17.7187 8.0859C18.4841 9.02639 19.408 10.9605 16.9948 13.3449C16.9246 13.4145 16.8298 13.4536 16.7309 13.4537ZM15.6699 9.0659C15.7153 9.0659 15.7611 9.0742 15.8046 9.09078C16.7572 9.45761 17.2802 10.2927 17.3163 11.5059C17.3192 11.5986 17.3187 11.6903 17.3163 11.7796C18.0221 10.6532 17.9636 9.57371 17.1377 8.55907C16.4324 7.69273 15.1602 6.91859 13.7338 6.48883C12.4641 6.1059 11.2836 6.06688 10.7963 6.39078C10.6933 6.45956 10.4192 6.64151 10.7802 7.31761C10.8338 7.4181 10.8387 7.53712 10.7943 7.642C10.7499 7.74688 10.6597 7.82493 10.5499 7.85566C9.46748 8.15517 8.84651 8.7342 8.70504 9.57566C8.59334 10.2386 8.78017 10.9532 9.0309 11.5366C9.0309 11.5264 9.03139 11.5157 9.03187 11.5049C9.06797 10.2918 9.5909 9.45663 10.5441 9.08981C10.646 9.05078 10.7602 9.05761 10.8563 9.10981C12.3514 9.91566 13.9977 9.91615 15.4928 9.11029C15.5475 9.08102 15.6085 9.0659 15.6699 9.0659Z" fill="white"/>
<path id="Vector_4" d="M13.1124 17.6378C12.068 17.6378 11.0885 17.1539 10.3544 16.2748C9.63633 15.4153 9.24121 14.2802 9.24121 13.0778C9.24121 12.8709 9.40902 12.7031 9.61585 12.7031C9.82267 12.7031 9.99048 12.8709 9.99048 13.0778C9.99048 14.1051 10.3237 15.0695 10.9295 15.7943C11.5188 16.4997 12.2939 16.888 13.1124 16.888H13.2339C14.9554 16.888 16.3563 15.1792 16.3563 13.0782C16.3563 12.8714 16.5241 12.7036 16.731 12.7036C16.9378 12.7036 17.1056 12.8714 17.1056 13.0782C17.1056 15.5924 15.3685 17.6373 13.2339 17.6373H13.1124V17.6378Z" fill="white"/>
<path id="Vector_5" d="M21.4561 26.6459H4.89075C4.68392 26.6459 4.51611 26.4781 4.51611 26.2713V24.2996C4.51611 20.3605 6.76294 19.5742 8.56831 18.942C10.0717 18.4157 10.92 18.0483 10.8644 16.6235C10.8566 16.4166 11.0176 16.2425 11.2244 16.2347C11.4303 16.2269 11.6054 16.3878 11.6132 16.5947C11.6927 18.6425 10.2303 19.1542 8.81563 19.6493C7.06977 20.2605 5.26489 20.8922 5.26489 24.2996V25.8966H21.081V24.2996C21.081 23.9459 21.06 23.6059 21.019 23.2893C20.9922 23.0839 21.1371 22.8961 21.3425 22.8693C21.5468 22.843 21.7356 22.9874 21.7625 23.1927C21.8078 23.541 21.8307 23.9137 21.8307 24.2996V26.2713C21.8307 26.4781 21.6629 26.6459 21.4561 26.6459ZM17.7537 19.7054C17.7127 19.7054 17.6707 19.6986 17.6298 19.6839L17.5298 19.6488C16.1161 19.1537 14.6542 18.6415 14.7337 16.5947C14.7355 16.5455 14.747 16.4971 14.7675 16.4524C14.788 16.4076 14.8172 16.3674 14.8533 16.334C14.8894 16.3005 14.9318 16.2745 14.978 16.2575C15.0242 16.2405 15.0733 16.2327 15.1225 16.2347C15.3293 16.2425 15.4903 16.4166 15.4825 16.6235C15.4273 18.0478 16.2747 18.4152 17.7776 18.9415L17.8781 18.9766C18.0732 19.0454 18.1761 19.2591 18.1073 19.4542C18.0817 19.5276 18.0339 19.5911 17.9705 19.6361C17.9072 19.6811 17.8314 19.7054 17.7537 19.7054Z" fill="white"/>
<path id="Vector_6" d="M17.738 26.6431C17.5312 26.6431 17.3634 26.4753 17.3634 26.2685V23.3319C17.3634 23.1251 17.5312 22.9573 17.738 22.9573C17.9449 22.9573 18.1127 23.1251 18.1127 23.3319V26.2685C18.1122 26.4753 17.9449 26.6431 17.738 26.6431ZM22.4268 23.7285C21.9849 23.7285 21.5395 23.6704 21.1014 23.5529C19.7883 23.2012 18.6907 22.3587 18.0112 21.1817C17.3317 20.0041 17.1507 18.6329 17.5029 17.3197C18.2292 14.609 21.0258 12.9948 23.7361 13.7207C25.0492 14.0724 26.1468 14.9148 26.8263 16.0919C27.5058 17.269 27.6868 18.6407 27.3346 19.9539C26.9829 21.267 26.1405 22.3646 24.9634 23.0441C24.179 23.4973 23.3088 23.7285 22.4268 23.7285ZM22.4195 14.2958C20.5034 14.2958 18.7449 15.5763 18.2263 17.5134C17.9263 18.6334 18.0805 19.8026 18.66 20.807C19.2395 21.8109 20.1756 22.529 21.2956 22.8295C23.6078 23.4485 25.9917 22.0719 26.6112 19.7602C26.9112 18.6402 26.757 17.4709 26.1775 16.4665C25.598 15.4626 24.6619 14.7446 23.5419 14.4441C23.1758 14.346 22.7985 14.2961 22.4195 14.2958Z" fill="white"/>
</g>
</g>
</svg>
