<svg width="32" height="32" viewBox="0 0 32 32" fill="none" xmlns="http://www.w3.org/2000/svg">
<g id="Imam/ Khatib/ Muezzin">
<g id="Group">
<path id="Vector" d="M16.0002 15.25C16.1757 15.2503 16.3495 15.2169 16.5117 15.1515C16.6739 15.0861 16.8212 14.9901 16.9452 14.869C16.9819 14.8344 17.0112 14.793 17.0314 14.7473C17.0515 14.7015 17.0621 14.6523 17.0626 14.6025C17.063 14.5527 17.0533 14.5034 17.034 14.4573C17.0146 14.4112 16.9861 14.3693 16.95 14.3341C16.9138 14.2989 16.8709 14.271 16.8236 14.2522C16.7764 14.2333 16.7257 14.2238 16.6746 14.2243C16.6236 14.2247 16.5731 14.2351 16.5262 14.2547C16.4793 14.2744 16.4368 14.3029 16.4013 14.3387C16.2948 14.4423 16.1506 14.5005 16.0002 14.5005C15.8498 14.5005 15.7055 14.4423 15.599 14.3387C15.5636 14.3029 15.5211 14.2744 15.4742 14.2547C15.4273 14.2351 15.3768 14.2247 15.3257 14.2243C15.2747 14.2238 15.224 14.2333 15.1767 14.2522C15.1295 14.271 15.0865 14.2989 15.0504 14.3341C15.0143 14.3693 14.9857 14.4112 14.9664 14.4573C14.9471 14.5034 14.9373 14.5527 14.9378 14.6025C14.9382 14.6523 14.9488 14.7015 14.969 14.7473C14.9892 14.793 15.0185 14.8344 15.0552 14.869C15.1792 14.9901 15.3265 15.0861 15.4887 15.1515C15.6509 15.2169 15.8247 15.2503 16.0002 15.25ZM18.1156 11.5C18.2176 11.5 18.3154 11.4605 18.3875 11.3902C18.4597 11.3198 18.5002 11.2245 18.5002 11.125V10.75C18.5002 10.6505 18.4597 10.5552 18.3875 10.4848C18.3154 10.4145 18.2176 10.375 18.1156 10.375C18.0136 10.375 17.9157 10.4145 17.8436 10.4848C17.7715 10.5552 17.731 10.6505 17.731 10.75V11.125C17.731 11.2245 17.7715 11.3198 17.8436 11.3902C17.9157 11.4605 18.0136 11.5 18.1156 11.5ZM13.8848 11.5C13.9868 11.5 14.0846 11.4605 14.1568 11.3902C14.2289 11.3198 14.2694 11.2245 14.2694 11.125V10.75C14.2694 10.6505 14.2289 10.5552 14.1568 10.4848C14.0846 10.4145 13.9868 10.375 13.8848 10.375C13.7828 10.375 13.685 10.4145 13.6128 10.4848C13.5407 10.5552 13.5002 10.6505 13.5002 10.75V11.125C13.5002 11.2245 13.5407 11.3198 13.6128 11.3902C13.685 11.4605 13.7828 11.5 13.8848 11.5ZM20.231 24.25H19.4617C19.3597 24.25 19.2619 24.2895 19.1898 24.3598C19.1176 24.4302 19.0771 24.5255 19.0771 24.625C19.0771 24.7245 19.1176 24.8198 19.1898 24.8902C19.2619 24.9605 19.3597 25 19.4617 25H20.231C20.333 25 20.4308 24.9605 20.5029 24.8902C20.5751 24.8198 20.6156 24.7245 20.6156 24.625C20.6156 24.5255 20.5751 24.4302 20.5029 24.3598C20.4308 24.2895 20.333 24.25 20.231 24.25ZM12.5386 24.25H10.6156C10.5136 24.25 10.4157 24.2895 10.3436 24.3598C10.2715 24.4302 10.231 24.5255 10.231 24.625C10.231 24.7245 10.2715 24.8198 10.3436 24.8902C10.4157 24.9605 10.5136 25 10.6156 25H12.5386C12.6407 25 12.7385 24.9605 12.8106 24.8902C12.8827 24.8198 12.9233 24.7245 12.9233 24.625C12.9233 24.5255 12.8827 24.4302 12.8106 24.3598C12.7385 24.2895 12.6407 24.25 12.5386 24.25Z" fill="white"/>
<path id="Vector_2" d="M25.6154 25.75H25.2308V23.125C25.2308 23.0255 25.1902 22.9302 25.1181 22.8598C25.046 22.7895 24.9482 22.75 24.8462 22.75V21.625C24.8448 20.5314 24.3987 19.4829 23.6055 18.7096C22.8124 17.9363 21.737 17.5013 20.6154 17.5H19.1112C20.0779 16.5075 20.6164 15.1907 20.6154 13.822V11.875H21C21.3704 11.8761 21.7287 11.7466 22.0088 11.5102C22.2888 11.2739 22.4718 10.9468 22.5238 10.5892C22.5758 10.2317 22.4934 9.86787 22.2918 9.56493C22.0902 9.26198 21.783 9.04037 21.4269 8.941C21.6734 8.59994 21.8429 8.21182 21.9244 7.80223C22.0058 7.39263 21.9973 6.97086 21.8994 6.5647C21.8015 6.15855 21.6165 5.77723 21.3564 5.44589C21.0964 5.11454 20.7673 4.84069 20.3908 4.64237L19.7754 4.31688C19.3812 4.10894 18.9401 4.00004 18.4919 4H13.5081C13.0603 4.00022 12.6196 4.10912 12.2258 4.31688L11.6104 4.64237C11.2333 4.83997 10.9037 5.11346 10.6433 5.44471C10.3829 5.77596 10.1977 6.15741 10.0999 6.56375C10.0022 6.97009 9.9942 7.39204 10.0764 7.80163C10.1587 8.21122 10.3293 8.59908 10.5769 8.9395C10.2199 9.03775 9.91141 9.25883 9.70869 9.56179C9.50597 9.86476 9.42272 10.2291 9.47434 10.5873C9.52597 10.9455 9.70898 11.2734 9.98949 11.5101C10.27 11.7469 10.629 11.8765 11 11.875H11.3846V13.822C11.3836 15.1907 11.9221 16.5075 12.8888 17.5H11.3846C10.263 17.5013 9.18761 17.9363 8.39447 18.7096C7.60133 19.4829 7.15517 20.5314 7.15385 21.625V22.75C7.05184 22.75 6.95401 22.7895 6.88188 22.8598C6.80975 22.9302 6.76923 23.0255 6.76923 23.125V25.75H6.38462C6.28261 25.75 6.18478 25.7895 6.11265 25.8598C6.04052 25.9302 6 26.0255 6 26.125V27.625C6 27.7245 6.04052 27.8198 6.11265 27.8902C6.18478 27.9605 6.28261 28 6.38462 28H25.6154C25.7174 28 25.8152 27.9605 25.8874 27.8902C25.9595 27.8198 26 27.7245 26 27.625V26.125C26 26.0255 25.9595 25.9302 25.8874 25.8598C25.8152 25.7895 25.7174 25.75 25.6154 25.75ZM21.7692 25H24.4615V25.75H16.3846V25.375C16.3852 24.8779 16.588 24.4013 16.9485 24.0498C17.3091 23.6983 17.7978 23.5006 18.3077 23.5H24.4615V24.25H21.7692C21.6672 24.25 21.5694 24.2895 21.4973 24.3598C21.4251 24.4302 21.3846 24.5255 21.3846 24.625C21.3846 24.7245 21.4251 24.8198 21.4973 24.8902C21.5694 24.9605 21.6672 25 21.7692 25ZM22.1538 18.6063C22.7306 18.8853 23.2162 19.3156 23.5559 19.8489C23.8956 20.3821 24.076 20.9972 24.0769 21.625V22.75H22.1538V18.6063ZM20.6154 18.25C20.8743 18.2508 21.1324 18.2799 21.3846 18.337V22.75H18.3077C17.9491 22.7499 17.5942 22.8199 17.2639 22.9559C16.9336 23.0919 16.6346 23.291 16.3846 23.5416V18.9756C16.6852 18.9409 16.9792 18.8652 17.2581 18.7506C17.5891 18.6142 17.9056 18.4465 18.2031 18.25H20.6154ZM19.8462 10.75C19.8462 11.3498 19.6986 11.9409 19.4158 12.4736C19.1331 13.0063 18.7234 13.4651 18.2212 13.8115L18.0769 13.3941C18.0004 13.1705 17.8538 12.9759 17.6577 12.8379C17.4616 12.6998 17.2261 12.6254 16.9842 12.625H15.0158C14.7738 12.6251 14.538 12.6995 14.3419 12.8376C14.1457 12.9757 13.9992 13.1706 13.9231 13.3945L13.7804 13.8115C13.2779 13.4653 12.8679 13.0065 12.5848 12.4738C12.3018 11.9411 12.154 11.3499 12.1538 10.75V9.625H19.8462V10.75ZM21.7692 10.375C21.7692 10.5739 21.6882 10.7647 21.5439 10.9053C21.3997 11.046 21.204 11.125 21 11.125H20.6154V9.625H21C21.204 9.625 21.3997 9.70402 21.5439 9.84467C21.6882 9.98532 21.7692 10.1761 21.7692 10.375ZM19.9338 5.254L20.0242 5.302C20.3534 5.47242 20.6336 5.72054 20.8391 6.02371C21.0446 6.32687 21.169 6.67542 21.2008 7.0375C21.2373 7.37767 21.1909 7.72145 21.0652 8.04078C20.9395 8.36012 20.7382 8.64596 20.4777 8.875H17.5515C18.201 8.48346 18.7522 7.95492 19.1644 7.32827C19.5767 6.70162 19.8396 5.99281 19.9338 5.254ZM11.3846 11.125H11C10.796 11.125 10.6003 11.046 10.4561 10.9053C10.3118 10.7647 10.2308 10.5739 10.2308 10.375C10.2308 10.1761 10.3118 9.98532 10.4561 9.84467C10.6003 9.70402 10.796 9.625 11 9.625H11.3846V11.125ZM10.7992 7.0375C10.8308 6.67516 10.955 6.3263 11.1605 6.02286C11.3661 5.71941 11.6464 5.47105 11.9758 5.3005L12.5912 4.975C12.8728 4.82677 13.188 4.74943 13.5081 4.75H18.4919C18.7323 4.75024 18.9705 4.79425 19.1942 4.87975C19.1329 5.95807 18.6507 6.97266 17.8467 7.71552C17.0427 8.45837 15.9777 8.87321 14.87 8.875H11.5265C11.2654 8.64624 11.0634 8.36055 10.937 8.04123C10.8106 7.72191 10.7634 7.37799 10.7992 7.0375ZM12.1538 13.822V13.2381C12.5729 13.8537 13.1408 14.3592 13.8077 14.71C13.857 14.7359 13.9114 14.751 13.9673 14.7543C14.0232 14.7575 14.0791 14.7488 14.1312 14.7289C14.1833 14.7089 14.2302 14.678 14.2688 14.6385C14.3074 14.599 14.3367 14.5517 14.3546 14.5L14.6508 13.633C14.676 13.558 14.7249 13.4927 14.7904 13.4464C14.856 13.4001 14.9348 13.3751 15.0158 13.375H16.9842C17.065 13.375 17.1437 13.3997 17.2092 13.4458C17.2747 13.4918 17.3237 13.5568 17.3492 13.6315L17.6454 14.5C17.6631 14.5519 17.6923 14.5995 17.7309 14.6392C17.7694 14.679 17.8165 14.71 17.8687 14.7302C17.9209 14.7504 17.977 14.7591 18.033 14.7559C18.089 14.7527 18.1437 14.7375 18.1931 14.7115C18.8598 14.3602 19.4276 13.8541 19.8462 13.2381V13.822C19.8472 14.7271 19.5738 15.6124 19.0602 16.3664C18.5465 17.1204 17.8157 17.7094 16.9596 18.0595C16.6557 18.1836 16.3295 18.2475 16 18.2475C15.6705 18.2475 15.3443 18.1836 15.0404 18.0595C14.1844 17.7093 13.4536 17.1202 12.94 16.3662C12.4264 15.6123 12.1529 14.7271 12.1538 13.822ZM10.6154 18.337C10.8676 18.2799 11.1257 18.2508 11.3846 18.25H13.7969C14.0943 18.4472 14.4108 18.6155 14.7419 18.7525C15.021 18.8663 15.315 18.9414 15.6154 18.9756V23.5416C15.3654 23.291 15.0664 23.0919 14.7361 22.9559C14.4058 22.8199 14.0509 22.7499 13.6923 22.75H10.6154V18.337ZM7.92308 21.625C7.92395 20.9972 8.10439 20.3821 8.44411 19.8489C8.78384 19.3156 9.26937 18.8853 9.84615 18.6063V22.75H7.92308V21.625ZM7.53846 25H9.07692C9.17893 25 9.27676 24.9605 9.34889 24.8902C9.42102 24.8198 9.46154 24.7245 9.46154 24.625C9.46154 24.5255 9.42102 24.4302 9.34889 24.3598C9.27676 24.2895 9.17893 24.25 9.07692 24.25H7.53846V23.5H13.6923C14.2022 23.5006 14.6909 23.6983 15.0515 24.0498C15.412 24.4013 15.6148 24.8779 15.6154 25.375V25.75H7.53846V25ZM25.2308 27.25H6.76923V26.5H25.2308V27.25Z" fill="white"/>
</g>
</g>
</svg>
