<svg width="32" height="32" viewBox="0 0 32 32" fill="none" xmlns="http://www.w3.org/2000/svg">
<g id="Interpreter">
<g id="Group">
<path id="Vector" d="M25.8083 26.2634H14.5443C14.395 26.2634 14.2777 26.146 14.2777 25.9967C14.2777 25.8474 14.395 25.73 14.5443 25.73H25.5417V20.7807C25.5417 18.6367 23.7977 16.8927 21.6537 16.8927H20.5123L18.6083 18.834C18.5603 18.8874 18.491 18.914 18.4163 18.914C18.3417 18.914 18.2777 18.8874 18.2243 18.834L16.3203 16.8927H15.179C14.0377 16.8927 13.003 17.3407 12.2723 18.1514C12.1763 18.2634 12.0057 18.2687 11.8937 18.1727C11.7817 18.0767 11.7763 17.906 11.8723 17.794C12.7043 16.866 13.8777 16.3594 15.179 16.3594H16.4323C16.5017 16.3594 16.571 16.386 16.6243 16.4394L18.4163 18.2687L20.2083 16.4394C20.2563 16.386 20.3257 16.3594 20.4003 16.3594H21.6537C24.091 16.3594 26.075 18.3434 26.075 20.7807V25.9967C26.075 26.146 25.9577 26.2634 25.8083 26.2634Z" fill="white"/>
<path id="Vector_2" d="M16.3629 16.8989C16.2135 16.8989 16.0962 16.7815 16.0962 16.6322V14.8135C16.0962 14.6642 16.2135 14.5469 16.3629 14.5469C16.5122 14.5469 16.6295 14.6642 16.6295 14.8135V16.6322C16.6295 16.7762 16.5069 16.8989 16.3629 16.8989ZM20.4002 16.8989C20.2509 16.8989 20.1335 16.7815 20.1335 16.6322V14.8989C20.1335 14.7495 20.2509 14.6322 20.4002 14.6322C20.5495 14.6322 20.6669 14.7495 20.6669 14.8989V16.6322C20.6669 16.7762 20.5442 16.8989 20.4002 16.8989Z" fill="white"/>
<path id="Vector_3" d="M18.4322 15.8509C17.6109 15.8509 16.8109 15.5522 16.1709 15.0082C15.4722 14.4162 14.9869 13.5575 14.7629 12.5282C14.7309 12.3842 14.8215 12.2402 14.9655 12.2135C15.1095 12.1815 15.2535 12.2722 15.2802 12.4162C15.6642 14.1815 16.9015 15.3175 18.4269 15.3175C19.9575 15.3175 21.1895 14.1762 21.5735 12.4162C21.6055 12.2722 21.7495 12.1815 21.8882 12.2135C22.0322 12.2455 22.1229 12.3895 22.0909 12.5282C21.8669 13.5629 21.3815 14.4162 20.6829 15.0082C20.0535 15.5522 19.2535 15.8509 18.4322 15.8509ZM15.1842 10.7575C15.1575 10.7575 15.1309 10.7522 15.0989 10.7469C14.9602 10.6989 14.8802 10.5495 14.9282 10.4109C15.0989 9.89885 15.2962 9.10952 15.2802 8.29352C15.2802 8.24019 15.2962 8.18685 15.3229 8.14419C15.7229 7.53085 16.3735 7.77619 17.0615 8.03219C17.9895 8.38419 19.2589 8.86419 20.8535 7.86152C20.9335 7.80819 21.0402 7.80819 21.1255 7.85619C21.2002 7.89885 21.8562 8.30952 22.1282 10.0162C22.1495 10.1602 22.0535 10.2989 21.9095 10.3202C21.7655 10.3415 21.6269 10.2455 21.6055 10.1015C21.4402 9.06685 21.1309 8.60285 20.9709 8.42152C19.2322 9.42952 17.8189 8.89618 16.8749 8.53885C16.2082 8.28819 15.9629 8.22952 15.8135 8.38419C15.8135 9.24285 15.6109 10.0535 15.4349 10.5869C15.4029 10.6829 15.2962 10.7575 15.1842 10.7575ZM14.2615 10.3255C14.1495 10.3255 14.0429 10.2509 14.0055 10.1389C13.5575 8.74152 13.9629 7.25352 15.1149 6.05352C16.4375 4.68285 18.4055 4.01085 19.9042 4.42685C20.6669 4.64019 21.6482 5.22152 22.0429 6.78419C22.9175 7.47219 23.1522 8.61885 22.7255 10.1229C22.6829 10.2669 22.5389 10.3469 22.3949 10.3042C22.2509 10.2615 22.1709 10.1175 22.2135 9.97352C22.4749 9.06152 22.5869 7.82952 21.6482 7.15219C21.5949 7.11485 21.5575 7.05619 21.5415 6.99752C21.2909 5.90419 20.6775 5.19485 19.7602 4.93885C18.4642 4.58152 16.6722 5.20019 15.4989 6.42152C14.4855 7.47752 14.1282 8.77352 14.5122 9.97352C14.5549 10.1122 14.4802 10.2615 14.3415 10.3095C14.3202 10.3202 14.2882 10.3255 14.2615 10.3255ZM22.8215 26.2669C22.6722 26.2669 22.5549 26.1495 22.5549 26.0002V20.7362C22.5549 20.5869 22.6722 20.4695 22.8215 20.4695C22.9709 20.4695 23.0882 20.5869 23.0882 20.7362V26.0002C23.0882 26.1495 22.9709 26.2669 22.8215 26.2669ZM17.0349 20.2669H17.0082C16.9282 20.2615 16.8589 20.2189 16.8162 20.1495L14.5175 16.7895C14.4322 16.6669 14.4642 16.5015 14.5869 16.4215C14.7095 16.3362 14.8749 16.3682 14.9549 16.4909L17.0722 19.5842L18.1869 18.4909C18.2935 18.3895 18.4589 18.3895 18.5655 18.4962C18.6669 18.6029 18.6669 18.7682 18.5602 18.8749L17.2162 20.1869C17.1735 20.2402 17.1042 20.2669 17.0349 20.2669Z" fill="white"/>
<path id="Vector_4" d="M19.7227 20.2707C19.6533 20.2707 19.584 20.2441 19.536 20.1961L18.192 18.8841C18.0853 18.7827 18.0853 18.6121 18.1867 18.5054C18.288 18.3987 18.4587 18.3987 18.5653 18.5001L19.68 19.5934L21.7973 16.5001C21.8827 16.3774 22.048 16.3454 22.1653 16.4307C22.288 16.5161 22.32 16.6814 22.2347 16.7987L19.936 20.1587C19.8933 20.2227 19.8187 20.2654 19.744 20.2761C19.7387 20.2707 19.7333 20.2707 19.7227 20.2707Z" fill="white"/>
<path id="Vector_5" d="M18.7524 20.6922H18.011C17.915 20.6922 17.8244 20.6389 17.7764 20.5536L17.291 19.6522C17.2217 19.5242 17.2697 19.3589 17.3977 19.2896C17.5257 19.2202 17.691 19.2682 17.7604 19.3962L18.171 20.1589H18.5977L19.0084 19.3962C19.0777 19.2682 19.2377 19.2202 19.371 19.2896C19.499 19.3589 19.547 19.5189 19.4777 19.6522L18.9924 20.5536C18.939 20.6389 18.8484 20.6922 18.7524 20.6922Z" fill="white"/>
<path id="Vector_6" d="M17.264 26.2666H17.2266C17.0826 26.2453 16.976 26.1119 16.9973 25.9679L17.7386 20.3946C17.76 20.2506 17.8933 20.1439 18.0373 20.1653C18.1813 20.1866 18.288 20.3199 18.2666 20.4639L17.5253 26.0373C17.5093 26.1706 17.3973 26.2666 17.264 26.2666ZM19.4933 26.2666C19.36 26.2666 19.248 26.1706 19.2266 26.0373L18.4853 20.4639C18.464 20.3199 18.5706 20.1813 18.7146 20.1653C18.8586 20.1439 18.9973 20.2506 19.0133 20.3946L19.7546 25.9679C19.776 26.1119 19.6693 26.2506 19.5253 26.2666H19.4933ZM15.184 12.7412H14.3786C13.7866 12.7412 13.3066 12.2613 13.3066 11.6693V10.8532C13.3066 10.2612 13.7866 9.78125 14.3786 9.78125H15.184C15.3333 9.78125 15.4506 9.89858 15.4506 10.0479V12.4693C15.4506 12.6186 15.3333 12.7412 15.184 12.7412ZM14.3786 10.3146C14.08 10.3146 13.84 10.5546 13.84 10.8532V11.6693C13.84 11.9679 14.08 12.2079 14.3786 12.2079H14.9173V10.3199H14.3786V10.3146ZM22.4853 12.7412H21.68C21.5306 12.7412 21.4133 12.6239 21.4133 12.4746V10.0532C21.4133 9.90392 21.5306 9.78658 21.68 9.78658H22.4853C23.0773 9.78658 23.5573 10.2666 23.5573 10.8586V11.6746C23.552 12.2612 23.072 12.7412 22.4853 12.7412ZM21.9466 12.2079H22.4853C22.784 12.2079 23.024 11.9679 23.024 11.6693V10.8532C23.024 10.5546 22.784 10.3146 22.4853 10.3146H21.9466V12.2079Z" fill="white"/>
<path id="Vector_7" d="M21.7657 14.2958C21.531 14.2958 21.3017 14.2372 21.0777 14.1252L19.5897 13.3732C19.4563 13.3092 19.403 13.1438 19.4723 13.0158C19.5363 12.8825 19.7017 12.8292 19.8297 12.8985L21.3177 13.6505C21.6163 13.7998 21.9363 13.7998 22.2297 13.6398C22.5283 13.4798 22.7043 13.2238 22.7523 12.8878L22.8483 12.1305C22.8697 11.9865 23.003 11.8798 23.147 11.9012C23.291 11.9225 23.3977 12.0558 23.3763 12.1998L23.2803 12.9572C23.2163 13.4638 22.9283 13.8692 22.4803 14.1092C22.251 14.2372 22.0057 14.2958 21.7657 14.2958Z" fill="white"/>
<path id="Vector_8" d="M19.2001 13.7257C19.0615 13.7257 18.9175 13.6884 18.7895 13.6137L18.3841 13.3791C17.9895 13.1497 17.8561 12.6431 18.0801 12.2484C18.3095 11.8537 18.8161 11.7204 19.2108 11.9444L19.6161 12.1791C20.0108 12.4084 20.1441 12.9151 19.9201 13.3097C19.7655 13.5817 19.4881 13.7257 19.2001 13.7257ZM18.8001 12.3764C18.6988 12.3764 18.5975 12.4297 18.5441 12.5204C18.4641 12.6591 18.5121 12.8404 18.6508 12.9204L19.0561 13.1551C19.1948 13.2351 19.3761 13.1871 19.4561 13.0484C19.5361 12.9097 19.4881 12.7284 19.3495 12.6484L18.9441 12.4137C18.9015 12.3871 18.8481 12.3764 18.8001 12.3764ZM11.0401 27.7791C8.23482 27.7791 5.95215 25.4964 5.95215 22.6911C5.95215 19.8857 8.23482 17.6031 11.0401 17.6031C13.8455 17.6031 16.1281 19.8857 16.1281 22.6911C16.1281 25.4964 13.8455 27.7791 11.0401 27.7791ZM11.0401 18.1364C8.52815 18.1364 6.48548 20.1791 6.48548 22.6911C6.48548 25.2031 8.52815 27.2457 11.0401 27.2457C13.5521 27.2457 15.5948 25.2031 15.5948 22.6911C15.5948 20.1791 13.5521 18.1364 11.0401 18.1364Z" fill="white"/>
<path id="Vector_9" d="M11.0404 27.7776C10.2297 27.7776 9.48305 27.2282 8.93371 26.2256C8.41105 25.2762 8.12305 24.0176 8.12305 22.6896C8.12305 21.3616 8.41105 20.1029 8.93371 19.1536C9.48305 18.1509 10.235 17.6016 11.0404 17.6016C11.8457 17.6016 12.5977 18.1509 13.147 19.1536C13.6697 20.1029 13.9577 21.3616 13.9577 22.6896C13.9577 24.0176 13.6697 25.2762 13.147 26.2256C12.5977 27.2229 11.851 27.7776 11.0404 27.7776ZM11.0404 18.1349C9.74438 18.1349 8.65638 20.2202 8.65638 22.6896C8.65638 25.1589 9.74971 27.2442 11.0404 27.2442C12.331 27.2442 13.4244 25.1589 13.4244 22.6896C13.4244 20.2202 12.3364 18.1349 11.0404 18.1349Z" fill="white"/>
<path id="Vector_10" d="M11.0403 27.7776C10.6456 27.7776 10.4003 27.2869 10.2083 26.1402C10.0536 25.2122 9.96826 23.9856 9.96826 22.6896C9.96826 21.3936 10.0536 20.1669 10.2083 19.2389C10.4003 18.0922 10.6509 17.6016 11.0403 17.6016C11.4349 17.6016 11.6803 18.0922 11.8723 19.2389C12.0269 20.1669 12.1123 21.3936 12.1123 22.6896C12.1123 23.9856 12.0269 25.2122 11.8723 26.1402C11.6856 27.2869 11.4349 27.7776 11.0403 27.7776ZM11.0403 18.1936C10.8269 18.5669 10.5016 20.0816 10.5016 22.6896C10.5016 25.2976 10.8323 26.8122 11.0403 27.1856C11.2536 26.8122 11.5789 25.2976 11.5789 22.6896C11.5789 20.0816 11.2536 18.5669 11.0403 18.1936Z" fill="white"/>
<path id="Vector_11" d="M11.0401 24.2233C8.58682 24.2233 5.95215 23.7433 5.95215 22.682C5.95215 21.6206 8.59215 21.1406 11.0401 21.1406C13.4881 21.1406 16.1281 21.6206 16.1281 22.682C16.1281 23.7433 13.4935 24.2233 11.0401 24.2233ZM11.0401 21.6793C9.77615 21.6793 8.58682 21.8073 7.69615 22.042C6.69882 22.3033 6.48015 22.5966 6.48015 22.682C6.48015 22.7673 6.69882 23.0606 7.69615 23.322C8.58682 23.5566 9.77082 23.6846 11.0401 23.6846C12.3095 23.6846 13.4935 23.5566 14.3841 23.322C15.3815 23.0606 15.6001 22.7673 15.6001 22.682C15.6001 22.5966 15.3815 22.3033 14.3841 22.042C13.4935 21.8073 12.3095 21.6793 11.0401 21.6793Z" fill="white"/>
</g>
</g>
</svg>
