<svg width="32" height="32" viewBox="0 0 32 32" fill="none" xmlns="http://www.w3.org/2000/svg">
<g id="Graphic Designer">
<g id="pen">
<path id="Path 8782" d="M14.314 17.7944C14.314 18.1771 14.4275 18.5512 14.6401 18.8694C14.8527 19.1876 15.1549 19.4356 15.5085 19.5821C15.862 19.7285 16.2511 19.7669 16.6265 19.6922C17.0018 19.6175 17.3466 19.4332 17.6172 19.1626C17.8878 18.892 18.0721 18.5472 18.1468 18.1719C18.2215 17.7965 18.1831 17.4075 18.0367 17.0539C17.8902 16.7003 17.6422 16.3981 17.324 16.1855C17.0058 15.9729 16.6317 15.8594 16.249 15.8594C15.7358 15.8596 15.2438 16.0636 14.881 16.4264C14.5182 16.7892 14.3142 17.2813 14.314 17.7944ZM17.414 17.7944C17.414 18.024 17.3459 18.2485 17.2183 18.4394C17.0907 18.6303 16.9094 18.7791 16.6973 18.867C16.4851 18.9549 16.2517 18.9779 16.0265 18.9331C15.8012 18.8883 15.5944 18.7777 15.432 18.6153C15.2696 18.453 15.1591 18.2461 15.1143 18.0209C15.0695 17.7957 15.0925 17.5622 15.1803 17.3501C15.2682 17.1379 15.417 16.9566 15.6079 16.829C15.7989 16.7015 16.0233 16.6334 16.253 16.6334C16.4054 16.6334 16.5564 16.6634 16.6973 16.7218C16.8381 16.7801 16.9661 16.8656 17.0739 16.9734C17.1817 17.0812 17.2672 17.2092 17.3256 17.3501C17.3839 17.4909 17.414 17.6419 17.414 17.7944Z" fill="white"/>
<path id="Path 8784" d="M16.5891 10.2596C16.5532 10.2017 16.5031 10.154 16.4436 10.1208C16.3841 10.0877 16.3172 10.0703 16.2491 10.0703C16.181 10.0703 16.114 10.0877 16.0545 10.1208C15.995 10.154 15.945 10.2017 15.9091 10.2596L10.8771 19.5496C10.8446 19.6093 10.8285 19.6765 10.8302 19.7444C10.832 19.8124 10.8516 19.8787 10.8871 19.9366L13.6211 24.3786H13.1521C13.0494 24.3786 12.951 24.4194 12.8784 24.492C12.8058 24.5645 12.7651 24.663 12.7651 24.7656V25.9266H11.9911C11.8884 25.9266 11.79 25.9674 11.7174 26.04C11.6449 26.1125 11.6041 26.211 11.6041 26.3136V27.8616C11.6041 27.9642 11.6449 28.0627 11.7174 28.1352C11.79 28.2078 11.8884 28.2486 11.9911 28.2486H20.5071C20.6097 28.2486 20.7081 28.2078 20.7807 28.1352C20.8533 28.0627 20.8941 27.9642 20.8941 27.8616V26.3136C20.8941 26.211 20.8533 26.1125 20.7807 26.04C20.7081 25.9674 20.6097 25.9266 20.5071 25.9266H19.7291V24.7656C19.7291 24.663 19.6883 24.5645 19.6157 24.492C19.5432 24.4194 19.4447 24.3786 19.3421 24.3786H19.2161L21.6161 19.9166C21.6466 19.8601 21.6626 19.7968 21.6626 19.7326C21.6626 19.6684 21.6466 19.6051 21.6161 19.5486L16.5891 10.2596ZM20.1201 27.4766H12.3781V26.7026H20.1201V27.4766ZM13.5391 25.9286V25.1526H18.9581V25.9266L13.5391 25.9286ZM18.3391 24.3806H16.6391V22.0526C16.6391 21.95 16.5983 21.8515 16.5257 21.779C16.4532 21.7064 16.3547 21.6656 16.2521 21.6656C16.1494 21.6656 16.051 21.7064 15.9784 21.779C15.9059 21.8515 15.8651 21.95 15.8651 22.0526V24.3756H14.5291L11.6651 19.7176L16.2491 11.2526L20.8411 19.7296L18.3391 24.3806Z" fill="white" stroke="white" stroke-width="0.5"/>
<path id="Path 8785" d="M27.863 15.089H27.463C27.3622 12.455 26.2708 9.95605 24.4072 8.09187C22.5436 6.22768 20.045 5.13561 17.411 5.034V4.634C17.4102 4.53188 17.3691 4.43422 17.2966 4.36229C17.2241 4.29036 17.1261 4.25 17.024 4.25H15.475C15.3724 4.25 15.2739 4.29077 15.2013 4.36335C15.1288 4.43593 15.088 4.53436 15.088 4.637V5.037C12.454 5.13783 9.95505 6.22915 8.09087 8.09278C6.22668 9.95641 5.13461 12.455 5.033 15.089H4.633C4.53106 15.0901 4.43365 15.1313 4.36193 15.2038C4.29022 15.2762 4.24999 15.3741 4.25 15.476V17.024C4.25 17.1266 4.29077 17.2251 4.36335 17.2977C4.43593 17.3702 4.53436 17.411 4.637 17.411H6.185C6.28764 17.411 6.38607 17.3702 6.45865 17.2977C6.53123 17.2251 6.572 17.1266 6.572 17.024V15.476C6.572 15.3734 6.53123 15.2749 6.45865 15.2023C6.38607 15.1298 6.28764 15.089 6.185 15.089H5.808C5.90809 12.6596 6.91803 10.3566 8.63734 8.63734C10.3566 6.91803 12.6596 5.90809 15.089 5.808V6.185C15.089 6.28764 15.1298 6.38607 15.2023 6.45865C15.2749 6.53123 15.3734 6.572 15.476 6.572H17.024C17.1266 6.572 17.2251 6.53123 17.2977 6.45865C17.3702 6.38607 17.411 6.28764 17.411 6.185V5.808C19.8404 5.90809 22.1434 6.91803 23.8627 8.63734C25.582 10.3566 26.5919 12.6596 26.692 15.089H26.315C26.2124 15.089 26.1139 15.1298 26.0413 15.2023C25.9688 15.2749 25.928 15.3734 25.928 15.476V17.024C25.928 17.1266 25.9688 17.2251 26.0413 17.2977C26.1139 17.3702 26.2124 17.411 26.315 17.411H27.863C27.9656 17.411 28.0641 17.3702 28.1367 17.2977C28.2092 17.2251 28.25 17.1266 28.25 17.024V15.476C28.25 15.3734 28.2092 15.2749 28.1367 15.2023C28.0641 15.1298 27.9656 15.089 27.863 15.089ZM5.798 16.637H5.024V15.863H5.798V16.637ZM16.637 5.798H15.863V5.024H16.637V5.798ZM27.475 16.637H26.701V15.863H27.475V16.637Z" fill="white" stroke="white" stroke-width="0.5"/>
</g>
</g>
</svg>
