<svg width="32" height="32" viewBox="0 0 32 32" fill="none" xmlns="http://www.w3.org/2000/svg">
<g id="Agro (Plant/Animal/Fisheries)">
<g id="leaf (1)">
<g id="Group 6031">
<path id="Path 8693" d="M22.7681 11.589C22.1086 10.1012 21.2265 8.72238 20.1521 7.5C19.0528 6.21442 17.7661 5.10192 16.3351 4.2L15.9821 4L15.6291 4.2C14.1982 5.10196 12.9114 6.21446 11.8121 7.5C10.7376 8.72268 9.85549 10.1018 9.1961 11.59C8.40285 13.395 7.99418 15.3454 7.9961 17.317C7.99863 19.3011 8.74957 21.2113 10.0989 22.6659C11.4483 24.1206 13.2967 25.0127 15.2751 25.164V28H16.6901V25.163C18.6685 25.0117 20.5169 24.1196 21.8663 22.6649C23.2156 21.2103 23.9666 19.3001 23.9691 17.316C23.9705 15.3443 23.5615 13.394 22.7681 11.589ZM12.8411 8.459C13.5753 7.61316 14.392 6.84267 15.2791 6.159V12.306L11.5321 10.2C11.9271 9.58917 12.3649 9.00705 12.8421 8.458L12.8411 8.459ZM10.4731 12.179C10.5838 11.925 10.7028 11.673 10.8301 11.423L15.2791 13.918V18.4L9.5791 15.2C9.75163 14.16 10.0519 13.1454 10.4731 12.179ZM15.2791 23.752C13.6746 23.6029 12.1835 22.8606 11.0974 21.6703C10.0112 20.48 9.40814 18.9274 9.4061 17.316C9.4061 17.116 9.4111 16.925 9.4201 16.731L15.2791 20.017V23.752ZM21.4791 12.152C21.9071 13.1287 22.2114 14.1549 22.3851 15.207L16.6851 18.407V13.918L21.1341 11.423C21.2574 11.6637 21.3718 11.9067 21.4791 12.152ZM16.6901 12.306V6.156C17.5625 6.8308 18.3664 7.58979 19.0901 8.422C19.58 8.98155 20.0288 9.57577 20.4331 10.2L16.6901 12.306ZM16.6901 23.752V20.016L22.5491 16.73C22.5581 16.924 22.5631 17.119 22.5631 17.315C22.5613 18.9265 21.9583 20.4794 20.8722 21.6699C19.786 22.8604 18.2947 23.6028 16.6901 23.752Z" fill="white"/>
</g>
</g>
</g>
</svg>
