<svg width="32" height="32" viewBox="0 0 32 32" fill="none" xmlns="http://www.w3.org/2000/svg">
<g id="Company Secretary/Regulatory affairs">
<g id="Clip path group">
<mask id="mask0_14921_5131" style="mask-type:luminance" maskUnits="userSpaceOnUse" x="4" y="4" width="24" height="24">
<g id="clip0_17687_3798">
<path id="Vector" d="M28 4H4V28H28V4Z" fill="white"/>
</g>
</mask>
<g mask="url(#mask0_14921_5131)">
<g id="Group">
<path id="Vector_2" d="M27.9858 24.3611C27.3534 19.8728 24.9719 16.8298 20.8413 15.2319C20.7137 15.1826 20.5829 15.1366 20.3942 15.0681H19.7063C20.6487 14.5787 21.4401 13.8288 21.9916 12.9024C22.5431 11.9761 22.833 10.91 22.8288 9.82355C22.8266 6.61331 20.3452 4 17.3012 4C14.2571 4 11.767 6.61331 11.767 9.82692C11.7626 10.9207 12.0567 11.9938 12.6156 12.9242C13.1746 13.8545 13.976 14.6047 14.9287 15.0894H14.2026C13.54 15.3062 12.8972 15.5826 12.2816 15.9153L11.9033 15.1613C11.8506 15.0564 11.7785 14.9633 11.6908 14.8872C11.6032 14.8111 11.5019 14.7536 11.3926 14.7178C11.2833 14.6821 11.1683 14.6688 11.0541 14.6789C10.9398 14.6889 10.8286 14.7221 10.7269 14.7764L4.47093 18.1089C4.2655 18.2183 4.1107 18.4072 4.04057 18.634C3.97044 18.8609 3.99073 19.1071 4.09697 19.3185L8.21817 27.5097C8.27032 27.615 8.34216 27.7086 8.42958 27.7853C8.51699 27.862 8.61825 27.9201 8.72756 27.9564C8.83686 27.9927 8.95205 28.0064 9.06651 27.9967C9.18098 27.9871 9.29246 27.9542 9.39457 27.9001L14.3782 25.2453H14.6584C18.8217 25.2453 22.9854 25.2453 27.1495 25.2453C27.7971 25.2431 28.0697 24.9682 27.9858 24.3611ZM12.8573 9.82692C12.8573 7.23269 14.8492 5.12207 17.3012 5.12207C19.7532 5.12207 21.7407 7.23269 21.7407 9.82692C21.7407 12.4212 19.7444 14.5306 17.3012 14.5306C14.8579 14.5306 12.8573 12.4212 12.8573 9.82692ZM16.2251 17.8834C16.1567 17.8766 16.0906 17.8547 16.0313 17.819C15.972 17.7834 15.9209 17.7349 15.8816 17.6769C15.6309 17.2281 15.4139 16.7647 15.1512 16.2396C16.5707 15.8968 18.0476 15.8933 19.4686 16.2295C19.2015 16.7613 18.9704 17.2472 18.7109 17.7162C18.6714 17.767 18.6218 17.8083 18.5653 17.8374C18.5088 17.8664 18.4469 17.8825 18.3838 17.8845C17.6653 17.8991 16.9446 17.9014 16.2251 17.8834ZM17.9444 19.2602L17.3077 20.5315L16.6666 19.2602H17.9444ZM9.08711 26.8005L5.16216 19.0032L11.0321 15.8783L11.3396 16.4898L11.4486 16.6996L11.9447 17.6893L12.0537 17.9047L14.9168 23.5981L14.9538 23.6733L14.5177 23.9033L14.3149 24.0155L14.11 24.1277L9.08711 26.8005ZM26.1421 23.9011C22.7986 23.9011 19.4552 23.9011 16.1117 23.9011C16.1195 23.8446 16.1224 23.7875 16.1204 23.7305C16.1156 23.5993 16.0825 23.4709 16.0234 23.3546L12.9706 17.2853L12.8812 17.1092C13.1999 16.9342 13.5275 16.7769 13.8625 16.6379C13.9464 16.7905 14.0216 16.9195 14.0882 17.0542C14.9371 18.7403 15.785 20.4283 16.6317 22.1181C16.7767 22.4087 16.9457 22.6511 17.2924 22.6578C17.6588 22.6657 17.8376 22.4121 17.9869 22.108C18.8177 20.4413 19.6536 18.7781 20.4946 17.1181C20.5687 16.97 20.6472 16.8242 20.7213 16.6794C23.1068 17.3897 26.0298 20.1836 26.575 23.8977L26.1421 23.9011Z" fill="white"/>
<path id="Vector_3" d="M23.2636 19.7691C22.8831 19.7613 22.5005 19.7691 22.1211 19.7691C21.7133 19.7691 21.3055 19.7613 20.8978 19.7691C20.49 19.777 20.2436 20.0305 20.2262 20.4042C20.219 20.4957 20.2308 20.5877 20.2608 20.6741C20.2907 20.7605 20.3382 20.8394 20.4001 20.9055C20.4619 20.9716 20.5368 21.0235 20.6196 21.0575C20.7023 21.0916 20.7912 21.1072 20.8803 21.1033C21.6828 21.1201 22.4852 21.119 23.2876 21.1033C23.3765 21.1069 23.4653 21.0919 23.5483 21.0591C23.6314 21.0262 23.7071 20.9763 23.7708 20.9124C23.8345 20.8484 23.8848 20.7717 23.9187 20.6871C23.9526 20.6024 23.9694 20.5115 23.968 20.4199C23.9614 20.0474 23.6812 19.7792 23.2636 19.7691Z" fill="white"/>
</g>
</g>
</g>
</g>
</svg>
