<svg width="32" height="32" viewBox="0 0 32 32" fill="none" xmlns="http://www.w3.org/2000/svg">
<g id="Electrician/ Construction/ Repair">
<g id="icon">
<g id="Group 6009">
<g id="Group 6006">
<g id="Group 6005">
<path id="Path 8581" d="M17.263 28H14.837C14.156 28 13.954 27.796 12.748 24.7485L12.148 24.5006C9.60898 25.6664 9.29998 25.6664 9.10798 25.6664H8.72298L8.41698 25.3839L6.69998 23.6714C6.19998 23.1676 6.19998 22.9014 7.51098 19.8691L7.27698 19.301C4.20998 18.1791 4.00098 17.9751 4.00098 17.2611V14.8357C4.00098 14.1289 4.18798 13.9433 7.26498 12.7265L7.49898 12.1584C6.16998 9.30058 6.09998 8.92015 6.63098 8.39692L8.62098 6.40908L9.03898 6.40194C9.21598 6.40194 9.53898 6.40194 12.121 7.50958L12.721 7.26378C13.843 4.20399 14.043 4 14.74 4H17.166C17.854 4 18.038 4.18767 19.254 7.25154L19.854 7.49734C22.39 6.32748 22.705 6.32748 22.896 6.32748H23.281L23.587 6.60898L25.3 8.31941C25.8 8.82937 25.8 9.09048 24.488 12.1258L24.724 12.697C27.811 13.825 27.998 14.0106 27.998 14.7368V17.1581C27.998 17.8721 27.811 18.0526 24.734 19.2684L24.5 19.8375C25.872 22.7953 25.878 23.085 25.375 23.5939L23.375 25.5889L22.957 25.596C22.78 25.596 22.457 25.596 19.879 24.4863L19.279 24.7362C18.16 27.7919 17.959 28 17.263 28ZM15.377 26.056H16.708C16.946 25.5083 17.331 24.5108 17.645 23.6551L17.791 23.2543L19.9 22.3822L20.264 22.5423C21.127 22.9156 22.144 23.3379 22.705 23.5419L23.631 22.6239C23.409 22.0671 22.983 21.1012 22.599 20.2873L22.413 19.8926L23.296 17.7619L23.672 17.611C24.538 17.2693 25.547 16.8522 26.093 16.6002V15.3151C25.544 15.0795 24.548 14.694 23.693 14.386L23.293 14.2432L22.414 12.1085L22.582 11.725C22.949 10.8784 23.362 9.88194 23.571 9.31486L22.645 8.39692C22.09 8.61519 21.103 9.05274 20.268 9.44235L19.895 9.61472L17.788 8.74778L17.637 8.36531C17.297 7.49836 16.877 6.49169 16.623 5.94807H15.291C15.053 6.49577 14.67 7.49326 14.356 8.34899L14.21 8.74778L12.11 9.6188L11.746 9.46071C10.881 9.0864 9.85998 8.6672 9.29798 8.46322L8.37398 9.38116C8.59598 9.93804 9.02398 10.9019 9.40598 11.7199L9.58998 12.1125L8.69998 14.2432L8.32398 14.39C7.45798 14.7317 6.45098 15.1489 5.90498 15.4008V16.6808C6.45398 16.9195 7.45198 17.3019 8.30498 17.614L8.70498 17.7568L9.58198 19.8875L9.41598 20.2699C9.04898 21.1155 8.63598 22.113 8.42698 22.68L9.35098 23.598C9.90598 23.3797 10.893 22.9442 11.727 22.5546L12.102 22.3802L14.209 23.2512L14.36 23.6347C14.708 24.5057 15.126 25.5144 15.378 26.056H15.377ZM16 20.5045C15.1299 20.4881 14.2839 20.2098 13.5682 19.7048C12.8525 19.1998 12.2991 18.4904 11.9772 17.6657C11.6554 16.841 11.5795 15.9377 11.7591 15.0692C11.9387 14.2007 12.3658 13.4057 12.9868 12.7838C13.6078 12.162 14.3951 11.741 15.2498 11.5739C16.1045 11.4067 16.9886 11.5006 17.7911 11.844C18.5936 12.1874 19.2788 12.7649 19.7607 13.504C20.2427 14.243 20.4998 15.1109 20.5 15.9985C20.4886 17.2045 20.0083 18.3566 19.1644 19.2015C18.3206 20.0465 17.1824 20.5151 16 20.5045ZM16 13.4374C15.5064 13.4529 15.0283 13.6162 14.6252 13.9072C14.2222 14.1981 13.9121 14.6037 13.7337 15.0733C13.5553 15.5429 13.5165 16.0557 13.6222 16.5477C13.7278 17.0397 13.9732 17.489 14.3277 17.8395C14.6823 18.1901 15.1302 18.4264 15.6156 18.5188C16.101 18.6113 16.6023 18.5559 17.057 18.3595C17.5117 18.1631 17.8996 17.8344 18.1722 17.4145C18.4448 16.9946 18.5901 16.5021 18.59 15.9985C18.5789 15.3087 18.3 14.6517 17.8144 14.1715C17.3288 13.6914 16.6762 13.4273 16 13.4374Z" fill="white"/>
</g>
</g>
</g>
</g>
</g>
</svg>
