<svg width="32" height="32" viewBox="0 0 32 32" fill="none" xmlns="http://www.w3.org/2000/svg">
<g id="Sales Representative (SR)">
<g id="Group">
<path id="Vector" d="M15.3783 19.172C14.6785 18.8724 13.9352 18.6065 13.2168 18.3491C12.9819 18.2651 12.7484 18.1807 12.5161 18.0954V16.5085C13.1009 15.9372 13.5703 15.2588 13.8987 14.5102C14.0228 14.4802 14.1392 14.4244 14.2403 14.3465C14.6236 13.997 14.8608 13.5157 14.9045 12.9989C14.9637 12.7159 14.9508 12.4226 14.8668 12.146C14.7829 11.8694 14.6307 11.6184 14.4242 11.4161C14.2529 8.76909 12.129 7.14062 10.1935 7.14062C8.25806 7.14062 6.13339 8.76914 5.9621 11.4149C5.75573 11.6173 5.60361 11.8684 5.51975 12.1449C5.43589 12.4215 5.42299 12.7148 5.48224 12.9977C5.52553 13.5146 5.76266 13.9961 6.14606 14.3456C6.24708 14.4231 6.36322 14.4787 6.487 14.5087C6.81556 15.258 7.28545 15.937 7.87097 16.5085V18.0954C7.59066 18.1961 7.31432 18.2889 7.04026 18.3835C6.05163 18.6827 5.09683 19.084 4.19127 19.5808C4.13303 19.615 4.08473 19.6638 4.05117 19.7224C4.01762 19.781 3.99998 19.8473 4 19.9148V26.1084C4 26.211 4.04078 26.3095 4.11338 26.3821C4.18597 26.4547 4.28443 26.4955 4.3871 26.4955H15.2258C15.3285 26.4955 15.4269 26.4547 15.4995 26.3821C15.5721 26.3095 15.6129 26.211 15.6129 26.1084V19.5277C15.6129 19.452 15.5907 19.3779 15.549 19.3147C15.5073 19.2514 15.4479 19.2018 15.3783 19.172ZM6.74844 13.7487C6.72505 13.7489 6.70171 13.751 6.67866 13.7549H6.67019C6.64812 13.7502 6.62763 13.7399 6.61068 13.725C6.39749 13.4961 6.26943 13.2008 6.24792 12.8887C6.17969 12.4033 6.34619 12.0502 6.48744 11.9912C6.55666 11.9625 6.61606 11.9143 6.65839 11.8524C6.70073 11.7906 6.7242 11.7178 6.72594 11.6429C6.78323 9.34171 8.5705 7.91482 10.1935 7.91482C11.8166 7.91482 13.6035 9.34127 13.6597 11.645C13.6614 11.7199 13.6849 11.7927 13.7272 11.8545C13.7695 11.9164 13.8288 11.9646 13.898 11.9934C14.0394 12.0521 14.2078 12.4051 14.138 12.8902C14.1164 13.2023 13.9884 13.4976 13.7753 13.7268C13.7579 13.7419 13.7366 13.7521 13.7139 13.7561H13.7069C13.6194 13.7402 13.5291 13.7549 13.4512 13.7978C13.3733 13.8407 13.3125 13.9091 13.2791 13.9916C12.6137 15.629 11.3161 16.818 10.1935 16.818C9.08916 16.818 7.76268 15.6021 7.1079 13.9923C7.07923 13.9204 7.02965 13.8587 6.96556 13.8153C6.90146 13.7719 6.82586 13.7486 6.74844 13.7487ZM10.5515 21.0761H9.83481L9.24584 20.0662L9.54865 19.5277H10.8377L11.1407 20.0666L10.5515 21.0761ZM10.0484 21.8503H10.3425L11.1167 25.7213H9.27192L10.0484 21.8503ZM14.8387 25.7213H11.9041L11.0948 21.6753C11.0995 21.6699 11.1039 21.6642 11.1078 21.6583L11.9207 20.2647C11.955 20.2065 11.9733 20.1403 11.9739 20.0728C11.9745 20.0053 11.9572 19.9388 11.924 19.88L11.401 18.9509C11.3672 18.8911 11.3183 18.8413 11.259 18.8066C11.1998 18.7719 11.1324 18.7536 11.0637 18.7535H9.32181C9.2531 18.7535 9.18563 18.7718 9.12631 18.8065C9.06699 18.8412 9.01797 18.891 8.98426 18.9509L8.46163 19.88C8.42853 19.9388 8.41141 20.0053 8.41197 20.0728C8.41253 20.1403 8.43075 20.2064 8.46482 20.2647L9.27758 21.6583C9.28155 21.6649 9.28706 21.67 9.29123 21.676L8.48258 25.7213H4.77419V20.1401C5.581 19.7252 6.42301 19.3827 7.29032 19.1166C7.65303 18.9932 8.02087 18.8677 8.39398 18.7295C8.46785 18.7018 8.53148 18.6522 8.57637 18.5873C8.62126 18.5224 8.64526 18.4453 8.64516 18.3664V17.1099C9.10692 17.4104 9.64281 17.5773 10.1935 17.5922C10.7443 17.5771 11.2802 17.41 11.7419 17.1095V18.3664C11.7419 18.4454 11.766 18.5226 11.811 18.5875C11.856 18.6524 11.9199 18.7019 11.9939 18.7295C12.3118 18.8456 12.6329 18.9618 12.9554 19.0779C13.5825 19.3024 14.2282 19.534 14.8387 19.7855V25.7213ZM17.9355 9.46321C17.8328 9.46321 17.7344 9.50399 17.6618 9.57658C17.5892 9.64918 17.5484 9.74764 17.5484 9.8503C17.5484 9.95297 17.5892 10.0514 17.6618 10.124C17.7344 10.1966 17.8328 10.2374 17.9355 10.2374H19.0968C19.1994 10.2374 19.2979 10.1966 19.3705 10.124C19.4431 10.0514 19.4839 9.95297 19.4839 9.8503V8.68901C19.4839 8.58635 19.4431 8.48789 19.3705 8.41529C19.2979 8.3427 19.1994 8.30192 19.0968 8.30192H18.3226V7.91482H19.0968C19.1994 7.91482 19.2979 7.87404 19.3705 7.80144C19.4431 7.72885 19.4839 7.63039 19.4839 7.52772C19.4839 7.42506 19.4431 7.3266 19.3705 7.254C19.2979 7.18141 19.1994 7.14062 19.0968 7.14062H17.9355C17.8328 7.14062 17.7344 7.18141 17.6618 7.254C17.5892 7.3266 17.5484 7.42506 17.5484 7.52772V8.68901C17.5484 8.79168 17.5892 8.89014 17.6618 8.96273C17.7344 9.03533 17.8328 9.07611 17.9355 9.07611H18.7097V9.46321H17.9355ZM20.2581 10.2374C20.3607 10.2374 20.4592 10.1966 20.5318 10.124C20.6044 10.0514 20.6452 9.95297 20.6452 9.8503V9.07611H21.0323V9.8503C21.0323 9.95297 21.073 10.0514 21.1456 10.124C21.2182 10.1966 21.3167 10.2374 21.4194 10.2374C21.522 10.2374 21.6205 10.1966 21.6931 10.124C21.7657 10.0514 21.8065 9.95297 21.8065 9.8503V7.52772C21.8065 7.42506 21.7657 7.3266 21.6931 7.254C21.6205 7.18141 21.522 7.14062 21.4194 7.14062H20.2581C20.1554 7.14062 20.0569 7.18141 19.9843 7.254C19.9117 7.3266 19.871 7.42506 19.871 7.52772V9.8503C19.871 9.95297 19.9117 10.0514 19.9843 10.124C20.0569 10.1966 20.1554 10.2374 20.2581 10.2374ZM20.6452 7.91482H21.0323V8.30192H20.6452V7.91482ZM22.5806 10.2374H23.7419C23.8446 10.2374 23.9431 10.1966 24.0157 10.124C24.0882 10.0514 24.129 9.95297 24.129 9.8503C24.129 9.74764 24.0882 9.64918 24.0157 9.57658C23.9431 9.50399 23.8446 9.46321 23.7419 9.46321H22.9677V7.52772C22.9677 7.42506 22.927 7.3266 22.8544 7.254C22.7818 7.18141 22.6833 7.14062 22.5806 7.14062C22.478 7.14062 22.3795 7.18141 22.3069 7.254C22.2343 7.3266 22.1935 7.42506 22.1935 7.52772V9.8503C22.1935 9.95297 22.2343 10.0514 22.3069 10.124C22.3795 10.1966 22.478 10.2374 22.5806 10.2374Z" fill="white"/>
<path id="Vector_2" d="M24.516 10.2374H25.6773C25.78 10.2374 25.8784 10.1966 25.951 10.124C26.0236 10.0514 26.0644 9.95297 26.0644 9.8503C26.0644 9.74764 26.0236 9.64918 25.951 9.57658C25.8784 9.50399 25.78 9.46321 25.6773 9.46321H24.9031V9.07611H25.6773C25.78 9.07611 25.8784 9.03533 25.951 8.96273C26.0236 8.89014 26.0644 8.79168 26.0644 8.68901C26.0644 8.58635 26.0236 8.48789 25.951 8.41529C25.8784 8.3427 25.78 8.30192 25.6773 8.30192H24.9031V7.91482H25.6773C25.78 7.91482 25.8784 7.87404 25.951 7.80144C26.0236 7.72885 26.0644 7.63039 26.0644 7.52772C26.0644 7.42506 26.0236 7.3266 25.951 7.254C25.8784 7.18141 25.78 7.14062 25.6773 7.14062H24.516C24.4133 7.14062 24.3149 7.18141 24.2423 7.254C24.1697 7.3266 24.1289 7.42506 24.1289 7.52772V9.8503C24.1289 9.95297 24.1697 10.0514 24.2423 10.124C24.3149 10.1966 24.4133 10.2374 24.516 10.2374Z" fill="white"/>
<path id="Vector_3" d="M17.7891 12.2324L17.8278 12.2564C18.1263 12.4437 18.283 12.5689 18.2567 12.6915C18.2202 12.8657 18.1684 13.0363 18.1019 13.2013C17.9494 13.5955 17.6825 13.9351 17.3354 14.1764C17.2664 14.2224 17.2139 14.2893 17.1858 14.3673C17.1577 14.4454 17.1553 14.5304 17.1792 14.6098C17.203 14.6893 17.2518 14.759 17.3182 14.8086C17.3847 14.8583 17.4653 14.8852 17.5483 14.8856C17.6477 14.8856 19.9325 14.8674 21.2226 13.3321L21.4011 13.3276C21.5353 13.3338 21.672 13.3372 21.8063 13.3372C25.2212 13.3372 27.9999 11.2535 27.9999 8.69204C27.9999 6.13057 25.2212 4.04688 21.8063 4.04688C18.3915 4.04688 15.6128 6.13057 15.6128 8.69204C15.6301 9.62727 15.9826 10.5252 16.606 11.2225C16.9484 11.6157 17.3471 11.956 17.7891 12.2324ZM21.8063 4.82107C24.7948 4.82107 27.2257 6.55754 27.2257 8.69204C27.2257 10.8265 24.7948 12.563 21.8063 12.563C21.6825 12.563 21.5593 12.56 21.4103 12.5541L21.0232 12.563C20.9647 12.5644 20.9072 12.5791 20.8551 12.6059C20.803 12.6327 20.7577 12.671 20.7226 12.7178C20.1734 13.3739 19.4129 13.8183 18.5718 13.9747C18.6663 13.8223 18.7479 13.6621 18.8156 13.496C18.9002 13.2882 18.9663 13.0735 19.0131 12.8541C19.1586 12.1774 18.5601 11.8024 18.2389 11.6007L18.2021 11.5775C17.8248 11.342 17.4846 11.0517 17.1925 10.7162C16.6903 10.1597 16.4045 9.44143 16.387 8.69204C16.387 6.55754 18.8179 4.82107 21.8063 4.82107ZM25.6773 18.7566H24.1289V17.5953C24.1289 17.4926 24.0881 17.3941 24.0155 17.3215C23.9429 17.2489 23.8445 17.2082 23.7418 17.2082H19.0967C18.994 17.2082 18.8955 17.2489 18.8229 17.3215C18.7503 17.3941 18.7096 17.4926 18.7096 17.5953V18.7566H17.1612C16.5199 18.7566 15.9999 19.2765 15.9999 19.9178V25.3372C15.9999 25.9785 16.5199 26.4985 17.1612 26.4985H25.6773C26.3186 26.4985 26.8386 25.9785 26.8386 25.3372V19.9178C26.8386 19.2765 26.3186 18.7566 25.6773 18.7566ZM19.4838 17.9824H23.3547V18.7566H19.4838V17.9824ZM16.7741 19.9178C16.7741 19.8152 16.8149 19.7167 16.8875 19.6441C16.9601 19.5715 17.0585 19.5307 17.1612 19.5307H25.6773C25.78 19.5307 25.8784 19.5715 25.951 19.6441C26.0236 19.7167 26.0644 19.8152 26.0644 19.9178V21.4662H16.7741V19.9178ZM23.3547 22.2404H24.1289V23.0146H23.3547V22.2404ZM18.7096 22.2404H19.4838V23.0146H18.7096V22.2404ZM26.0644 25.3372C26.0644 25.4399 26.0236 25.5383 25.951 25.6109C25.8784 25.6835 25.78 25.7243 25.6773 25.7243H17.1612C17.0585 25.7243 16.9601 25.6835 16.8875 25.6109C16.8149 25.5383 16.7741 25.4399 16.7741 25.3372V22.2404H17.9354V23.4017C17.9354 23.5044 17.9762 23.6028 18.0488 23.6754C18.1213 23.748 18.2198 23.7888 18.3225 23.7888H19.8709C19.9735 23.7888 20.072 23.748 20.1446 23.6754C20.2172 23.6028 20.258 23.5044 20.258 23.4017V22.2404H22.5805V23.4017C22.5805 23.5044 22.6213 23.6028 22.6939 23.6754C22.7665 23.748 22.865 23.7888 22.9676 23.7888H24.516C24.6187 23.7888 24.7171 23.748 24.7897 23.6754C24.8623 23.6028 24.9031 23.5044 24.9031 23.4017V22.2404H26.0644V25.3372Z" fill="white"/>
</g>
</g>
</svg>
