<svg width="32" height="32" viewBox="0 0 32 32" fill="none" xmlns="http://www.w3.org/2000/svg">
<g id="Security Guard">
<g id="security-guard">
<path id="Path 8798" d="M9 23.6953L13.5008 21.6193L14.084 22.8913L9.58312 24.9673L9 23.6953Z" fill="white"/>
<path id="Path 8799" d="M17.5625 22.8984L18.1456 21.6265L22.6465 23.7025L22.0633 24.9744L17.5625 22.8984Z" fill="white"/>
<path id="Path 8800" d="M23.7638 21.246L19.8677 19.339C20.7198 18.3866 21.1906 17.1517 21.1896 15.872L21.1846 10.43L23.6611 6.6L16.0722 4L8.27004 6.594L10.8103 10.394V15.876C10.8093 17.1557 11.2802 18.3906 12.1323 19.343L8.23714 21.25C7.56991 21.567 7.00585 22.0671 6.61027 22.6923C6.2147 23.3176 6.00378 24.0425 6.00195 24.783V28H25.998V24.779C25.9961 24.0386 25.7853 23.3139 25.3899 22.6886C24.9945 22.0634 24.4307 21.5632 23.7638 21.246ZM15.9995 19.674C14.9952 19.6724 14.0325 19.2715 13.3224 18.5593C12.6122 17.847 12.2126 16.8813 12.211 15.874V14.71C12.7453 15.0829 13.3806 15.2825 14.0315 15.282H17.9565C18.6136 15.2823 19.2547 15.0787 19.7919 14.699V15.872C19.7908 16.8804 19.3909 17.8471 18.6798 18.56C17.9688 19.2728 17.0048 19.6735 15.9995 19.674ZM19.772 12.015V12.031C19.7746 12.5175 19.5847 12.9852 19.244 13.3315C18.9033 13.6778 18.4395 13.8743 17.9545 13.878H14.0345C13.7938 13.8767 13.5558 13.8279 13.334 13.7343C13.1122 13.6407 12.9109 13.5042 12.7417 13.3326C12.5724 13.161 12.4385 12.9576 12.3477 12.7341C12.2568 12.5106 12.2107 12.2714 12.212 12.03V10.879H19.7999L19.772 12.015ZM16.0663 5.482L21.5116 7.344L20.1358 9.475H11.883L10.4584 7.346L16.0663 5.482ZM7.40069 24.782C7.40183 24.3072 7.53723 23.8424 7.79117 23.4416C8.04511 23.0409 8.40717 22.7206 8.83531 22.518L13.3107 20.327C13.8812 20.6751 14.5136 20.9088 15.173 21.015V26.6H7.3967L7.40069 24.782ZM24.6022 26.6H16.5737V21.047C17.3227 20.9643 18.0445 20.7178 18.6883 20.325L23.1546 22.511H23.1646C23.5939 22.7135 23.957 23.0342 24.2115 23.4357C24.4661 23.8373 24.6016 24.3032 24.6022 24.779V26.6Z" fill="white"/>
<path id="Path 8801" d="M15.2998 6.92969H16.6955V8.34869H15.2998V6.92969Z" fill="white"/>
</g>
</g>
</svg>
