<svg width="32" height="32" viewBox="0 0 32 32" fill="none" xmlns="http://www.w3.org/2000/svg">
<g id="Chef/Cook">
<g id="chef">
<g id="Group 6454">
<g id="Group 6453">
<path id="Path 8732" d="M21.7782 19.392L18.7291 18.7327V17.7963C19.3316 17.376 19.8226 16.8224 20.1615 16.181C20.5005 15.5397 20.6776 14.8292 20.6782 14.1081V12.5907H21.068V10.3161H20.6782V9.53242C21.1199 9.4709 21.5394 9.30496 21.8999 9.04915C22.2603 8.79334 22.5508 8.45546 22.7458 8.06512C22.9408 7.67478 23.0344 7.24389 23.0184 6.8102C23.0023 6.37651 22.8772 5.95327 22.6539 5.57754C22.4306 5.20182 22.1159 4.88509 21.7375 4.6551C21.3591 4.42512 20.9284 4.28889 20.4833 4.25837C20.0382 4.22784 19.5921 4.30394 19.1842 4.48001C18.7764 4.65607 18.4191 4.92673 18.1438 5.26826C17.8895 4.95114 17.5641 4.69461 17.1925 4.51816C16.8209 4.34171 16.4128 4.25 15.9993 4.25C15.5857 4.25 15.1776 4.34171 14.806 4.51816C14.4344 4.69461 14.1091 4.95114 13.8547 5.26826C13.5796 4.92683 13.2225 4.65623 12.8148 4.48018C12.4072 4.30412 11.9613 4.22798 11.5163 4.25842C11.0714 4.28886 10.6409 4.42496 10.2626 4.65479C9.88424 4.88461 9.56965 5.20116 9.34636 5.57669C9.12306 5.95221 8.99787 6.37527 8.98176 6.80878C8.96564 7.24229 9.0591 7.67302 9.25392 8.06325C9.44875 8.45348 9.73901 8.79129 10.0993 9.04708C10.4595 9.30288 10.8788 9.46885 11.3203 9.53046V10.3141H10.9305V12.5907H11.3203V14.1071C11.3207 14.8283 11.4976 15.539 11.8363 16.1805C12.1751 16.822 12.666 17.3758 13.2685 17.7963V18.7337L10.2194 19.392C9.09051 19.6299 8.08005 20.2379 7.35731 21.1141C6.63457 21.9903 6.24348 23.0815 6.24958 24.2047V27.7587H25.7479V24.2038C25.7538 23.0807 25.3626 21.9897 24.6399 21.1137C23.9172 20.2377 22.9068 19.6299 21.7782 19.392ZM9.76104 6.9032C9.76011 6.48591 9.90101 6.08003 10.1618 5.74869C10.4226 5.41734 10.7888 5.17911 11.2032 5.07106C11.6177 4.96301 12.0572 4.99119 12.4535 5.15122C12.8498 5.31125 13.1805 5.59416 13.3944 5.95593L13.5072 6.14499H14.2043L14.3171 5.95593C14.4871 5.66774 14.7323 5.42828 15.0279 5.26176C15.3235 5.09524 15.6591 5.00755 16.0008 5.00755C16.3424 5.00755 16.678 5.09524 16.9736 5.26176C17.2693 5.42828 17.5145 5.66774 17.6845 5.95593L17.7973 6.14499H18.4944L18.6072 5.95593C18.7781 5.66762 19.0241 5.42819 19.3204 5.26173C19.6167 5.09527 19.9529 5.00765 20.2951 5.00769C20.6373 5.00773 20.9735 5.09544 21.2698 5.26198C21.5661 5.42852 21.812 5.66801 21.9828 5.95636C22.1537 6.24471 22.2434 6.57174 22.243 6.90453C22.2426 7.23733 22.152 7.56414 21.9805 7.85208C21.8089 8.14003 21.5623 8.37894 21.2657 8.54477C20.969 8.71061 20.6326 8.79752 20.2904 8.79675H19.9005V10.3161H12.1V8.79871H11.7102C11.1935 8.79793 10.6982 8.59797 10.3328 8.24267C9.96745 7.88736 9.76184 7.40568 9.76104 6.9032ZM11.7102 11.0743H20.2884V11.8325H11.7102V11.0743ZM12.1 14.111V12.5907H19.8985V14.1071C19.8985 15.1128 19.4877 16.0773 18.7565 16.7885C18.0252 17.4996 17.0334 17.8991 15.9993 17.8991C14.9651 17.8991 13.9733 17.4996 13.2421 16.7885C12.5108 16.0773 12.1 15.1128 12.1 14.1071V14.111ZM17.9484 18.242V18.6612H17.5596C17.2503 18.662 16.9538 18.7817 16.7349 18.9942C16.516 19.2067 16.3924 19.4948 16.3911 19.7956H15.6115C15.6109 19.4941 15.4875 19.2052 15.2683 18.992C15.0491 18.7788 14.752 18.6588 14.442 18.6583H14.0521V18.239C14.6629 18.515 15.3283 18.658 16.0018 18.658C16.6753 18.658 17.3406 18.515 17.9514 18.239L17.9484 18.242ZM11.7092 27.0034H10.9295V25.4841H10.1458V27.0005H7.02319V24.2038C7.01849 23.2537 7.34952 22.3308 7.96087 21.5897C8.57222 20.8486 9.42679 20.3342 10.3815 20.1326L13.6936 19.4165H14.4309C14.5343 19.4165 14.6334 19.4564 14.7065 19.5275C14.7797 19.5986 14.8207 19.6951 14.8207 19.7956V20.5538H15.6004V21.4354L11.7011 22.9518V27.0005L11.7092 27.0034ZM24.9663 27.0034H21.8436V25.4831H21.064V26.9995H12.4898V23.4652L16.3911 21.9487V20.5538H17.1708V19.7956C17.1708 19.6951 17.2118 19.5986 17.2849 19.5275C17.358 19.4564 17.4572 19.4165 17.5606 19.4165H18.2979L21.6099 20.1326C22.5647 20.3342 23.4193 20.8486 24.0306 21.5897C24.642 22.3308 24.973 23.2537 24.9683 24.2038V26.9995L24.9663 27.0034Z" fill="white" stroke="white" stroke-width="0.5"/>
<path id="Ellipse 690" d="M13.6603 24.727C13.8756 24.727 14.0502 24.5572 14.0502 24.3479C14.0502 24.1385 13.8756 23.9688 13.6603 23.9688C13.445 23.9688 13.2705 24.1385 13.2705 24.3479C13.2705 24.5572 13.445 24.727 13.6603 24.727Z" fill="white"/>
<path id="Ellipse 691" d="M13.6603 26.2426C13.8756 26.2426 14.0502 26.0728 14.0502 25.8635C14.0502 25.6541 13.8756 25.4844 13.6603 25.4844C13.445 25.4844 13.2705 25.6541 13.2705 25.8635C13.2705 26.0728 13.445 26.2426 13.6603 26.2426Z" fill="white"/>
</g>
</g>
</g>
</g>
</svg>
