<svg width="32" height="32" viewBox="0 0 32 32" fill="none" xmlns="http://www.w3.org/2000/svg">
<g id="Driving/Motor Technician">
<path id="technician" d="M21.079 16.1907C21.982 15.1838 22.5638 13.9303 22.75 12.5907H23.957C24.2056 12.5907 24.4441 12.4919 24.6199 12.3161C24.7957 12.1403 24.8945 11.9018 24.8945 11.6532C24.8945 11.4046 24.7957 11.1661 24.6199 10.9903C24.4441 10.8145 24.2056 10.7157 23.957 10.7157H23.594C23.3655 8.86244 22.4673 7.15669 21.0685 5.91973C19.6696 4.68278 17.8668 4 15.9995 4C14.1322 4 12.3294 4.68278 10.9306 5.91973C9.53173 7.15669 8.63349 8.86244 8.405 10.7157H8.043C7.79436 10.7157 7.5559 10.8145 7.38009 10.9903C7.20427 11.1661 7.1055 11.4046 7.1055 11.6532C7.1055 11.9018 7.20427 12.1403 7.38009 12.3161C7.5559 12.4919 7.79436 12.5907 8.043 12.5907H9.25C9.43621 13.9303 10.018 15.1838 10.921 16.1907C8.85184 17.156 7.10131 18.692 5.87526 20.6181C4.64922 22.5443 3.99863 24.7804 4 27.0637C4 27.1868 4.02427 27.3088 4.07142 27.4225C4.11857 27.5362 4.18768 27.6396 4.2748 27.7266C4.36191 27.8136 4.46532 27.8826 4.57912 27.9297C4.69292 27.9767 4.81487 28.0008 4.938 28.0007H27.063C27.3115 28.0007 27.5498 27.902 27.7256 27.7263C27.9013 27.5505 28 27.3122 28 27.0637C28.0014 24.7804 27.3508 22.5443 26.1247 20.6181C24.8987 18.692 23.1482 17.156 21.079 16.1907ZM9.186 26.1257H5.917C6.14575 23.6102 7.31233 21.2727 9.185 19.5777L9.186 26.1257ZM10.3 10.7157C10.4271 9.94716 10.7082 9.21222 11.1262 8.55495C11.5443 7.89768 12.0908 7.33161 12.733 6.89069V8.50069C12.741 8.74403 12.8432 8.97475 13.0182 9.14407C13.1931 9.3134 13.427 9.40807 13.6705 9.40807C13.914 9.40807 14.1479 9.3134 14.3229 9.14407C14.4978 8.97475 14.6001 8.74403 14.608 8.50069V6.04569C15.5222 5.81919 16.4778 5.81919 17.392 6.04569V8.50069C17.392 8.74933 17.4908 8.98779 17.6666 9.1636C17.8424 9.33942 18.0809 9.43819 18.3295 9.43819C18.5781 9.43819 18.8166 9.33942 18.9924 9.1636C19.1682 8.98779 19.267 8.74933 19.267 8.50069V6.89069C19.9092 7.33161 20.4557 7.89768 20.8738 8.55495C21.2918 9.21222 21.5729 9.94716 21.7 10.7157H10.3ZM20.85 12.5907C20.632 13.7171 20.0287 14.7325 19.1438 15.4626C18.2588 16.1927 17.1473 16.592 16 16.592C14.8527 16.592 13.7412 16.1927 12.8562 15.4626C11.9713 14.7325 11.368 13.7171 11.15 12.5907H20.85ZM20.939 26.1267H11.061V18.2267C11.5428 17.9556 12.0462 17.7248 12.566 17.5367C13.6078 18.1462 14.793 18.4675 16 18.4675C17.207 18.4675 18.3922 18.1462 19.434 17.5367C19.9538 17.7248 20.4572 17.9556 20.939 18.2267V26.1267ZM22.814 26.1267V19.5787C24.6868 21.2737 25.8533 23.6112 26.082 26.1267H22.814Z" fill="white"/>
</g>
</svg>
