<svg width="32" height="32" viewBox="0 0 32 32" fill="none" xmlns="http://www.w3.org/2000/svg">
<path d="M25.7402 4H6.2598C5.66064 4.00053 5.08618 4.22385 4.66251 4.62093C4.23883 5.01802 4.00056 5.55643 4 6.118V25.882C4.00056 26.4436 4.23883 26.982 4.66251 27.3791C5.08618 27.7762 5.66064 27.9995 6.2598 28H25.7402C26.3394 27.9995 26.9138 27.7762 27.3375 27.3791C27.7612 26.982 27.9994 26.4436 28 25.882V6.118C27.9994 5.55643 27.7612 5.01802 27.3375 4.62093C26.9138 4.22385 26.3394 4.00053 25.7402 4ZM26.4935 25.882C26.4932 26.0692 26.4137 26.2486 26.2725 26.3809C26.1313 26.5133 25.9399 26.5877 25.7402 26.588H6.2598C6.06011 26.5877 5.86868 26.5133 5.72747 26.3809C5.58627 26.2486 5.50682 26.0692 5.50654 25.882V6.118C5.50682 5.93084 5.58627 5.75142 5.72747 5.61907C5.86868 5.48673 6.06011 5.41226 6.2598 5.412H25.7402C25.9399 5.41226 26.1313 5.48673 26.2725 5.61907C26.4137 5.75142 26.4932 5.93084 26.4935 6.118V25.882Z" fill="white"/>
<path d="M24.0844 7.33594H7.91684C7.71706 7.33594 7.52546 7.41032 7.3842 7.54272C7.24293 7.67512 7.16357 7.8547 7.16357 8.04194V12.2619C7.16357 12.4492 7.24293 12.6288 7.3842 12.7612C7.52546 12.8936 7.71706 12.9679 7.91684 12.9679H24.0844C24.2841 12.9679 24.4757 12.8936 24.617 12.7612C24.7583 12.6288 24.8376 12.4492 24.8376 12.2619V8.04194C24.8376 7.8547 24.7583 7.67512 24.617 7.54272C24.4757 7.41032 24.2841 7.33594 24.0844 7.33594ZM23.3311 11.5559H8.67011V8.74794H23.3311V11.5559Z" fill="white"/>
<path d="M11.7824 14.7344H8.77036C8.67144 14.7344 8.57349 14.7526 8.4821 14.7881C8.39071 14.8236 8.30766 14.8756 8.23771 14.9411C8.16777 15.0067 8.11228 15.0845 8.07443 15.1702C8.03657 15.2559 8.01709 15.3477 8.01709 15.4404V18.2674C8.01709 18.3601 8.03657 18.4519 8.07443 18.5375C8.11228 18.6232 8.16777 18.701 8.23771 18.7666C8.30766 18.8321 8.39071 18.8842 8.4821 18.9196C8.57349 18.9551 8.67144 18.9734 8.77036 18.9734H11.7834C11.9832 18.9734 12.1748 18.899 12.3161 18.7666C12.4573 18.6342 12.5367 18.4546 12.5367 18.2674V15.4434C12.5371 15.3503 12.5179 15.2581 12.4802 15.172C12.4424 15.086 12.3869 15.0077 12.3168 14.9418C12.2467 14.876 12.1634 14.8237 12.0717 14.7881C11.98 14.7525 11.8816 14.7342 11.7824 14.7344ZM11.0291 17.5584H9.52363V16.1464H11.0302L11.0291 17.5584Z" fill="white"/>
<path d="M11.7824 20.4297H8.77036C8.67144 20.4297 8.57349 20.4479 8.4821 20.4834C8.39071 20.5189 8.30766 20.5709 8.23771 20.6365C8.16777 20.702 8.11228 20.7799 8.07443 20.8655C8.03657 20.9512 8.01709 21.043 8.01709 21.1357V23.9627C8.01709 24.0554 8.03657 24.1472 8.07443 24.2329C8.11228 24.3185 8.16777 24.3964 8.23771 24.4619C8.30766 24.5275 8.39071 24.5795 8.4821 24.615C8.57349 24.6504 8.67144 24.6687 8.77036 24.6687H11.7834C11.9832 24.6687 12.1748 24.5943 12.3161 24.4619C12.4573 24.3295 12.5367 24.15 12.5367 23.9627V21.1387C12.5371 21.0457 12.5179 20.9534 12.4802 20.8674C12.4424 20.7813 12.3869 20.7031 12.3168 20.6372C12.2467 20.5713 12.1634 20.519 12.0717 20.4834C11.98 20.4478 11.8816 20.4296 11.7824 20.4297ZM11.0291 23.2537H9.52363V21.8417H11.0302L11.0291 23.2537Z" fill="white"/>
<path d="M17.9324 14.7344H14.9193C14.7195 14.7344 14.5279 14.8087 14.3866 14.9411C14.2454 15.0735 14.166 15.2531 14.166 15.4404V18.2674C14.166 18.4546 14.2454 18.6342 14.3866 18.7666C14.5279 18.899 14.7195 18.9734 14.9193 18.9734H17.9324C18.1321 18.9734 18.3237 18.899 18.465 18.7666C18.6063 18.6342 18.6856 18.4546 18.6856 18.2674V15.4434C18.6861 15.3504 18.6669 15.2583 18.6292 15.1723C18.5916 15.0863 18.5361 15.0081 18.4661 14.9422C18.3961 14.8763 18.313 14.8241 18.2214 14.7884C18.1298 14.7527 18.0316 14.7344 17.9324 14.7344ZM17.1791 17.5584H15.6726V16.1464H17.1791V17.5584Z" fill="white"/>
<path d="M17.9324 20.4297H14.9193C14.7195 20.4297 14.5279 20.5041 14.3866 20.6365C14.2454 20.7689 14.166 20.9484 14.166 21.1357V23.9627C14.166 24.15 14.2454 24.3295 14.3866 24.4619C14.5279 24.5943 14.7195 24.6687 14.9193 24.6687H17.9324C18.1321 24.6687 18.3237 24.5943 18.465 24.4619C18.6063 24.3295 18.6856 24.15 18.6856 23.9627V21.1387C18.6861 21.0457 18.6669 20.9536 18.6292 20.8676C18.5916 20.7816 18.5361 20.7034 18.4661 20.6375C18.3961 20.5717 18.313 20.5194 18.2214 20.4837C18.1298 20.4481 18.0316 20.4297 17.9324 20.4297ZM17.1791 23.2537H15.6726V21.8417H17.1791V23.2537Z" fill="white"/>
<path d="M24.0832 14.7344H21.0702C20.9712 14.7344 20.8733 14.7526 20.7819 14.7881C20.6905 14.8236 20.6075 14.8756 20.5375 14.9411C20.4676 15.0067 20.4121 15.0845 20.3742 15.1702C20.3364 15.2559 20.3169 15.3477 20.3169 15.4404V23.9584C20.3169 24.0511 20.3364 24.1429 20.3742 24.2285C20.4121 24.3142 20.4676 24.392 20.5375 24.4576C20.6075 24.5231 20.6905 24.5751 20.7819 24.6106C20.8733 24.6461 20.9712 24.6644 21.0702 24.6644H24.0832C24.1822 24.6644 24.2801 24.6461 24.3715 24.6106C24.4629 24.5751 24.5459 24.5231 24.6159 24.4576C24.6858 24.392 24.7413 24.3142 24.7792 24.2285C24.817 24.1429 24.8365 24.0511 24.8365 23.9584V15.4404C24.8365 15.3477 24.817 15.2559 24.7792 15.1702C24.7413 15.0845 24.6858 15.0067 24.6159 14.9411C24.5459 14.8756 24.4629 14.8236 24.3715 14.7881C24.2801 14.7526 24.1822 14.7344 24.0832 14.7344ZM23.33 23.2524H21.8234V16.1464H23.33V23.2524Z" fill="white"/>
</svg>
