<svg width="32" height="32" viewBox="0 0 32 32" fill="none" xmlns="http://www.w3.org/2000/svg">
<g id="Other">
<g id="Group">
<path id="Vector" d="M14.0962 6.04602C14.0955 5.85418 14.0922 5.65697 14.0497 5.47119C13.8438 4.55982 13.1203 4.00451 12.1377 4.00249C10.0788 3.99845 8.01997 3.9998 5.96112 4.00316C5.78839 4.00316 5.61034 4.01259 5.44292 4.05297C4.54338 4.26904 4.00392 4.99531 4.00192 5.99554C3.9986 8.07002 3.99993 10.1438 4.00325 12.2177C4.00325 12.3927 4.0099 12.5731 4.04843 12.7427C4.25505 13.6507 4.97986 14.2094 5.96112 14.2121C8.01997 14.2168 10.0788 14.2147 12.1377 14.2114C12.3104 14.2114 12.4885 14.2013 12.6559 14.1609C13.5401 13.9475 14.0882 13.232 14.0962 12.2681C14.0982 12.0056 14.0995 11.7431 14.1002 11.4813C14.1022 10.6944 14.0982 9.90691 14.0982 9.12006C14.0982 8.09493 14.1002 7.07047 14.0962 6.04602ZM12.1011 12.5953C10.0669 12.5959 8.0326 12.5959 5.99833 12.5953C5.65153 12.5953 5.60037 12.5414 5.60037 12.1806C5.59971 10.1317 5.59971 8.08281 5.60037 6.0339C5.60037 5.66572 5.64821 5.6186 6.02224 5.6186C8.0399 5.61793 10.0576 5.61793 12.0752 5.6186C12.4559 5.6186 12.4984 5.6637 12.4984 6.05813C12.4991 7.07451 12.4984 8.09022 12.4984 9.1066C12.4984 10.1311 12.4991 11.1555 12.4984 12.18C12.4984 12.5407 12.4466 12.5946 12.1011 12.5953Z" fill="white"/>
<path id="Vector_2" d="M16.9441 12.7556C17.1547 13.6482 17.8642 14.2028 18.8162 14.2109C19.2986 14.2149 19.7815 14.2156 20.2639 14.2149C19.737 14.2156 19.2102 14.2149 18.6834 14.2109C19.2129 14.2156 19.7423 14.2156 20.2725 14.2149C20.7814 14.2142 21.2903 14.2129 21.7985 14.2129C22.3167 14.2129 22.8349 14.2136 23.3531 14.2136C23.8913 14.2136 24.4294 14.2136 24.9675 14.2109C25.1575 14.2102 25.3522 14.2062 25.5362 14.1637C26.4371 13.9537 26.9859 13.2241 26.9879 12.2293C26.9925 10.1467 26.9905 8.0648 26.9872 5.98223C26.9872 5.80723 26.9772 5.62751 26.9374 5.45856C26.7248 4.55594 26.0106 4.00534 25.0406 4.00332C22.9731 3.99794 20.9056 3.99996 18.8388 4.00332C18.6741 4.00332 18.5046 4.01207 18.3445 4.04909C17.4463 4.2591 16.8956 4.99143 16.8936 5.98493C16.8896 8.06749 16.8909 10.1494 16.8942 12.232C16.8949 12.4063 16.9042 12.5867 16.9441 12.7556ZM21.8889 14.2129C21.9022 14.2129 21.9161 14.2129 21.9294 14.2129C22.4011 14.2129 22.8728 14.2136 23.3445 14.2136C22.8595 14.2136 22.3739 14.2129 21.8889 14.2129ZM18.9126 5.61876C20.9302 5.61809 22.9479 5.61809 24.9655 5.61876C25.3462 5.61876 25.3894 5.66386 25.3901 6.05762C25.3907 7.074 25.3901 8.0897 25.3901 9.10608C25.3901 10.1305 25.3907 11.155 25.3901 12.1795C25.3901 12.5409 25.3389 12.5954 24.9934 12.5954C22.9592 12.5961 20.9249 12.5961 18.8906 12.5954C18.5432 12.5954 18.492 12.5416 18.492 12.1815C18.4914 10.1326 18.4914 8.08365 18.492 6.03474C18.492 5.66588 18.5392 5.61876 18.9126 5.61876Z" fill="white"/>
<path id="Vector_3" d="M14.0465 18.3603C13.8366 17.4658 13.1277 16.9105 12.1764 16.903C11.9173 16.901 11.6575 16.8997 11.3984 16.899C10.6204 16.897 9.8418 16.901 9.06317 16.9004C8.05002 16.9004 7.03753 16.8983 6.02438 16.9024C5.83438 16.903 5.63906 16.9057 5.45569 16.9481C4.55814 17.1548 4.00473 17.8898 4.00274 18.882C3.99809 20.9645 4.00008 23.0464 4.0034 25.129C4.0034 25.304 4.0127 25.4837 4.0519 25.6533C4.26516 26.5627 4.98466 27.1099 5.9719 27.1119C8.02211 27.116 10.073 27.114 12.1239 27.1113C12.2973 27.1113 12.4753 27.1045 12.6427 27.0655C13.5436 26.8555 14.0944 26.1258 14.0964 25.1317C14.101 23.0491 14.099 20.9672 14.0957 18.8846C14.0957 18.7096 14.0864 18.5293 14.0465 18.3603ZM12.1013 25.4945C10.067 25.4952 8.03274 25.4952 5.99847 25.4945C5.65168 25.4945 5.60052 25.4406 5.60052 25.0798C5.59986 23.0309 5.59986 20.982 5.60052 18.9331C5.60052 18.5649 5.64836 18.5178 6.02239 18.5178C8.04005 18.5171 10.0577 18.5171 12.0754 18.5178C12.4561 18.5178 12.4986 18.5629 12.4986 18.9573C12.4992 19.9737 12.4986 20.9894 12.4986 22.0058C12.4986 23.0303 12.4992 24.0547 12.4986 25.0792C12.4986 25.44 12.4468 25.4945 12.1013 25.4945Z" fill="white"/>
<path id="Vector_4" d="M27.4332 20.5561C27.2598 20.3777 27.0864 20.2001 26.9123 20.023C26.3901 19.4913 25.864 18.9636 25.3405 18.4325C24.6588 17.7419 23.9792 17.05 23.2949 16.3627C23.1667 16.2335 23.0331 16.1029 22.8817 16.006C22.1409 15.5328 21.2799 15.6499 20.6202 16.3156C19.2343 17.7136 17.8531 19.1157 16.4726 20.5184C16.3563 20.6362 16.2427 20.7634 16.157 20.9041C15.6966 21.6613 15.8169 22.5202 16.4806 23.1947C17.8578 24.5947 19.2383 25.9914 20.6195 27.3874C20.7364 27.5052 20.8607 27.6223 20.9989 27.7098C21.7443 28.1823 22.5993 28.0672 23.261 27.4002C24.6469 26.0022 26.0281 24.6001 27.4086 23.1974C27.5249 23.0796 27.6378 22.9524 27.7235 22.811C28.1759 22.0666 28.0677 21.209 27.4332 20.5561ZM26.2852 22.1581C25.6109 22.842 24.9359 23.5252 24.2615 24.209C23.5812 24.8983 22.9016 25.5875 22.2206 26.2768C21.9808 26.5191 21.9104 26.5211 21.6772 26.2855C20.3079 24.8996 18.94 23.513 17.5714 22.1258C17.3382 21.8889 17.3396 21.8182 17.5787 21.5759C18.9387 20.1974 20.2993 18.8189 21.6606 17.4403C21.9051 17.1926 21.9688 17.194 22.22 17.4484C23.5772 18.8236 24.9352 20.1987 26.2918 21.5738C26.5483 21.833 26.5469 21.8922 26.2852 22.1581Z" fill="white"/>
</g>
</g>
</svg>
