<svg width="32" height="32" viewBox="0 0 32 32" fill="none" xmlns="http://www.w3.org/2000/svg">
<g id="Hospitality/ Travel/ Tourism">
<g id="suitcase">
<path id="Path 8605" d="M25.7511 14.5H25.0011V12.25C25.0011 12.0511 24.9221 11.8603 24.7815 11.7197C24.6408 11.579 24.4501 11.5 24.2511 11.5H21.2511C21.0522 11.5 20.8615 11.579 20.7208 11.7197C20.5802 11.8603 20.5011 12.0511 20.5011 12.25V14.5H19.7511C19.4962 14.5005 19.2429 14.5421 19.0011 14.623V10.75C19.0198 10.1735 18.8093 9.61308 18.4157 9.1914C18.0221 8.76972 17.4776 8.52112 16.9011 8.5H14.5011V4.75C14.5011 4.55109 14.4221 4.36032 14.2815 4.21967C14.1408 4.07902 13.9501 4 13.7511 4H9.25114C9.05223 4 8.86146 4.07902 8.72081 4.21967C8.58016 4.36032 8.50114 4.55109 8.50114 4.75V8.5H6.10114C5.52472 8.52112 4.98014 8.76972 4.58657 9.1914C4.193 9.61308 3.9825 10.1735 4.00114 10.75V24.25C3.99116 24.7377 4.14151 25.2152 4.4291 25.6092C4.71668 26.0031 5.12562 26.2919 5.59314 26.431C5.51796 26.5999 5.48543 26.7846 5.49841 26.969C5.5114 27.1534 5.56949 27.3318 5.6676 27.4884C5.7657 27.6451 5.9008 27.7753 6.06101 27.8675C6.22122 27.9597 6.40164 28.0111 6.58639 28.0172C6.77113 28.0233 6.95455 27.9839 7.1205 27.9025C7.28645 27.821 7.42984 27.7001 7.53807 27.5502C7.64629 27.4004 7.71604 27.2262 7.74116 27.0431C7.76628 26.86 7.74601 26.6735 7.68214 26.5H15.3201C15.2588 26.6724 15.2406 26.8572 15.2669 27.0382C15.2933 27.2193 15.3635 27.3911 15.4715 27.5389C15.5794 27.6866 15.7219 27.8057 15.8863 27.8859C16.0508 27.966 16.2324 28.0048 16.4153 27.9987C16.5982 27.9927 16.7768 27.942 16.9356 27.8512C17.0945 27.7604 17.2287 27.6321 17.3267 27.4776C17.4246 27.3231 17.4834 27.1469 17.4977 26.9645C17.5121 26.7821 17.4817 26.599 17.4091 26.431C17.7245 26.3458 18.015 26.1864 18.2561 25.966C18.5037 26.1721 18.792 26.3237 19.1021 26.411C19.0233 26.579 18.9871 26.7639 18.9969 26.9493C19.0067 27.1346 19.0621 27.3147 19.1582 27.4735C19.2543 27.6323 19.3882 27.7648 19.5479 27.8595C19.7076 27.9541 19.8881 28.0078 20.0736 28.0158C20.259 28.0238 20.4436 27.9859 20.6108 27.9055C20.7781 27.825 20.9229 27.7045 21.0324 27.5546C21.1419 27.4048 21.2127 27.2302 21.2384 27.0464C21.2642 26.8625 21.2442 26.6752 21.1801 26.501H24.3181C24.2557 26.6745 24.237 26.8607 24.2635 27.0432C24.2901 27.2257 24.3611 27.3988 24.4704 27.5473C24.5796 27.6959 24.7238 27.8153 24.89 27.895C25.0563 27.9747 25.2397 28.0122 25.4239 28.0043C25.6081 27.9964 25.7876 27.9434 25.9465 27.8497C26.1053 27.7561 26.2387 27.6249 26.3349 27.4675C26.431 27.3102 26.487 27.1316 26.4979 26.9475C26.5087 26.7635 26.4741 26.5796 26.3971 26.412C26.8476 26.2979 27.2482 26.0394 27.5379 25.6761C27.8275 25.3127 27.9903 24.8645 28.0011 24.4V16.6C27.98 16.0236 27.7314 15.479 27.3097 15.0854C26.8881 14.6919 26.3276 14.4814 25.7511 14.5ZM22.0011 13H23.5011V14.5H22.0011V13ZM10.0011 5.5H13.0011V8.5H10.0011V5.5ZM5.50114 10.75C5.48664 10.572 5.54069 10.3953 5.65222 10.2559C5.76375 10.1164 5.92434 10.0249 6.10114 10H16.9011C17.0779 10.0249 17.2385 10.1164 17.3501 10.2559C17.4616 10.3953 17.5156 10.572 17.5011 10.75V24.25C17.5156 24.428 17.4616 24.6047 17.3501 24.7441C17.2385 24.8836 17.0779 24.9751 16.9011 25H6.10114C5.92434 24.9751 5.76375 24.8836 5.65222 24.7441C5.54069 24.6047 5.48664 24.428 5.50114 24.25V10.75ZM26.5011 24.4C26.4762 24.5768 26.3847 24.7374 26.2453 24.8489C26.1059 24.9605 25.9291 25.0145 25.7511 25H19.7511C19.5732 25.0145 19.3964 24.9605 19.257 24.8489C19.1176 24.7374 19.0261 24.5768 19.0011 24.4V16.6C19.0261 16.4232 19.1176 16.2626 19.257 16.1511C19.3964 16.0395 19.5732 15.9855 19.7511 16H25.7511C25.9291 15.9855 26.1059 16.0395 26.2453 16.1511C26.3847 16.2626 26.4762 16.4232 26.5011 16.6V24.4Z" fill="white"/>
<path id="Path 8606" d="M7.75098 12.25H9.25098V22.75H7.75098V12.25Z" fill="white"/>
<path id="Path 8607" d="M10.751 12.25H12.251V22.75H10.751V12.25Z" fill="white"/>
<path id="Path 8608" d="M13.751 12.25H15.251V22.75H13.751V12.25Z" fill="white"/>
<path id="Path 8609" d="M22.9653 22.625L24.026 21.5643L25.5244 23.0627L24.4637 24.1234L22.9653 22.625Z" fill="white"/>
<path id="Path 8610" d="M22.0142 17.6875L20.5142 19.9375H23.5142L22.0142 17.6875Z" fill="white"/>
</g>
</g>
</svg>
