<svg width="32" height="32" viewBox="0 0 32 32" fill="none" xmlns="http://www.w3.org/2000/svg">
<g id="Production/Operation">
<g id="box">
<path id="Path 8682" d="M28 5H4V12.031H5.453V26.094H26.547V12.031H28V5ZM25.141 24.688H6.859V12.031H25.141V24.688ZM26.594 10.626H5.406V6.406H26.594V10.626Z" fill="white"/>
<path id="Path 8683" d="M13.1871 17.6565H18.8121C19.3716 17.6565 19.9082 17.4342 20.3038 17.0386C20.6994 16.643 20.9216 16.1065 20.9216 15.547C20.9216 14.9875 20.6994 14.451 20.3038 14.0554C19.9082 13.6598 19.3716 13.4375 18.8121 13.4375H13.1871C12.6277 13.4375 12.0911 13.6598 11.6955 14.0554C11.2999 14.451 11.0776 14.9875 11.0776 15.547C11.0776 16.1065 11.2999 16.643 11.6955 17.0386C12.0911 17.4342 12.6277 17.6565 13.1871 17.6565ZM13.1871 14.8445H18.8121C18.9986 14.8445 19.1774 14.9186 19.3092 15.0504C19.4411 15.1822 19.5151 15.3611 19.5151 15.5475C19.5151 15.7339 19.4411 15.9128 19.3092 16.0446C19.1774 16.1764 18.9986 16.2505 18.8121 16.2505H13.1871C13.0007 16.2505 12.8219 16.1764 12.69 16.0446C12.5582 15.9128 12.4841 15.7339 12.4841 15.5475C12.4841 15.3611 12.5582 15.1822 12.69 15.0504C12.8219 14.9186 13.0007 14.8445 13.1871 14.8445Z" fill="white"/>
</g>
</g>
</svg>
