<svg width="32" height="32" viewBox="0 0 32 32" fill="none" xmlns="http://www.w3.org/2000/svg">
<g id="Boiler Operator">
<g id="Group">
<path id="Vector" d="M5.7337 6.74063C5.582 6.91075 5.48926 7.13342 5.48926 7.37796C5.48926 7.91136 5.92701 8.34375 6.46704 8.34375C7.00707 8.34375 7.44483 7.91136 7.44483 7.37796C7.44483 7.13342 7.35208 6.91075 7.20038 6.74063" stroke="white" stroke-miterlimit="10" stroke-linecap="round" stroke-linejoin="round"/>
<path id="Vector_2" d="M9.40003 12.9297H5.73334C5.32834 12.9297 5 12.6054 5 12.2053C5 11.8053 5.32834 11.481 5.73334 11.481H6.46668V8.34216" stroke="white" stroke-miterlimit="10" stroke-linecap="round" stroke-linejoin="round"/>
<path id="Vector_3" d="M19.6671 8.58361C19.6671 10.9839 17.6972 12.9297 15.2671 12.9297" stroke="white" stroke-miterlimit="10" stroke-linecap="round" stroke-linejoin="round"/>
<path id="Vector_4" d="M13.7998 22.1087V27.5171L15.2665 28" stroke="white" stroke-miterlimit="10" stroke-linecap="round" stroke-linejoin="round"/>
<path id="Vector_5" d="M10.8671 22.1087V27.5171L9.40039 28" stroke="white" stroke-miterlimit="10" stroke-linecap="round" stroke-linejoin="round"/>
<path id="Vector_6" d="M14.2893 11.9685H10.3782C9.83814 11.9685 9.40039 12.4009 9.40039 12.9343V14.383C9.40039 14.899 9.69544 15.3492 10.1337 15.5903V21.385C10.1337 21.7851 10.4621 22.1094 10.8671 22.1094C11.2721 22.1094 11.6004 21.7851 11.6004 21.385V19.8122C11.8359 19.8945 12.0839 19.9365 12.3337 19.9363C12.5836 19.9365 12.8316 19.8945 13.0671 19.8122V21.385C13.0671 21.7851 13.3954 22.1094 13.8004 22.1094C14.2054 22.1094 14.5338 21.7851 14.5338 21.385V15.5903C14.972 15.3492 15.2671 14.899 15.2671 14.383V12.9343C15.2671 12.4009 14.8293 11.9685 14.2893 11.9685Z" stroke="white" stroke-miterlimit="10" stroke-linecap="round" stroke-linejoin="round"/>
<path id="Vector_7" d="M10.1333 15.5859C10.5383 15.5859 10.8666 15.2616 10.8666 14.8616V11.9642" stroke="white" stroke-miterlimit="10" stroke-linecap="round" stroke-linejoin="round"/>
<path id="Vector_8" d="M14.5331 15.5859C14.1281 15.5859 13.7998 15.2616 13.7998 14.8616V11.9642" stroke="white" stroke-miterlimit="10" stroke-linecap="round" stroke-linejoin="round"/>
<path id="Vector_9" d="M14.5333 8.34259C14.5333 9.54273 13.5484 10.5156 12.3333 10.5156C11.1183 10.5156 10.1333 9.54273 10.1333 8.34259C10.1333 7.14244 11.1183 6.16955 12.3333 6.16955C13.5484 6.16955 14.5333 7.14244 14.5333 8.34259Z" stroke="white" stroke-miterlimit="10" stroke-linecap="round" stroke-linejoin="round"/>
<path id="Vector_10" d="M14.5333 8.34375V6.17071C14.5333 4.97057 13.5484 3.99767 12.3333 3.99767C11.1183 3.99767 10.1333 4.97057 10.1333 6.17071V8.34375" stroke="white" stroke-miterlimit="10" stroke-linecap="round" stroke-linejoin="round"/>
<path id="Vector_11" d="M25.1673 5.44531V5.08314C25.1673 4.48309 24.6748 3.99662 24.0673 3.99662C23.4597 3.99662 22.9673 4.48309 22.9673 5.08314V5.44531" stroke="white" stroke-miterlimit="10" stroke-linecap="round" stroke-linejoin="round"/>
<path id="Vector_12" d="M27 13.4141H21.1333V6.1706C21.1333 5.77057 21.4616 5.44626 21.8666 5.44626H26.2667C26.6717 5.44626 27 5.77057 27 6.1706V13.4141Z" stroke="white" stroke-miterlimit="10" stroke-linecap="round" stroke-linejoin="round"/>
<path id="Vector_13" d="M27 9.07031H21.1333" stroke="white" stroke-miterlimit="10" stroke-linecap="round" stroke-linejoin="round"/>
<path id="Vector_14" d="M25.5335 11.9688H22.6001V10.5201H25.5335V11.9688Z" stroke="white" stroke-miterlimit="10" stroke-linecap="round" stroke-linejoin="round"/>
<path id="Vector_15" d="M23.3335 13.4163V14.1406" stroke="white" stroke-miterlimit="10" stroke-linecap="round" stroke-linejoin="round"/>
<path id="Vector_16" d="M24.8003 13.4163V14.1406" stroke="white" stroke-miterlimit="10" stroke-linecap="round" stroke-linejoin="round"/>
</g>
</g>
</svg>
