<svg width="32" height="32" viewBox="0 0 32 32" fill="none" xmlns="http://www.w3.org/2000/svg">
<g id="CAD Operator">
<g id="Group 39524">
<g id="Group 6443">
<g id="Group 6442">
<path id="Path 8722" d="M25.891 4H6.109C5.5499 4.00079 5.01393 4.22325 4.61859 4.61859C4.22325 5.01393 4.00079 5.5499 4 6.109V20.219C4.00079 20.7781 4.22325 21.3141 4.61859 21.7094C5.01393 22.1048 5.5499 22.3272 6.109 22.328H12.484V23.852C11.6901 24.0154 10.9769 24.4476 10.4646 25.0757C9.95233 25.7039 9.67239 26.4895 9.672 27.3C9.672 27.4857 9.74575 27.6637 9.87703 27.795C10.0083 27.9263 10.1863 28 10.372 28H21.622C21.8077 28 21.9857 27.9263 22.117 27.795C22.2482 27.6637 22.322 27.4857 22.322 27.3C22.3209 26.49 22.0407 25.7051 21.5285 25.0776C21.0162 24.4501 20.3034 24.0183 19.51 23.855V22.328H25.885C26.1624 22.3284 26.4371 22.2742 26.6935 22.1684C26.9498 22.0626 27.1829 21.9074 27.3793 21.7115C27.5757 21.5157 27.7316 21.2831 27.8381 21.027C27.9446 20.7709 27.9996 20.4964 28 20.219V6.109C27.9992 5.5499 27.7768 5.01393 27.3814 4.61859C26.9861 4.22325 26.4501 4.00079 25.891 4ZM20.8 26.594H11.2C11.3459 26.183 11.6154 25.8273 11.9715 25.5756C12.3276 25.3238 12.7529 25.1885 13.189 25.188H18.814C19.2496 25.1891 19.6742 25.3247 20.0297 25.5764C20.3852 25.8281 20.6543 26.1835 20.8 26.594ZM13.891 23.781V22.328H18.11V23.781H13.891ZM26.591 20.219C26.591 20.3109 26.5729 20.402 26.5377 20.4869C26.5025 20.5718 26.451 20.649 26.386 20.714C26.321 20.779 26.2438 20.8305 26.1589 20.8657C26.0739 20.9009 25.9829 20.919 25.891 20.919H6.109C5.92335 20.919 5.7453 20.8452 5.61403 20.714C5.48275 20.5827 5.409 20.4047 5.409 20.219V19.519H26.594L26.591 20.219ZM26.591 18.11H5.406V6.11C5.406 5.92435 5.47975 5.7463 5.61103 5.61503C5.7423 5.48375 5.92035 5.41 6.106 5.41H25.891C26.0767 5.41 26.2547 5.48375 26.386 5.61503C26.5173 5.7463 26.591 5.92435 26.591 6.11V18.11Z" fill="white"/>
</g>
</g>
<g id="Group 6445">
<g id="Group 6444">
<path id="Path 8723" d="M11.7818 8.26562H8.91882C8.73237 8.26562 8.55356 8.33969 8.42172 8.47153C8.28988 8.60337 8.21582 8.78218 8.21582 8.96863C8.21582 9.15508 8.28988 9.33388 8.42172 9.46572C8.55356 9.59756 8.73237 9.67162 8.91882 9.67162H11.7778C11.9643 9.67162 12.1431 9.59756 12.2749 9.46572C12.4068 9.33388 12.4808 9.15508 12.4808 8.96863C12.4808 8.78218 12.4068 8.60337 12.2749 8.47153C12.1431 8.33969 11.9643 8.26562 11.7778 8.26562H11.7818Z" fill="white"/>
</g>
</g>
<g id="Group 6447">
<g id="Group 6446">
<path id="Path 8724" d="M11.7818 11.0781H8.91882C8.73237 11.0781 8.55356 11.1522 8.42172 11.284C8.28988 11.4159 8.21582 11.5947 8.21582 11.7811C8.21582 11.9676 8.28988 12.1464 8.42172 12.2782C8.55356 12.4101 8.73237 12.4841 8.91882 12.4841H11.7778C11.9643 12.4841 12.1431 12.4101 12.2749 12.2782C12.4068 12.1464 12.4808 11.9676 12.4808 11.7811C12.4808 11.5947 12.4068 11.4159 12.2749 11.284C12.1431 11.1522 11.9643 11.0781 11.7778 11.0781H11.7818Z" fill="white"/>
</g>
</g>
<g id="Group 6449">
<g id="Group 6448">
<path id="Path 8725" d="M11.7818 13.8906H8.91882C8.73237 13.8906 8.55356 13.9647 8.42172 14.0965C8.28988 14.2284 8.21582 14.4072 8.21582 14.5936C8.21582 14.7801 8.28988 14.9589 8.42172 15.0907C8.55356 15.2226 8.73237 15.2966 8.91882 15.2966H11.7778C11.9643 15.2966 12.1431 15.2226 12.2749 15.0907C12.4068 14.9589 12.4808 14.7801 12.4808 14.5936C12.4808 14.4072 12.4068 14.2284 12.2749 14.0965C12.1431 13.9647 11.9643 13.8906 11.7778 13.8906H11.7818Z" fill="white"/>
</g>
</g>
<g id="Group 6451">
<g id="Group 6450">
<path id="Path 8726" d="M23.388 9.01866C23.305 8.96966 24.014 9.39865 19.888 6.89865C19.7784 6.83208 19.6527 6.79688 19.5245 6.79688C19.3963 6.79688 19.2705 6.83208 19.161 6.89865L15.642 9.01765C15.536 9.07975 15.4481 9.1684 15.3869 9.27485C15.3257 9.3813 15.2933 9.50187 15.293 9.62466V13.8737C15.293 13.9945 15.3244 14.1133 15.384 14.2184C15.4435 14.3236 15.5293 14.4115 15.633 14.4737L19.149 16.5987C19.2588 16.6646 19.3844 16.6994 19.5125 16.6994C19.6405 16.6994 19.7662 16.6646 19.876 16.5987L23.392 14.4737C23.4954 14.4114 23.581 14.3234 23.6404 14.2183C23.6998 14.1131 23.731 13.9944 23.731 13.8737V9.62366C23.7305 9.50186 23.6987 9.38224 23.6386 9.27628C23.5786 9.17033 23.4922 9.08161 23.388 9.01866ZM19.078 15.6517L16.006 13.8737V10.9267L19.078 12.1447V15.6517ZM19.698 11.0907L16.544 9.81565L19.482 7.89566L22.816 9.81565L19.698 11.0907ZM22.998 13.8777L20.014 15.6557V12.1457L22.998 10.9277V13.8777Z" fill="white"/>
</g>
</g>
</g>
</g>
</svg>
