<svg width="32" height="32" viewBox="0 0 32 32" fill="none" xmlns="http://www.w3.org/2000/svg">
<g id="Engineer/Architect">
<g id="building-front">
<g id="Group 6010">
<path id="Path 8582" d="M24.7576 4.25401C24.6837 4.17311 24.5947 4.10887 24.4962 4.06519C24.3978 4.02152 24.2918 3.99934 24.1849 4.00001H7.81813C7.7112 3.99934 7.60526 4.02152 7.50678 4.06519C7.40831 4.10887 7.31937 4.17311 7.2454 4.25401C7.16817 4.33151 7.10685 4.42468 7.06516 4.52784C7.02347 4.63101 7.0023 4.74199 7.00294 4.85401V27.143C7.00591 27.3693 7.09304 27.5855 7.24582 27.7456C7.3986 27.9056 7.60496 27.9969 7.82099 28H24.182C24.3981 27.9969 24.6044 27.9056 24.7572 27.7456C24.91 27.5855 24.9971 27.3693 25.0001 27.143V4.85701C25.0011 4.7445 24.9801 4.63296 24.9384 4.52926C24.8967 4.42556 24.8352 4.33189 24.7576 4.25401ZM23.364 26.285H18.4547V23.285C18.4535 23.1718 18.4101 23.0636 18.3337 22.9834C18.2574 22.9033 18.1542 22.8576 18.0462 22.856H13.954C13.8458 22.8573 13.7423 22.9029 13.6658 22.9831C13.5893 23.0633 13.5457 23.1716 13.5445 23.285V26.285H8.63618V5.71401H23.364V26.285Z" fill="white"/>
<path id="Path 8583" d="M10.6825 22.8546H11.5005C11.6086 22.8531 11.7119 22.8074 11.7884 22.7273C11.8649 22.6471 11.9085 22.5389 11.91 22.4256V21.5686C11.9083 21.4555 11.8646 21.3475 11.7881 21.2676C11.7117 21.1877 11.6085 21.1422 11.5005 21.1406H10.6825C10.5744 21.1419 10.4711 21.1874 10.3946 21.2674C10.3181 21.3473 10.2744 21.4554 10.2729 21.5686V22.4256C10.2742 22.539 10.3177 22.6474 10.3943 22.7275C10.4708 22.8077 10.5742 22.8533 10.6825 22.8546Z" fill="white"/>
<path id="Path 8584" d="M10.6825 19.4249H11.5005C11.6087 19.4236 11.7122 19.378 11.7887 19.2979C11.8652 19.2177 11.9088 19.1093 11.91 18.9959V18.1389C11.9085 18.0257 11.8649 17.9176 11.7884 17.8377C11.7119 17.7577 11.6086 17.7122 11.5005 17.7109H10.6825C10.5744 17.7122 10.4711 17.7577 10.3946 17.8377C10.3181 17.9176 10.2744 18.0257 10.2729 18.1389V18.9959C10.2742 19.1093 10.3177 19.2177 10.3943 19.2979C10.4708 19.378 10.5742 19.4236 10.6825 19.4249Z" fill="white"/>
<path id="Path 8585" d="M13.9549 19.4249H14.773C14.8812 19.4236 14.9846 19.378 15.0611 19.2979C15.1377 19.2177 15.1812 19.1093 15.1825 18.9959V18.1389C15.181 18.0257 15.1373 17.9176 15.0608 17.8377C14.9843 17.7577 14.881 17.7122 14.773 17.7109H13.9549C13.8469 17.7122 13.7435 17.7577 13.667 17.8377C13.5905 17.9176 13.5469 18.0257 13.5454 18.1389V18.9959C13.5466 19.1093 13.5902 19.2177 13.6667 19.2979C13.7433 19.378 13.8467 19.4236 13.9549 19.4249Z" fill="white"/>
<path id="Path 8586" d="M10.6825 16.0021H11.5005C11.6086 16.0005 11.7119 15.9548 11.7884 15.8747C11.8649 15.7946 11.9085 15.6864 11.91 15.5731V14.7181C11.9085 14.6048 11.8649 14.4965 11.7884 14.4164C11.7119 14.3363 11.6086 14.2906 11.5005 14.2891H10.6825C10.5742 14.2904 10.4708 14.336 10.3943 14.4162C10.3177 14.4963 10.2742 14.6047 10.2729 14.7181V15.5751C10.2742 15.6884 10.3177 15.7968 10.3943 15.877C10.4708 15.9572 10.5742 16.0028 10.6825 16.0041V16.0021Z" fill="white"/>
<path id="Path 8587" d="M20.5004 22.8546H21.3184C21.4265 22.8531 21.5297 22.8073 21.606 22.7272C21.6823 22.6471 21.7257 22.5388 21.727 22.4256V21.5686C21.7255 21.4556 21.682 21.3476 21.6057 21.2677C21.5294 21.1878 21.4263 21.1422 21.3184 21.1406H20.5004C20.3925 21.1422 20.2894 21.1878 20.2131 21.2677C20.1368 21.3476 20.0933 21.4556 20.0918 21.5686V22.4256C20.093 22.5388 20.1365 22.6471 20.2128 22.7272C20.2891 22.8073 20.3923 22.8531 20.5004 22.8546Z" fill="white"/>
<path id="Path 8588" d="M17.2279 19.4249H18.0459C18.1541 19.4236 18.2574 19.378 18.3338 19.2978C18.4101 19.2176 18.4535 19.1092 18.4545 18.9959V18.1389C18.4532 18.0258 18.4098 17.9177 18.3334 17.8377C18.2571 17.7578 18.1539 17.7122 18.0459 17.7109H17.2279C17.1198 17.7122 17.0165 17.7577 16.94 17.8377C16.8635 17.9176 16.8198 18.0257 16.8184 18.1389V18.9959C16.8196 19.1093 16.8631 19.2177 16.9397 19.2979C17.0162 19.378 17.1197 19.4236 17.2279 19.4249Z" fill="white"/>
<path id="Path 8589" d="M13.9549 16.0021H14.773C14.8811 16.0005 14.9844 15.9548 15.0609 15.8747C15.1374 15.7946 15.181 15.6864 15.1825 15.5731V14.7181C15.181 14.6048 15.1374 14.4965 15.0609 14.4164C14.9844 14.3363 14.8811 14.2906 14.773 14.2891H13.9549C13.8467 14.2904 13.7433 14.336 13.6667 14.4162C13.5902 14.4963 13.5466 14.6047 13.5454 14.7181V15.5751C13.5466 15.6884 13.5902 15.7968 13.6667 15.877C13.7433 15.9572 13.8467 16.0028 13.9549 16.0041V16.0021Z" fill="white"/>
<path id="Path 8590" d="M10.6825 12.5744H11.5005C11.6086 12.5728 11.7119 12.5271 11.7884 12.447C11.8649 12.3669 11.9085 12.2587 11.91 12.1454V11.2884C11.9085 11.1751 11.8649 11.0669 11.7884 10.9867C11.7119 10.9066 11.6086 10.8609 11.5005 10.8594H10.6825C10.5743 10.8609 10.471 10.9066 10.3945 10.9867C10.318 11.0669 10.2744 11.1751 10.2729 11.2884V12.1454C10.2742 12.2587 10.3177 12.3671 10.3943 12.4473C10.4708 12.5275 10.5742 12.5731 10.6825 12.5744Z" fill="white"/>
<path id="Path 8591" d="M20.5004 19.4249H21.3184C21.4265 19.4234 21.5297 19.3777 21.606 19.2975C21.6823 19.2174 21.7257 19.1091 21.727 18.9959V18.1389C21.7255 18.0259 21.682 17.9179 21.6057 17.838C21.5294 17.7581 21.4263 17.7125 21.3184 17.7109H20.5004C20.3925 17.7125 20.2894 17.7581 20.2131 17.838C20.1368 17.9179 20.0933 18.0259 20.0918 18.1389V18.9959C20.093 19.1091 20.1365 19.2174 20.2128 19.2975C20.2891 19.3777 20.3923 19.4234 20.5004 19.4249Z" fill="white"/>
<path id="Path 8592" d="M17.2279 16.0021H18.0459C18.154 16.0005 18.2572 15.9548 18.3335 15.8746C18.4098 15.7945 18.4532 15.6863 18.4545 15.5731V14.7181C18.4532 14.6049 18.4098 14.4966 18.3335 14.4165C18.2572 14.3364 18.154 14.2906 18.0459 14.2891H17.2279C17.1197 14.2904 17.0162 14.336 16.9397 14.4162C16.8631 14.4963 16.8196 14.6047 16.8184 14.7181V15.5751C16.8196 15.6884 16.8631 15.7968 16.9397 15.877C17.0162 15.9572 17.1197 16.0028 17.2279 16.0041V16.0021Z" fill="white"/>
<path id="Path 8593" d="M13.9549 12.5744H14.773C14.8811 12.5728 14.9844 12.5271 15.0609 12.447C15.1374 12.3669 15.181 12.2587 15.1825 12.1454V11.2884C15.181 11.1751 15.1374 11.0669 15.0609 10.9867C14.9844 10.9066 14.8811 10.8609 14.773 10.8594H13.9549C13.8468 10.8609 13.7435 10.9066 13.667 10.9867C13.5905 11.0669 13.5469 11.1751 13.5454 11.2884V12.1454C13.5466 12.2587 13.5902 12.3671 13.6667 12.4473C13.7433 12.5275 13.8467 12.5731 13.9549 12.5744Z" fill="white"/>
<path id="Path 8594" d="M10.6825 9.13688H11.5005C11.6086 9.13533 11.7119 9.08963 11.7884 9.00951C11.8649 8.92939 11.9085 8.82117 11.91 8.70788V7.85088C11.9085 7.73758 11.8649 7.62936 11.7884 7.54924C11.7119 7.46912 11.6086 7.42343 11.5005 7.42188H10.6825C10.5742 7.42317 10.4708 7.46879 10.3943 7.54897C10.3177 7.62914 10.2742 7.7375 10.2729 7.85088V8.70788C10.2742 8.82125 10.3177 8.92962 10.3943 9.00979C10.4708 9.08996 10.5742 9.13558 10.6825 9.13688Z" fill="white"/>
<path id="Path 8595" d="M20.5004 16.0021H21.3184C21.4265 16.0005 21.5297 15.9548 21.606 15.8746C21.6823 15.7945 21.7257 15.6863 21.727 15.5731V14.7181C21.7257 14.6049 21.6823 14.4966 21.606 14.4165C21.5297 14.3364 21.4265 14.2906 21.3184 14.2891H20.5004C20.3923 14.2906 20.2891 14.3364 20.2128 14.4165C20.1365 14.4966 20.093 14.6049 20.0918 14.7181V15.5751C20.093 15.6883 20.1365 15.7965 20.2128 15.8766C20.2891 15.9568 20.3923 16.0025 20.5004 16.0041V16.0021Z" fill="white"/>
<path id="Path 8596" d="M17.2279 12.5744H18.0459C18.154 12.5728 18.2572 12.5271 18.3335 12.4469C18.4098 12.3668 18.4532 12.2586 18.4545 12.1454V11.2884C18.4532 11.1752 18.4098 11.067 18.3335 10.9868C18.2572 10.9067 18.154 10.8609 18.0459 10.8594H17.2279C17.1197 10.8609 17.0164 10.9066 16.94 10.9867C16.8635 11.0669 16.8198 11.1751 16.8184 11.2884V12.1454C16.8196 12.2587 16.8631 12.3671 16.9397 12.4473C17.0162 12.5275 17.1197 12.5731 17.2279 12.5744Z" fill="white"/>
<path id="Path 8597" d="M13.9549 9.13688H14.773C14.8811 9.13533 14.9844 9.08963 15.0609 9.00951C15.1374 8.92939 15.181 8.82117 15.1825 8.70788V7.85088C15.181 7.73758 15.1374 7.62936 15.0609 7.54924C14.9844 7.46912 14.8811 7.42343 14.773 7.42188H13.9549C13.8467 7.42317 13.7433 7.46879 13.6667 7.54897C13.5902 7.62914 13.5466 7.7375 13.5454 7.85088V8.70788C13.5466 8.82125 13.5902 8.92962 13.6667 9.00979C13.7433 9.08996 13.8467 9.13558 13.9549 9.13688Z" fill="white"/>
<path id="Path 8598" d="M20.5004 12.5744H21.3184C21.4265 12.5728 21.5297 12.5271 21.606 12.4469C21.6823 12.3668 21.7257 12.2586 21.727 12.1454V11.2884C21.7257 11.1752 21.6823 11.067 21.606 10.9868C21.5297 10.9067 21.4265 10.8609 21.3184 10.8594H20.5004C20.3924 10.8612 20.2893 10.907 20.213 10.9871C20.1368 11.0672 20.0933 11.1753 20.0918 11.2884V12.1454C20.093 12.2586 20.1365 12.3668 20.2128 12.4469C20.2891 12.5271 20.3923 12.5728 20.5004 12.5744Z" fill="white"/>
<path id="Path 8599" d="M17.2279 9.13688H18.0459C18.154 9.13532 18.2572 9.08959 18.3335 9.00945C18.4098 8.9293 18.4532 8.82108 18.4545 8.70788V7.85088C18.4532 7.73767 18.4098 7.62945 18.3335 7.54931C18.2572 7.46916 18.154 7.42343 18.0459 7.42188H17.2279C17.1197 7.42317 17.0162 7.46879 16.9397 7.54897C16.8631 7.62914 16.8196 7.7375 16.8184 7.85088V8.70788C16.8196 8.82125 16.8631 8.92962 16.9397 9.00979C17.0162 9.08996 17.1197 9.13558 17.2279 9.13688Z" fill="white"/>
<path id="Path 8600" d="M20.5004 9.13688H21.3184C21.4265 9.13532 21.5297 9.08959 21.606 9.00945C21.6823 8.9293 21.7257 8.82108 21.727 8.70788V7.85088C21.7257 7.73767 21.6823 7.62945 21.606 7.54931C21.5297 7.46916 21.4265 7.42343 21.3184 7.42188H20.5004C20.3923 7.42343 20.2891 7.46916 20.2128 7.54931C20.1365 7.62945 20.093 7.73767 20.0918 7.85088V8.70788C20.093 8.82108 20.1365 8.9293 20.2128 9.00945C20.2891 9.08959 20.3923 9.13532 20.5004 9.13688Z" fill="white"/>
</g>
</g>
</g>
</svg>
