<svg width="32" height="32" viewBox="0 0 32 32" fill="none" xmlns="http://www.w3.org/2000/svg">
<g id="Carpenter">
<g id="saw">
<path id="Path 8729" d="M27.8339 9.95266C27.8032 9.70963 27.7204 9.47773 27.5919 9.27553C27.4635 9.07332 27.2931 8.90643 27.0942 8.7882L24.5474 7.25872C24.3463 7.13683 24.1839 6.95226 24.0814 6.72911C23.9789 6.50596 23.941 6.25459 23.9726 6.0078L24.0378 5.5115C24.07 5.26617 24.03 5.01612 23.9235 4.7967C23.817 4.57729 23.6494 4.39961 23.4443 4.2888C23.2393 4.17799 23.0072 4.13966 22.7809 4.17922C22.5546 4.21879 22.3455 4.33425 22.1832 4.50927L16.1306 11.0509L4.46788 23.655C4.26302 23.8766 4.14795 24.177 4.14795 24.4902C4.14795 24.8035 4.26302 25.1039 4.46788 25.3254L6.78463 27.7323L6.79154 27.7387L6.80833 27.7547L6.82018 27.7643L6.83499 27.776L6.85178 27.7867L6.86363 27.7942L6.88733 27.8059H6.89326L6.91794 27.8155H6.92584L6.94658 27.8208H6.95942H6.97028C6.98869 27.8224 7.00718 27.8224 7.02558 27.8208H7.06706H7.0799C7.09425 27.8182 7.10843 27.8147 7.12236 27.8102C7.1372 27.8052 7.15172 27.7991 7.16581 27.792H7.1747L7.21025 27.7707H7.21618C7.22862 27.7616 7.24049 27.7516 7.25173 27.7408L7.26161 27.7312L7.27444 27.7184L7.28531 27.7056L7.29419 27.6949C7.30386 27.6824 7.31276 27.6692 7.32086 27.6554V27.649C7.32829 27.6352 7.33488 27.621 7.34061 27.6063L7.78006 26.4525L8.52762 26.5785C8.61556 26.5935 8.70548 26.5715 8.77893 26.5171C8.85238 26.4628 8.9038 26.3801 8.92263 26.286L9.08558 25.5303L9.77685 25.6478C9.86479 25.6627 9.95471 25.6408 10.0282 25.5864C10.1016 25.532 10.153 25.4494 10.1719 25.3553L10.3249 24.5954L11.0162 24.7128C11.1041 24.7278 11.1941 24.7058 11.2675 24.6514C11.341 24.5971 11.3924 24.5144 11.4112 24.4203L11.5643 23.6615L12.2556 23.7789C12.3435 23.7938 12.4334 23.7719 12.5069 23.7175C12.5803 23.6631 12.6317 23.5805 12.6506 23.4864L12.8036 22.7275L13.4949 22.8449C13.5829 22.8599 13.6728 22.838 13.7462 22.7836C13.8197 22.7292 13.8711 22.6465 13.8899 22.5525L14.042 21.7947L14.7333 21.9121C14.8212 21.9271 14.9111 21.9051 14.9846 21.8508C15.058 21.7964 15.1095 21.7137 15.1283 21.6197L15.2814 20.8608L15.9726 20.9793C16.0606 20.9942 16.1505 20.9723 16.2239 20.9179C16.2974 20.8635 16.3488 20.7808 16.3676 20.6868L16.5197 19.9301L17.211 20.0485C17.2989 20.0635 17.3889 20.0416 17.4623 19.9872C17.5358 19.9328 17.5872 19.8501 17.606 19.7561L17.7591 18.9972L18.4503 19.1157C18.5383 19.1307 18.6282 19.1087 18.7017 19.0544C18.7751 19 18.8265 18.9173 18.8454 18.8232L18.9965 18.0665L19.6877 18.185C19.7757 18.2 19.8656 18.178 19.939 18.1236C20.0125 18.0693 20.0639 17.9866 20.0827 17.8925L20.2358 17.1337L20.9271 17.2521C21.015 17.2671 21.1049 17.2452 21.1784 17.1908C21.2518 17.1364 21.3033 17.0537 21.3221 16.9597L21.4742 16.2008L22.1654 16.3182C22.2534 16.3332 22.3433 16.3113 22.4168 16.2569C22.4902 16.2025 22.5416 16.1198 22.5605 16.0258L22.7125 15.268L23.4038 15.3854C23.4202 15.3866 23.4367 15.3866 23.4532 15.3854H23.4996H23.5203H23.5322L23.5529 15.38H23.5648L23.5845 15.3726H23.5964L23.6151 15.363L23.627 15.3566L23.6438 15.3459L23.6556 15.3373L23.7011 15.3117L23.7119 15.3021L23.7277 15.2861L23.7336 15.2808L27.4241 11.2922C27.5843 11.1189 27.7047 10.9075 27.7759 10.6749C27.8471 10.4423 27.8669 10.195 27.8339 9.95266ZM21.2777 15.396C21.1897 15.3811 21.0998 15.403 21.0263 15.4574C20.9529 15.5118 20.9015 15.5944 20.8826 15.6885L20.7306 16.4463L20.0393 16.3289C19.9513 16.3139 19.8614 16.3358 19.788 16.3902C19.7145 16.4446 19.6631 16.5273 19.6443 16.6213L19.4922 17.3791L18.8009 17.2607C18.713 17.2457 18.6231 17.2676 18.5496 17.322C18.4762 17.3764 18.4247 17.4591 18.4059 17.5531L18.2548 18.3099L17.5635 18.1925C17.4756 18.1775 17.3857 18.1994 17.3122 18.2538C17.2388 18.3082 17.1874 18.3909 17.1685 18.4849L17.0155 19.2438L16.3242 19.1253C16.2362 19.1103 16.1463 19.1323 16.0729 19.1866C15.9994 19.241 15.948 19.3237 15.9292 19.4177L15.7771 20.1745L15.0858 20.056C14.9979 20.041 14.908 20.063 14.8345 20.1173C14.7611 20.1717 14.7096 20.2544 14.6908 20.3485L14.5377 21.1073L13.8465 20.9899C13.7585 20.9749 13.6686 20.9969 13.5952 21.0513C13.5217 21.1056 13.4703 21.1883 13.4515 21.2824L13.2994 22.0402L12.6081 21.9228C12.5202 21.9078 12.4302 21.9297 12.3568 21.9841C12.2833 22.0385 12.2319 22.1212 12.2131 22.2152L12.0482 22.9794L11.3569 22.862C11.269 22.847 11.179 22.869 11.1056 22.9234C11.0321 22.9777 10.9807 23.0604 10.9619 23.1545L10.8088 23.9144L10.1175 23.797C10.0296 23.782 9.93969 23.804 9.86624 23.8583C9.79279 23.9127 9.74137 23.9954 9.72254 24.0895L9.56947 24.8494L8.8782 24.732C8.79025 24.717 8.70034 24.7389 8.62689 24.7933C8.55344 24.8477 8.50202 24.9304 8.48318 25.0244L8.33012 25.7844L7.63884 25.667C7.56141 25.6541 7.48222 25.6698 7.41399 25.7114C7.34577 25.753 7.29245 25.8182 7.26259 25.8964L6.91301 26.8133L4.95967 24.7907C4.8861 24.7107 4.8448 24.6025 4.8448 24.4897C4.8448 24.3769 4.8861 24.2687 4.95967 24.1887L16.3755 11.8504L17.211 12.7533C17.5763 13.1475 18.0211 13.4448 18.5106 13.6221L22.0914 14.9125L21.9689 15.5209L21.2777 15.396ZM26.9254 10.7542L23.388 14.5774L18.7338 12.9049C18.347 12.7649 17.9955 12.53 17.7067 12.2186L16.8713 11.3156L22.677 5.0408C22.7137 5.00111 22.7572 4.96962 22.8052 4.94813C22.8531 4.92665 22.9045 4.91559 22.9565 4.91559C23.0084 4.91559 23.0598 4.92665 23.1077 4.94813C23.1557 4.96962 23.1992 5.00111 23.2359 5.0408C23.2794 5.08775 23.312 5.145 23.3314 5.20799C23.3508 5.27099 23.3563 5.338 23.3475 5.4037L23.2823 5.9C23.2311 6.29794 23.292 6.70333 23.4573 7.06322C23.6226 7.42311 23.8844 7.72075 24.2086 7.91726L26.7555 9.44674C26.8594 9.50908 26.9484 9.59663 27.0157 9.70251C27.0829 9.80838 27.1265 9.92969 27.1429 10.0569C27.1594 10.184 27.1483 10.3136 27.1106 10.4354C27.0728 10.5571 27.0094 10.6677 26.9254 10.7585V10.7542Z" fill="white" stroke="white" stroke-width="0.3"/>
<path id="Path 8730" d="M24.6543 10.5474L21.1179 8.68067C20.9829 8.60937 20.8307 8.58545 20.6825 8.61224C20.5343 8.63903 20.3975 8.7152 20.2914 8.8301L18.499 10.7673C18.4665 10.8023 18.4407 10.8439 18.4231 10.8897C18.4055 10.9355 18.3965 10.9846 18.3965 11.0341C18.3965 11.0837 18.4055 11.1328 18.4231 11.1786C18.4407 11.2244 18.4665 11.266 18.499 11.301L18.5286 11.333C18.8939 11.7272 19.3387 12.0245 19.8282 12.2018L23.1088 13.3833C23.1703 13.4057 23.2363 13.409 23.2995 13.393C23.3626 13.3769 23.4204 13.3422 23.4663 13.2926L24.8488 11.7984C24.9298 11.7103 24.9902 11.6026 25.0249 11.4843C25.0596 11.3659 25.0676 11.2403 25.0483 11.1179C25.0289 10.9955 24.9828 10.8799 24.9138 10.7807C24.8447 10.6814 24.7547 10.6015 24.6513 10.5474H24.6543ZM24.358 11.2658L23.1256 12.5935L20.0494 11.4856C19.7609 11.3812 19.4914 11.2238 19.2525 11.0203L20.7851 9.36376C20.7891 9.36087 20.7937 9.35933 20.7984 9.35933C20.8032 9.35933 20.8078 9.36087 20.8118 9.36376L24.3481 11.2305C24.3516 11.232 24.3546 11.2345 24.3568 11.2377C24.3591 11.2409 24.3605 11.2447 24.361 11.2487C24.3617 11.2525 24.3615 11.2564 24.3605 11.2602C24.3595 11.2639 24.3576 11.2673 24.355 11.27L24.358 11.2658Z" fill="white"/>
<path id="Path 8731" d="M25.6404 9.4753L22.104 7.60854C22.0628 7.58681 22.0181 7.57407 21.9724 7.57102C21.9266 7.56798 21.8808 7.57471 21.8375 7.59081C21.7941 7.60692 21.7542 7.63209 21.7199 7.66489C21.6855 7.69769 21.6575 7.73748 21.6374 7.78198C21.6173 7.82648 21.6055 7.87483 21.6027 7.92426C21.5999 7.97368 21.6061 8.02323 21.621 8.07006C21.6359 8.11689 21.6592 8.16009 21.6896 8.19719C21.7199 8.23429 21.7567 8.26457 21.7979 8.2863L25.3323 10.1531C25.3734 10.1748 25.4182 10.1875 25.4639 10.1906C25.5096 10.1936 25.5555 10.1869 25.5988 10.1708C25.6421 10.1547 25.6821 10.1295 25.7164 10.0967C25.7508 10.0639 25.7788 10.0241 25.7989 9.97961C25.819 9.93511 25.8308 9.88676 25.8336 9.83734C25.8364 9.78791 25.8302 9.73836 25.8153 9.69153C25.8004 9.6447 25.7771 9.60151 25.7467 9.5644C25.7164 9.5273 25.6796 9.49703 25.6384 9.4753H25.6404Z" fill="white" stroke="white" stroke-width="0.3"/>
</g>
</g>
</svg>
