<svg width="32" height="32" viewBox="0 0 32 32" fill="none" xmlns="http://www.w3.org/2000/svg">
<path d="M27.3 23.7825H27.019V23.0825C27.0183 22.1842 26.7719 21.3031 26.3066 20.5346C25.8413 19.7661 25.1747 19.1395 24.379 18.7225C24.9262 18.2559 25.3171 17.6326 25.4991 16.9369C25.6811 16.2411 25.6453 15.5063 25.3966 14.8315C25.148 14.1567 24.6984 13.5744 24.1084 13.1631C23.5185 12.7518 22.8167 12.5312 22.0975 12.5312C21.3783 12.5312 20.6765 12.7518 20.0866 13.1631C19.4966 13.5744 19.047 14.1567 18.7984 14.8315C18.5497 15.5063 18.5139 16.2411 18.6959 16.9369C18.8779 17.6326 19.2688 18.2559 19.816 18.7225C19.0203 19.1395 18.3537 19.7661 17.8884 20.5346C17.4231 21.3031 17.1767 22.1842 17.176 23.0825V23.7825H13.226L12.757 22.3765H16C16.1857 22.3765 16.3637 22.3028 16.495 22.1715C16.6263 22.0402 16.7 21.8622 16.7 21.6765V14.6455C16.7 14.4599 16.6263 14.2818 16.495 14.1505C16.3637 14.0193 16.1857 13.9455 16 13.9455H4.75C4.56435 13.9455 4.3863 14.0193 4.25503 14.1505C4.12375 14.2818 4.05 14.4599 4.05 14.6455V21.6765C4.05 21.8622 4.12375 22.0402 4.25503 22.1715C4.3863 22.3028 4.56435 22.3765 4.75 22.3765H7.993L7.524 23.7825H4.7C4.51435 23.7825 4.3363 23.8563 4.20503 23.9875C4.07375 24.1188 4 24.2969 4 24.4825V27.2955C4 27.4812 4.07375 27.6592 4.20503 27.7905C4.3363 27.9218 4.51435 27.9955 4.7 27.9955H27.3C27.4857 27.9955 27.6637 27.9218 27.795 27.7905C27.9263 27.6592 28 27.4812 28 27.2955V24.4835C28.0001 24.3915 27.9821 24.3004 27.947 24.2153C27.9119 24.1303 27.8603 24.053 27.7953 23.9879C27.7303 23.9228 27.6531 23.8711 27.5681 23.8359C27.4831 23.8007 27.392 23.7825 27.3 23.7825ZM19.988 16.0485C19.988 15.6314 20.1117 15.2236 20.3434 14.8768C20.5752 14.53 20.9046 14.2597 21.2899 14.1001C21.6753 13.9404 22.0993 13.8987 22.5084 13.98C22.9176 14.0614 23.2933 14.2623 23.5883 14.5572C23.8832 14.8522 24.0841 15.228 24.1655 15.6371C24.2469 16.0462 24.2051 16.4702 24.0455 16.8556C23.8858 17.241 23.6155 17.5704 23.2687 17.8021C22.9219 18.0338 22.5141 18.1575 22.097 18.1575C21.5372 18.1578 21.0002 17.9358 20.604 17.5403C20.2078 17.1449 19.9848 16.6083 19.984 16.0485H19.988ZM18.582 23.0795C18.5976 22.1574 18.9748 21.2783 19.6324 20.6317C20.29 19.9852 21.1753 19.6228 22.0975 19.6228C23.0197 19.6228 23.905 19.9852 24.5626 20.6317C25.2202 21.2783 25.5974 22.1574 25.613 23.0795V23.7795H18.578L18.582 23.0795ZM5.453 15.3455H15.3V20.9705H5.453V15.3455ZM9.475 22.3765H11.275L11.744 23.7825H9.007L9.475 22.3765ZM26.593 26.5955H5.406V25.1895H26.594L26.593 26.5955Z" fill="white"/>
<path d="M9.43787 11.031H15.3189L17.9539 12.788C18.0597 12.8598 18.1833 12.9013 18.311 12.9078C18.4388 12.9144 18.5659 12.8858 18.6786 12.8252C18.7912 12.7646 18.8851 12.6743 18.9501 12.5641C19.015 12.4538 19.0485 12.3279 19.0469 12.2V11.031H19.7469C20.182 11.0307 20.5993 10.8578 20.9069 10.5501C21.2146 10.2424 21.3876 9.82514 21.3879 9.39V5.641C21.3876 5.20638 21.215 4.78959 20.908 4.48199C20.601 4.17438 20.1845 4.00106 19.7499 4H9.43787C9.00273 4.00026 8.5855 4.17324 8.27781 4.48093C7.97012 4.78862 7.79714 5.20586 7.79688 5.641V9.391C7.7974 9.82597 7.9705 10.2429 8.27816 10.5504C8.58582 10.8579 9.00291 11.0307 9.43787 11.031ZM9.20387 5.64C9.20414 5.57802 9.22888 5.51865 9.27271 5.47483C9.31653 5.431 9.37589 5.40626 9.43787 5.406H19.7499C19.8119 5.40626 19.8712 5.431 19.915 5.47483C19.9589 5.51865 19.9836 5.57802 19.9839 5.64V9.39C19.9836 9.45198 19.9589 9.51135 19.915 9.55517C19.8712 9.599 19.8119 9.62374 19.7499 9.624H18.3439C18.1582 9.624 17.9802 9.69775 17.8489 9.82903C17.7176 9.9603 17.6439 10.1383 17.6439 10.324V10.885L15.9209 9.743C15.8055 9.66586 15.6697 9.62479 15.5309 9.625H9.43787C9.37589 9.62474 9.31653 9.6 9.27271 9.55617C9.22888 9.51235 9.20414 9.45298 9.20387 9.391V5.64Z" fill="white"/>
<path d="M11.309 8.2185H17.872C18.0584 8.2185 18.2372 8.14443 18.3691 8.0126C18.5009 7.88076 18.575 7.70195 18.575 7.5155C18.575 7.32905 18.5009 7.15024 18.3691 7.0184C18.2372 6.88656 18.0584 6.8125 17.872 6.8125H11.309C11.1225 6.8125 10.9437 6.88656 10.8119 7.0184C10.68 7.15024 10.606 7.32905 10.606 7.5155C10.606 7.70195 10.68 7.88076 10.8119 8.0126C10.9437 8.14443 11.1225 8.2185 11.309 8.2185Z" fill="white"/>
</svg>
