<svg width="32" height="32" viewBox="0 0 32 32" fill="none" xmlns="http://www.w3.org/2000/svg">
<g id="Garments technician/Machine operator">
<g id="Group 6469">
<path id="Path 8780" d="M26.8754 6.51629L25.4636 5.11254C25.0051 4.67079 24.3984 4.4141 23.7608 4.39216C23.1232 4.37022 22.5002 4.58459 22.0122 4.99378L19.5337 7.13542C19.5019 7.16342 19.4749 7.19628 19.4535 7.23277L17.0415 11.2337L15.4928 11.7477C15.4284 11.7691 15.3706 11.8065 15.3249 11.8563C15.2791 11.9062 15.2469 11.9669 15.2313 12.0326C15.2158 12.0984 15.2173 12.167 15.2359 12.232C15.2544 12.2969 15.2894 12.3561 15.3373 12.4039L19.5582 16.6063C19.6061 16.6541 19.6655 16.6889 19.7308 16.7074C19.796 16.7258 19.865 16.7274 19.931 16.7119C19.997 16.6964 20.058 16.6643 20.108 16.6188C20.1581 16.5732 20.1957 16.5156 20.2171 16.4516L20.7334 14.9086L24.8104 12.4574C24.8472 12.4359 24.8802 12.4086 24.9082 12.3766L27.0054 9.95655C27.4154 9.46888 27.6291 8.84706 27.6051 8.21151C27.5811 7.57596 27.3211 6.9719 26.8754 6.51629ZM26.4002 9.43671L24.347 11.8091L20.1986 14.3031C20.1174 14.3518 20.0564 14.4278 20.0265 14.5173L19.6677 15.5881L18.7163 14.6409L17.3094 13.2401L16.3581 12.2929L17.4336 11.9356C17.5236 11.9056 17.5999 11.8445 17.6487 11.7633L20.1037 7.69127L22.5304 5.59247C22.8651 5.31096 23.2929 5.16326 23.7308 5.17801C24.1687 5.19276 24.5855 5.36891 24.9004 5.67229L26.3103 7.07604C26.6157 7.38845 26.7939 7.80252 26.8106 8.23819C26.8272 8.67386 26.681 9.10019 26.4002 9.43476V9.43671Z" fill="white" stroke="white" stroke-width="0.5"/>
<path id="Path 8781" d="M25.748 20.3092C25.1773 19.7409 24.46 19.3408 23.6754 19.1528C22.8907 18.9649 22.0691 18.9965 21.3013 19.2442L12.8441 10.8237C13.1004 10.0376 13.127 9.19511 12.9208 8.3945C12.7147 7.59389 12.2842 6.86812 11.6796 6.30177C11.0751 5.73542 10.3213 5.35182 9.5061 5.19569C8.69094 5.03956 7.848 5.11733 7.07554 5.41993C7.0142 5.44427 6.95991 5.48342 6.91756 5.53385C6.87521 5.58428 6.84613 5.64442 6.83294 5.70883C6.81975 5.77324 6.82286 5.83991 6.842 5.90283C6.86114 5.96575 6.8957 6.02293 6.94257 6.06924L9.47387 8.58956L7.78634 10.2707L5.25405 7.75042C5.20734 7.70383 5.14971 7.66956 5.08636 7.65071C5.02302 7.63186 4.95595 7.62902 4.89122 7.64245C4.8265 7.65588 4.76615 7.68515 4.71564 7.72763C4.66513 7.77011 4.62604 7.82445 4.60191 7.88574C4.29799 8.65485 4.21989 9.49413 4.3767 10.3058C4.53351 11.1174 4.91877 11.8679 5.48759 12.4699C6.05641 13.0718 6.78535 13.5004 7.58945 13.7057C8.39354 13.9109 9.23968 13.8844 10.0292 13.6292L13.1921 16.7774L9.25389 20.6957L6.74898 22.0907C6.67949 22.1294 6.62329 22.1881 6.58766 22.2591L5.4623 24.4981C5.42488 24.5724 5.41192 24.6566 5.42526 24.7388C5.43859 24.8209 5.47755 24.8967 5.53661 24.9556L6.94354 26.3564C7.00264 26.4152 7.07883 26.454 7.16131 26.4673C7.24379 26.4806 7.32837 26.4677 7.40307 26.4304L9.65182 25.3099C9.7238 25.2748 9.78344 25.2188 9.82292 25.1493L11.224 22.6572L15.1622 18.7361L18.4865 22.0459C18.2301 22.832 18.2035 23.6744 18.4097 24.4751C18.6158 25.2757 19.0463 26.0014 19.6509 26.5678C20.2555 27.1341 21.0093 27.5177 21.8244 27.6739C22.6396 27.83 23.4825 27.7522 24.255 27.4496C24.3158 27.4254 24.3697 27.3865 24.4118 27.3365C24.4539 27.2866 24.483 27.227 24.4965 27.1631C24.5099 27.0993 24.5073 27.0331 24.4889 26.9705C24.4705 26.9079 24.4368 26.8508 24.3909 26.8042L21.8596 24.2839L23.5481 22.6027L26.0794 25.123C26.1261 25.1696 26.1837 25.2039 26.2471 25.2227C26.3104 25.2416 26.3775 25.2444 26.4422 25.231C26.507 25.2176 26.5673 25.1883 26.6178 25.1458C26.6683 25.1033 26.7074 25.049 26.7315 24.9877C27.0429 24.1972 27.1157 23.3334 26.941 22.5023C26.7663 21.6712 26.3516 20.909 25.748 20.3092ZM10.6217 22.1315C10.596 22.1573 10.5739 22.1864 10.5562 22.2182L9.1874 24.6519L7.30237 25.5903L6.30314 24.5993L7.24566 22.7224L9.68995 21.3596C9.72183 21.3419 9.75111 21.32 9.77697 21.2944L13.7543 17.3343L14.5981 18.1744L10.6217 22.1315ZM26.1674 24.0843L23.8277 21.7548C23.7908 21.718 23.7469 21.6887 23.6986 21.6688C23.6502 21.6488 23.5984 21.6386 23.5461 21.6386C23.4938 21.6386 23.442 21.6488 23.3937 21.6688C23.3454 21.6887 23.3015 21.718 23.2646 21.7548L21.0158 23.9938C20.9788 24.0306 20.9494 24.0743 20.9294 24.1224C20.9094 24.1705 20.8991 24.2221 20.8991 24.2742C20.8991 24.3262 20.9094 24.3778 20.9294 24.4259C20.9494 24.474 20.9788 24.5177 21.0158 24.5545L23.3555 26.884C22.7247 27.009 22.0717 26.9626 21.4651 26.7497C20.8585 26.5368 20.3206 26.1653 19.9079 25.6742C19.4952 25.183 19.2229 24.5903 19.1195 23.9582C19.0162 23.3262 19.0856 22.678 19.3205 22.0819C19.3487 22.0102 19.3553 21.9319 19.3395 21.8565C19.3237 21.7811 19.2861 21.7119 19.2315 21.6575L10.4095 12.8835C10.3548 12.8291 10.2854 12.7918 10.2097 12.776C10.1339 12.7603 10.0553 12.7669 9.98326 12.795C9.38451 13.0288 8.73357 13.0979 8.09876 12.995C7.46394 12.8921 6.86864 12.621 6.37534 12.21C5.88203 11.7991 5.5089 11.2636 5.29509 10.6596C5.08129 10.0556 5.03469 9.40552 5.16019 8.77744L7.50475 11.1118C7.54171 11.1487 7.58561 11.1779 7.63392 11.1979C7.68224 11.2178 7.73403 11.2281 7.78634 11.2281C7.83864 11.2281 7.89043 11.2178 7.93875 11.1979C7.98707 11.1779 8.03096 11.1487 8.06792 11.1118L10.3167 8.87284C10.3537 8.83604 10.383 8.79234 10.4031 8.74423C10.4231 8.69613 10.4334 8.64456 10.4334 8.59248C10.4334 8.5404 10.4231 8.48883 10.4031 8.44073C10.383 8.39262 10.3537 8.34892 10.3167 8.31212L7.97895 5.97968C8.60976 5.85472 9.26273 5.90112 9.86933 6.11399C10.4759 6.32687 11.0138 6.69839 11.4265 7.18955C11.8392 7.68072 12.1115 8.27343 12.2149 8.90549C12.3183 9.53755 12.2489 10.1857 12.014 10.7818C11.9858 10.8535 11.9792 10.9319 11.995 11.0072C12.0108 11.0826 12.0483 11.1518 12.103 11.2063L20.9171 19.9821C20.9718 20.0365 21.0413 20.0739 21.117 20.0896C21.1927 20.1053 21.2713 20.0988 21.3433 20.0707C21.9421 19.8368 22.593 19.7677 23.2279 19.8706C23.8627 19.9736 24.458 20.2447 24.9513 20.6556C25.4446 21.0665 25.8177 21.6021 26.0315 22.206C26.2453 22.81 26.2919 23.4601 26.1664 24.0882L26.1674 24.0843Z" fill="white" stroke="white" stroke-width="0.5"/>
</g>
</g>
</svg>
