<svg width="32" height="32" viewBox="0 0 32 32" fill="none" xmlns="http://www.w3.org/2000/svg">
<g id="Gardener">
<g id="watering">
<g id="Group 6464">
<g id="Group 6463">
<path id="Path 8778" d="M25.1785 20.7839L24.3675 21.5876L22.1377 21.4003L23.1878 19.8359C23.229 19.7746 23.2474 19.7011 23.24 19.6278C23.2326 19.5545 23.1998 19.4861 23.1472 19.4341L21.3683 17.6711C21.3158 17.619 21.2467 17.5865 21.1728 17.5792C21.0989 17.5718 21.0247 17.5901 20.9628 17.6309L20.8427 17.7096C20.8398 17.2778 20.6649 16.8647 20.356 16.5602C20.3032 16.5079 20.247 16.459 20.1877 16.4141C20.1511 16.5703 20.0956 16.7216 20.0223 16.8646C19.9707 16.963 19.9109 17.057 19.8436 17.1457C19.9319 17.2444 19.9966 17.3616 20.0327 17.4886C20.0687 17.6156 20.0753 17.7491 20.0519 17.879C20.0285 18.0089 19.9757 18.1318 19.8976 18.2386C19.8194 18.3454 19.7178 18.4333 19.6005 18.4956C19.4832 18.558 19.3531 18.5932 19.2201 18.5986C19.0871 18.6041 18.9546 18.5796 18.8324 18.5271C18.7103 18.4745 18.6018 18.3952 18.515 18.2952C18.4282 18.1951 18.3654 18.0769 18.3313 17.9494C18.2051 17.9568 18.0784 17.9518 17.9532 17.9344C17.8066 17.9143 17.6627 17.8781 17.5241 17.8266C17.5439 18.1295 17.6477 18.4209 17.8242 18.6689C18.0007 18.9169 18.2429 19.1117 18.5241 19.2317L17.6252 19.8247C17.5369 19.8831 17.4627 19.9602 17.4081 20.0504C17.3534 20.1407 17.3197 20.2418 17.3092 20.3465C17.2987 20.4512 17.3118 20.557 17.3475 20.6561C17.3831 20.7552 17.4406 20.8453 17.5156 20.9197L19.8625 23.2456C19.9377 23.32 20.0286 23.3769 20.1286 23.4122C20.2286 23.4476 20.3353 23.4606 20.4409 23.4502C20.5466 23.4398 20.6486 23.4063 20.7397 23.3522C20.8307 23.298 20.9086 23.2245 20.9675 23.137L21.0942 22.9496L24.3675 22.6789L25.1785 23.4826C25.207 23.511 25.2434 23.5304 25.2831 23.5382C25.3228 23.5461 25.3639 23.5421 25.4013 23.5267C25.4387 23.5114 25.4706 23.4853 25.493 23.452C25.5154 23.4186 25.5273 23.3794 25.5272 23.3393V20.9188C25.5257 20.8794 25.5126 20.8414 25.4896 20.8093C25.4665 20.7771 25.4345 20.7524 25.3975 20.7381C25.3604 20.7238 25.32 20.7205 25.2811 20.7286C25.2422 20.7367 25.2065 20.756 25.1785 20.7839Z" stroke="white"/>
</g>
</g>
<g id="Group 6466">
<g id="Group 6465">
<path id="Path 8779" d="M18.6924 15.0519L15.524 13.4595L15.0713 9.61045L16.285 12.7017L17.3247 11.1401C17.4356 10.9737 17.5122 10.7873 17.5504 10.5914C17.5885 10.3956 17.5874 10.1943 17.547 9.99894C17.5066 9.80357 17.4278 9.61799 17.3151 9.45281C17.2023 9.28763 17.0578 9.14607 16.8899 9.03623L14.61 7.54027C14.4421 7.43041 14.2539 7.3544 14.0564 7.3166C13.8588 7.27879 13.6556 7.27993 13.4585 7.31994C13.2613 7.35995 13.0741 7.43806 12.9074 7.5498C12.7407 7.66154 12.5979 7.80472 12.4871 7.97117L8.59937 13.8136C8.28723 14.2823 8.12453 14.8332 8.13243 15.3948L8.20521 20.5777L5.00753 24.2169C4.90425 24.3343 4.82533 24.4707 4.77525 24.6184C4.72518 24.766 4.70494 24.922 4.71569 25.0774C4.73741 25.3912 4.88404 25.6837 5.12332 25.8904C5.3626 26.0971 5.67494 26.2011 5.99162 26.1796C6.3083 26.1581 6.60338 26.0128 6.81195 25.7756L10.3093 21.7936C10.5031 21.5729 10.6078 21.289 10.6032 20.9964L10.5257 16.0242L10.8736 16.2519L13.0126 19.4368L12.2025 24.8248C12.1691 24.983 12.1686 25.1462 12.2011 25.3045C12.2336 25.4629 12.2984 25.613 12.3916 25.7456C12.4847 25.8782 12.6042 25.9905 12.7428 26.0757C12.8813 26.1609 13.0359 26.2172 13.1972 26.241C13.3584 26.2649 13.5229 26.2558 13.6805 26.2144C13.8381 26.173 13.9854 26.1001 14.1136 26.0002C14.2417 25.9003 14.3479 25.7755 14.4257 25.6335C14.5034 25.4914 14.551 25.3352 14.5656 25.1742L15.4437 19.3337C15.4872 19.0425 15.4198 18.7457 15.2547 18.501L13.8359 16.3746L14.0249 16.0842L13.6468 15.8969C13.317 15.7316 13.0409 15.4774 12.8503 15.1636C12.6596 14.8497 12.5623 14.4889 12.5693 14.1227L13.0495 9.98608L13.5495 14.2342C13.5691 14.4009 13.63 14.5603 13.7268 14.698C13.8236 14.8358 13.9533 14.9477 14.1043 15.0238L17.7642 16.8673C18.0069 16.9875 18.2877 17.0078 18.5454 16.9236C18.8031 16.8394 19.0167 16.6576 19.1396 16.4179C19.2626 16.1782 19.2848 15.9001 19.2016 15.6441C19.1183 15.3882 18.9363 15.1753 18.6953 15.0519H18.6924Z" stroke="white" stroke-width="1.5"/>
</g>
</g>
<g id="Group 6468">
<g id="Group 6467">
<path id="Ellipse 692" d="M17.7793 8.19756C19.0317 8.19756 20.0469 7.19145 20.0469 5.95034C20.0469 4.70924 19.0317 3.70312 17.7793 3.70312C16.527 3.70312 15.5117 4.70924 15.5117 5.95034C15.5117 7.19145 16.527 8.19756 17.7793 8.19756Z" stroke="white" stroke-width="1.5"/>
</g>
</g>
</g>
</g>
</svg>
