<svg width="32" height="32" viewBox="0 0 32 32" fill="none" xmlns="http://www.w3.org/2000/svg">
<path d="M27.6505 26.4367C27.0318 25.0416 26.0486 23.9326 24.8663 22.9879C24.7132 22.8657 24.638 22.7392 24.6221 22.5466C24.5837 22.085 24.3639 21.7117 23.9861 21.4479C23.6716 21.2282 23.345 21.0229 23.0085 20.8386C22.4705 20.5438 22.0904 20.6154 21.6551 21.0472C21.6096 21.0925 21.518 21.1299 21.4589 21.1172C21.2878 21.081 21.1223 21.0177 20.8857 20.9433C20.8857 20.2306 20.8925 19.5171 20.8809 18.8044C20.8781 18.6273 20.9193 18.5119 21.062 18.3973C21.8126 17.7945 22.3442 17.032 22.6432 16.1196C22.7099 15.9154 22.8158 15.8378 23.0125 15.7774C23.3774 15.6655 23.7435 15.537 24.0821 15.3627C25.2432 14.7646 25.7712 13.3906 25.2016 12.0869C25.254 12.044 25.3243 11.9998 25.3775 11.9409C26.0414 11.2031 25.8087 10.0269 24.9002 9.62376C24.6716 9.52228 24.5953 9.39693 24.5609 9.16454C24.2332 6.93852 23.0153 5.37943 20.9713 4.4423C20.8018 4.3647 20.6627 4.22384 20.4992 4.12992C20.3957 4.07023 20.2738 4.00696 20.1599 4.00617C18.6362 3.99821 17.1126 3.99741 15.589 4.00696C15.4691 4.00776 15.342 4.08496 15.2313 4.14903C15.0914 4.2298 14.9763 4.35873 14.8308 4.4236C12.7024 5.37107 11.4689 6.98428 11.1684 9.29228C11.1484 9.44509 11.0912 9.5187 10.9465 9.5764C10.2099 9.86968 9.82101 10.6206 10.0572 11.3567C10.1488 11.6425 10.3506 11.8932 10.5181 12.1872C9.97009 13.2811 10.4445 14.7965 11.7743 15.4236C12.1109 15.5824 12.4782 15.6759 12.8251 15.8152C12.9158 15.8514 13.025 15.9326 13.0537 16.0173C13.3831 16.9895 13.9359 17.8032 14.7348 18.4542C14.8104 18.5155 14.8743 18.6425 14.8727 18.7376C14.8603 19.5227 14.844 20.3086 14.8008 21.0925C14.786 21.3559 14.8543 21.5553 15.0218 21.7487C16.4215 23.3639 18.7805 23.5354 20.3613 22.0941C20.6595 21.8223 20.8865 21.7988 21.2211 21.9377C21.3889 22.0078 21.4489 22.0786 21.4465 22.2608C21.4357 23.073 21.4421 23.8856 21.4409 24.6978C21.4409 24.7746 21.4305 24.8518 21.4237 24.9453C21.3074 24.9453 21.2103 24.9453 21.1128 24.9453C19.7146 24.9453 18.3161 24.9453 16.918 24.9453C16.3712 24.9453 15.8244 24.9425 15.2776 24.9473C14.9831 24.9501 14.8036 25.122 14.8072 25.3802C14.8108 25.6345 14.9954 25.7961 15.2904 25.8028C15.3532 25.804 15.4159 25.8032 15.4787 25.8032C17.3608 25.8032 19.243 25.8032 21.1255 25.8032C21.2283 25.8032 21.3306 25.8032 21.4357 25.8032C21.4357 26.2664 21.4357 26.6854 21.4357 27.145C21.3054 27.145 21.1999 27.145 21.0944 27.145C19.1674 27.145 17.2401 27.1446 15.3132 27.1454C14.9966 27.1454 14.8084 27.307 14.8072 27.5704C14.806 27.8343 14.9942 27.9994 15.3092 27.9994C19.3693 28.0002 23.4298 28.0006 27.4899 27.9994C27.9031 27.9994 28.079 27.7754 27.9667 27.3719C27.8784 27.0551 27.7836 26.7364 27.6505 26.4367ZM24.1476 14.2501C23.8123 14.6039 23.3842 14.7945 22.8994 14.9182C22.9533 14.0893 23.0065 13.2748 23.0613 12.4359C23.4697 12.4359 23.8626 12.4188 24.2523 12.4487C24.3431 12.4554 24.4674 12.6078 24.4978 12.7153C24.6592 13.2839 24.5653 13.8096 24.1476 14.2501ZM20.6431 5.29228C21.9721 5.70852 23.5992 7.39614 23.7136 9.45026C22.6971 9.45026 21.6819 9.45026 20.6431 9.45026C20.6431 8.05352 20.6431 6.67509 20.6431 5.29228ZM16.0095 4.87764C17.2461 4.87764 18.4848 4.87764 19.7502 4.87764C19.7502 6.40688 19.7502 7.91982 19.7502 9.45105C18.4996 9.45105 17.2617 9.45105 16.0095 9.45105C16.0095 7.92658 16.0095 6.41325 16.0095 4.87764ZM15.0914 5.2891C15.0914 6.6739 15.0914 8.05153 15.0914 9.45742C14.0666 9.45742 13.0573 9.45742 12.0481 9.45742C12.0565 7.85137 13.3779 5.89276 15.0914 5.2891ZM11.2259 12.8179C11.2963 12.5012 11.3834 12.4335 11.7224 12.4331C12.0333 12.4327 12.3447 12.4331 12.6848 12.4331C12.74 13.2616 12.7935 14.0655 12.8475 14.8725C11.8139 14.8175 11.0113 13.7841 11.2259 12.8179ZM11.7991 11.5609C11.6916 11.5609 11.5837 11.5625 11.4765 11.5553C11.1288 11.531 10.891 11.2799 10.8942 10.9461C10.8974 10.6182 11.15 10.3496 11.4893 10.3476C12.8063 10.34 14.1237 10.3412 15.4407 10.34C16.2561 10.3392 17.071 10.34 17.8864 10.34C17.8864 10.3428 17.8864 10.346 17.8864 10.3488C19.992 10.3488 22.0976 10.3468 24.2032 10.3504C24.5993 10.3512 24.8491 10.5887 24.8543 10.9429C24.8595 11.299 24.6157 11.5489 24.2204 11.5561C23.5665 11.5676 22.9122 11.5613 22.2579 11.5613C18.7717 11.5613 15.2856 11.5609 11.7991 11.5609ZM19.9468 21.3189C18.8657 22.5175 16.9064 22.5271 15.8176 21.342C15.7509 21.2696 15.6877 21.1602 15.6861 21.0671C15.6749 20.4176 15.6801 19.7682 15.6801 19.0495C17.1774 19.6918 18.5751 19.6878 20.0072 19.0754C20.0192 19.2799 20.0336 19.4534 20.0392 19.6269C20.054 20.0814 20.0735 20.5358 20.0711 20.9902C20.0703 21.1013 20.0208 21.237 19.9468 21.3189ZM19.0731 18.4809C16.7973 19.1801 14.3959 17.8327 13.8451 15.5259C13.7016 14.925 13.6976 14.2899 13.6421 13.6695C13.6065 13.2712 13.5937 12.8709 13.5697 12.4518C16.4519 12.4518 19.3065 12.4518 22.2243 12.4518C22.1152 13.5191 22.1088 14.5768 21.8802 15.5844C21.5436 17.069 20.536 18.0316 19.0731 18.4809ZM23.7615 27.1323C23.2699 27.1323 22.8063 27.1323 22.2998 27.1323C22.2998 27.0503 22.2998 26.9656 22.2998 26.8812C22.2998 25.2119 22.2994 23.543 22.2998 21.8737C22.2998 21.494 22.353 21.457 22.6752 21.6429C22.9457 21.7988 23.2267 21.9497 23.4613 22.1514C23.6028 22.2728 23.7459 22.4857 23.7487 22.6592C23.7711 24.1399 23.7615 25.621 23.7615 27.1323ZM24.6692 27.1339C24.6692 26.0758 24.6692 25.0253 24.6692 23.9242C25.7144 24.8291 26.4738 25.8776 26.9914 27.1339C26.2028 27.1339 25.4466 27.1339 24.6692 27.1339Z" fill="white"/>
<path d="M13.022 18.4091C10.1902 18.4079 7.35793 18.4079 4.5261 18.4091C4.13799 18.4091 4.0009 18.5528 4.0005 18.9479C3.9997 20.3673 4.0001 21.7863 4.0001 23.2058C4.0001 24.6252 3.9997 26.0442 4.0005 27.4636C4.0009 27.856 4.14119 27.9984 4.52929 27.9988C7.36112 27.9996 10.1934 27.9996 13.0252 27.9988C13.4013 27.9988 13.562 27.8413 13.5624 27.46C13.5644 24.6216 13.5644 21.7832 13.5624 18.9443C13.5624 18.5655 13.4021 18.4091 13.022 18.4091ZM12.6667 27.1302C10.0662 27.1302 7.48103 27.1302 4.86783 27.1302C4.86783 24.5062 4.86783 21.9041 4.86783 19.2838C7.46744 19.2838 10.0591 19.2838 12.6667 19.2838C12.6667 21.9005 12.6667 24.5086 12.6667 27.1302Z" fill="white"/>
<path d="M19.0892 15.7426C18.9457 15.8631 18.8118 15.9968 18.6592 16.1043C18.1388 16.4708 17.6423 16.4747 17.1171 16.1138C16.9485 15.998 16.8022 15.8512 16.6407 15.7246C16.4541 15.5782 16.211 15.5862 16.0548 15.7362C15.8825 15.9017 15.8681 16.1405 16.0392 16.3363C16.5208 16.8858 17.1311 17.1827 17.7678 17.2312C18.5025 17.2352 19.3239 16.8396 19.7152 16.3391C19.8726 16.1377 19.8646 15.8989 19.6948 15.7366C19.5277 15.5754 19.2859 15.5774 19.0892 15.7426Z" fill="white"/>
<path d="M8.00593 26.1425C8.23376 26.0868 8.37125 25.9049 8.37285 25.6566C8.37325 25.591 8.37365 25.5253 8.37365 25.4597C8.37405 25.2627 8.37325 25.0657 8.37325 24.8687C8.37325 24.6125 8.37405 24.3562 8.37285 24.0999C8.37245 24.0494 8.37125 23.9977 8.35966 23.9487C8.30571 23.7191 8.12105 23.5794 7.86884 23.579C7.34124 23.5775 6.81405 23.5782 6.28645 23.579C6.24209 23.579 6.19652 23.5822 6.15376 23.5922C5.92113 23.6479 5.78404 23.8317 5.78364 24.0884C5.78284 24.6073 5.78324 25.1262 5.78404 25.6451C5.78404 25.6933 5.78644 25.743 5.79803 25.7899C5.85359 26.0196 6.03704 26.1564 6.29125 26.1568C6.81645 26.158 7.34204 26.1576 7.86724 26.1564C7.91321 26.1568 7.96117 26.1537 8.00593 26.1425ZM6.29605 25.747C6.20971 25.747 6.19572 25.7334 6.19572 25.6479C6.19572 25.129 6.19572 24.6097 6.19572 24.0908C6.19572 24.0016 6.20891 23.9893 6.30004 23.9893C6.55944 23.9893 6.81924 23.9893 7.07865 23.9893C7.34045 23.9893 7.60224 23.9893 7.86364 23.9893C7.94558 23.9893 7.96077 24.0044 7.96077 24.0852C7.96117 24.6065 7.96077 25.1274 7.96077 25.6487C7.96077 25.7334 7.94678 25.747 7.85965 25.747C7.33845 25.747 6.81725 25.747 6.29605 25.747Z" fill="white"/>
<path d="M8.00103 22.8883C8.23085 22.8346 8.37114 22.6499 8.37274 22.3996C8.37434 22.137 8.37314 21.8744 8.37314 21.6117C8.37314 21.3555 8.37394 21.0992 8.37274 20.8429C8.37234 20.7924 8.37074 20.7406 8.35915 20.6917C8.30399 20.4601 8.11894 20.3232 7.86113 20.3228C7.33993 20.322 6.81873 20.322 6.29793 20.3232C6.24957 20.3232 6.19961 20.3256 6.15244 20.3371C5.92182 20.3925 5.78433 20.5751 5.78393 20.8278C5.78273 21.3511 5.78313 21.874 5.78433 22.3972C5.78433 22.4434 5.78752 22.4907 5.79832 22.5357C5.85467 22.7649 6.03813 22.901 6.29234 22.9014C6.81554 22.9026 7.33873 22.9022 7.86193 22.901C7.9083 22.901 7.95586 22.899 8.00103 22.8883ZM6.28514 22.4907C6.212 22.4907 6.19561 22.474 6.19561 22.4C6.19521 22.1374 6.19561 21.8748 6.19561 21.6117C6.19561 21.3511 6.19561 21.0904 6.19561 20.8298C6.19561 20.7478 6.2104 20.7327 6.29154 20.7327C6.81713 20.7323 7.34273 20.7323 7.86833 20.7327C7.94507 20.7327 7.96106 20.7494 7.96106 20.8266C7.96146 21.3499 7.96146 21.8732 7.96106 22.3964C7.96106 22.474 7.94507 22.4903 7.86833 22.4903C7.34033 22.4911 6.81274 22.4911 6.28514 22.4907Z" fill="white"/>
<path d="M9.42249 23.592C9.18987 23.6477 9.05357 23.8316 9.05317 24.089C9.05237 24.6079 9.05277 25.1268 9.05357 25.6457C9.05357 25.6939 9.05637 25.7436 9.06756 25.7906C9.11912 26.0031 9.28739 26.1503 9.51042 26.1531C10.0676 26.1595 10.6248 26.1555 11.1819 26.1551C11.2135 26.1551 11.2459 26.1503 11.2763 26.1427C11.5037 26.0854 11.6408 25.9044 11.6424 25.6561C11.6428 25.5904 11.6432 25.5248 11.6432 25.4591C11.6436 25.2621 11.6428 25.0652 11.6428 24.8682C11.6428 24.6119 11.6436 24.3556 11.6424 24.0994C11.642 24.0488 11.6408 23.9971 11.6292 23.9482C11.5744 23.7186 11.3902 23.5797 11.138 23.5789C10.6128 23.5777 10.0872 23.5781 9.56198 23.5789C9.51482 23.5785 9.46725 23.5813 9.42249 23.592ZM11.1332 23.9883C11.2151 23.9883 11.2307 24.0035 11.2307 24.0843C11.2311 24.6055 11.2307 25.1264 11.2307 25.6477C11.2307 25.7325 11.2167 25.7464 11.1296 25.7464C10.6084 25.7464 10.0872 25.7464 9.56558 25.7464C9.47884 25.7464 9.46485 25.7329 9.46485 25.6473C9.46485 25.126 9.46485 24.6051 9.46485 24.0839C9.46485 24.0031 9.48004 23.9883 9.56238 23.9883C9.82618 23.988 10.09 23.9883 10.3538 23.9883C10.614 23.9883 10.8734 23.9883 11.1332 23.9883Z" fill="white"/>
<path d="M9.05606 21.2778C8.8674 21.468 8.8666 21.7561 9.05446 21.9459C9.37101 22.2655 9.68997 22.583 10.0109 22.8986C10.1996 23.084 10.4886 23.0868 10.6768 22.9025C11.0014 22.585 11.3231 22.2643 11.6425 21.9411C11.8231 21.7581 11.8247 21.4704 11.6445 21.2873C11.3243 20.9622 10.9994 20.6419 10.6748 20.3212C10.5849 20.2324 10.4726 20.1914 10.3459 20.1895C10.2148 20.1918 10.1013 20.2376 10.0081 20.3299C9.68997 20.6451 9.37141 20.9598 9.05606 21.2778ZM10.4106 20.6347C10.716 20.9384 11.0213 21.242 11.3263 21.5464C11.3799 21.6001 11.3799 21.6256 11.3259 21.6793C11.0225 21.9817 10.7188 22.2842 10.415 22.5862C10.3583 22.6427 10.3347 22.6427 10.2775 22.5862C9.97375 22.2842 9.66998 21.9817 9.36702 21.6789C9.34863 21.6602 9.33544 21.6363 9.31825 21.6129C9.33544 21.5882 9.34623 21.5671 9.36182 21.5512C9.66799 21.2452 9.97455 20.94 10.2815 20.6347C10.3327 20.5842 10.3599 20.5842 10.4106 20.6347Z" fill="white"/>
</svg>
