<svg width="32" height="32" viewBox="0 0 32 32" fill="none" xmlns="http://www.w3.org/2000/svg">
<g id="Peon">
<g id="Group 6483">
<g id="Group 632">
<g id="manager">
<path id="Path 138" d="M21.9094 20.2266H10.0979C9.40464 20.2266 8.73975 20.4996 8.24952 20.9857C7.7593 21.4718 7.48389 22.1311 7.48389 22.8185V27.1712C7.48401 27.2495 7.5116 27.3255 7.56194 27.3859C7.61227 27.4463 7.68223 27.4875 7.75982 27.5024C7.78117 27.5067 7.80289 27.509 7.82468 27.5091H24.1788C24.2236 27.5091 24.2679 27.5004 24.3092 27.4834C24.3506 27.4664 24.3881 27.4415 24.4198 27.4101C24.4514 27.3787 24.4765 27.3415 24.4937 27.3005C24.5108 27.2595 24.5196 27.2156 24.5196 27.1712V22.8109C24.5176 22.1254 24.2418 21.4687 23.7526 20.9844C23.2634 20.5 22.6007 20.2276 21.9094 20.2266Z" stroke="white"/>
<path id="Path 140" d="M21.2724 7.6052C20.9452 7.19801 20.4898 6.91137 19.9789 6.79112C19.4317 5.88043 18.6999 5.09228 17.8296 4.47656C15.3637 4.47656 12.8775 4.70696 11.3923 6.37544C10.2731 7.63208 9.88877 9.77384 10.2141 12.3524V12.3601C10.2431 12.3678 12.132 10.5063 12.132 10.5063C13.1739 11.0531 14.3287 11.3549 15.507 11.3886C17.1313 11.2739 18.736 10.9671 20.2868 10.4746C20.7398 11.1435 21.2441 11.7767 21.7952 12.3687C22.2105 10.3134 22.0295 8.53256 21.2724 7.6052Z" stroke="white"/>
<path id="Path 142" d="M16.0045 19.5525C14.8427 19.5525 13.7777 19.6571 12.9199 18.9141V20.115C12.9199 20.1265 12.9199 20.1371 12.9199 20.1486C12.9199 20.1602 12.9199 20.1611 12.9199 20.1669C12.9199 20.1726 12.9199 20.1765 12.9199 20.1813C12.9199 20.1861 12.9199 20.1966 12.9248 20.2053V20.2139C12.9248 20.2206 12.9248 20.2283 12.9315 20.235V20.2446L12.9383 20.2619L12.9441 20.2744L12.9509 20.2878L12.9587 20.3032L12.9645 20.3128L12.9761 20.3301L12.9819 20.3377L12.9954 20.3541L13.009 20.3685L13.0167 20.3762L13.0409 20.3963L14.2347 21.2968L14.2482 21.3054L14.2657 21.317L14.2908 21.3294L14.3083 21.3371L14.3383 21.3458H14.3538C14.3683 21.3469 14.3828 21.3469 14.3973 21.3458C14.4136 21.3456 14.4298 21.344 14.4457 21.341L14.47 21.3362H17.5255L17.5497 21.341C17.5656 21.344 17.5818 21.3456 17.5981 21.3458C17.6126 21.3469 17.6271 21.3469 17.6416 21.3458H17.6571L17.6871 21.3371L17.7046 21.3294L17.7297 21.317L17.7472 21.3054L17.7607 21.2968L18.9545 20.3963L18.9787 20.3762L18.9961 20.3589L19.0087 20.3435L19.0155 20.3349L19.0261 20.3195L19.0329 20.3089L19.0406 20.2946L19.0484 20.2801L19.0532 20.2686L19.061 20.2504V20.2417C19.061 20.2341 19.0658 20.2274 19.0677 20.2197V20.2129C19.0677 20.2043 19.0677 20.1966 19.0735 20.188C19.0793 20.1793 19.0735 20.1822 19.0735 20.1794C19.0735 20.1765 19.0735 20.163 19.0735 20.1553C19.0735 20.1477 19.0735 20.1342 19.0735 20.1227V18.9217C18.2332 19.6571 17.1643 19.5525 16.0045 19.5525Z" fill="white" stroke="white"/>
<path id="Path 143" d="M11.3506 27.5136V25.8019C11.3416 25.719 11.3021 25.6423 11.2395 25.5866C11.1769 25.5308 11.0958 25.5 11.0117 25.5C10.9276 25.5 10.8465 25.5308 10.7839 25.5866C10.7214 25.6423 10.6818 25.719 10.6729 25.8019V27.5136H11.3506Z" fill="white"/>
<path id="Path 146" d="M22.3634 26.3342H18.2759C18.1855 26.3342 18.0988 26.2986 18.0349 26.2353C17.971 26.1719 17.9351 26.086 17.9351 25.9963V23.7442C17.9351 23.6545 17.971 23.5686 18.0349 23.5052C18.0988 23.4418 18.1855 23.4063 18.2759 23.4063H22.3634C22.4538 23.4062 22.5405 23.4418 22.6044 23.5052C22.6683 23.5686 22.7042 23.6545 22.7042 23.7442V25.9963C22.7042 26.086 22.6683 26.1719 22.6044 26.2353C22.5405 26.2986 22.4538 26.3342 22.3634 26.3342Z" stroke="white" stroke-width="0.7"/>
<path id="Path 148" d="M20.2876 10.4766C18.7367 10.9691 17.1321 11.2759 15.5078 11.3905C14.3294 11.3569 13.1747 11.055 12.1328 10.5082C12.1328 10.5082 10.2439 12.3697 10.2148 12.362V13.8145C10.2148 14.5685 10.3646 15.3151 10.6556 16.0118C10.9466 16.7084 11.3731 17.3413 11.9108 17.8745C12.4486 18.4077 13.0869 18.8306 13.7894 19.1192C14.492 19.4077 15.245 19.5562 16.0054 19.5562C16.7658 19.5562 17.5188 19.4077 18.2213 19.1192C18.9239 18.8306 19.5622 18.4077 20.0999 17.8745C20.6376 17.3413 21.0642 16.7084 21.3552 16.0118C21.6462 15.3151 21.7959 14.5685 21.7959 13.8145V12.3745C21.2447 11.7812 20.7404 11.1467 20.2876 10.4766Z" stroke="white"/>
</g>
</g>
</g>
</g>
</svg>
