<svg width="32" height="32" viewBox="0 0 32 32" fill="none" xmlns="http://www.w3.org/2000/svg">
<g id="Security/Support Service">
<g id="security-guard">
<path id="Path 8678" d="M9.00781 23.6953L13.5224 21.6193L14.1073 22.8913L9.59272 24.9673L9.00781 23.6953Z" fill="white"/>
<path id="Path 8679" d="M17.5972 22.8984L18.1821 21.6265L22.6966 23.7025L22.1117 24.9744L17.5972 22.8984Z" fill="white"/>
<path id="Path 8680" d="M23.817 21.246L19.909 19.339C20.7637 18.3866 21.236 17.1517 21.235 15.872L21.23 10.43L23.714 6.6L16.102 4L8.27598 6.594L10.824 10.394V15.876C10.823 17.1557 11.2953 18.3906 12.15 19.343L8.24298 21.25C7.57372 21.567 7.00794 22.0671 6.61115 22.6923C6.21437 23.3176 6.00281 24.0425 6.00098 24.783V28H26.058V24.779C26.0561 24.0386 25.8447 23.3139 25.4481 22.6886C25.0515 22.0634 24.486 21.5632 23.817 21.246ZM16.029 19.674C15.0216 19.6724 14.056 19.2715 13.3437 18.5593C12.6314 17.847 12.2306 16.8813 12.229 15.874V14.71C12.7649 15.0829 13.4021 15.2825 14.055 15.282H17.992C18.6511 15.2823 19.2942 15.0787 19.833 14.699V15.872C19.8319 16.8804 19.4307 17.8471 18.7175 18.56C18.0043 19.2728 17.0374 19.6735 16.029 19.674ZM19.813 12.015V12.031C19.8156 12.5175 19.6252 12.9852 19.2834 13.3315C18.9417 13.6778 18.4765 13.8743 17.99 13.878H14.058C13.8166 13.8767 13.5779 13.8279 13.3554 13.7343C13.1329 13.6407 12.931 13.5042 12.7612 13.3326C12.5915 13.161 12.4572 12.9576 12.3661 12.7341C12.2749 12.5106 12.2287 12.2714 12.23 12.03V10.879H19.841L19.813 12.015ZM16.096 5.482L21.558 7.344L20.178 9.475H11.9L10.471 7.346L16.096 5.482ZM7.40398 24.782C7.40512 24.3072 7.54093 23.8424 7.79565 23.4416C8.05036 23.0409 8.41353 22.7206 8.84298 22.518L13.332 20.327C13.9042 20.6751 14.5386 20.9088 15.2 21.015V26.6H7.39998L7.40398 24.782ZM24.658 26.6H16.605V21.047C17.3563 20.9643 18.0803 20.7178 18.726 20.325L23.206 22.511H23.216C23.6466 22.7135 24.0108 23.0342 24.2661 23.4357C24.5214 23.8373 24.6573 24.3032 24.658 24.779V26.6Z" fill="white"/>
<path id="Path 8681" d="M15.3271 6.92969H16.7271V8.34869H15.3271V6.92969Z" fill="white"/>
</g>
</g>
</svg>
