<svg width="32" height="32" viewBox="0 0 32 32" fill="none" xmlns="http://www.w3.org/2000/svg">
<g id="Data Entry/Operator/BPO">
<g id="keyboard">
<g id="Group 6003">
<path id="Path 8553" d="M27.5312 9.46919C27.3847 9.31793 27.2088 9.19828 27.0143 9.11762C26.8197 9.03696 26.6108 8.99699 26.4002 9.00018H5.60021C5.38965 8.99693 5.18065 9.03687 4.98613 9.11754C4.79161 9.1982 4.61568 9.31788 4.46921 9.46919C4.3177 9.61592 4.19791 9.79218 4.11724 9.98706C4.03657 10.1819 3.99674 10.3913 4.00021 10.6022V21.8022C3.99702 22.0127 4.03698 22.2217 4.11764 22.4162C4.1983 22.6107 4.31795 22.7867 4.46921 22.9332C4.61568 23.0845 4.79161 23.2042 4.98613 23.2848C5.18065 23.3655 5.38965 23.4054 5.60021 23.4022H26.4002C26.8246 23.4022 27.2315 23.2336 27.5316 22.9336C27.8316 22.6335 28.0002 22.2265 28.0002 21.8022V10.6022C28.0037 10.3913 27.9638 10.1819 27.8832 9.98706C27.8025 9.79218 27.6827 9.61592 27.5312 9.46919ZM26.4002 21.8022H5.60021V10.6022H26.4002V21.8022Z" fill="white"/>
<path id="Path 8554" d="M7.39998 20.2033H8.59998C8.62714 20.2071 8.65482 20.2046 8.68083 20.1959C8.70684 20.1872 8.73048 20.1726 8.74988 20.1532C8.76927 20.1338 8.7839 20.1102 8.79259 20.0842C8.80129 20.0582 8.80382 20.0305 8.79999 20.0033V18.8033C8.80382 18.7762 8.80129 18.7485 8.79259 18.7224C8.7839 18.6964 8.76927 18.6728 8.74988 18.6534C8.73048 18.634 8.70684 18.6194 8.68083 18.6107C8.65482 18.602 8.62714 18.5995 8.59998 18.6033H7.39998C7.37282 18.5995 7.34515 18.602 7.31914 18.6107C7.29312 18.6194 7.26948 18.634 7.25009 18.6534C7.23069 18.6728 7.21607 18.6964 7.20737 18.7224C7.19868 18.7485 7.19615 18.7762 7.19998 18.8033V20.0033C7.19615 20.0305 7.19868 20.0582 7.20737 20.0842C7.21607 20.1102 7.23069 20.1338 7.25009 20.1532C7.26948 20.1726 7.29312 20.1872 7.31914 20.1959C7.34515 20.2046 7.37282 20.2071 7.39998 20.2033Z" fill="white"/>
<path id="Path 8555" d="M7.39998 17.0002H10.2C10.2271 17.004 10.2548 17.0015 10.2808 16.9928C10.3068 16.9841 10.3305 16.9695 10.3499 16.9501C10.3693 16.9307 10.3839 16.907 10.3926 16.881C10.4013 16.855 10.4038 16.8273 10.4 16.8002V15.6002C10.4038 15.573 10.4013 15.5453 10.3926 15.5193C10.3839 15.4933 10.3693 15.4697 10.3499 15.4503C10.3305 15.4309 10.3068 15.4163 10.2808 15.4076C10.2548 15.3989 10.2271 15.3963 10.2 15.4002H7.39998C7.37282 15.3963 7.34515 15.3989 7.31914 15.4076C7.29312 15.4163 7.26948 15.4309 7.25009 15.4503C7.23069 15.4697 7.21607 15.4933 7.20737 15.5193C7.19868 15.5453 7.19615 15.573 7.19998 15.6002V16.8002C7.19615 16.8273 7.19868 16.855 7.20737 16.881C7.21607 16.907 7.23069 16.9307 7.25009 16.9501C7.26948 16.9695 7.29312 16.9841 7.31914 16.9928C7.34515 17.0015 7.37282 17.004 7.39998 17.0002Z" fill="white"/>
<path id="Path 8556" d="M7.39998 13.8049H8.59998C8.62714 13.8087 8.65482 13.8062 8.68083 13.7975C8.70684 13.7888 8.73048 13.7742 8.74988 13.7548C8.76927 13.7354 8.7839 13.7117 8.79259 13.6857C8.80129 13.6597 8.80382 13.632 8.79999 13.6049V12.4049C8.80382 12.3777 8.80129 12.35 8.79259 12.324C8.7839 12.298 8.76927 12.2744 8.74988 12.255C8.73048 12.2356 8.70684 12.221 8.68083 12.2123C8.65482 12.2036 8.62714 12.201 8.59998 12.2049H7.39998C7.37282 12.201 7.34515 12.2036 7.31914 12.2123C7.29312 12.221 7.26948 12.2356 7.25009 12.255C7.23069 12.2744 7.21607 12.298 7.20737 12.324C7.19868 12.35 7.19615 12.3777 7.19998 12.4049V13.6049C7.19615 13.632 7.19868 13.6597 7.20737 13.6857C7.21607 13.7117 7.23069 13.7354 7.25009 13.7548C7.26948 13.7742 7.29312 13.7888 7.31914 13.7975C7.34515 13.8062 7.37282 13.8087 7.39998 13.8049Z" fill="white"/>
<path id="Path 8557" d="M21.4002 18.5955H10.6002C10.573 18.5917 10.5453 18.5942 10.5193 18.6029C10.4933 18.6116 10.4697 18.6262 10.4503 18.6456C10.4309 18.665 10.4163 18.6886 10.4076 18.7146C10.3989 18.7406 10.3963 18.7683 10.4002 18.7955V19.9955C10.3963 20.0226 10.3989 20.0503 10.4076 20.0764C10.4163 20.1024 10.4309 20.126 10.4503 20.1454C10.4697 20.1648 10.4933 20.1794 10.5193 20.1881C10.5453 20.1968 10.573 20.1993 10.6002 20.1955H21.4002C21.4273 20.1993 21.455 20.1968 21.481 20.1881C21.507 20.1794 21.5307 20.1648 21.5501 20.1454C21.5695 20.126 21.5841 20.1024 21.5928 20.0764C21.6015 20.0503 21.604 20.0226 21.6002 19.9955V18.7955C21.604 18.7683 21.6015 18.7406 21.5928 18.7146C21.5841 18.6886 21.5695 18.665 21.5501 18.6456C21.5307 18.6262 21.507 18.6116 21.481 18.6029C21.455 18.5942 21.4273 18.5917 21.4002 18.5955Z" fill="white"/>
<path id="Path 8558" d="M12.0003 16.8002C11.9964 16.8273 11.999 16.855 12.0077 16.881C12.0164 16.907 12.031 16.9307 12.0504 16.9501C12.0698 16.9695 12.0934 16.9841 12.1194 16.9928C12.1454 17.0015 12.1731 17.004 12.2003 17.0002H13.4003C13.4274 17.004 13.4551 17.0015 13.4811 16.9928C13.5071 16.9841 13.5308 16.9695 13.5502 16.9501C13.5696 16.9307 13.5842 16.907 13.5929 16.881C13.6016 16.855 13.6041 16.8273 13.6003 16.8002V15.6002C13.6041 15.573 13.6016 15.5453 13.5929 15.5193C13.5842 15.4933 13.5696 15.4697 13.5502 15.4503C13.5308 15.4309 13.5071 15.4163 13.4811 15.4076C13.4551 15.3989 13.4274 15.3963 13.4003 15.4002H12.2003C12.1731 15.3963 12.1454 15.3989 12.1194 15.4076C12.0934 15.4163 12.0698 15.4309 12.0504 15.4503C12.031 15.4697 12.0164 15.4933 12.0077 15.5193C11.999 15.5453 11.9964 15.573 12.0003 15.6002V16.8002Z" fill="white"/>
<path id="Path 8559" d="M10.6002 13.8049H11.8002C11.8273 13.8087 11.855 13.8062 11.881 13.7975C11.907 13.7888 11.9307 13.7742 11.9501 13.7548C11.9695 13.7354 11.9841 13.7117 11.9928 13.6857C12.0015 13.6597 12.004 13.632 12.0002 13.6049V12.4049C12.004 12.3777 12.0015 12.35 11.9928 12.324C11.9841 12.298 11.9695 12.2744 11.9501 12.255C11.9307 12.2356 11.907 12.221 11.881 12.2123C11.855 12.2036 11.8273 12.201 11.8002 12.2049H10.6002C10.573 12.201 10.5453 12.2036 10.5193 12.2123C10.4933 12.221 10.4697 12.2356 10.4503 12.255C10.4309 12.2744 10.4163 12.298 10.4076 12.324C10.3989 12.35 10.3963 12.3777 10.4002 12.4049V13.6049C10.3963 13.632 10.3989 13.6597 10.4076 13.6857C10.4163 13.7117 10.4309 13.7354 10.4503 13.7548C10.4697 13.7742 10.4933 13.7888 10.5193 13.7975C10.5453 13.8062 10.573 13.8087 10.6002 13.8049Z" fill="white"/>
<path id="Path 8560" d="M15.2 16.8002C15.1961 16.8273 15.1987 16.855 15.2074 16.881C15.2161 16.907 15.2307 16.9307 15.2501 16.9501C15.2695 16.9695 15.2931 16.9841 15.3191 16.9928C15.3451 17.0015 15.3728 17.004 15.4 17.0002H16.6C16.6271 17.004 16.6548 17.0015 16.6808 16.9928C16.7068 16.9841 16.7305 16.9695 16.7499 16.9501C16.7693 16.9307 16.7839 16.907 16.7926 16.881C16.8013 16.855 16.8038 16.8273 16.8 16.8002V15.6002C16.8038 15.573 16.8013 15.5453 16.7926 15.5193C16.7839 15.4933 16.7693 15.4697 16.7499 15.4503C16.7305 15.4309 16.7068 15.4163 16.6808 15.4076C16.6548 15.3989 16.6271 15.3963 16.6 15.4002H15.4C15.3728 15.3963 15.3451 15.3989 15.3191 15.4076C15.2931 15.4163 15.2695 15.4309 15.2501 15.4503C15.2307 15.4697 15.2161 15.4933 15.2074 15.5193C15.1987 15.5453 15.1961 15.573 15.2 15.6002V16.8002Z" fill="white"/>
<path id="Path 8561" d="M13.8004 13.8049H15.0004C15.0275 13.8087 15.0552 13.8062 15.0812 13.7975C15.1072 13.7888 15.1309 13.7742 15.1503 13.7548C15.1697 13.7354 15.1843 13.7117 15.193 13.6857C15.2017 13.6597 15.2042 13.632 15.2004 13.6049V12.4049C15.2042 12.3777 15.2017 12.35 15.193 12.324C15.1843 12.298 15.1697 12.2744 15.1503 12.255C15.1309 12.2356 15.1072 12.221 15.0812 12.2123C15.0552 12.2036 15.0275 12.201 15.0004 12.2049H13.8004C13.7732 12.201 13.7455 12.2036 13.7195 12.2123C13.6935 12.221 13.6699 12.2356 13.6505 12.255C13.6311 12.2744 13.6165 12.298 13.6078 12.324C13.5991 12.35 13.5965 12.3777 13.6004 12.4049V13.6049C13.5965 13.632 13.5991 13.6597 13.6078 13.6857C13.6165 13.7117 13.6311 13.7354 13.6505 13.7548C13.6699 13.7742 13.6935 13.7888 13.7195 13.7975C13.7455 13.8062 13.7732 13.8087 13.8004 13.8049Z" fill="white"/>
<path id="Path 8562" d="M18.3963 16.8002C18.3924 16.8273 18.395 16.855 18.4037 16.881C18.4124 16.907 18.427 16.9307 18.4464 16.9501C18.4658 16.9695 18.4894 16.9841 18.5154 16.9928C18.5414 17.0015 18.5691 17.004 18.5963 17.0002H19.7963C19.8234 17.004 19.8511 17.0015 19.8771 16.9928C19.9031 16.9841 19.9268 16.9695 19.9462 16.9501C19.9656 16.9307 19.9802 16.907 19.9889 16.881C19.9976 16.855 20.0001 16.8273 19.9963 16.8002V15.6002C20.0001 15.573 19.9976 15.5453 19.9889 15.5193C19.9802 15.4933 19.9656 15.4697 19.9462 15.4503C19.9268 15.4309 19.9031 15.4163 19.8771 15.4076C19.8511 15.3989 19.8234 15.3963 19.7963 15.4002H18.5963C18.5691 15.3963 18.5414 15.3989 18.5154 15.4076C18.4894 15.4163 18.4658 15.4309 18.4464 15.4503C18.427 15.4697 18.4124 15.4933 18.4037 15.5193C18.395 15.5453 18.3924 15.573 18.3963 15.6002V16.8002Z" fill="white"/>
<path id="Path 8563" d="M24.6 18.5955H23.4C23.3728 18.5917 23.3452 18.5942 23.3191 18.6029C23.2931 18.6116 23.2695 18.6262 23.2501 18.6456C23.2307 18.665 23.2161 18.6886 23.2074 18.7146C23.1987 18.7406 23.1961 18.7683 23.2 18.7955V19.9955C23.1961 20.0226 23.1987 20.0503 23.2074 20.0764C23.2161 20.1024 23.2307 20.126 23.2501 20.1454C23.2695 20.1648 23.2931 20.1794 23.3191 20.1881C23.3452 20.1968 23.3728 20.1993 23.4 20.1955H24.6C24.6272 20.1993 24.6548 20.1968 24.6808 20.1881C24.7069 20.1794 24.7305 20.1648 24.7499 20.1454C24.7693 20.126 24.7839 20.1024 24.7926 20.0764C24.8013 20.0503 24.8038 20.0226 24.8 19.9955V18.7955C24.8038 18.7683 24.8013 18.7406 24.7926 18.7146C24.7839 18.6886 24.7693 18.665 24.7499 18.6456C24.7305 18.6262 24.7069 18.6116 24.6808 18.6029C24.6548 18.5942 24.6272 18.5917 24.6 18.5955Z" fill="white"/>
<path id="Path 8564" d="M17.0001 13.8049H18.2001C18.2272 13.8087 18.2549 13.8062 18.2809 13.7975C18.3069 13.7888 18.3306 13.7742 18.35 13.7548C18.3694 13.7354 18.384 13.7117 18.3927 13.6857C18.4014 13.6597 18.4039 13.632 18.4001 13.6049V12.4049C18.4039 12.3777 18.4014 12.35 18.3927 12.324C18.384 12.298 18.3694 12.2744 18.35 12.255C18.3306 12.2356 18.3069 12.221 18.2809 12.2123C18.2549 12.2036 18.2272 12.201 18.2001 12.2049H17.0001C16.9729 12.201 16.9452 12.2036 16.9192 12.2123C16.8932 12.221 16.8696 12.2356 16.8502 12.255C16.8308 12.2744 16.8162 12.298 16.8075 12.324C16.7988 12.35 16.7962 12.3777 16.8001 12.4049V13.6049C16.7962 13.632 16.7988 13.6597 16.8075 13.6857C16.8162 13.7117 16.8308 13.7354 16.8502 13.7548C16.8696 13.7742 16.8932 13.7888 16.9192 13.7975C16.9452 13.8062 16.9729 13.8087 17.0001 13.8049Z" fill="white"/>
<path id="Path 8565" d="M20.2003 13.8049H21.4003C21.4274 13.8087 21.4551 13.8062 21.4811 13.7975C21.5071 13.7888 21.5307 13.7742 21.5501 13.7548C21.5695 13.7354 21.5842 13.7117 21.5929 13.6857C21.6016 13.6597 21.6041 13.632 21.6002 13.6049V12.4049C21.6041 12.3777 21.6016 12.35 21.5929 12.324C21.5842 12.298 21.5695 12.2744 21.5501 12.255C21.5307 12.2356 21.5071 12.221 21.4811 12.2123C21.4551 12.2036 21.4274 12.201 21.4003 12.2049H20.2003C20.1731 12.201 20.1454 12.2036 20.1194 12.2123C20.0934 12.221 20.0697 12.2356 20.0504 12.255C20.031 12.2744 20.0164 12.298 20.0077 12.324C19.999 12.35 19.9964 12.3777 20.0003 12.4049V13.6049C19.9964 13.632 19.999 13.6597 20.0077 13.6857C20.0164 13.7117 20.031 13.7354 20.0504 13.7548C20.0697 13.7742 20.0934 13.7888 20.1194 13.7975C20.1454 13.8062 20.1731 13.8087 20.2003 13.8049Z" fill="white"/>
<path id="Path 8566" d="M21.6004 16.8049C21.5965 16.832 21.5991 16.8597 21.6078 16.8857C21.6165 16.9117 21.6311 16.9354 21.6505 16.9548C21.6699 16.9741 21.6935 16.9888 21.7195 16.9975C21.7455 17.0062 21.7732 17.0087 21.8004 17.0049H24.6004C24.6275 17.0087 24.6552 17.0062 24.6812 16.9975C24.7072 16.9888 24.7309 16.9741 24.7503 16.9548C24.7697 16.9354 24.7843 16.9117 24.793 16.8857C24.8017 16.8597 24.8042 16.832 24.8004 16.8049V12.4049C24.8042 12.3777 24.8017 12.35 24.793 12.324C24.7843 12.298 24.7697 12.2744 24.7503 12.255C24.7309 12.2356 24.7072 12.221 24.6812 12.2123C24.6552 12.2036 24.6275 12.201 24.6004 12.2049H23.4004C23.3732 12.201 23.3455 12.2036 23.3195 12.2123C23.2935 12.221 23.2699 12.2356 23.2505 12.255C23.2311 12.2744 23.2165 12.298 23.2078 12.324C23.1991 12.35 23.1965 12.3777 23.2004 12.4049V15.4049H21.8004C21.7732 15.401 21.7455 15.4036 21.7195 15.4123C21.6935 15.421 21.6699 15.4356 21.6505 15.455C21.6311 15.4744 21.6165 15.498 21.6078 15.524C21.5991 15.55 21.5965 15.5777 21.6004 15.6049V16.8049Z" fill="white"/>
</g>
</g>
</g>
</svg>
