<svg width="32" height="32" viewBox="0 0 32 32" fill="none" xmlns="http://www.w3.org/2000/svg">
<path d="M23.078 4.00003H18.109V4.70003C18.109 5.25937 17.8868 5.79581 17.4913 6.19132C17.0958 6.58684 16.5593 6.80903 16 6.80903C15.4407 6.80903 14.9042 6.58684 14.5087 6.19132C14.1132 5.79581 13.891 5.25937 13.891 4.70003V4.00003H8.969C7.65781 3.99524 6.39826 4.51078 5.4667 5.43352C4.53515 6.35626 4.00767 7.61085 4 8.92203V15.3H8.266V28H23.781V15.3H28V8.92203C27.9987 7.61704 27.4797 6.36588 26.5569 5.44312C25.6341 4.52035 24.383 4.00136 23.078 4.00003ZM26.594 13.891H23.781V9.62503H22.375V26.594H9.672V9.62503H8.266V13.891H5.406V8.92203C5.41314 7.98358 5.79231 7.0863 6.46031 6.42712C7.1283 5.76794 8.03054 5.40071 8.969 5.40603H12.555C12.717 6.20012 13.1485 6.91385 13.7762 7.42644C14.404 7.93903 15.1895 8.21902 16 8.21902C16.8105 8.21902 17.596 7.93903 18.2238 7.42644C18.8515 6.91385 19.283 6.20012 19.445 5.40603H23.078C24.0102 5.40709 24.9039 5.77787 25.563 6.43702C26.2222 7.09616 26.5929 7.98986 26.594 8.92203V13.891Z" fill="white"/>
<path d="M17.7442 11.0782C17.4126 11.0755 17.0845 11.1458 16.7831 11.284C16.4817 11.4223 16.2144 11.6251 16.0002 11.8782C15.7859 11.6251 15.5186 11.4223 15.2172 11.284C14.9158 11.1458 14.5877 11.0755 14.2562 11.0782C13.9238 11.085 13.596 11.158 13.2922 11.293C12.9883 11.4279 12.7145 11.6222 12.4866 11.8643C12.2587 12.1064 12.0815 12.3915 11.9651 12.703C11.8488 13.0145 11.7958 13.346 11.8092 13.6782C11.8092 15.4652 13.4342 16.5372 15.5402 18.3632L16.0002 18.7632L16.4602 18.3632C18.4812 16.6112 20.1912 15.4962 20.1912 13.6782C20.2045 13.346 20.1515 13.0145 20.0352 12.703C19.9188 12.3915 19.7416 12.1064 19.5137 11.8643C19.2858 11.6222 19.012 11.4279 18.7081 11.293C18.4043 11.158 18.0766 11.085 17.7442 11.0782ZM16.0002 16.9022C14.2292 15.3972 13.2152 14.6262 13.2152 13.6752C13.2018 13.528 13.2184 13.3796 13.264 13.239C13.3097 13.0984 13.3834 12.9685 13.4808 12.8572C13.5781 12.746 13.697 12.6556 13.8303 12.5917C13.9636 12.5277 14.1085 12.4915 14.2562 12.4852C14.8952 12.4852 15.2022 13.1442 15.3042 13.4272L15.4722 13.8912H16.5302L16.6982 13.4272C16.7982 13.1442 17.1072 12.4852 17.7462 12.4852C17.8939 12.4915 18.0387 12.5277 18.172 12.5917C18.3053 12.6556 18.4242 12.746 18.5216 12.8572C18.6189 12.9685 18.6926 13.0984 18.7383 13.239C18.7839 13.3796 18.8006 13.528 18.7872 13.6752C18.7852 14.6402 17.6952 15.4602 16.0002 16.9022Z" fill="white"/>
<path d="M13.8911 19.5156H18.1101V20.9216H13.8911V19.5156Z" fill="white"/>
<path d="M12.4839 22.3281H19.5149V23.7341H12.4839V22.3281Z" fill="white"/>
</svg>
