<svg width="32" height="32" viewBox="0 0 32 32" fill="none" xmlns="http://www.w3.org/2000/svg">
<g id="Beauty Care/ Health &#38; Fitness">
<g id="Group 39523">
<path id="Path 8547" d="M20.3812 20.669C20.3877 19.7035 20.4806 18.7407 20.6588 17.793C20.8324 16.8374 20.7004 15.8491 20.2829 14.9784C19.8653 14.1078 19.1851 13.4026 18.3457 12.97V10.33C18.3457 10.1443 18.2746 9.9663 18.1481 9.83503C18.0215 9.70375 17.8499 9.63 17.671 9.63H16.9964V5.409H20.6867C21.2052 5.41006 21.7021 5.62451 22.0684 6.00528C22.4347 6.38605 22.6404 6.90204 22.6403 7.44C22.6403 7.62645 22.7117 7.80526 22.8388 7.9371C22.9659 8.06893 23.1382 8.143 23.3179 8.143C23.4976 8.143 23.6699 8.06893 23.797 7.9371C23.9241 7.80526 23.9955 7.62645 23.9955 7.44C23.9955 6.52887 23.6471 5.65495 23.0268 5.01002C22.4064 4.3651 21.5649 4.00185 20.6867 4H11.1201C10.94 4 10.7673 4.07422 10.64 4.20634C10.5126 4.33846 10.4411 4.51766 10.4411 4.7045C10.4411 4.89135 10.5126 5.07054 10.64 5.20266C10.7673 5.33478 10.94 5.409 11.1201 5.409H12.2497V9.626H11.575C11.4864 9.626 11.3987 9.64411 11.3168 9.67928C11.235 9.71446 11.1606 9.76602 11.0979 9.83103C11.0353 9.89603 10.9856 9.97319 10.9517 10.0581C10.9178 10.143 10.9003 10.2341 10.9003 10.326V12.975C10.0627 13.4065 9.38359 14.1097 8.96613 14.978C8.54866 15.8463 8.41563 16.8322 8.58723 17.786C8.76637 18.7517 8.85929 19.7326 8.86479 20.716C8.83869 22.3589 8.57621 23.9886 8.08605 25.551C7.99935 25.8321 7.97778 26.1305 8.02309 26.422C8.06841 26.7134 8.17932 26.9896 8.34684 27.2282C8.51435 27.4668 8.73373 27.661 8.98717 27.7951C9.24062 27.9292 9.52097 27.9994 9.80547 28H19.4434C19.728 27.9998 20.0084 27.9299 20.262 27.7962C20.5157 27.6624 20.7353 27.4684 20.9031 27.23C21.0709 26.9916 21.1821 26.7155 21.2277 26.4241C21.2734 26.1327 21.2521 25.8343 21.1657 25.553C20.6716 23.9745 20.4072 22.3284 20.3812 20.669ZM13.6047 5.409H15.6374V9.626H13.6047V5.409ZM12.2487 11.035H16.9925V12.545C15.4136 12.4174 13.8276 12.4174 12.2487 12.545V11.035ZM19.4434 26.591H9.80547C9.7342 26.5908 9.66399 26.5731 9.60054 26.5394C9.53709 26.5058 9.48219 26.457 9.44031 26.3972C9.39842 26.3374 9.37074 26.2682 9.3595 26.1951C9.34825 26.1221 9.35377 26.0474 9.37561 25.977C9.9077 24.2767 10.1916 22.5034 10.218 20.716C10.2125 19.6453 10.1118 18.5775 9.91726 17.526C9.84194 17.1019 9.85405 16.6661 9.95281 16.2472C10.0516 15.8283 10.2347 15.4359 10.4902 15.0958C10.7457 14.7557 11.0678 14.4756 11.4352 14.274C11.8025 14.0723 12.2069 13.9537 12.6217 13.926C13.9615 13.8345 15.3057 13.8345 16.6455 13.926C17.0595 13.9557 17.4627 14.076 17.8286 14.279C18.1945 14.4821 18.5148 14.7632 18.7684 15.104C19.022 15.4448 19.2031 15.8374 19.2999 16.2561C19.3966 16.6748 19.4068 17.11 19.3297 17.533C19.136 18.5671 19.0353 19.6176 19.029 20.671C19.0538 22.4744 19.338 24.2638 19.8723 25.98C19.8936 26.0501 19.8987 26.1244 19.8872 26.197C19.8758 26.2695 19.8481 26.3383 19.8064 26.3977C19.7647 26.4571 19.7101 26.5056 19.6471 26.5391C19.584 26.5727 19.5143 26.5905 19.4434 26.591Z" fill="white"/>
</g>
</g>
</svg>
