<svg width="32" height="32" viewBox="0 0 32 32" fill="none" xmlns="http://www.w3.org/2000/svg">
<g id="Education/Training">
<g id="study">
<g id="Group 6004">
<path id="Path 8580" d="M26.594 16.8238V14.5938C26.594 14.5018 26.5759 14.4108 26.5407 14.3259C26.5055 14.241 26.454 14.1638 26.389 14.0988C26.324 14.0338 26.2468 13.9822 26.1619 13.947C26.077 13.9119 25.9859 13.8938 25.894 13.8938C24.5231 13.8858 23.1547 14.0107 21.808 14.2668C21.0653 13.5504 20.1591 13.026 19.168 12.7388C19.9416 12.0894 20.4967 11.2178 20.758 10.2421C21.0192 9.26649 20.974 8.23409 20.6285 7.28502C20.283 6.33595 19.6538 5.51616 18.8265 4.93688C17.9991 4.3576 17.0135 4.04688 16.0035 4.04688C14.9935 4.04688 14.0079 4.3576 13.1805 4.93688C12.3532 5.51616 11.724 6.33595 11.3785 7.28502C11.033 8.23409 10.9878 9.26649 11.249 10.2421C11.5103 11.2178 12.0654 12.0894 12.839 12.7388C11.8487 13.025 10.9429 13.548 10.2 14.2628C8.85148 14.0077 7.48139 13.8841 6.109 13.8938C5.92335 13.8938 5.7453 13.9675 5.61403 14.0988C5.48275 14.2301 5.409 14.4081 5.409 14.5938V16.8238C4.99764 16.9691 4.64136 17.2383 4.38908 17.5942C4.1368 17.9502 4.00088 18.3755 4 18.8118V20.2178C4.00066 20.6537 4.13614 21.0787 4.38785 21.4346C4.63957 21.7906 4.9952 22.0599 5.406 22.2058V24.4358C5.406 24.6214 5.47975 24.7995 5.61103 24.9307C5.7423 25.062 5.92035 25.1358 6.106 25.1358C9.47955 25.0479 12.7977 26.0053 15.606 27.8768C15.7216 27.9535 15.8573 27.9945 15.996 27.9945C16.1347 27.9945 16.2704 27.9535 16.386 27.8768C19.1942 26.0053 22.5124 25.0479 25.886 25.1358C26.0717 25.1358 26.2497 25.062 26.381 24.9307C26.5122 24.7995 26.586 24.6214 26.586 24.4358V22.2058C26.9981 22.0613 27.3554 21.7927 27.6086 21.4368C27.8618 21.081 27.9985 20.6555 28 20.2188V18.8118C27.9993 18.3758 27.8639 17.9508 27.6121 17.5949C27.3604 17.239 27.0048 16.9696 26.594 16.8238ZM12.484 8.96876C12.4838 8.27332 12.6898 7.59344 13.0761 7.0151C13.4623 6.43677 14.0113 5.98596 14.6538 5.71969C15.2962 5.45341 16.0032 5.38364 16.6853 5.5192C17.3674 5.65475 17.994 5.98954 18.4858 6.48122C18.9777 6.9729 19.3126 7.59939 19.4484 8.28145C19.5841 8.96352 19.5145 9.67052 19.2485 10.313C18.9824 10.9556 18.5317 11.5047 17.9535 11.8911C17.3753 12.2775 16.6954 12.4838 16 12.4838C15.0699 12.4767 14.1798 12.1041 13.522 11.4465C12.8641 10.7889 12.4913 9.8989 12.484 8.96876ZM6.109 20.9218C5.92335 20.9218 5.7453 20.848 5.61403 20.7167C5.48275 20.5855 5.409 20.4074 5.409 20.2218V18.8118C5.409 18.6253 5.48307 18.4465 5.6149 18.3147C5.74674 18.1828 5.92555 18.1088 6.112 18.1088C6.29845 18.1088 6.47726 18.1828 6.6091 18.3147C6.74093 18.4465 6.815 18.6253 6.815 18.8118V20.2178C6.81553 20.3105 6.79762 20.4025 6.76231 20.4883C6.72699 20.574 6.67497 20.652 6.60928 20.7175C6.54359 20.783 6.46554 20.8348 6.37965 20.8698C6.29377 20.9049 6.20177 20.9226 6.109 20.9218ZM15.3 26.0348C12.7102 24.5651 9.78963 23.7768 6.812 23.7438V22.2068C7.2228 22.0609 7.57843 21.7916 7.83015 21.4356C8.08186 21.0797 8.21734 20.6547 8.218 20.2188V18.8118C8.21734 18.3758 8.08186 17.9508 7.83015 17.5949C7.57843 17.239 7.2228 16.9696 6.812 16.8238V15.3068C9.81761 15.3146 12.7594 16.1745 15.296 17.7868L15.3 26.0348ZM16 16.5688C14.7274 15.7604 13.3512 15.128 11.909 14.6888C12.7076 14.1683 13.6398 13.8905 14.593 13.8888H17.405C18.3582 13.8905 19.2904 14.1683 20.089 14.6888C18.6475 15.1282 17.272 15.7606 16 16.5688ZM25.187 23.7438C22.2097 23.777 19.2896 24.5653 16.7 26.0348V17.7878C19.2365 16.175 22.1783 15.3148 25.184 15.3068V16.8238C24.7732 16.9696 24.4176 17.239 24.1659 17.5949C23.9141 17.9508 23.7787 18.3758 23.778 18.8118V20.2178C23.7787 20.6537 23.9141 21.0787 24.1659 21.4346C24.4176 21.7906 24.7732 22.0599 25.184 22.2058L25.187 23.7438ZM26.593 20.2178C26.593 20.4042 26.5189 20.583 26.3871 20.7149C26.2553 20.8467 26.0764 20.9208 25.89 20.9208C25.7036 20.9208 25.5247 20.8467 25.3929 20.7149C25.2611 20.583 25.187 20.4042 25.187 20.2178V18.8118C25.187 18.6253 25.2611 18.4465 25.3929 18.3147C25.5247 18.1828 25.7036 18.1088 25.89 18.1088C26.0764 18.1088 26.2553 18.1828 26.3871 18.3147C26.5189 18.4465 26.593 18.6253 26.593 18.8118V20.2178Z" fill="white"/>
</g>
</g>
</g>
</svg>
