<svg width="32" height="32" viewBox="0 0 32 32" fill="none" xmlns="http://www.w3.org/2000/svg">
<g id="Driver">
<g id="chauffer">
<path id="Path 8769" d="M16 4C13.6266 4 11.3066 4.70379 9.33316 6.02236C7.35977 7.34094 5.8217 9.21509 4.91345 11.4078C4.0052 13.6005 3.76756 16.0133 4.23058 18.3411C4.6936 20.6689 5.83649 22.8071 7.51472 24.4853C9.19295 26.1635 11.3312 27.3064 13.6589 27.7694C15.9867 28.2324 18.3995 27.9948 20.5922 27.0866C22.7849 26.1783 24.6591 24.6402 25.9776 22.6668C27.2962 20.6935 28 18.3734 28 16C27.9963 12.8185 26.7308 9.76845 24.4812 7.51881C22.2316 5.26918 19.1815 4.00371 16 4ZM16 27.294C13.7663 27.294 11.5827 26.6316 9.7254 25.3906C7.86811 24.1496 6.42053 22.3857 5.56571 20.322C4.71089 18.2583 4.48724 15.9875 4.92302 13.7966C5.3588 11.6058 6.43445 9.59343 8.01394 8.01394C9.59344 6.43444 11.6058 5.35879 13.7967 4.92301C15.9875 4.48723 18.2583 4.71089 20.322 5.5657C22.3857 6.42052 24.1496 7.8681 25.3906 9.72539C26.6316 11.5827 27.294 13.7663 27.294 16C27.2906 18.9943 26.0996 21.865 23.9823 23.9823C21.865 26.0996 18.9943 27.2906 16 27.294Z" fill="white" stroke="white" stroke-width="0.5"/>
<path id="Path 8770" d="M19.2929 16.2509C19.2929 15.6497 19.1146 15.0619 18.7806 14.562C18.4465 14.0621 17.9717 13.6724 17.4162 13.4423C16.8608 13.2123 16.2495 13.1521 15.6598 13.2694C15.0701 13.3867 14.5284 13.6762 14.1033 14.1013C13.6781 14.5265 13.3886 15.0682 13.2713 15.6579C13.154 16.2476 13.2142 16.8588 13.4443 17.4143C13.6744 17.9698 14.064 18.4446 14.564 18.7786C15.0639 19.1127 15.6516 19.2909 16.2529 19.2909C17.0589 19.2901 17.8317 18.9696 18.4016 18.3997C18.9716 17.8297 19.2921 17.0569 19.2929 16.2509ZM16.2529 18.5849C15.7913 18.5849 15.34 18.4481 14.9562 18.1916C14.5724 17.9351 14.2732 17.5706 14.0965 17.1441C13.9199 16.7176 13.8737 16.2483 13.9637 15.7956C14.0538 15.3428 14.2761 14.927 14.6025 14.6006C14.9289 14.2741 15.3448 14.0518 15.7976 13.9618C16.2503 13.8717 16.7196 13.918 17.1461 14.0946C17.5726 14.2713 17.9371 14.5704 18.1935 14.9542C18.45 15.3381 18.5869 15.7893 18.5869 16.2509C18.5861 16.8702 18.3395 17.4639 17.9013 17.9015C17.4632 18.3391 16.8692 18.5849 16.2499 18.5849H16.2529Z" fill="white" stroke="white" stroke-width="0.5"/>
<path id="Path 8771" d="M25.688 18.4306C24.5977 18.139 23.4526 18.1181 22.3524 18.3699C21.2521 18.6216 20.2301 19.1384 19.3751 19.8752C18.5201 20.612 17.858 21.5466 17.4465 22.5976C17.0351 23.6486 16.8866 24.7842 17.014 25.9056C17.0238 25.9916 17.0649 26.071 17.1295 26.1288C17.194 26.1865 17.2775 26.2185 17.364 26.2186H17.405C19.3995 25.9867 21.2786 25.1621 22.7997 23.8514C24.3208 22.5406 25.414 20.8039 25.938 18.8656C25.9504 18.8207 25.9538 18.7737 25.9479 18.7274C25.942 18.6811 25.927 18.6364 25.9038 18.596C25.8805 18.5555 25.8495 18.5201 25.8125 18.4917C25.7754 18.4633 25.7331 18.4426 25.688 18.4306ZM22.358 23.2966C21.0365 24.4471 19.4158 25.1992 17.684 25.4656C17.6314 24.5143 17.798 23.5637 18.1709 22.687C18.5438 21.8102 19.1131 21.0309 19.8349 20.409C20.5567 19.7871 21.4117 19.3394 22.3339 19.1002C23.2562 18.861 24.221 18.8369 25.154 19.0296C24.6383 20.6849 23.6698 22.163 22.358 23.2966Z" fill="white" stroke="white" stroke-width="0.5"/>
<path id="Path 8772" d="M6.81202 18.4329C6.76722 18.445 6.72525 18.4657 6.68848 18.494C6.65172 18.5223 6.6209 18.5576 6.59777 18.5978C6.57465 18.638 6.55967 18.6824 6.55371 18.7284C6.54775 18.7744 6.55091 18.8211 6.56301 18.8659C7.08709 20.8042 8.18027 22.5409 9.70135 23.8516C11.2224 25.1624 13.1015 25.987 15.096 26.2189H15.137C15.2236 26.2187 15.3071 26.1868 15.3716 26.129C15.4361 26.0713 15.4772 25.9919 15.487 25.9059C15.6145 24.7843 15.4661 23.6486 15.0545 22.5975C14.643 21.5464 13.9809 20.6118 13.1257 19.875C12.2706 19.1381 11.2484 18.6214 10.148 18.3697C9.04763 18.118 7.90242 18.139 6.81202 18.4309V18.4329ZM14.812 25.4689C13.0904 25.2001 11.4783 24.4548 10.1582 23.3174C8.83805 22.18 7.86255 20.6959 7.34202 19.0329C8.27508 18.84 9.24 18.864 10.1623 19.103C11.0846 19.3421 11.9397 19.7899 12.6615 20.4118C13.3834 21.0337 13.9527 21.8132 14.3256 22.69C14.6984 23.5668 14.8648 24.5176 14.812 25.4689Z" fill="white" stroke="white" stroke-width="0.5"/>
<path id="Path 8773" d="M23.2948 9.10916C21.8954 7.72853 20.1212 6.78949 18.1927 6.40872C16.2641 6.02796 14.2662 6.22225 12.4471 6.96746C10.628 7.71266 9.06801 8.97593 7.96087 10.6003C6.85374 12.2247 6.2483 14.1386 6.21976 16.1042C6.21872 16.1772 6.24038 16.2488 6.28177 16.3091C6.32316 16.3693 6.38222 16.4152 6.45082 16.4405C6.51941 16.4657 6.59414 16.4691 6.66471 16.45C6.73527 16.431 6.79819 16.3905 6.84476 16.3342C8.02189 15.0134 9.4725 13.9648 11.0958 13.2613C12.7191 12.5577 14.4761 12.2161 16.2448 12.2602C18.0134 12.2161 19.7704 12.5577 21.3937 13.2613C23.017 13.9648 24.4676 15.0134 25.6448 16.3342C25.6913 16.3905 25.7543 16.431 25.8248 16.45C25.8954 16.4691 25.9701 16.4657 26.0387 16.4405C26.1073 16.4152 26.1664 16.3693 26.2078 16.3091C26.2491 16.2488 26.2708 16.1772 26.2698 16.1042C26.2409 13.4711 25.1713 10.9564 23.2948 9.10916ZM16.2498 11.5502C12.8161 11.4894 9.49436 12.7714 6.99176 15.1232C7.26737 12.8616 8.36121 10.7792 10.0669 9.26876C11.7725 7.75836 13.972 6.92448 16.2503 6.92448C18.5285 6.92448 20.728 7.75836 22.4337 9.26876C24.1393 10.7792 25.2332 12.8616 25.5088 15.1232C23.0059 12.7712 19.6838 11.4892 16.2498 11.5502Z" fill="white" stroke="white" stroke-width="0.5"/>
</g>
</g>
</svg>
