<svg width="32" height="32" viewBox="0 0 32 32" fill="none" xmlns="http://www.w3.org/2000/svg">
<g id="Sewing machine operator">
<g id="sewing-machine">
<g id="Group 6487">
<g id="Group 6486">
<path id="Path 8802" d="M26.2859 20.8638H25.3063C25.4362 20.8638 25.5608 20.8126 25.6527 20.7213C25.7445 20.6301 25.7961 20.5063 25.7961 20.3773C25.7961 20.2483 25.7445 20.1246 25.6527 20.0333C25.5608 19.9421 25.4362 19.8908 25.3063 19.8908H24.6059C24.1684 18.8037 23.9088 17.654 23.837 16.4854C23.8829 16.0619 24.0022 15.6495 24.1896 15.2663C24.5764 14.426 24.7896 13.5171 24.8165 12.5935C24.8269 11.773 24.5332 10.9773 23.9913 10.3578C23.4495 9.73837 22.6972 9.33834 21.8778 9.23386V7.72867C21.8778 7.59965 21.8262 7.47591 21.7343 7.38468C21.6425 7.29344 21.5179 7.24219 21.388 7.24219C21.2581 7.24219 21.1335 7.29344 21.0416 7.38468C20.9498 7.47591 20.8982 7.59965 20.8982 7.72867V9.20857C19.9685 9.26695 18.3796 9.4557 16.7026 9.65516C14.6112 9.90327 12.4472 10.1611 11.5921 10.1611C11.0823 10.1976 10.5736 10.077 10.1353 9.81586C9.69704 9.55468 9.35055 9.16559 9.14308 8.70165C9.14308 8.31457 8.98827 7.94335 8.7127 7.66965C8.43714 7.39595 8.06339 7.24219 7.67369 7.24219C7.28398 7.24219 6.91024 7.39595 6.63467 7.66965C6.35911 7.94335 6.2043 8.31457 6.2043 8.70165V15.5125C6.20556 15.8132 6.30034 16.1063 6.47569 16.3515C6.65104 16.5967 6.89839 16.7821 7.18389 16.8824V19.4044C7.18389 19.5334 7.2355 19.6571 7.32735 19.7483C7.41921 19.8396 7.54379 19.8908 7.67369 19.8908C7.80359 19.8908 7.92817 19.8396 8.02003 19.7483C8.11188 19.6571 8.16348 19.5334 8.16348 19.4044V16.8824C8.43209 16.7867 8.66684 16.6154 8.83905 16.3894C9.01127 16.1634 9.11351 15.8925 9.13328 15.6098C9.41344 14.3643 12.2474 13.7329 15.2067 14.2641C17.0582 14.5949 19.1476 15.4842 18.9439 16.8999C18.7996 18.0692 18.2105 19.1393 17.2972 19.8908H16.49C16.3601 19.8908 16.2355 19.9421 16.1437 20.0333C16.0518 20.1246 16.0002 20.2483 16.0002 20.3773C16.0002 20.5063 16.0518 20.6301 16.1437 20.7213C16.2355 20.8126 16.3601 20.8638 16.49 20.8638H5.7145C5.3248 20.8638 4.95105 21.0176 4.67549 21.2913C4.39993 21.565 4.24512 21.9362 4.24512 22.3233V23.2962C4.24512 23.6833 4.39993 24.0545 4.67549 24.3282C4.95105 24.6019 5.3248 24.7557 5.7145 24.7557H26.2859C26.6756 24.7557 27.0494 24.6019 27.3249 24.3282C27.6005 24.0545 27.7553 23.6833 27.7553 23.2962V22.3233C27.7553 21.9362 27.6005 21.565 27.3249 21.2913C27.0494 21.0176 26.6756 20.8638 26.2859 20.8638ZM8.16348 15.5125C8.16348 15.6415 8.11188 15.7652 8.02003 15.8565C7.92817 15.9477 7.80359 15.9989 7.67369 15.9989C7.54379 15.9989 7.41921 15.9477 7.32735 15.8565C7.2355 15.7652 7.18389 15.6415 7.18389 15.5125V8.70165C7.18389 8.57262 7.2355 8.44888 7.32735 8.35765C7.41921 8.26641 7.54379 8.21516 7.67369 8.21516C7.80359 8.21516 7.92817 8.26641 8.02003 8.35765C8.11188 8.44888 8.16348 8.57262 8.16348 8.70165V15.5125ZM19.9127 17.041C20.1654 15.2848 18.4276 13.8555 15.3792 13.3096C13.0448 12.8913 10.5106 13.1199 9.14308 14.0725V10.3109C9.84606 10.8453 10.7068 11.1346 11.5921 11.1341C12.506 11.1341 14.6983 10.8733 16.8182 10.6213C18.7196 10.3946 20.6856 10.1611 21.388 10.1611C21.7115 10.1542 22.0331 10.2124 22.3333 10.3322C22.6336 10.452 22.9063 10.6309 23.1351 10.8582C23.3639 11.0854 23.5441 11.3564 23.6647 11.6546C23.7853 11.9528 23.8439 12.2722 23.837 12.5935C23.8085 13.3934 23.619 14.1795 23.2796 14.9053C23.04 15.4009 22.8967 15.937 22.8574 16.4854C22.9236 17.6469 23.1544 18.7934 23.5431 19.8908H18.7117C19.3605 19.0641 19.7751 18.0802 19.9127 17.041ZM26.7757 23.2962C26.7757 23.4253 26.7241 23.549 26.6323 23.6402C26.5404 23.7315 26.4158 23.7827 26.2859 23.7827H5.7145C5.5846 23.7827 5.46002 23.7315 5.36817 23.6402C5.27631 23.549 5.22471 23.4253 5.22471 23.2962V22.3233C5.22471 22.1942 5.27631 22.0705 5.36817 21.9793C5.46002 21.888 5.5846 21.8368 5.7145 21.8368H26.2859C26.4158 21.8368 26.5404 21.888 26.6323 21.9793C26.7241 22.0705 26.7757 22.1942 26.7757 22.3233V23.2962Z" fill="white" stroke="white" stroke-width="0.5"/>
<path id="Path 8803" d="M25.3062 15.0253C25.4361 15.0253 25.5607 14.9741 25.6525 14.8828C25.7444 14.7916 25.796 14.6679 25.796 14.5389V9.67399C25.796 9.54496 25.7444 9.42122 25.6525 9.32999C25.5607 9.23875 25.4361 9.1875 25.3062 9.1875C25.1763 9.1875 25.0517 9.23875 24.9599 9.32999C24.868 9.42122 24.8164 9.54496 24.8164 9.67399V14.5389C24.8164 14.6679 24.868 14.7916 24.9599 14.8828C25.0517 14.9741 25.1763 15.0253 25.3062 15.0253Z" fill="white"/>
</g>
</g>
</g>
</g>
</svg>
