<svg width="32" height="32" viewBox="0 0 32 32" fill="none" xmlns="http://www.w3.org/2000/svg">
<g id="Physiotherapist">
<g id="Group">
<path id="Vector" d="M26.8056 16.8759C26.9713 16.6138 27.0591 16.3101 27.0588 16C27.0588 15.0918 26.32 14.3529 25.4118 14.3529H22.8235V11.664L25.8977 9.8992C26.6753 9.45186 26.9629 8.44786 26.5056 7.65106C26.0539 6.86334 25.0452 6.59012 24.257 7.04226L20.7172 9.07468C19.9846 9.49529 19.5294 10.2815 19.5294 11.1264V12.9412H18.4311V11.6861C18.4311 10.2167 17.6283 8.95647 16.4615 8.28513C16.8574 7.8304 17.0979 7.23708 17.0979 6.58824C17.0979 5.16108 15.9368 4 14.5096 4C13.0825 4 11.9214 5.16108 11.9214 6.58824C11.9214 7.23652 12.1616 7.82941 12.5568 8.28395C11.3544 8.97247 10.5882 10.2585 10.5882 11.6861V12.9885C10.0145 13.1054 9.51609 13.4318 9.17647 13.884C8.74682 13.3119 8.06301 12.9412 7.29412 12.9412C5.99671 12.9412 4.94118 13.9967 4.94118 15.2941C4.94118 15.8562 5.13953 16.3727 5.4696 16.7778C4.62348 17.0109 4 17.7867 4 18.7059V19.8824C4 20.9456 4.83412 21.8175 5.88235 21.8786V26.3529C5.88235 27.2611 6.62122 28 7.52941 28C8.4376 28 9.17647 27.2611 9.17647 26.3529V21.8824H22.8235V26.3529C22.8235 27.2611 23.5624 28 24.4706 28C25.3788 28 26.1176 27.2611 26.1176 26.3529V21.8786C27.1659 21.8175 28 20.9456 28 19.8824V18.7059C28 17.8896 27.5082 17.1864 26.8056 16.8759ZM26.1176 16C26.1176 16.3892 25.801 16.7059 25.4118 16.7059H22.016C22.3802 16.318 22.6419 15.833 22.7573 15.2941H25.4118C25.801 15.2941 26.1176 15.6108 26.1176 16ZM14.5096 4.94118C15.4178 4.94118 16.1567 5.68005 16.1567 6.58824C16.1567 7.49642 15.4178 8.23529 14.5096 8.23529C13.6015 8.23529 12.8626 7.49642 12.8626 6.58824C12.8626 5.68005 13.6015 4.94118 14.5096 4.94118ZM11.5294 11.6861C11.5286 11.0921 11.7056 10.5115 12.0376 10.019C12.3697 9.52646 12.8416 9.14464 13.3926 8.92268C14.0916 9.25849 14.9165 9.26386 15.6267 8.92268C16.7071 9.36014 17.4899 10.4218 17.4899 11.6861V12.9412H15.8405C15.8941 12.7901 15.9215 12.6309 15.9214 12.4706C15.9214 11.6921 15.2881 11.0588 14.5096 11.0588H14.0391V10.5882C14.0391 10.3284 13.8283 10.1176 13.5685 10.1176C13.3086 10.1176 13.0979 10.3284 13.0979 10.5882V11.5294C13.0979 11.7893 13.3086 12 13.5685 12H14.5096C14.7691 12 14.9802 12.2111 14.9802 12.4706C14.9802 12.7301 14.7691 12.9412 14.5096 12.9412H11.5294V11.6861ZM11.0588 13.8824H20C20.2599 13.8824 20.4706 13.6716 20.4706 13.4118V11.1264C20.4706 10.6176 20.7447 10.1442 21.1858 9.89092L24.7254 7.85859C25.0641 7.66433 25.4952 7.78094 25.6892 8.11939C25.8836 8.45802 25.7652 8.88969 25.4288 9.08315L22.1186 10.9834C22.0468 11.0246 21.9872 11.0841 21.9457 11.1557C21.9042 11.2274 21.8823 11.3087 21.8824 11.3915V14.6706C21.8824 15.7928 20.9693 16.7059 19.8471 16.7059H11.0588C10.2804 16.7059 9.64706 16.0726 9.64706 15.2941C9.64706 14.5157 10.2804 13.8824 11.0588 13.8824ZM7.29412 13.8824C8.07256 13.8824 8.70588 14.5157 8.70588 15.2941C8.70588 16.0726 8.07256 16.7059 7.29412 16.7059C6.51567 16.7059 5.88235 16.0726 5.88235 15.2941C5.88235 14.5157 6.51567 13.8824 7.29412 13.8824ZM8.23529 26.3529C8.23529 26.7422 7.91864 27.0588 7.52941 27.0588C7.14019 27.0588 6.82353 26.7422 6.82353 26.3529V21.8824H8.23529V26.3529ZM25.1765 26.3529C25.1765 26.7422 24.8598 27.0588 24.4706 27.0588C24.0814 27.0588 23.7647 26.7422 23.7647 26.3529V21.8824H25.1765V26.3529ZM27.0588 19.8824C27.0588 20.4662 26.5838 20.9412 26 20.9412H6C5.41619 20.9412 4.94118 20.4662 4.94118 19.8824V18.7059C4.94118 18.1221 5.41619 17.6471 6 17.6471H26C26.5838 17.6471 27.0588 18.1221 27.0588 18.7059V19.8824Z" fill="white"/>
</g>
</g>
</svg>
