<svg width="32" height="32" viewBox="0 0 32 32" fill="none" xmlns="http://www.w3.org/2000/svg">
<g id="Mechanic/Technician">
<g id="engineer">
<g id="Group 6470">
<path id="Path 8786" d="M26.7994 23.9194C24.9819 22.8637 23.0075 22.1048 20.9507 21.6715L21.1197 21.4395C21.1617 21.399 21.1915 21.3476 21.2056 21.291C21.2198 21.2344 21.2177 21.175 21.1997 21.1195L20.8247 19.6196C21.8246 18.209 22.3737 16.5285 22.3996 14.7997V13.1997H23.5996C23.7057 13.1997 23.8074 13.1576 23.8824 13.0826C23.9574 13.0076 23.9995 12.9058 23.9995 12.7998C23.9995 12.6937 23.9574 12.5919 23.8824 12.5169C23.8074 12.4419 23.7057 12.3998 23.5996 12.3998H23.1996V11.9998C23.1976 10.4625 22.6862 8.96914 21.7454 7.75332C20.8046 6.5375 19.4875 5.66772 17.9999 5.27996V5.19997C17.9999 4.88172 17.8735 4.5765 17.6484 4.35146C17.4234 4.12642 17.1182 4 16.8 4H15.2C14.8818 4 14.5766 4.12642 14.3516 4.35146C14.1265 4.5765 14.0001 4.88172 14.0001 5.19997V5.27996C12.5125 5.66772 11.1954 6.5375 10.2546 7.75332C9.31382 8.96914 8.80243 10.4625 8.80041 11.9998V12.3998H8.40043C8.29435 12.3998 8.19262 12.4419 8.1176 12.5169C8.04259 12.5919 8.00045 12.6937 8.00045 12.7998C8.00045 12.9058 8.04259 13.0076 8.1176 13.0826C8.19262 13.1576 8.29435 13.1997 8.40043 13.1997H9.60036V14.7997C9.62612 16.5289 10.1752 18.2097 11.1753 19.6206L10.8003 21.1195C10.7884 21.2323 10.8167 21.3456 10.8803 21.4395L11.0493 21.6715C8.99255 22.1049 7.01816 22.8637 5.20061 23.9194C4.83391 24.0969 4.52588 24.3759 4.31316 24.7234C4.10045 25.0708 3.99199 25.4721 4.00068 25.8794V27.5993C3.99747 27.6527 4.00562 27.7061 4.02459 27.7561C4.04355 27.8061 4.07291 27.8515 4.11071 27.8893C4.14851 27.9271 4.1939 27.9564 4.24388 27.9754C4.29386 27.9944 4.3473 28.0025 4.40066 27.9993H27.5993C27.6527 28.0025 27.7061 27.9944 27.7561 27.9754C27.8061 27.9564 27.8515 27.9271 27.8893 27.8893C27.9271 27.8515 27.9564 27.8061 27.9754 27.7561C27.9944 27.7061 28.0025 27.6527 27.9993 27.5993V25.8794C27.9894 25.476 27.8733 25.0824 27.6626 24.7382C27.4519 24.3941 27.1542 24.1117 26.7994 23.9194ZM15.76 23.5494L16 22.9995L16.6 24.3144L16.9909 25.1944H15.0401L15.76 23.5494ZM14.7361 25.9994H17.2609L17.4899 27.1993H14.5001L14.7361 25.9994ZM20.1998 20.3995L20.3598 21.1195L19.9508 21.6805C19.9233 21.7031 19.8994 21.7298 19.8798 21.7595L18.2159 24.0594L17.6879 24.7844L16.61 22.3615C17.8959 22.1785 19.0826 21.5677 19.9788 20.6275L20.0098 20.5965L20.0168 20.5885C20.0788 20.5292 20.1398 20.4662 20.1998 20.3995ZM19.6788 6.92592L19.8108 7.01591C20.317 7.38641 20.7708 7.8237 21.1597 8.31588L19.3198 8.67587L19.6788 6.92592ZM12.6792 8.67987L10.8403 8.31988C11.2292 7.82769 11.683 7.3904 12.1892 7.01991L12.3212 6.92992L12.6792 8.67987ZM9.60036 11.9998C9.59722 10.9698 9.85634 9.95599 10.3533 9.05386L13.1202 9.59984H13.2002C13.3107 9.59222 13.419 9.56514 13.5201 9.51984C13.5756 9.48018 13.617 9.42399 13.6386 9.35933C13.6601 9.29467 13.6607 9.22484 13.6401 9.15985L13.0912 6.48693C13.385 6.34611 13.6888 6.22712 14.0001 6.13094V7.19991C14.0001 7.30599 14.0423 7.40773 14.1173 7.48274C14.1923 7.55776 14.294 7.5999 14.4001 7.5999C14.5062 7.5999 14.6079 7.55776 14.6829 7.48274C14.7579 7.40773 14.8001 7.30599 14.8001 7.19991V5.19997C14.8001 5.14744 14.8104 5.09543 14.8305 5.0469C14.8506 4.99837 14.8801 4.95427 14.9172 4.91713C14.9544 4.87999 14.9985 4.85053 15.047 4.83042C15.0955 4.81032 15.1475 4.79998 15.2 4.79998H16.8C16.906 4.79998 17.0078 4.84212 17.0828 4.91713C17.1578 4.99214 17.1999 5.09388 17.1999 5.19997V7.19991C17.1999 7.30599 17.2421 7.40773 17.3171 7.48274C17.3921 7.55776 17.4938 7.5999 17.5999 7.5999C17.706 7.5999 17.8077 7.55776 17.8827 7.48274C17.9577 7.40773 17.9999 7.30599 17.9999 7.19991V6.13094C18.3215 6.2306 18.6351 6.35462 18.9378 6.50193L18.3999 9.11985C18.3966 9.25019 18.439 9.37755 18.5199 9.47984C18.555 9.51894 18.5983 9.54992 18.6467 9.57064C18.695 9.59135 18.7473 9.60132 18.7998 9.59984H18.8798L21.6287 9.02086C22.1374 9.93106 22.403 10.957 22.3996 11.9998V12.3998H9.60036V11.9998ZM10.4003 13.1997H21.5997V14.7997C21.6032 16.4144 21.0762 17.9855 20.0998 19.2716L20.0768 19.2796L19.9568 19.3996C19.7628 19.6593 19.5503 19.9046 19.3208 20.1335C18.4757 20.9736 17.3637 21.4921 16.177 21.5995C16.1213 21.5743 16.0611 21.5607 16 21.5595C15.9423 21.5588 15.8853 21.5711 15.833 21.5955C15.1349 21.5528 14.4561 21.3488 13.8501 20.9995C13.1521 20.584 12.5382 20.0413 12.0402 19.3996L11.9202 19.2796L11.9002 19.2716C10.9239 17.9855 10.3969 16.4144 10.4003 14.7997V13.1997ZM15.39 22.3615L14.3121 24.7884L13.7841 24.0634L12.1202 21.7595C12.1072 21.7465 12.0932 21.7345 12.0792 21.7215L11.6402 21.1215L11.8002 20.4015C11.8542 20.4595 11.9092 20.5165 11.9652 20.5725C12.8688 21.5428 14.0775 22.1742 15.39 22.3615ZM4.80064 25.8794C4.7985 25.6223 4.8686 25.3697 5.00296 25.1505C5.13731 24.9313 5.33052 24.7542 5.56059 24.6394C7.41504 23.5346 9.45467 22.7756 11.5803 22.3995L13.9671 25.6814L13.6671 27.1963H4.80064V25.8794ZM27.1994 27.1993H18.3359L18.0359 25.6844L20.4487 22.3665C22.5551 22.7753 24.5793 23.5298 26.4394 24.5994C26.6679 24.7266 26.8585 24.9121 26.992 25.1369C27.1255 25.3617 27.1971 25.6179 27.1994 25.8794V27.1993Z" fill="white" stroke="white" stroke-width="0.5"/>
</g>
</g>
</g>
</svg>
