<svg width="32" height="32" viewBox="0 0 32 32" fill="none" xmlns="http://www.w3.org/2000/svg">
<g id="Customer Service/Call Centre">
<g id="Group 6002">
<g id="Group 6001">
<path id="Path 8551" d="M9.625 13.5131H7.773C7.91316 11.6351 8.69144 9.86155 9.97862 8.48693C11.2658 7.1123 12.9844 6.21929 14.8491 5.95617C16.7139 5.69305 18.6125 6.07565 20.2298 7.04045C21.8471 8.00525 23.0857 9.4942 23.74 11.2601C23.8263 11.4935 24.0018 11.683 24.2279 11.787C24.454 11.891 24.7121 11.9009 24.9455 11.8146C25.1789 11.7282 25.3684 11.5527 25.4724 11.3267C25.5764 11.1006 25.5863 10.8425 25.5 10.6091C24.6795 8.3881 23.1066 6.52489 21.0549 5.3433C19.0031 4.1617 16.6022 3.73645 14.2694 4.14145C11.9366 4.54645 9.81949 5.75611 8.28607 7.56014C6.75265 9.36417 5.89988 11.6485 5.876 14.0161C5.3059 14.3451 4.83242 14.8184 4.50312 15.3883C4.17382 15.9583 4.00031 16.6048 4 17.2631V20.4511C4.00212 21.4446 4.39801 22.3968 5.10093 23.099C5.80385 23.8011 6.75645 24.196 7.75 24.1971H9.625C9.74813 24.1972 9.87008 24.1731 9.98388 24.126C10.0977 24.079 10.2011 24.01 10.2882 23.923C10.3753 23.836 10.4444 23.7326 10.4916 23.6189C10.5387 23.5051 10.563 23.3832 10.563 23.2601V14.4501C10.563 14.3269 10.5387 14.205 10.4916 14.0913C10.4444 13.9775 10.3753 13.8742 10.2882 13.7872C10.2011 13.7001 10.0977 13.6311 9.98388 13.5841C9.87008 13.5371 9.74813 13.5129 9.625 13.5131ZM8.688 22.3261H7.75C7.25288 22.3255 6.77628 22.1278 6.42476 21.7763C6.07324 21.4248 5.87553 20.9482 5.875 20.4511V17.2631C5.87553 16.7659 6.07324 16.2893 6.42476 15.9378C6.77628 15.5863 7.25288 15.3886 7.75 15.3881H8.688V22.3261Z" fill="white"/>
<path id="Path 8552" d="M24.2499 13.5156H22.3749C22.2518 13.5156 22.1299 13.5399 22.0161 13.5871C21.9024 13.6342 21.799 13.7033 21.712 13.7904C21.625 13.8775 21.556 13.9809 21.509 14.0947C21.4619 14.2085 21.4378 14.3305 21.4379 14.4536V24.2536C21.4377 24.5022 21.3389 24.7404 21.1633 24.9162C20.9876 25.0921 20.7495 25.1911 20.5009 25.1916H17.6419V25.2216C17.4407 24.858 17.1242 24.5715 16.7424 24.4072C16.3606 24.243 15.935 24.2103 15.5326 24.3142C15.1301 24.4182 14.7736 24.6529 14.5191 24.9815C14.2646 25.3101 14.1265 25.714 14.1265 26.1296C14.1265 26.5453 14.2646 26.9491 14.5191 27.2778C14.7736 27.6064 15.1301 27.8411 15.5326 27.9451C15.935 28.049 16.3606 28.0163 16.7424 27.852C17.1242 27.6878 17.4407 27.4013 17.6419 27.0376V27.0676H20.5009C21.2466 27.0668 21.9615 26.7703 22.4888 26.2432C23.0161 25.716 23.3129 25.0013 23.3139 24.2556V24.2086H24.2519C25.2462 24.2076 26.1994 23.8121 26.9024 23.1091C27.6055 22.4061 28.0009 21.4529 28.0019 20.4586V17.2656C28.0009 16.271 27.6052 15.3175 26.9017 14.6144C26.1983 13.9114 25.2445 13.5162 24.2499 13.5156ZM26.1249 20.4536C26.1244 20.9507 25.9267 21.4274 25.5752 21.7789C25.2237 22.1304 24.7471 22.3281 24.2499 22.3286H23.3129V15.3916H24.2509C24.7477 15.3924 25.2239 15.5901 25.5752 15.9414C25.9265 16.2926 26.1241 16.7689 26.1249 17.2656V20.4536Z" fill="white"/>
</g>
</g>
</g>
</svg>
