<svg width="32" height="32" viewBox="0 0 32 32" fill="none" xmlns="http://www.w3.org/2000/svg">
<g id="Showroom Assistant/Salesman">
<g id="Group">
<path id="Vector" d="M14.534 9.91174L12.9032 9.50423V8.82323C13.3771 8.39776 13.6774 7.78271 13.6774 7.09677V6.32258C13.6774 5.04163 12.6358 4 11.3548 4C10.0739 4 9.03226 5.04163 9.03226 6.32258V7.09677C9.03226 7.78232 9.3326 8.39737 9.80645 8.82323V9.50423L8.17566 9.91213C7.75668 10.0163 7.38465 10.2578 7.11894 10.5981C6.85323 10.9383 6.70914 11.3578 6.70968 11.7895V17.9355H4V22.5806H8.25806V28H14.4516V11.7419H13.6774V16H9.03226V11.7419H8.25806V17.9355H7.48387V11.7895C7.48387 11.2558 7.84581 10.7923 8.36335 10.6627L10.0747 10.2353L10.5625 10.7231L10.1754 14.207L11.3548 15.3861L12.5343 14.2067L12.1472 10.7228L12.635 10.2349L14.3463 10.6623C14.5976 10.7252 14.8207 10.8703 14.9801 11.0745C15.1395 11.2788 15.226 11.5304 15.2258 11.7895V18.3226H16V11.7895C16.0005 11.3578 15.8564 10.9383 15.5907 10.5979C15.325 10.2576 14.953 10.016 14.534 9.91174ZM8.73724 18.7097L7.53337 19.7129C7.28921 19.9164 6.90473 19.9167 6.66052 19.7126L5.45669 18.7097H8.73724ZM4.77419 19.1489L6.16421 20.3072C6.4256 20.5252 6.75656 20.6452 7.09677 20.6452C7.43698 20.6452 7.76795 20.5252 8.029 20.3076L9.41935 19.1489V21.8065H4.77419V19.1489ZM9.03226 16.7742H13.6774V27.2258H11.7419V18.3226H10.9677V27.2258H9.03226V22.5806H10.1935V17.9355H9.03226V16.7742ZM9.80645 6.32258C9.80645 5.46865 10.5009 4.77419 11.3548 4.77419C12.2088 4.77419 12.9032 5.46865 12.9032 6.32258V7.09677C12.9032 7.95071 12.2088 8.64516 11.3548 8.64516C10.5009 8.64516 9.80645 7.95071 9.80645 7.09677V6.32258ZM11.3548 9.41935C11.6266 9.41935 11.8863 9.36985 12.129 9.28387V9.64614L11.3548 10.4203L10.5806 9.64614V9.28387C10.8234 9.3699 11.083 9.41935 11.3548 9.41935ZM11.3548 14.2914L10.9859 13.9224L11.3548 10.6023L11.7238 13.9223L11.3548 14.2914ZM26.534 9.91174L24.9032 9.50423V8.82323C25.3771 8.39776 25.6774 7.78271 25.6774 7.09677V6.32258C25.6774 5.04163 24.6358 4 23.3548 4C22.0739 4 21.0323 5.04163 21.0323 6.32258V7.09677C21.0323 7.78232 21.3326 8.39737 21.8065 8.82323V9.50423L20.1757 9.91213C19.7567 10.0163 19.3846 10.2578 19.1189 10.5981C18.8532 10.9383 18.7091 11.3578 18.7097 11.7895V18.3226H19.4839V11.7895C19.4839 11.2558 19.8458 10.7923 20.3634 10.6627L22.5806 10.1087V9.28387C22.8234 9.37024 23.083 9.4194 23.3548 9.4194C23.6266 9.4194 23.8863 9.3699 24.129 9.28392V10.1087L26.3463 10.6628C26.5976 10.7255 26.8207 10.8705 26.9801 11.0747C27.1395 11.2788 27.226 11.5305 27.2258 11.7895V18.3226H28V11.7895C28.0005 11.3578 27.8564 10.9383 27.5907 10.5979C27.325 10.2576 26.953 10.016 26.534 9.91174ZM21.8065 7.09677V6.32258C21.8065 5.46865 22.5009 4.77419 23.3548 4.77419C24.2088 4.77419 24.9032 5.46865 24.9032 6.32258V7.09677C24.9032 7.95071 24.2088 8.64516 23.3548 8.64516C22.5009 8.64516 21.8065 7.95071 21.8065 7.09677Z" fill="white"/>
<path id="Vector_2" d="M25.6776 16H21.0324V11.7419H20.2582V28H26.4518V11.7419H25.6776V16ZM23.7421 27.2258V18.3226H22.9679V27.2258H21.0324V16.7742H25.6776V27.2258H23.7421ZM15.6131 7.87097H18.7675L20.2582 9.06361V4.77419C20.2582 4.34723 19.911 4 19.484 4H15.6131C15.1861 4 14.8389 4.34723 14.8389 4.77419V7.09677C14.8389 7.52374 15.1861 7.87097 15.6131 7.87097ZM15.6131 4.77419H19.484V7.45252L19.0393 7.09677H15.6131V4.77419Z" fill="white"/>
<path id="Vector_3" d="M16.3872 5.54688H17.1614V6.32107H16.3872V5.54688ZM17.9356 5.54688H18.7098V6.32107H17.9356V5.54688Z" fill="white"/>
</g>
</g>
</svg>
