<svg width="32" height="32" viewBox="0 0 32 32" fill="none" xmlns="http://www.w3.org/2000/svg">
<g id="Beautician/ Salon">
<g id="Group">
<path id="Vector" d="M24.3161 11.528C23.3041 10.908 21.8441 10.416 21.0321 10.8C19.7481 11.408 20.2361 14.104 20.4241 14.944L19.3841 16.968V11.936C19.3801 8.664 16.7161 6 13.4441 6C10.1721 6 7.51213 8.664 7.51213 11.936V19.56C5.99213 20.652 6.08013 22.376 6.16813 24.176C6.19213 24.636 6.21613 25.116 6.21613 25.6C6.21613 25.82 6.39613 26 6.61613 26H20.2801C20.5001 26 20.6801 25.82 20.6801 25.6C20.6801 25.116 20.7041 24.636 20.7281 24.176C20.7921 22.868 20.8521 21.604 20.3001 20.588L22.7561 16.196C23.5201 15.892 25.9161 14.828 25.8761 13.448C25.8521 12.596 24.8881 11.88 24.3161 11.528ZM8.31213 11.936C8.31213 9.104 10.6161 6.8 13.4441 6.8C16.2761 6.8 18.5761 9.104 18.5761 11.936V19.116C18.1881 18.948 17.7441 18.8 17.2121 18.688C16.3641 18.508 15.7321 17.8 15.6201 16.944C16.5481 16.06 17.1521 14.628 17.1521 13.012C17.1521 11.26 16.4321 9.64 15.2761 8.776C15.2277 8.74025 15.1718 8.71592 15.1126 8.70483C15.0535 8.69374 14.9926 8.69617 14.9345 8.71194C14.8764 8.72772 14.8226 8.75643 14.7772 8.79592C14.7317 8.83541 14.6958 8.88467 14.6721 8.94C13.7641 11.012 12.0521 12.376 10.0881 12.584C9.89213 12.604 9.74013 12.776 9.73213 12.972V13.012C9.73213 14.628 10.3401 16.06 11.2681 16.944C11.216 17.3637 11.0348 17.7569 10.7496 18.0693C10.4645 18.3817 10.0894 18.5979 9.67613 18.688C9.14413 18.8 8.70013 18.948 8.31213 19.116V11.936ZM15.0441 21.372L15.9121 21.936C15.7001 22.528 15.0401 23.992 13.4441 25.116C11.8481 23.992 11.1881 22.528 10.9761 21.936L11.8441 21.372C11.9561 21.3 12.0241 21.176 12.0281 21.044C12.0281 20.912 11.9641 20.784 11.8561 20.708L10.6641 19.884L10.8601 19.116C11.6327 19.6084 12.5283 19.8733 13.4444 19.8804C14.3605 19.8875 15.2601 19.6364 16.0401 19.156L16.2241 19.884L15.0321 20.708C14.9241 20.784 14.8561 20.908 14.8601 21.044C14.8641 21.176 14.9361 21.3 15.0441 21.372ZM13.4441 17.08C11.9121 17.08 10.6521 15.42 10.5401 13.328C12.4801 12.996 14.1641 11.692 15.1721 9.748C15.9121 10.512 16.3561 11.716 16.3561 13.012C16.3561 15.256 15.0521 17.08 13.4441 17.08ZM13.4441 17.88C13.9681 17.88 14.4681 17.736 14.9241 17.476C15.0401 17.872 15.2321 18.24 15.4961 18.548C14.8737 18.9005 14.1697 19.0834 13.4544 19.0785C12.7391 19.0736 12.0376 18.881 11.4201 18.52C11.6721 18.22 11.8601 17.868 11.9721 17.48C12.4241 17.736 12.9201 17.88 13.4441 17.88ZM6.96813 24.136C6.84813 21.72 6.76813 20.124 9.84413 19.472C9.88413 19.464 9.92013 19.448 9.95613 19.44L9.82413 19.956C9.78413 20.116 9.84813 20.288 9.98413 20.384L10.9121 21.028L10.2881 21.432C10.2183 21.4764 10.1642 21.5416 10.1334 21.6184C10.1025 21.6951 10.0965 21.7796 10.1161 21.86C10.1361 21.944 10.5761 23.684 12.2721 25.204H7.00813C7.00013 24.836 6.98413 24.48 6.96813 24.136ZM19.9241 24.136C19.9081 24.48 19.8881 24.836 19.8801 25.2H14.6201C16.3161 23.684 16.7561 21.944 16.7761 21.856C16.7958 21.7756 16.7897 21.6911 16.7589 21.6144C16.728 21.5376 16.6739 21.4724 16.6041 21.428L15.9801 21.024L16.9081 20.38C17.0441 20.284 17.1081 20.116 17.0681 19.952L16.9361 19.436C16.9761 19.444 17.0081 19.46 17.0481 19.472C20.1241 20.124 20.0441 21.72 19.9241 24.136ZM19.7681 19.888C19.6474 19.7662 19.5162 19.6551 19.3761 19.556V18.712L21.0081 15.54L21.9201 16.032L19.7681 19.888ZM22.5001 15.432L22.2001 15.272L22.7121 14.32C22.8161 14.124 22.7441 13.884 22.5481 13.78C22.3521 13.676 22.1121 13.748 22.0081 13.944L21.4961 14.896L21.1921 14.732C20.9241 13.492 20.8401 11.776 21.3721 11.524C21.8121 11.316 22.9441 11.624 23.8961 12.212C24.7001 12.704 25.0681 13.2 25.0761 13.468C25.0921 14.104 23.6041 14.984 22.5001 15.432Z" fill="white"/>
</g>
</g>
</svg>
