<svg width="32" height="32" viewBox="0 0 32 32" fill="none" xmlns="http://www.w3.org/2000/svg">
<g id="Receptionist/ PS">
<g id="Group 6030">
<g id="Group 6029">
<path id="Path 8674" d="M23.313 9.626C23.8694 9.626 24.4133 9.461 24.8759 9.15186C25.3385 8.84272 25.6991 8.40333 25.912 7.88926C26.1248 7.37519 26.1805 6.80954 26.0719 6.26384C25.9632 5.71815 25.6952 5.21692 25.3017 4.82356C24.9082 4.43019 24.4069 4.16236 23.8612 4.05393C23.3154 3.9455 22.7498 4.00135 22.2358 4.21442C21.7218 4.42748 21.2826 4.78818 20.9736 5.25091C20.6646 5.71364 20.4998 6.2576 20.5 6.814C20.5011 7.55964 20.7978 8.27442 21.3251 8.80157C21.8525 9.32872 22.5674 9.62521 23.313 9.626ZM23.313 5.876C23.4985 5.8758 23.68 5.93065 23.8344 6.0336C23.9888 6.13654 24.1091 6.28297 24.1803 6.45435C24.2514 6.62573 24.2702 6.81436 24.2341 6.99638C24.198 7.1784 24.1088 7.34563 23.9776 7.47691C23.8465 7.60819 23.6794 7.69763 23.4974 7.7339C23.3154 7.77018 23.1267 7.75166 22.9553 7.6807C22.7838 7.60973 22.6373 7.48951 22.5341 7.33523C22.431 7.18096 22.376 6.99956 22.376 6.814C22.3763 6.56548 22.475 6.3272 22.6507 6.15138C22.8263 5.97556 23.0645 5.87653 23.313 5.876Z" fill="white"/>
<path id="Path 8675" d="M17.688 26.125H5.87498V19.325H15.813C16.0563 19.317 16.287 19.2148 16.4564 19.0399C16.6257 18.8649 16.7204 18.631 16.7204 18.3875C16.7204 18.144 16.6257 17.9101 16.4564 17.7352C16.287 17.5602 16.0563 17.4579 15.813 17.45H7.56298V13.559C7.56351 13.3105 7.66253 13.0723 7.83836 12.8967C8.01418 12.721 8.25246 12.6223 8.50098 12.622H12.25C12.4987 12.6223 12.7371 12.7212 12.913 12.897C13.0888 13.0729 13.1877 13.3113 13.188 13.56V14.638C13.1959 14.8813 13.2982 15.1121 13.4731 15.2814C13.6481 15.4507 13.882 15.5454 14.1255 15.5454C14.3689 15.5454 14.6029 15.4507 14.7778 15.2814C14.9528 15.1121 15.055 14.8813 15.063 14.638V13.56C15.0614 12.8147 14.7644 12.1005 14.2371 11.5737C13.7099 11.047 12.9953 10.7508 12.25 10.75H8.49998C7.75434 10.7511 7.03956 11.0478 6.51241 11.5751C5.98526 12.1025 5.68877 12.8174 5.68798 13.563V17.45H4.93798C4.81484 17.45 4.69292 17.4743 4.57917 17.5214C4.46542 17.5686 4.36209 17.6377 4.27506 17.7248C4.18804 17.8119 4.11904 17.9153 4.07201 18.0291C4.02498 18.1429 4.00085 18.2649 4.00098 18.388V27.997H17.688C17.9313 27.989 18.162 27.8868 18.3314 27.7119C18.5007 27.5369 18.5954 27.303 18.5954 27.0595C18.5954 26.816 18.5007 26.5821 18.3314 26.4072C18.162 26.2322 17.9313 26.1299 17.688 26.122V26.125Z" fill="white"/>
<path id="Path 8676" d="M10.6099 9.67288C11.1663 9.67288 11.7102 9.50787 12.1728 9.19873C12.6354 8.88959 12.996 8.4502 13.2088 7.93613C13.4217 7.42207 13.4774 6.85642 13.3688 6.31072C13.2601 5.76502 12.9921 5.2638 12.5986 4.87043C12.2051 4.47707 11.7038 4.20923 11.1581 4.10081C10.6123 3.99238 10.0467 4.04823 9.53269 4.26129C9.0187 4.47435 8.57944 4.83506 8.27046 5.29778C7.96149 5.76051 7.79668 6.30447 7.79688 6.86088C7.79793 7.60651 8.09468 8.32129 8.62202 8.84844C9.14936 9.3756 9.86424 9.67208 10.6099 9.67288ZM10.6099 5.92288C10.7954 5.92268 10.9769 5.97752 11.1313 6.08047C11.2857 6.18342 11.406 6.32985 11.4772 6.50123C11.5483 6.67261 11.5671 6.86124 11.531 7.04326C11.4949 7.22528 11.4056 7.39251 11.2745 7.52379C11.1434 7.65507 10.9762 7.7445 10.7942 7.78078C10.6123 7.81705 10.4236 7.79854 10.2522 7.72757C10.0807 7.65661 9.93414 7.53638 9.83102 7.3821C9.72791 7.22783 9.67287 7.04644 9.67287 6.86088C9.67314 6.61236 9.77191 6.37408 9.94755 6.19826C10.1232 6.02243 10.3614 5.92341 10.6099 5.92288Z" fill="white"/>
<path id="Path 8677" d="M25.188 10.5156H21.438C20.6922 10.5164 19.9772 10.813 19.4498 11.3404C18.9224 11.8678 18.6258 12.5828 18.625 13.3286V18.4376C18.6256 19.0191 18.8061 19.5862 19.1418 20.0611C19.4775 20.5359 19.952 20.8952 20.5 21.0896V27.0626C20.5079 27.306 20.6102 27.5367 20.7852 27.706C20.9601 27.8753 21.194 27.97 21.4375 27.97C21.681 27.97 21.9149 27.8753 22.0898 27.706C22.2648 27.5367 22.3671 27.306 22.375 27.0626V20.3156C22.375 20.0671 22.2763 19.8288 22.1006 19.6531C21.9248 19.4773 21.6865 19.3786 21.438 19.3786C21.1896 19.3781 20.9516 19.2792 20.776 19.1036C20.6004 18.928 20.5015 18.69 20.501 18.4416V13.3326C20.5015 13.0841 20.6005 12.8459 20.7764 12.6703C20.9522 12.4947 21.1905 12.3959 21.439 12.3956H25.189C25.4377 12.3959 25.6761 12.4948 25.852 12.6707C26.0278 12.8465 26.1267 13.0849 26.127 13.3336V18.4426C26.1267 18.6911 26.028 18.9294 25.8523 19.1052C25.6767 19.2811 25.4385 19.3801 25.19 19.3806C25.0669 19.3806 24.945 19.4049 24.8312 19.452C24.7175 19.4992 24.6141 19.5683 24.5271 19.6554C24.4401 19.7425 24.3711 19.846 24.324 19.9597C24.277 20.0735 24.2529 20.1955 24.253 20.3186V27.0686C24.2609 27.312 24.3632 27.5427 24.5381 27.712C24.7131 27.8813 24.947 27.976 25.1905 27.976C25.434 27.976 25.6679 27.8813 25.8428 27.712C26.0178 27.5427 26.12 27.312 26.128 27.0686V21.0956C26.676 20.9012 27.1505 20.5419 27.4862 20.067C27.8219 19.5922 28.0024 19.0251 28.003 18.4436V13.3346C28.0034 12.9647 27.9309 12.5982 27.7896 12.2563C27.6483 11.9144 27.441 11.6036 27.1796 11.3418C26.9182 11.08 26.6078 10.8723 26.266 10.7306C25.9243 10.5888 25.558 10.5158 25.188 10.5156Z" fill="white"/>
</g>
</g>
</g>
</svg>
