<svg width="32" height="32" viewBox="0 0 32 32" fill="none" xmlns="http://www.w3.org/2000/svg">
<g id="Marketing/Sales">
<g id="business-man-hand-drawn-outline">
<g id="Group 6028">
<path id="Path 8645" d="M12.8605 12.229C13.6411 12.8308 14.5796 13.1598 15.5451 13.17C16.8239 13.1464 18.0435 12.5953 18.9446 11.634C19.2014 11.37 19.4705 11.062 19.5432 10.97C19.5771 10.9267 19.6065 10.8798 19.631 10.83C20.0912 10.0151 20.2976 9.06756 20.221 8.12154C20.1444 7.17553 19.7887 6.27902 19.2042 5.559C18.9209 5.207 18.6698 4.908 18.5782 4.814C18.5262 4.76191 18.4673 4.71812 18.4035 4.684C17.6307 4.2463 16.7699 4.01172 15.8936 4C14.6958 4.02062 13.5399 4.47001 12.614 5.275C12.5686 5.31179 12.5277 5.35446 12.4922 5.402C12.4186 5.502 12.1806 5.848 11.9691 6.175C11.6354 6.62766 11.393 7.14796 11.2567 7.70376C11.1204 8.25957 11.0932 8.83906 11.1767 9.40644C11.2603 9.97382 11.4528 10.517 11.7424 11.0025C12.032 11.488 12.4126 11.9054 12.8605 12.229ZM13.4837 6.49C13.5048 6.46604 13.5243 6.44065 13.5423 6.414C13.7518 6.17664 14.0004 5.98178 14.276 5.839C15.059 5.42315 15.9601 5.33082 16.8038 5.58C17.28 5.74019 17.7115 6.02257 18.0597 6.402C18.4107 6.78341 18.6584 7.25775 18.7769 7.77534C18.8953 8.29294 18.8802 8.83474 18.733 9.344C18.6571 9.63295 18.5379 9.90711 18.3799 10.156C18.051 10.6502 17.6069 11.0457 17.0908 11.3041C16.5747 11.5625 16.0043 11.6749 15.4349 11.6304C14.8656 11.5858 14.3169 11.3859 13.8423 11.0501C13.3676 10.7143 12.9832 10.2539 12.7264 9.714C12.5185 9.16023 12.4798 8.55137 12.6156 7.97305C12.7514 7.39474 13.0551 6.87607 13.4837 6.49Z" fill="white"/>
<path id="Path 8646" d="M24.5193 16.0624C24.5177 15.9566 24.4897 15.8531 24.4381 15.7624C24.1608 15.2496 23.7427 14.8382 23.2395 14.583C22.7362 14.3277 22.1714 14.2407 21.6203 14.3334C21.6099 14.3334 21.6005 14.3384 21.5901 14.3404C21.5679 14.3369 21.5455 14.3346 21.5231 14.3334C17.4613 14.19 13.3952 14.2741 9.34176 14.5854C9.26135 14.5761 9.17999 14.5846 9.10285 14.6104C8.69103 14.7371 8.30951 14.9554 7.98381 15.2508C7.65811 15.5463 7.39575 15.9119 7.21428 16.3234C7.18166 16.3992 7.16001 16.4798 7.15007 16.5624C7.10911 16.6477 7.08745 16.7418 7.0868 16.8374C7.03203 19.7704 6.91683 22.6994 7.0868 25.6314C7.09053 25.7388 7.12141 25.8431 7.17622 25.9336C7.23104 26.024 7.30777 26.0971 7.39841 26.1454C7.49466 26.2409 7.62259 26.2923 7.75441 26.2884C8.84979 26.2884 9.9461 26.2884 11.0405 26.2294C11.0405 26.6184 11.0405 26.9794 11.0405 27.2914C11.0399 27.3883 11.0609 27.4839 11.1019 27.5704C11.1351 27.6783 11.2007 27.7717 11.2886 27.8365C11.3766 27.9013 11.4821 27.9339 11.5892 27.9294C14.6874 27.9294 17.7856 27.9974 20.8838 28.0004C20.9806 27.9982 21.0752 27.9685 21.1575 27.9145C21.2398 27.8604 21.3069 27.7838 21.3518 27.6929C21.3966 27.602 21.4176 27.4999 21.4126 27.3975C21.4075 27.295 21.3765 27.1959 21.3229 27.1104C21.3229 26.9804 21.3229 26.8434 21.3182 26.7004C22.2058 26.6524 23.0934 26.6444 23.982 26.6444C24.1036 26.6476 24.2223 26.6043 24.3163 26.5224C24.3983 26.5412 24.4832 26.5402 24.5648 26.5194C24.6464 26.4987 24.7225 26.4587 24.7874 26.4025C24.8524 26.3463 24.9046 26.2753 24.9401 26.1947C24.9755 26.1142 24.9934 26.0263 24.9924 25.9374C24.9867 22.7634 24.8866 19.5934 24.6543 16.4284C24.6478 16.2942 24.6004 16.1658 24.5193 16.0624ZM16.3739 15.7624C16.6241 16.0714 16.8696 16.3844 17.0915 16.7164C16.8961 17.0014 16.693 17.2804 16.4919 17.5614C16.2181 17.3324 15.9612 17.0794 15.7025 16.8304C15.9367 16.4804 16.1652 16.1274 16.3739 15.7624ZM12.2039 26.7924C12.1954 24.8194 12.1605 21.6434 12.1576 19.9064C12.1516 19.748 12.0879 19.5982 11.9799 19.4884C11.8719 19.3785 11.728 19.3172 11.5783 19.3172C11.4286 19.3172 11.2847 19.3785 11.1767 19.4884C11.0687 19.5982 11.005 19.748 10.999 19.9064C10.999 21.1994 11.0216 23.2914 11.0349 25.0904C10.0981 25.1364 9.1614 25.1464 8.22467 25.1484C8.09341 22.3924 8.19445 19.6394 8.24639 16.8824C8.35435 16.6312 8.51026 16.4063 8.7043 16.222C8.89834 16.0377 9.12631 15.8979 9.37387 15.8114C11.3676 15.6063 13.3698 15.5085 15.3729 15.5184C15.1784 15.8374 14.9716 16.1464 14.7639 16.4554C14.7083 16.54 14.6838 16.6431 14.6949 16.7454C14.6337 16.8366 14.6083 16.9493 14.624 17.0599C14.6396 17.1705 14.6952 17.2703 14.779 17.3384C15.1642 17.6914 15.5344 18.0614 15.9329 18.3954C15.5052 19.6535 14.9569 20.8618 14.2964 22.0014C14.266 22.054 14.2446 22.1119 14.2332 22.1724C14.2051 22.2421 14.1927 22.3177 14.1968 22.3934C14.2009 22.469 14.2214 22.5426 14.2568 22.6084C14.9527 23.9994 15.6515 25.3884 16.2577 26.8254C14.9064 26.8104 13.5523 26.7974 12.2039 26.7924ZM15.2313 22.3564C15.7782 21.386 16.2482 20.3692 16.6364 19.3164C17.0572 20.258 17.4123 21.2309 17.6987 22.2274C17.6987 22.2274 17.6987 22.2354 17.6987 22.2404C17.6987 22.2454 17.6987 22.2494 17.6987 22.2544C17.4475 23.3714 17.1114 24.4614 16.7733 25.5544C16.2908 24.4694 15.761 23.4124 15.2322 22.3554L15.2313 22.3564ZM21.3021 25.5624C21.2568 23.6464 21.1642 21.2424 21.0887 19.8044C21.0471 19.0174 19.8885 19.0134 19.93 19.8044C20.0245 21.5914 20.1444 24.8764 20.168 26.8564C19.2464 26.8564 18.3248 26.8424 17.4022 26.8334C17.8366 25.4044 18.3087 23.9884 18.6383 22.5264C18.66 22.4396 18.66 22.3483 18.6383 22.2614C18.6701 22.1608 18.6701 22.052 18.6383 21.9514C18.2627 20.673 17.7912 19.4283 17.2284 18.2294C17.4777 17.8754 17.7365 17.5294 17.9839 17.1674C18.0059 17.1338 18.0228 17.0967 18.0339 17.0574C18.1139 16.9846 18.1656 16.8829 18.1788 16.7721C18.1921 16.6612 18.166 16.5491 18.1057 16.4574C17.9077 16.1356 17.692 15.8264 17.4598 15.5314C18.8007 15.5444 20.1416 15.5644 21.4787 15.5644C21.527 15.5707 21.5758 15.5707 21.6241 15.5644C21.97 15.477 22.3333 15.5096 22.6605 15.6574C22.9876 15.8052 23.2612 16.0604 23.4409 16.3854C23.4611 16.4209 23.4841 16.4543 23.5098 16.4854C23.7289 19.4854 23.8262 22.4974 23.8403 25.5094C22.9952 25.5064 22.1453 25.5154 21.3021 25.5624Z" fill="white"/>
</g>
</g>
</g>
</svg>
