<?xml version="1.0" encoding="utf-8"?>
<!-- Generator: Adobe Illustrator 24.1.3, SVG Export Plug-In . SVG Version: 6.00 Build 0)  -->
<svg version="1.1" id="Layer_1" xmlns="http://www.w3.org/2000/svg" xmlns:xlink="http://www.w3.org/1999/xlink" x="0px" y="0px"
	 width="55.1px" height="14px" viewBox="0 0 55.1 14" style="enable-background:new 0 0 55.1 14;" xml:space="preserve">
<style type="text/css">
	.st0{fill:#0073B1;}
</style>
<path class="st0" d="M16.7,7.8v4.1h-2.1V8.3c0-1.1-0.5-1.4-1-1.4c-0.6,0-1.2,0.5-1.2,1.4v3.6h-2.1V5.2h2v0.9h0
	c0.2-0.4,0.9-1.1,2-1.1C15.5,5.1,16.7,5.8,16.7,7.8z M7,5.2h2.1v6.7H7V5.2z M2.2,9.9h3.8v2H0V2.1h2.2V9.9z M9.3,3.1
	c0,0.7-0.5,1.2-1.2,1.2c-0.7,0-1.2-0.5-1.2-1.2s0.5-1.2,1.2-1.2C8.7,1.9,9.3,2.4,9.3,3.1z M37,6L37,6c-0.4-0.4-1.1-0.9-2.1-0.9
	c-1.7,0-3.2,1.3-3.2,3.5c0,2.5,1.7,3.6,3.2,3.6c1.2,0,1.9-0.6,2.2-1.1h0v0.9h1.9V2.1H37V6z M35.4,10.3c-0.9,0-1.6-0.6-1.6-1.7
	c0-1.1,0.7-1.7,1.6-1.7c0.9,0,1.7,0.7,1.7,1.7C37.1,9.6,36.3,10.3,35.4,10.3z M22,8.3l2.7,3.7h-2.6l-2.2-3.2h0v3.2h-2.1V2.1h2.1V8h0
	l2.1-2.7h2.6L22,8.3z M54.1,0H42.2c-0.6,0-1,0.5-1,1V13c0,0.6,0.5,1,1,1h11.9c0.6,0,1-0.5,1-1V1C55.1,0.5,54.7,0,54.1,0z M45.3,11.9
	h-2.1V5.2h2.1V11.9z M44.3,4.3c-0.7,0-1.2-0.5-1.2-1.2s0.5-1.2,1.2-1.2s1.2,0.5,1.2,1.2S44.9,4.3,44.3,4.3z M53.1,11.9H51V8.3
	c0-1.1-0.5-1.4-1-1.4c-0.6,0-1.2,0.5-1.2,1.4v3.6h-2.1V5.2h2v0.9h0c0.2-0.4,0.9-1.1,2-1.1c1.2,0,2.4,0.7,2.4,2.7V11.9z M27.8,5
	c-1.9,0-3.6,1.3-3.6,3.6c0,2.3,1.7,3.5,3.6,3.5c1.5,0,2.5-0.7,3-1.4l-1.5-0.9c-0.2,0.3-0.7,0.7-1.5,0.7c-0.9,0-1.5-0.5-1.6-1.1
	c0-0.1,0-0.2,0-0.2h4.8c0-0.1,0-0.3,0-0.5C31.2,6.3,29.7,5,27.8,5z M26.3,7.8c0-0.7,0.6-1.3,1.5-1.3c0.9,0,1.4,0.6,1.4,1.3H26.3z"/>
</svg>
