<svg width="16" height="16" viewBox="0 0 16 16" fill="none" xmlns="http://www.w3.org/2000/svg">
<g clip-path="url(#clip0_14422_7405)">
<g opacity="0.8">
<path d="M11.4287 6.86133C10.4657 6.86237 9.5278 7.16883 8.75 7.73662C8.49334 7.57901 8.22474 7.44171 7.94667 7.32597C8.65765 6.8475 9.19616 6.15334 9.48286 5.34575C9.76956 4.53816 9.7893 3.65984 9.53916 2.84019C9.28902 2.02054 8.78223 1.30289 8.09346 0.792969C7.40468 0.283047 6.57034 0.0078125 5.71333 0.0078125C4.85633 0.0078125 4.02198 0.283047 3.33321 0.792969C2.64443 1.30289 2.13765 2.02054 1.88751 2.84019C1.63737 3.65984 1.6571 4.53816 1.94381 5.34575C2.23051 6.15334 2.76902 6.8475 3.48 7.32597C2.45055 7.7653 1.57236 8.49656 0.953901 9.42942C0.335445 10.3623 0.00382229 11.4559 0 12.5751H1.14267C1.14135 11.9744 1.25869 11.3794 1.48794 10.8241C1.7172 10.2689 2.05386 9.76441 2.4786 9.33963C2.90334 8.91484 3.4078 8.57812 3.96302 8.34879C4.51824 8.11947 5.11328 8.00205 5.714 8.00328C6.46926 8.00403 7.21222 8.19452 7.87467 8.55726C7.22258 9.36349 6.86399 10.3675 6.85776 11.4044C6.85154 12.4413 7.19805 13.4495 7.84042 14.2635C8.48278 15.0775 9.38283 15.6489 10.3928 15.884C11.4028 16.119 12.4626 16.0037 13.3984 15.557C14.3342 15.1102 15.0903 14.3586 15.5426 13.4256C15.9949 12.4925 16.1165 11.4333 15.8874 10.422C15.6584 9.41073 15.0922 8.50735 14.282 7.8602C13.4718 7.21305 12.4656 6.86125 11.4287 6.86133ZM5.71467 6.86133C5.14954 6.86146 4.59706 6.69402 4.12711 6.38017C3.65715 6.06632 3.29081 5.62017 3.07442 5.09814C2.85804 4.5761 2.80132 4.00162 2.91144 3.44735C3.02156 2.89308 3.29358 2.38391 3.69309 1.98423C4.0926 1.58455 4.60167 1.3123 5.15591 1.20193C5.71015 1.09155 6.28468 1.148 6.80684 1.36414C7.329 1.58027 7.77534 1.94638 8.08942 2.41618C8.40349 2.88597 8.5712 3.43834 8.57133 4.00345C8.57248 4.37898 8.49935 4.75104 8.35616 5.09821C8.21297 5.44538 8.00255 5.76081 7.73699 6.02635C7.47144 6.2919 7.15599 6.50232 6.80881 6.6455C6.46162 6.78868 6.08955 6.8618 5.714 6.86066L5.71467 6.86133ZM11.4287 14.861C10.7505 14.861 10.0876 14.6599 9.5238 14.2832C8.95996 13.9065 8.5205 13.371 8.26099 12.7445C8.00148 12.118 7.93359 11.4287 8.06588 10.7636C8.19818 10.0985 8.52473 9.48763 9.00423 9.00814C9.48374 8.52865 10.0947 8.20212 10.7598 8.06982C11.4249 7.93753 12.1143 8.00543 12.7408 8.26493C13.3673 8.52442 13.9028 8.96387 14.2795 9.52769C14.6562 10.0915 14.8573 10.7544 14.8573 11.4325C14.8585 11.883 14.7706 12.3293 14.5987 12.7458C14.4267 13.1622 14.1742 13.5406 13.8556 13.8591C13.537 14.1777 13.1586 14.4301 12.7421 14.6019C12.3256 14.7737 11.8792 14.8616 11.4287 14.8603V14.861Z" fill="#0E73A9"/>
<path d="M14.1142 10.8256L12.6902 12.1075L13.0902 13.9828L11.4302 13.0248L9.77019 13.9828L10.1702 12.1082L8.74219 10.8256L10.6482 10.6256L11.4282 8.875L12.2082 10.6256L14.1142 10.8256Z" fill="#0E73A9"/>
</g>
</g>
<defs>
<clipPath id="clip0_14422_7405">
<rect width="16" height="16" fill="white"/>
</clipPath>
</defs>
</svg>
