<svg width="24" height="24" viewBox="0 0 24 24" fill="none" xmlns="http://www.w3.org/2000/svg">
<path d="M20.9427 16.8398C20.3794 13.4506 17.7138 9.90625 15.8466 7.87773C15.3176 7.30303 14.563 7.00439 13.7819 7.00439H10.2181C9.43699 7.00439 8.68241 7.30303 8.15342 7.87772C6.28619 9.90623 3.62059 13.4506 3.05727 16.8398C2.56893 19.7778 5.27927 22.0044 8.30832 22.0044H15.6917C18.7207 22.0044 21.4311 19.7778 20.9427 16.8398Z" stroke="white" stroke-width="1.5" stroke-linecap="round" stroke-linejoin="round"/>
<path d="M10.3882 10.9961C10.7254 10.9961 10.9896 11.1366 11.1807 11.4176C11.383 11.6874 11.4954 12.0584 11.5179 12.5305V14.301H11.99L12.7825 15.1103H11.5179V17.4035C11.5179 17.5833 11.5854 17.7463 11.7202 17.8925C11.8551 18.0386 12.0743 18.1117 12.3778 18.1117C12.7713 18.1117 13.1872 17.8925 13.6256 17.4541C14.0752 17.0044 14.3113 16.5436 14.3338 16.0714L14.1315 16.0883C13.412 16.0883 13.0523 15.7061 13.0523 14.9417C13.0523 14.6832 13.1366 14.4527 13.3052 14.2504C13.4738 14.048 13.7549 13.9469 14.1483 13.9469C14.5642 13.9469 14.9127 14.1267 15.1937 14.4864C15.486 14.8462 15.6321 15.2846 15.6321 15.8016C15.6321 16.566 15.3061 17.2967 14.6542 17.9936C14.0134 18.6906 13.249 19.0391 12.361 19.0391C12.035 19.0391 11.6865 18.8986 11.3156 18.6175C10.9559 18.3253 10.7423 18.0442 10.6748 17.7744V15.1103H9.86548L9.08984 14.301H10.6748V12.6991C10.6748 12.3731 10.4781 12.182 10.0847 12.1258C9.90482 12.1258 9.78679 12.1539 9.73058 12.2101C9.62941 12.0415 9.53387 11.8392 9.44394 11.6031V11.5188C9.44394 11.3727 9.55635 11.249 9.78117 11.1478C10.006 11.0467 10.2083 10.9961 10.3882 10.9961Z" fill="white"/>
<path d="M9.08607 6.99999L7 3.5L8.98473 3.83079C9.62183 3.93697 10.271 3.72894 10.7277 3.27224L12 2L13.2723 3.27224C13.729 3.72894 14.3782 3.93697 15.0153 3.83079L17 3.5L14.9139 6.99999" stroke="white" stroke-width="1.5" stroke-linecap="round" stroke-linejoin="round"/>
</svg>
