<svg width="19" height="19" viewBox="0 0 19 19" fill="none" xmlns="http://www.w3.org/2000/svg">
<g clip-path="url(#clip0_14108_38076)">
<path d="M11.9422 0.5C9.24502 0.5 7.05858 2.68644 7.05858 5.38363C7.05858 8.08081 9.24502 10.2673 11.9422 10.2673C14.6394 10.2673 16.8258 8.08081 16.8258 5.38363C16.8258 2.68644 14.6394 0.5 11.9422 0.5ZM14.384 5.87188H12.4305V7.82544H11.454V5.87188H9.50039V4.89538H11.454V2.94181H12.4305V4.89538H14.384V5.87188ZM6.35039 13.6518V13.5843L6.95677 12.4396H11.9383C11.9529 12.4402 11.9698 12.4408 11.9866 12.4408C12.4631 12.4408 12.876 12.1696 13.0796 11.7725L13.083 11.7657L13.6066 10.8202C13.1853 10.9226 12.7016 10.9811 12.2043 10.9811C9.34908 10.9811 6.94495 9.05 6.22664 6.42256L6.21652 6.37925H5.00152L4.3957 5.03262H2.17383V6.37925H3.52045L5.94483 11.4974L5.00208 13.1141C4.92895 13.3126 4.88058 13.5427 4.86764 13.7817V13.7879C4.86989 14.531 5.47177 15.1329 6.21427 15.1346H14.2957V13.7879H6.48202C6.41058 13.7817 6.35433 13.7238 6.35039 13.6524V13.6518ZM7.16827 16.2005C7.6942 16.7264 7.6942 17.5792 7.16827 18.1051C6.64233 18.6311 5.78958 18.6311 5.26364 18.1051C4.7377 17.5792 4.7377 16.7264 5.26364 16.2005C5.78958 15.6746 6.64233 15.6746 7.16827 16.2005ZM13.902 16.2005C14.4279 16.7264 14.4279 17.5792 13.902 18.1051C13.376 18.6311 12.5233 18.6311 11.9973 18.1051C11.4714 17.5792 11.4714 16.7264 11.9973 16.2005C12.5233 15.6746 13.376 15.6746 13.902 16.2005Z" fill="#0E73A9"/>
</g>
<defs>
<clipPath id="clip0_14108_38076">
<rect width="18" height="18" fill="white" transform="translate(0.5 0.5)"/>
</clipPath>
</defs>
</svg>
