<svg width="18" height="19" viewBox="0 0 18 19" fill="none" xmlns="http://www.w3.org/2000/svg">
<g clip-path="url(#clip0_14108_38070)">
<path d="M5.70583 13.901V13.8369L6.28127 12.7513H11.0063C11.0198 12.7518 11.0361 12.7524 11.0524 12.7524C11.5041 12.7524 11.8961 12.4948 12.0891 12.119L12.0919 12.1122L12.5886 11.2156C12.1892 11.3124 11.7302 11.3681 11.2583 11.3681C8.54983 11.3681 6.26945 9.53656 5.58827 7.04413L5.5787 7.00306H4.42614L3.85183 5.72563H1.74414V7.00306H3.02158L5.32108 11.858L4.42727 13.3914C4.35808 13.5798 4.31195 13.7981 4.29958 14.0248V14.0304C4.30183 14.7352 4.8722 15.3061 5.57702 15.3078H13.2433V14.0304H5.83127C5.76377 14.0242 5.71033 13.9696 5.70639 13.9021V13.9016L5.70583 13.901ZM6.48152 16.3192C6.98045 16.8181 6.98045 17.627 6.48152 18.1259C5.98258 18.6249 5.1737 18.6249 4.67477 18.1259C4.17583 17.627 4.17583 16.8181 4.67477 16.3192C5.1737 15.8202 5.98258 15.8202 6.48152 16.3192ZM12.8693 16.3192C13.3682 16.8181 13.3682 17.627 12.8693 18.1259C12.3703 18.6249 11.5615 18.6249 11.0625 18.1259C10.5636 17.627 10.5636 16.8181 11.0625 16.3192C11.5615 15.8202 12.3703 15.8202 12.8693 16.3192ZM11.2566 0.5C8.49639 0.5 6.25933 2.73762 6.25933 5.49725C6.25933 8.25688 8.49695 10.4945 11.2566 10.4945C14.0168 10.4945 16.2538 8.25688 16.2538 5.49725C16.2505 2.73875 14.0151 0.502812 11.2566 0.5H11.256H11.2566ZM10.3301 8.23044C10.2835 8.28162 10.216 8.31313 10.1417 8.31313C10.1372 8.31313 10.1327 8.31313 10.1282 8.31256H10.1288C10.1282 8.31256 10.1282 8.31256 10.1276 8.31256C10.0495 8.31256 9.97914 8.28106 9.92795 8.22987L7.73983 5.86737L7.68527 5.78469C7.63689 5.73125 7.60595 5.6615 7.60258 5.58444V5.58388C7.60764 5.50625 7.63802 5.4365 7.68527 5.3825L7.6847 5.38306L8.07845 4.98931C8.12852 4.93869 8.19827 4.90775 8.27533 4.90775C8.35239 4.90775 8.42214 4.93925 8.4722 4.98931L8.49977 5.01687L10.0472 6.68469C10.0731 6.71056 10.1091 6.72631 10.1485 6.72631C10.1878 6.72631 10.2233 6.71056 10.2497 6.68469L14.0213 2.76631H14.0488C14.0989 2.71569 14.1686 2.68475 14.2457 2.68475C14.3228 2.68475 14.3925 2.71625 14.4426 2.76631L14.8363 3.16006C14.887 3.21012 14.9179 3.27988 14.9179 3.35694C14.9179 3.434 14.8864 3.50375 14.8363 3.55381L10.3301 8.23044Z" fill="#008A22"/>
</g>
<defs>
<clipPath id="clip0_14108_38070">
<rect width="18" height="18" fill="white" transform="translate(0 0.5)"/>
</clipPath>
</defs>
</svg>
