<svg width="18" height="20" viewBox="0 0 18 20" fill="none" xmlns="http://www.w3.org/2000/svg">
<g id="Frame 39527" clip-path="url(#clip0_17337_16727)">
<path id="Vector" d="M10.4883 4.00004H10.5381V2.17482H11.6631C11.9385 2.17482 12.1631 1.95021 12.1631 1.67482V0.500005C12.1631 0.224602 11.9385 0 11.6631 0H7.73829C7.46289 0 7.23829 0.224612 7.23829 0.500005V1.65042C7.23829 1.92582 7.4629 2.15042 7.73829 2.15042H8.8633V4.00004H8.9385C8.33889 4.04985 7.78809 4.17485 7.23828 4.34964V5.97466C7.98829 5.64946 8.8379 5.50006 9.71291 5.50006C13.2882 5.50006 16.213 8.40058 16.213 11.9746C16.213 15.5499 13.3124 18.4492 9.71291 18.4492C8.8379 18.4492 8.01269 18.2744 7.23828 17.9746V19.5996C8.01369 19.8496 8.8379 20 9.71291 20C14.1387 20 17.7385 16.4005 17.7385 11.9744C17.7385 7.79963 14.5636 4.40029 10.4883 4.00004Z" fill="#0E73A9"/>
<path id="Vector_2" d="M10.4126 12.7002C10.6372 12.4756 10.7378 12.1748 10.7124 11.875L13.5376 8.62498C13.6373 8.49998 13.6627 8.29978 13.5376 8.17478C13.4126 8.02439 13.188 8.02439 13.063 8.14939L9.81301 10.9747C9.51321 10.9493 9.21341 11.0499 8.9878 11.2745C8.5874 11.6749 8.5874 12.3243 8.9878 12.7247C9.36281 13.0997 10.0132 13.0996 10.4126 12.7002Z" fill="#0E73A9"/>
<path id="Vector_3" d="M6.3613 6.57422H3.18652C2.96191 6.57422 2.76172 6.77442 2.76172 6.99902C2.76172 7.22363 2.96192 7.42383 3.18652 7.42383H6.33705C6.56167 7.42383 6.76186 7.22363 6.76186 6.99902C6.78627 6.77441 6.58593 6.57422 6.3613 6.57422Z" fill="#0E73A9"/>
<path id="Vector_4" d="M6.36132 9.07422H1.93652C1.71191 9.07422 1.51172 9.27442 1.51172 9.49902C1.51172 9.72363 1.71192 9.92383 1.93652 9.92383H6.36132C6.58593 9.92383 6.78612 9.72363 6.78612 9.49902C6.78612 9.24902 6.58592 9.07422 6.36132 9.07422Z" fill="#0E73A9"/>
<path id="Vector_5" d="M6.36133 11.5508H0.686523C0.461911 11.5508 0.261719 11.751 0.261719 11.9756C0.261719 12.2002 0.461916 12.4004 0.686523 12.4004H6.36133C6.58594 12.4004 6.78613 12.2002 6.78613 11.9756C6.78613 11.751 6.58594 11.5508 6.36133 11.5508Z" fill="#0E73A9"/>
<path id="Vector_6" d="M6.36132 14.0273H1.93652C1.71191 14.0273 1.51172 14.2275 1.51172 14.4521C1.51172 14.6768 1.71192 14.877 1.93652 14.877H6.36132C6.58593 14.877 6.78612 14.6768 6.78612 14.4521C6.78612 14.2266 6.58592 14.0273 6.36132 14.0273Z" fill="#0E73A9"/>
<path id="Vector_7" d="M6.3613 16.5H3.18652C2.96191 16.5 2.76172 16.7002 2.76172 16.9248C2.76172 17.1494 2.96192 17.3496 3.18652 17.3496H6.33705C6.56167 17.3496 6.76186 17.1494 6.76186 16.9248C6.76186 16.7002 6.58593 16.5 6.3613 16.5Z" fill="#0E73A9"/>
</g>
<defs>
<clipPath id="clip0_17337_16727">
<rect width="17.4749" height="20" fill="white" transform="translate(0.261719)"/>
</clipPath>
</defs>
</svg>
