<svg width="101" height="100" viewBox="0 0 101 100" fill="none" xmlns="http://www.w3.org/2000/svg">
<g id="Asset 51 1" clip-path="url(#clip0_13458_11694)">
<g id="Layer 2">
<g id="Layer 1">
<path id="Vector" d="M99.8909 55.874C99.4142 58.7755 98.7 61.6294 97.7562 64.4048C96.3723 68.3141 94.5437 72.0377 92.3092 75.4968C91.0992 77.4129 89.546 79.0329 88.2167 80.844C88.1513 80.9392 88.0645 81.0165 87.9639 81.069C87.4401 81.309 87.4221 81.6802 87.6749 82.1415C88.2312 82.8389 88.7911 83.5364 89.3437 84.2376C90.6296 85.8725 90.4598 87.7287 88.903 89.1124C88.307 89.6411 87.7147 90.1736 87.097 90.676C86.7775 90.9438 86.4099 91.143 86.0156 91.262C85.6213 91.3811 85.2082 91.4176 84.8002 91.3694C84.3922 91.3213 83.9975 91.1894 83.639 90.9816C83.2805 90.7737 82.9654 90.4939 82.7119 90.1586C82.0814 89.3164 81.4061 88.5114 80.6892 87.7474C80.4291 87.6612 80.2846 87.8524 80.0968 87.9837C78.1316 89.41 76.049 90.6536 73.8732 91.6997C72.4175 92.4126 70.9273 93.0471 69.4087 93.6009C66.8917 94.5127 64.3011 95.1891 61.6681 95.622C58.6433 96.1341 55.5787 96.3488 52.5151 96.2633C50.6796 96.2189 48.8502 96.0284 47.0428 95.6933C45.5727 95.3933 44.0773 95.2171 42.6289 94.7858C41.956 94.5306 41.2521 94.3741 40.5375 94.3209C38.0596 95.0708 35.5781 95.7758 33.1147 96.5707C30.3551 97.4594 27.5557 98.2319 24.7744 99.0456C23.5283 99.4206 22.3182 99.8743 20.9962 99.9906C18.9265 100.171 16.1091 98.6256 15.1411 96.6945C14.4186 95.2546 14.0936 93.6946 13.6529 92.1535C12.6126 88.5611 11.6121 84.9613 10.6151 81.3727C9.56764 77.5967 8.5382 73.8094 7.48348 70.0371C6.61658 66.9285 5.70995 63.8349 4.84306 60.73C4.00506 57.7302 3.20318 54.7303 2.36879 51.7305C1.87394 49.9418 1.38631 48.1494 0.837279 46.3795C0.550033 45.4935 0.442382 44.5555 0.521089 43.6242C0.599797 42.693 0.863162 41.7887 1.29464 40.9682C1.72612 40.1477 2.31638 39.4287 3.02836 38.8564C3.74033 38.284 4.55862 37.8707 5.43183 37.6424C6.69742 37.3418 7.93788 36.9368 9.14142 36.4312C9.82537 33.5208 10.7836 30.6873 12.0022 27.9717C13.8428 23.8035 16.2528 19.9326 19.1577 16.4785C21.0065 14.263 23.0635 12.2443 25.2982 10.4525C27.6095 8.56722 30.0682 6.88523 32.6487 5.42405C34.7708 4.27005 36.9818 3.30174 39.2588 2.52919C45.6585 0.277662 52.4571 -0.484068 59.1721 0.298055C62.2009 0.654344 65.1921 1.29698 68.1084 2.21796C70.4661 2.95404 72.7557 3.9078 74.9496 5.06782C78.0339 6.68635 80.9292 8.66668 83.5788 10.97C87.6978 14.4254 91.1899 18.6158 93.8913 23.3444C95.0435 25.4405 96.2066 27.5367 97.0266 29.7941C97.7397 31.6285 98.3429 33.507 98.8326 35.4188C99.3683 37.4606 99.7904 39.5326 100.097 41.6247C100.714 46.3585 100.645 51.1616 99.8909 55.874Z" fill="#FDFDFD"/>
<path id="Vector_2" d="M99.8901 55.874C99.4134 58.7755 98.6992 61.6294 97.7554 64.4049C96.3715 68.3141 94.5429 72.0377 92.3084 75.4968C91.0984 77.413 89.5452 79.0329 88.2159 80.844C88.1505 80.9392 88.0637 81.0165 87.9631 81.069C87.4393 81.309 87.4213 81.6802 87.6741 82.1415C87.3599 82.359 87.1721 82.1415 86.9987 81.9165C84.9037 79.2166 82.6642 76.6255 80.58 73.9219C80.3705 73.6556 80.2188 73.3969 80.3958 73.0894C80.4157 73.0533 80.4374 73.0182 80.4608 72.9844L80.5042 72.8569C80.5898 72.489 80.6227 72.1099 80.6017 71.732C80.6017 55.4603 80.6017 39.1924 80.6017 22.9282C80.6017 19.8271 78.6187 16.9922 75.8482 16.3435C75.4322 16.2461 75.0069 16.1971 74.5804 16.1973C60.9774 16.1973 47.3719 16.1973 33.7641 16.1973C30.2387 16.1973 27.5838 18.9571 27.5224 22.6732C27.4827 25.0506 27.5224 27.4279 27.5224 29.7978C27.5496 30.2168 27.5167 30.6376 27.4249 31.0465C27.3888 31.0878 27.349 31.1253 27.3129 31.1628L27.1901 31.2715C26.5869 31.7552 25.8175 31.8527 25.1132 32.0552C22.9965 32.6627 20.9087 33.3677 18.7884 33.9301C15.953 34.7101 13.1609 35.6475 10.3507 36.5175C9.95695 36.6375 9.48738 36.9187 9.14062 36.375C9.82458 33.4645 10.7828 30.631 12.0014 27.9154C13.8466 23.767 16.2564 19.9153 19.1569 16.4785C21.0057 14.263 23.0627 12.2443 25.2974 10.4525C27.6087 8.56722 30.0674 6.88523 32.6479 5.42405C34.77 4.27005 36.981 3.30174 39.258 2.52919C45.6577 0.277662 52.4563 -0.484068 59.1713 0.298055C62.2002 0.654344 65.1913 1.29698 68.1076 2.21796C70.4654 2.95404 72.7549 3.9078 74.9488 5.06782C78.0331 6.68635 80.9284 8.66668 83.578 10.97C87.697 14.4254 91.1891 18.6158 93.8905 23.3444C95.0427 25.4405 96.2058 27.5367 97.0258 29.7941C97.7389 31.6285 98.3421 33.507 98.8318 35.4188C99.3675 37.4606 99.7896 39.5326 100.096 41.6247C100.713 46.3585 100.644 51.1616 99.8901 55.874Z" fill="url(#paint0_linear_13458_11694)"/>
<path id="Vector_3" d="M66.2409 83.7602C65.8834 84.8945 65.2518 85.9148 64.4063 86.7236C63.5608 87.5323 62.5298 88.1026 61.4116 88.38C58.9301 89.0924 56.4775 89.9136 53.996 90.6298C51.724 91.2786 49.4737 91.9835 47.2053 92.6322C45.9303 93.0072 44.6769 93.4047 43.4091 93.8209C42.463 94.0814 41.4956 94.2497 40.5194 94.3234C38.0415 95.0734 35.5601 95.7783 33.0966 96.5733C30.337 97.462 27.5377 98.2345 24.7564 99.0482C23.5102 99.4232 22.3002 99.8769 20.9781 99.9931C18.9084 100.173 16.091 98.6282 15.123 96.697C14.4006 95.2571 14.0755 93.6972 13.6348 92.156C12.6126 88.5599 11.6121 84.9601 10.6151 81.3716C9.56764 77.5955 8.5382 73.8082 7.48348 70.0359C6.61658 66.9273 5.70995 63.8337 4.84306 60.7288C4.00506 57.729 3.20318 54.7291 2.36879 51.7293C1.87394 49.9406 1.38631 48.1482 0.837279 46.3783C0.550033 45.4923 0.442382 44.5543 0.521089 43.623C0.599797 42.6918 0.863162 41.7875 1.29464 40.967C1.72612 40.1465 2.31638 39.4275 3.02836 38.8552C3.74033 38.2828 4.55862 37.8695 5.43182 37.6412C6.69742 37.3406 7.93788 36.9356 9.14141 36.43C10.4273 36.3213 11.6012 35.7701 12.8221 35.4101C15.6142 34.5776 18.41 33.7602 21.2021 32.9202C22.8131 32.4402 24.4132 31.9303 26.0242 31.4203C26.4071 31.3041 26.8008 31.2103 27.1909 31.1016C27.2354 31.1228 27.2768 31.1506 27.3137 31.1841C27.3857 31.2712 27.4398 31.3727 27.4728 31.4823C27.5057 31.5919 27.5167 31.7073 27.5051 31.8215C27.5377 32.264 27.5051 32.7065 27.5051 33.149C27.5051 45.5583 27.5051 57.969 27.5051 70.3809C27.4647 72.0333 27.5565 73.6864 27.7797 75.3231C27.8519 75.7881 27.823 76.2681 27.9025 76.7368C27.9463 77.0216 28.0472 77.2937 28.1987 77.5355C28.307 77.708 28.4226 77.873 28.5382 78.0342C28.6538 78.1955 28.7766 78.3492 28.8994 78.4954C28.9753 78.5817 29.0511 78.6679 29.1342 78.7542C29.2173 78.8404 29.322 78.9529 29.4195 79.0429C30.4257 80.0087 31.7218 80.5848 33.0894 80.6741C36.4884 80.9516 39.8909 81.1278 43.2899 81.3378C45.3451 81.4653 47.4076 81.559 49.4665 81.6828C52.1719 81.8403 54.8846 81.994 57.5864 82.174C59.5116 82.3015 61.4369 82.3915 63.3657 82.5077C64.2244 82.5118 65.0807 82.601 65.9231 82.774C65.9809 82.774 66.035 82.804 66.0928 82.819L66.129 82.8452C66.4829 83.1077 66.3384 83.4527 66.2409 83.7602Z" fill="#709CD0"/>
<path id="Vector_4" d="M80.6908 87.7451C80.4307 87.6589 80.2862 87.8501 80.0984 87.9814C78.1332 89.4078 76.0506 90.6513 73.8748 91.6974C72.4191 92.4103 70.9289 93.0448 69.4103 93.5986C66.8932 94.5104 64.3027 95.1868 61.6696 95.6197C58.6449 96.1318 55.5803 96.3465 52.5167 96.261C50.6812 96.2166 48.8518 96.0261 47.0444 95.691C45.5743 95.391 44.0789 95.2148 42.6304 94.7835C41.9576 94.5283 41.2536 94.3718 40.5391 94.3186C42.3379 93.7636 44.1439 93.2086 45.9572 92.6536C48.3194 91.9337 50.6528 91.1537 53.0513 90.5275C55.3485 89.92 57.5844 89.1101 59.8781 88.4876C61.4132 88.0751 63.0278 87.7076 64.2378 86.4552C65.1659 85.5012 65.8275 84.3037 66.1522 82.9904C66.0908 82.9191 65.9969 82.8591 65.968 82.7804C65.9626 82.7595 65.9626 82.7375 65.968 82.7166C65.9969 81.9667 65.8669 81.2167 66.0511 80.4668C66.0597 80.4209 66.0718 80.3757 66.0872 80.3318C66.0872 80.2943 66.1089 80.2605 66.1197 80.223C66.1997 80.1603 66.2917 80.1161 66.3895 80.0935C66.4874 80.0709 66.5887 80.0703 66.6868 80.0918C68.7601 80.1368 70.8371 80.0918 72.914 80.1105C73.3451 80.0986 73.7748 80.0547 74.1999 79.9793L74.3119 79.9605C74.3529 79.9336 74.3965 79.9109 74.4419 79.893C74.7489 79.7768 74.9656 79.9793 75.1643 80.2305C76.3418 81.6629 77.5097 83.1029 78.668 84.5503C79.311 85.3528 79.9936 86.1252 80.6113 86.9502C80.7413 87.1977 80.9942 87.4264 80.6908 87.7451Z" fill="#F0F7FF"/>
<path id="Vector_5" d="M88.9025 89.1125C88.3066 89.6412 87.7142 90.1737 87.0965 90.6762C86.777 90.9439 86.4094 91.1431 86.0152 91.2621C85.6209 91.3812 85.2077 91.4177 84.7997 91.3695C84.3917 91.3214 83.997 91.1895 83.6385 90.9817C83.28 90.7738 82.9649 90.4941 82.7115 90.1587C82.081 89.3165 81.4057 88.5116 80.6887 87.7476C79.9786 86.7325 79.2141 85.7598 78.3987 84.8339C77.1019 83.2328 75.7944 81.6391 74.4904 80.0417C74.3787 80.0738 74.2593 80.059 74.1581 80.0004C74.017 79.8915 73.8948 79.7583 73.7969 79.6067C72.2533 77.7568 70.7339 75.8881 69.2385 74.0007C69.0011 73.6727 68.8801 73.2697 68.8959 72.8598C68.9117 72.4498 69.0633 72.0581 69.3251 71.7508C69.5901 71.4335 69.8993 71.1592 70.2426 70.9371L70.304 70.8771C70.3799 70.7984 70.4593 70.7234 70.5352 70.6522C71.3073 69.9147 72.1163 69.22 72.9589 68.571L73.0961 68.4585C73.1792 68.3873 73.2551 68.3123 73.3309 68.2335C73.4068 68.1548 73.4357 68.1135 73.4826 68.046C73.6849 67.896 73.8438 67.7123 74.057 67.5661C74.9383 66.9173 75.8305 67.0598 76.5565 67.896C77.7702 69.291 78.8466 70.8059 80.071 72.1933C80.2732 72.3774 80.4283 72.6106 80.5225 72.872C80.5489 72.9867 80.5489 73.1061 80.5225 73.2208C81.3714 74.507 82.4153 75.6319 83.3544 76.8431C84.6945 78.5605 86.0743 80.2179 87.4433 81.9316C87.5209 82.0143 87.6055 82.0896 87.6961 82.1566C88.2524 82.854 88.8122 83.5515 89.3649 84.2527C90.6291 85.8726 90.4593 87.7476 88.9025 89.1125Z" fill="#B32D7D"/>
<path id="Vector_6" d="M70.4296 71.1079C70.1803 71.3404 69.9239 71.5653 69.6855 71.8091C69.5391 71.9377 69.42 72.0963 69.3353 72.2749C69.2507 72.4535 69.2025 72.6483 69.1937 72.8471C69.1849 73.046 69.2157 73.2446 69.2841 73.4305C69.3526 73.6164 69.4572 73.7857 69.5916 73.9277C71.0581 75.7464 72.5318 77.5538 73.9983 79.3687C74.1717 79.5824 74.3234 79.8112 74.4823 80.0362C74.2728 80.4299 73.8682 80.4336 73.5359 80.4374C71.235 80.4636 68.9305 80.4374 66.6297 80.4374C66.4514 80.4216 66.2749 80.389 66.1023 80.3399C66.0328 80.4463 65.9373 80.5315 65.8256 80.5869C65.7139 80.6422 65.5899 80.6657 65.4666 80.6549C65.1307 80.6774 64.7911 80.6549 64.4552 80.6549C54.2656 80.6549 44.0795 80.6549 33.8899 80.6549C31.235 80.6549 29.3279 79.4624 27.9878 77.1601C27.6376 76.6487 27.4506 76.0363 27.4532 75.4089C27.0739 73.159 27.1895 70.9091 27.1895 68.6592C27.1895 56.1299 27.1895 43.6017 27.1895 31.0749C27.1895 28.2588 27.1498 25.4501 27.1895 22.619C27.2437 19.6192 28.6344 17.4893 31.2603 16.2931C31.9154 15.9904 32.6238 15.8321 33.3409 15.8281C47.1871 15.8281 61.0334 15.8344 74.8796 15.8469C77.2202 15.8469 78.8529 17.2156 80.034 19.2217C80.6435 20.2909 80.9525 21.5157 80.9262 22.7578C80.9262 39.3244 80.9262 55.8899 80.9262 72.454C80.9262 72.6378 80.9262 72.829 80.9262 73.0128C80.9009 73.3877 80.6878 73.249 80.5 73.174C79.3514 71.8991 78.2966 70.5491 77.2239 69.2067C76.924 68.8317 76.6098 68.4567 76.3028 68.0818C75.649 67.2868 74.9338 67.2118 74.1355 67.8605C73.9766 67.988 73.8249 68.1268 73.666 68.258C73.2145 68.5842 72.8749 68.3667 72.5823 68.0068C72.1132 67.458 71.6823 66.8753 71.2928 66.2631C70.8124 65.7569 70.267 65.3031 70.1081 64.5607C70.189 64.1474 70.4077 63.7769 70.7257 63.5145C73.4188 60.5734 75.2666 56.9095 76.0608 52.9363C77.1499 48.1293 76.6801 43.0835 74.7243 38.582C72.073 32.4135 67.6049 28.2213 61.4716 25.9676C59.134 25.1179 56.6697 24.7053 54.1933 24.7489C50.5823 24.7726 47.0309 25.7069 43.8448 27.4713C41.8833 28.5071 40.0973 29.8673 38.5567 31.4986C36.5275 33.6506 34.9021 36.176 33.7635 38.9457C32.5612 41.8894 31.9586 45.0594 31.9936 48.2565C32.0303 52.1431 33.0344 55.9537 34.9085 59.3184C36.824 62.8754 39.6183 65.838 43.0036 67.901C46.3888 69.964 50.2426 71.0528 54.168 71.0554C57.0898 71.0715 59.9874 70.505 62.7034 69.3867C63.9845 68.8785 65.2041 68.2166 66.3371 67.4143C66.6694 67.1781 66.9981 66.9081 67.446 67.0956C68.0709 67.373 68.4176 67.958 68.8258 68.4717C69.317 69.0905 69.8227 69.6942 70.3212 70.3054C70.5271 70.5679 70.6427 70.8041 70.4296 71.1079Z" fill="#7AB1F2"/>
<path id="Vector_7" d="M27.4539 75.4531C27.9163 77.8418 30.5928 80.3691 33.5403 80.3616C44.3933 80.3391 55.2476 80.3391 66.103 80.3616C66.4064 81.2391 66.2547 82.124 66.103 82.9865L56.9717 82.4615L51.8029 82.1578L40.4574 81.4753C38.0409 81.3291 35.628 81.1528 33.208 81.0441C30.582 80.9316 27.9849 78.7567 27.4034 76.1168C27.362 76.0096 27.345 75.894 27.3538 75.7788C27.3626 75.6637 27.3968 75.5522 27.4539 75.4531Z" fill="#285080"/>
<path id="Vector_8" d="M86.5442 83.58C86.5541 83.7052 86.5273 83.8305 86.4674 83.9396C86.4074 84.0487 86.3171 84.1364 86.2082 84.1912C86.0845 84.2473 85.9463 84.259 85.8154 84.2243C85.6846 84.1897 85.5686 84.1107 85.4858 84C84.9115 83.3513 84.3372 82.695 83.7809 82.0276C80.8166 78.4727 77.8596 74.9167 74.9097 71.3593C74.6099 70.9844 74.3354 70.6094 74.7977 70.2344C75.2601 69.8594 75.5852 70.2344 75.8814 70.5719C79.2526 74.6192 82.6239 78.6665 85.9951 82.7138C86.2349 82.9591 86.422 83.2543 86.5442 83.58Z" fill="#FDD9EE"/>
<path id="Vector_9" d="M70.4296 71.1107C69.9276 70.207 69.1835 69.5058 68.5586 68.7108C68.6823 68.4327 68.8788 68.1962 69.1257 68.0283C69.9926 67.4771 70.5705 66.5697 71.4916 66.0859C71.9178 66.6447 72.344 67.2109 72.7739 67.7659C72.8735 67.9199 73.0049 68.049 73.1586 68.1437C73.3124 68.2384 73.4845 68.2963 73.6624 68.3133L70.4296 71.1107Z" fill="#792155"/>
<path id="Vector_10" d="M67.4639 67.3353C66.6548 67.3353 66.16 68.014 65.5242 68.3777C62.2251 70.2938 58.5218 71.3357 54.7422 71.4113C51.4349 71.4898 48.151 70.818 45.1197 69.4427C41.9996 68.0369 39.2426 65.8877 37.072 63.1692C35.1761 60.8915 33.7325 58.2472 32.8242 55.3884C31.1819 50.3018 31.2681 44.7846 33.0683 39.7559C34.8685 34.7273 38.2741 30.4908 42.7177 27.7522C45.3457 26.1319 48.2583 25.0713 51.2855 24.6324C54.845 24.1446 58.4652 24.5401 61.8489 25.7865C65.2327 27.0328 68.2835 29.0944 70.7509 31.802C74.1726 35.4946 76.2952 40.2769 76.7758 45.3764C77.2783 49.8205 76.5253 54.3204 74.6086 58.3282C73.525 60.7168 71.9284 62.7155 70.2741 64.7029C70.1766 64.8829 70.2416 65.1191 70.0718 65.2729C69.2519 66.0003 68.4717 66.829 67.4639 67.3353Z" fill="#212121"/>
<path id="Vector_11" d="M67.4648 67.3311C67.502 67.1252 67.6114 66.9408 67.7719 66.8136L70.3003 64.6875L71.5067 66.0824C71.449 66.6974 70.9144 66.9224 70.5532 67.2636C69.9572 67.8223 69.3973 68.4673 68.5738 68.7073L67.4648 67.3311Z" fill="#370C26"/>
<path id="Vector_12" d="M54.2739 29.4312C64.2721 29.3187 72.2656 37.8495 72.1681 48.0865C72.1495 50.5447 71.6608 52.9746 70.7303 55.2352C69.7999 57.4958 68.4463 59.5421 66.748 61.2552C65.0497 62.9684 63.0406 64.3143 60.8373 65.215C58.6339 66.1156 56.2802 66.553 53.9127 66.5018C44.4238 66.3668 36.3725 57.971 36.4339 47.8615C36.4953 37.8233 44.4274 29.2999 54.2739 29.4312Z" fill="#EBF4FE"/>
<path id="Vector_13" d="M62.437 27.8751C62.4153 28.1451 62.2672 28.2876 62.0396 28.2763C61.8403 28.2596 61.6444 28.2129 61.4581 28.1376C57.5318 26.637 53.258 26.4156 49.2074 27.5031C45.1567 28.5905 41.5221 30.935 38.7888 34.2235C38.6407 34.3998 38.4926 34.5722 38.3337 34.741C38.1747 34.9097 37.9725 35.0635 37.7413 34.9022C37.5101 34.741 37.539 34.456 37.651 34.2085C37.8182 33.9023 38.0261 33.6221 38.2686 33.3761C40.4586 30.7992 43.1967 28.7874 46.2658 27.5001C48.3275 26.6458 50.4984 26.1089 52.7097 25.9064C54.6602 25.7077 56.5601 25.9627 58.4565 26.2552C59.6719 26.4772 60.8593 26.8407 61.9963 27.3389C62.1138 27.3706 62.2192 27.439 62.298 27.5349C62.3768 27.6308 62.4253 27.7496 62.437 27.8751Z" fill="#FDFDFD"/>
<path id="Vector_14" d="M34.6337 39.6686C35.0599 38.5887 35.4572 37.3738 36.2338 36.3538C36.2919 36.2653 36.3807 36.2034 36.4816 36.181C36.5825 36.1587 36.6878 36.1776 36.7756 36.2338C36.822 36.2565 36.8634 36.2887 36.8974 36.3285C36.9314 36.3683 36.9573 36.4149 36.9735 36.4653C36.9897 36.5158 36.9959 36.5691 36.9917 36.6222C36.9875 36.6752 36.973 36.7268 36.949 36.7738C36.8262 37.0738 36.6601 37.3513 36.512 37.6362C36.0996 38.3538 35.7468 39.1065 35.4572 39.8861C35.3742 40.1411 35.208 40.3436 34.9046 40.2611C34.659 40.2199 34.6265 40.0099 34.6337 39.6686Z" fill="#FCFCFC"/>
<path id="Vector_15" d="M57.4829 43.054C57.6346 44.3476 57.0784 45.4426 56.4318 46.485C55.7455 47.61 55.7383 47.5537 56.3993 48.7349C56.7605 49.3461 57.1759 49.9349 57.2228 50.6923C57.2987 51.8923 56.4571 52.5222 55.3915 52.0573C55.0962 51.9422 54.8331 51.7528 54.6258 51.506C54.0334 50.7561 53.4338 50.0061 52.8739 49.2149C52.1804 48.2437 52.1985 47.655 52.9209 46.6988C53.4807 45.9488 54.0045 45.2251 54.0767 44.2389C54.1815 43.0352 53.2387 41.614 51.9384 41.0928C51.0715 40.7516 49.7206 41.329 49.0704 42.2177C48.8398 42.5196 48.669 42.8658 48.5679 43.2366C48.4669 43.6073 48.4375 43.9951 48.4816 44.3776C48.6225 45.5288 47.5497 46.5488 46.3975 46.485C46.0903 46.5036 45.7873 46.4041 45.5461 46.2057C45.305 46.0072 45.1426 45.7236 45.0899 45.4088C44.8262 44.3289 45.061 43.2789 45.4006 42.2627C46.1699 39.9716 47.882 38.7079 49.9445 37.8192C52.473 36.7318 55.294 38.0367 56.6449 40.3016C57.147 41.1453 57.6166 42.0003 57.4829 43.054Z" fill="#0E73A9"/>
<path id="Vector_16" d="M59.097 57.8239C57.6992 57.8239 56.677 56.8415 56.7673 55.4503C56.8054 54.8273 57.0755 54.2442 57.5205 53.8243C57.9654 53.4044 58.5502 53.1807 59.1512 53.2004C59.4478 53.193 59.7427 53.2488 60.0177 53.3645C60.2926 53.4802 60.5418 53.6532 60.7497 53.8729C60.9576 54.0926 61.1199 54.3543 61.2264 54.6418C61.3329 54.9292 61.3815 55.2363 61.369 55.5441C61.3943 56.564 60.1843 58.0377 59.097 57.8239Z" fill="#0E73A9"/>
</g>
</g>
</g>
<defs>
<linearGradient id="paint0_linear_13458_11694" x1="54.8265" y1="0" x2="54.8265" y2="95.7465" gradientUnits="userSpaceOnUse">
<stop stop-color="#D3E6FC"/>
<stop offset="1" stop-color="#F9FCFF"/>
</linearGradient>
<clipPath id="clip0_13458_11694">
<rect width="100" height="100" fill="white" transform="translate(0.5)"/>
</clipPath>
</defs>
</svg>
