<svg width="20" height="21" viewBox="0 0 20 21" fill="none" xmlns="http://www.w3.org/2000/svg">
<g id="Frame">
<path id="Vector" d="M17.5 6.33333V16.3333C17.5 16.7917 17.3368 17.184 17.0104 17.5104C16.684 17.8368 16.2917 18 15.8333 18H4.16667C3.70833 18 3.31597 17.8368 2.98958 17.5104C2.66319 17.184 2.5 16.7917 2.5 16.3333V4.66667C2.5 4.20833 2.66319 3.81597 2.98958 3.48958C3.31597 3.16319 3.70833 3 4.16667 3H14.1667L17.5 6.33333ZM10 15.5C10.6944 15.5 11.2847 15.2569 11.7708 14.7708C12.2569 14.2847 12.5 13.6944 12.5 13C12.5 12.3056 12.2569 11.7153 11.7708 11.2292C11.2847 10.7431 10.6944 10.5 10 10.5C9.30556 10.5 8.71528 10.7431 8.22917 11.2292C7.74306 11.7153 7.5 12.3056 7.5 13C7.5 13.6944 7.74306 14.2847 8.22917 14.7708C8.71528 15.2569 9.30556 15.5 10 15.5ZM5 8.83333H12.5V5.5H5V8.83333Z" fill="#008A22"/>
</g>
</svg>
