<svg width="41" height="41" viewBox="0 0 41 41" fill="none" xmlns="http://www.w3.org/2000/svg">
<rect x="0.570312" y="0.845703" width="40" height="40" rx="8" fill="#FFF4EB"/>
<path d="M15.5703 29.8457V26.8457" stroke="#FF9137" stroke-width="1.5" stroke-linecap="round" stroke-linejoin="round"/>
<path d="M25.5703 29.8457V23.8457" stroke="#FF9137" stroke-width="1.5" stroke-linecap="round" stroke-linejoin="round"/>
<path d="M25.5703 14.8457V11.8457" stroke="#FF9137" stroke-width="1.5" stroke-linecap="round" stroke-linejoin="round"/>
<path d="M15.5703 17.8457V11.8457" stroke="#FF9137" stroke-width="1.5" stroke-linecap="round" stroke-linejoin="round"/>
<path d="M15.5703 26.8457C14.6384 26.8457 14.1725 26.8457 13.8049 26.6935C13.3149 26.4905 12.9255 26.1011 12.7226 25.6111C12.5703 25.2435 12.5703 24.7776 12.5703 23.8457C12.5703 22.9138 12.5703 22.4479 12.7226 22.0803C12.9255 21.5903 13.3149 21.2009 13.8049 20.9979C14.1725 20.8457 14.6384 20.8457 15.5703 20.8457C16.5022 20.8457 16.9681 20.8457 17.3357 20.9979C17.8257 21.2009 18.2151 21.5903 18.4181 22.0803C18.5703 22.4479 18.5703 22.9138 18.5703 23.8457C18.5703 24.7776 18.5703 25.2435 18.4181 25.6111C18.2151 26.1011 17.8257 26.4905 17.3357 26.6935C16.9681 26.8457 16.5022 26.8457 15.5703 26.8457Z" stroke="#FF9137" stroke-width="1.5"/>
<path d="M25.5703 20.8457C24.6384 20.8457 24.1725 20.8457 23.8049 20.6935C23.3149 20.4905 22.9255 20.1011 22.7225 19.6111C22.5703 19.2435 22.5703 18.7776 22.5703 17.8457C22.5703 16.9138 22.5703 16.4479 22.7225 16.0803C22.9255 15.5903 23.3149 15.2009 23.8049 14.9979C24.1725 14.8457 24.6384 14.8457 25.5703 14.8457C26.5022 14.8457 26.9681 14.8457 27.3357 14.9979C27.8257 15.2009 28.2151 15.5903 28.4181 16.0803C28.5703 16.4479 28.5703 16.9138 28.5703 17.8457C28.5703 18.7776 28.5703 19.2435 28.4181 19.6111C28.2151 20.1011 27.8257 20.4905 27.3357 20.6935C26.9681 20.8457 26.5022 20.8457 25.5703 20.8457Z" stroke="#FF9137" stroke-width="1.5"/>
</svg>
