<svg width="24" height="24" viewBox="0 0 24 24" fill="none" xmlns="http://www.w3.org/2000/svg">
<g id="Frame 2147223816">
<path id="Vector" d="M9.00567 7.24283L9.54202 7.40013C9.66047 7.43425 9.7505 7.52901 9.78177 7.64557C9.82347 7.80287 9.88885 7.96113 9.97604 8.12791C10.0338 8.23026 10.0338 8.3563 9.97888 8.46054L9.70974 8.95805L10.0547 9.30015L10.5494 9.03102C10.6564 8.97321 10.7872 8.97511 10.8915 9.03576C11.0421 9.12294 11.1994 9.19117 11.3596 9.23476C11.4762 9.26603 11.5681 9.35606 11.6022 9.47262L11.7652 10.0185H12.2504L12.4153 9.47735C12.4494 9.36363 12.5413 9.27361 12.6579 9.24233C12.8104 9.19874 12.9706 9.13336 13.1336 9.04618C13.2378 8.99026 13.3638 8.99026 13.4662 9.04618L13.9656 9.31342L14.3124 8.96658L14.0452 8.47666C13.9874 8.36768 13.9893 8.2388 14.0499 8.13172C14.1248 8.00094 14.1902 7.84553 14.2508 7.6541C14.2849 7.54228 14.3721 7.4551 14.4839 7.42098L15.0222 7.25799V6.7728L14.4839 6.6098C14.3702 6.57379 14.2802 6.48093 14.2461 6.36721C14.1996 6.19285 14.1343 6.03459 14.0566 5.89908C13.9959 5.79199 13.9931 5.66406 14.0518 5.55697L14.3191 5.05757L13.977 4.71073L13.4794 4.97986C13.3752 5.03577 13.2511 5.03293 13.1468 4.97702C12.9895 4.89173 12.8246 4.82445 12.6588 4.77328C12.547 4.73727 12.4598 4.64914 12.4257 4.53827L12.2627 4H11.7775L11.6202 4.53635C11.5861 4.6548 11.4942 4.74483 11.3748 4.7761C11.2174 4.81969 11.0592 4.88319 10.8943 4.97226C10.7901 5.02817 10.6659 5.02817 10.5617 4.97226L10.0623 4.70313L9.72303 5.04523L9.99027 5.54274C10.0481 5.65172 10.0462 5.7806 9.98553 5.88485C9.89835 6.03552 9.83296 6.19282 9.78653 6.35298C9.75526 6.46954 9.66523 6.56146 9.54867 6.59558L9.00568 6.76047L9.00567 7.24283ZM10.7342 7.00876C10.7342 6.30087 11.3075 5.72377 12.0125 5.72377C12.7232 5.72377 13.3003 6.30087 13.3003 7.00876C13.3003 7.71379 12.7232 8.28711 12.0125 8.28711C11.3084 8.28711 10.7342 7.71379 10.7342 7.00876ZM14.9929 9.27835C15.1019 9.16653 15.1265 8.99975 15.0535 8.86329L14.9133 8.60175C15.064 8.57238 15.2194 8.55816 15.3738 8.55816C16.7858 8.55816 17.9334 9.70292 17.9334 11.1103C17.9334 12.5222 16.7858 13.6699 15.3738 13.6699C13.9647 13.6699 12.8171 12.5223 12.8171 11.1103C12.8171 10.644 12.946 10.191 13.1886 9.79493C13.2246 9.77787 13.2587 9.76556 13.2957 9.7485L13.8633 10.0546C13.9988 10.1275 14.1694 10.1029 14.2783 9.99393L14.9929 9.27835ZM21 10.4913V11.7574L19.8401 12.107C19.7264 12.1412 19.6364 12.2312 19.6023 12.3449C19.5103 12.6624 19.3843 12.9684 19.2241 13.2499C19.1635 13.357 19.1635 13.4849 19.2194 13.5891L19.7918 14.6514L18.8963 15.5422L17.8264 14.9698C17.7193 14.912 17.5914 14.9139 17.4871 14.9746C17.1981 15.1376 16.8949 15.2608 16.5897 15.3432C16.4713 15.3745 16.3784 15.4645 16.3443 15.5811L15.9946 16.7381H14.7333L14.3837 15.5763C14.3495 15.4597 14.2595 15.3726 14.1439 15.3384C13.8331 15.2513 13.5346 15.1271 13.2313 14.9575C13.1271 14.8997 12.9982 14.8997 12.894 14.9575L11.8383 15.528L10.9409 14.6325L11.5142 13.5626C11.5702 13.4583 11.5702 13.3323 11.5142 13.23C11.3541 12.9362 11.2281 12.631 11.138 12.3174C11.1068 12.2037 11.0167 12.1137 10.903 12.0795L9.75542 11.7299V10.3833L10.3325 9.94641L10.7154 9.73793C10.8026 9.77963 10.8926 9.81753 10.9826 9.84976L11.1674 10.4686C11.211 10.6164 11.3493 10.7187 11.5047 10.7187H12.1406C12.1236 10.8476 12.1141 10.9784 12.1141 11.1092C12.1141 12.9068 13.5772 14.3699 15.3748 14.3699C17.1725 14.3699 18.6355 12.9067 18.6355 11.1092C18.6355 9.34278 17.2159 7.90425 15.457 7.86058L15.476 7.853C15.6238 7.80941 15.7261 7.67106 15.7261 7.51849V6.50925C15.7261 6.35668 15.6238 6.21833 15.476 6.17474L14.8648 5.98995C14.8335 5.89803 14.7965 5.808 14.7577 5.72271L14.8837 5.48959H16.0218L16.3715 6.64475C16.4047 6.76036 16.4947 6.84754 16.6084 6.88165C16.9259 6.97358 17.2319 7.10245 17.5134 7.25976C17.6176 7.32041 17.7465 7.32041 17.8526 7.2645L18.913 6.69972L19.8057 7.59523L19.2333 8.65752C19.1774 8.76176 19.1774 8.89064 19.2362 8.99487C19.4058 9.30285 19.5271 9.59852 19.6076 9.90176C19.6389 10.0202 19.7289 10.1131 19.8474 10.1491L21 10.4913ZM14.4737 17.4395H14.7192V20.6803H8.14924V18.4192C8.14924 18.3169 8.10565 18.2202 8.02794 18.1548C7.95024 18.0866 7.84884 18.0582 7.74935 18.0724L5.5243 18.3974C5.31582 18.4268 5.13103 18.3804 4.97846 18.2619C4.83253 18.1501 4.7624 18.0146 4.7624 17.8449L4.76335 15.1007C4.76335 14.9576 4.67807 14.8316 4.55013 14.7757L3.24241 14.2299C3.11827 14.1739 3.05288 14.1057 3.01687 13.9948C2.9856 13.9001 2.99792 13.8205 3.05288 13.7352L4.80885 11.1567C4.85055 11.096 4.87234 11.023 4.8695 10.9501C4.80411 8.44918 6.57239 6.26583 9.19737 5.55236L9.28266 5.70967C9.24096 5.79685 9.20306 5.88688 9.17084 5.97691L8.55203 6.1617C8.4042 6.20814 8.30187 6.34365 8.30187 6.49905V7.50543C8.30187 7.66084 8.40611 7.79919 8.55395 7.84278L9.16327 8.02188C9.19454 8.10907 9.2315 8.19909 9.27225 8.28912L8.96617 8.85674C8.8932 8.9951 8.91784 9.16472 9.02966 9.27372L9.47598 9.71531L9.19169 9.92853C9.10166 9.99676 9.05144 10.0982 9.05144 10.21V11.9934C9.05144 12.146 9.15378 12.2844 9.3016 12.328L10.5221 12.6994C10.5998 12.9344 10.6946 13.1675 10.8083 13.3959L10.199 14.5312C10.126 14.6667 10.1507 14.8344 10.2625 14.9462L11.5266 16.2104C11.6385 16.3222 11.8052 16.3459 11.9436 16.271L13.0618 15.6645C13.2949 15.783 13.5281 15.8806 13.7649 15.9583L14.1364 17.1902C14.18 17.338 14.3183 17.4395 14.4737 17.4395Z" fill="#0E73A9"/>
</g>
</svg>
