<svg width="24" height="24" viewBox="0 0 24 24" fill="none" xmlns="http://www.w3.org/2000/svg">
<g id="Frame">
<path id="Vector" d="M5.76663 11.9773L2.82812 9.03878L5.76663 6.11953L8.68588 9.03878L5.76663 11.9773ZM9.80513 21.0003V16.404C8.82696 16.3207 7.85388 16.2127 6.88588 16.08C5.91788 15.9474 4.95504 15.7605 3.99738 15.5195L4.22812 14.5195C5.51279 14.8387 6.79771 15.0659 8.08288 15.2013C9.36804 15.3364 10.6722 15.404 11.9954 15.404C13.3185 15.404 14.6234 15.3364 15.9099 15.2013C17.1964 15.0659 18.482 14.8387 19.7666 14.5195L19.9974 15.5195C19.0397 15.7605 18.0769 15.9474 17.1089 16.08C16.1409 16.2127 15.1678 16.3207 14.1896 16.404V21.0003H9.80513ZM11.9974 7.38478C11.3564 7.38478 10.8115 7.16045 10.3629 6.71178C9.91404 6.26311 9.68963 5.71828 9.68963 5.07728C9.68963 4.43628 9.91404 3.89136 10.3629 3.44253C10.8115 2.99386 11.3564 2.76953 11.9974 2.76953C12.6384 2.76953 13.1832 2.99386 13.6319 3.44253C14.0807 3.89136 14.3051 4.43628 14.3051 5.07728C14.3051 5.71828 14.0807 6.26311 13.6319 6.71178C13.1832 7.16045 12.6384 7.38478 11.9974 7.38478ZM11.9974 13.7888C11.532 13.7888 11.1336 13.623 10.8021 13.2915C10.4708 12.9602 10.3051 12.5619 10.3051 12.0965C10.3051 11.631 10.4708 11.2326 10.8021 10.9013C11.1336 10.5698 11.532 10.404 11.9974 10.404C12.4627 10.404 12.8611 10.5698 13.1926 10.9013C13.524 11.2326 13.6896 11.631 13.6896 12.0965C13.6896 12.5619 13.524 12.9602 13.1926 13.2915C12.8611 13.623 12.4627 13.7888 11.9974 13.7888ZM16.9896 11.8465L15.6744 9.53878L16.9896 7.23103H19.5629L20.8781 9.53878L19.5629 11.8465H16.9896Z" fill="#0E73A9"/>
</g>
</svg>
