<svg width="41" height="41" viewBox="0 0 41 41" fill="none" xmlns="http://www.w3.org/2000/svg">
<rect x="0.570312" y="0.845703" width="40" height="40" rx="8" fill="#FBEFF3"/>
<path d="M12.9112 25.7238L11.7482 18.7813C11.559 17.652 11.4644 17.0874 11.7557 16.7165C12.0469 16.3457 12.585 16.3457 13.6611 16.3457H27.4795C28.5556 16.3457 29.0937 16.3457 29.3849 16.7165C29.6762 17.0874 29.5816 17.652 29.3924 18.7813L28.2294 25.7238C27.8193 28.1721 27.6143 29.3962 26.8022 30.1209C25.9902 30.8457 24.8237 30.8457 22.4907 30.8457H18.6499C16.317 30.8457 15.1505 30.8457 14.3384 30.1209C13.5263 29.3962 13.3213 28.1721 12.9112 25.7238Z" stroke="#CC3366" stroke-width="1.5"/>
<path d="M15.5703 16.3457V15.8457C15.5703 13.0843 17.8089 10.8457 20.5703 10.8457C23.3317 10.8457 25.5703 13.0843 25.5703 15.8457V16.3457" stroke="#CC3366" stroke-width="1.5"/>
<path d="M13.0703 26.3457H28.0703" stroke="#CC3366" stroke-width="1.5"/>
</svg>
