<?xml version="1.0" encoding="utf-8"?>
<!-- Generator: Adobe Illustrator 26.1.0, SVG Export Plug-In . SVG Version: 6.00 Build 0)  -->
<svg version="1.1" id="Layer_1" xmlns="http://www.w3.org/2000/svg" xmlns:xlink="http://www.w3.org/1999/xlink" x="0px" y="0px"
	 viewBox="0 0 200 30" style="enable-background:new 0 0 200 30;" xml:space="preserve">
<style type="text/css">
	.st0{fill:#AD2070;}
	.st1{fill:#414EA1;}
	.st2{fill:#FFFFFF;}
</style>
<g>
	<path class="st0" d="M158.41,27.92h36.33c1.38,0,2.51-1.12,2.51-2.51V4.58c0-1.38-1.12-2.51-2.51-2.51h-36.33h-13.96h-38.24
		c-1.38,0-2.51,1.12-2.51,2.51v20.83c0,1.38,1.12,2.51,2.51,2.51h38.24H158.41z"/>
	<g>
		<path class="st1" d="M2.75,4.38h19.29l-0.38,2.73c-0.12,0.82-0.53,1.17-1.41,1.17H14.8v16.71H9.99V8.28H4.57
			c-0.88,0-1.29-0.35-1.41-1.17L2.75,4.38z"/>
		<path class="st1" d="M22.07,19.74c0-2.93,1.67-4.4,4.95-4.4h5.75v-0.85C32.79,13.41,32.3,13,31.24,13h-6.6
			c-0.85,0-1.23-0.35-1.35-1.17l-0.38-2.55h7.94c5.07,0,6.54,2.05,6.54,5.6v10.11h-2.67c-0.73,0-1-0.18-1.2-0.76l-0.29-0.94h-0.12
			c-0.7,1.26-2.17,1.96-4.13,1.96h-1.96c-3.08,0-4.95-1.29-4.95-4.34V19.74z M29.72,21.65c2.11,0,3.05-0.7,3.05-2.2v-0.91h-4.84
			c-0.88,0-1.23,0.29-1.23,1.11v0.85c0,0.82,0.35,1.14,1.23,1.14H29.72z"/>
		<path class="st1" d="M41,3.56h4.63v21.43H41V3.56z"/>
		<path class="st1" d="M48.54,15.2c0-4.05,2.26-6.19,7.06-6.19h1.61c4.81,0,7.09,2.14,7.09,6.19v2.17c0,0.85-0.41,1.26-1.32,1.26
			h-9.97v0.26c0,1.67,0.79,2.37,2.7,2.37h6.33c0.85,0,1.26,0.35,1.38,1.17l0.35,2.55H55.6c-4.84,0-7.06-2.05-7.06-6.07V15.2z
			 M59.91,15.52v-0.38c0-1.73-0.73-2.4-2.76-2.4h-1.38c-2.02,0-2.76,0.67-2.76,2.4v0.38H59.91z"/>
		<path class="st1" d="M67.21,9.28h2.67c0.73,0,1,0.18,1.2,0.76l0.29,0.94h0.12c0.7-1.26,2.17-1.96,4.16-1.96h1.49
			c3.93,0,5.69,2.26,5.69,6.04v9.94H78.2v-9.76c0-1.76-0.7-2.49-2.67-2.49h-1.03c-1.96,0-2.67,0.73-2.67,2.49v9.76h-4.63V9.28z"/>
		<path class="st1" d="M87.67,13.2h-2.76l0.35-2.55c0.12-0.82,0.53-1.17,1.38-1.17h1.03V7.4c0-0.88,0.23-1.17,1.11-1.41l3.52-0.97
			v4.46h4.84l-0.35,2.55c-0.12,0.82-0.53,1.17-1.38,1.17H92.3v6.16c0,1.41,0.7,2.17,2.4,2.17h1.14c0.85,0,1.26,0.35,1.38,1.17
			l0.35,2.55h-3.4c-4.37,0-6.51-2.05-6.51-5.8V13.2z"/>
		<path class="st2" d="M113.69,9.52c-0.82,0-1.15,0.31-1.15,1.08v0.31c0,0.79,0.24,1.03,1.28,1.28l5.7,1.25
			c3.37,0.72,4.5,1.88,4.5,4.57v1.2c0,2.6-1.73,4.02-4.96,4.02h-10.87l0.31-2.24c0.1-0.67,0.43-0.96,1.15-0.96h9.19
			c0.84,0,1.23-0.31,1.23-1.11v-0.67c0-0.82-0.26-1.08-1.35-1.32l-5.51-1.2c-3.39-0.75-4.62-2-4.62-4.69v-0.67
			c0-2.62,1.73-4.04,4.96-4.04h9.84l-0.34,2.24c-0.1,0.67-0.43,0.96-1.15,0.96H113.69z"/>
		<path class="st2" d="M125.67,15.2c0-3.32,1.85-5.08,5.8-5.08h1.32c3.95,0,5.82,1.76,5.82,5.08v1.78c0,0.7-0.34,1.03-1.08,1.03
			h-8.18v0.22c0,1.37,0.65,1.95,2.21,1.95h5.2c0.7,0,1.03,0.29,1.13,0.96l0.29,2.09h-6.71c-3.97,0-5.8-1.68-5.8-4.98V15.2z
			 M135.01,15.46v-0.31c0-1.42-0.6-1.97-2.26-1.97h-1.13c-1.66,0-2.26,0.55-2.26,1.97v0.31H135.01z"/>
		<path class="st2" d="M140.33,18.92c0-2.41,1.37-3.61,4.07-3.61h4.72v-0.7c0.02-0.89-0.38-1.23-1.25-1.23h-5.41
			c-0.7,0-1.01-0.29-1.11-0.96l-0.31-2.09h6.52c4.16,0,5.37,1.68,5.37,4.6v8.3h-2.19c-0.6,0-0.82-0.14-0.99-0.63l-0.24-0.77h-0.1
			c-0.58,1.03-1.78,1.61-3.39,1.61h-1.61c-2.53,0-4.07-1.06-4.07-3.56V18.92z M146.61,20.49c1.73,0,2.5-0.58,2.5-1.8v-0.75h-3.97
			c-0.72,0-1.01,0.24-1.01,0.91v0.7c0,0.67,0.29,0.94,1.01,0.94H146.61z"/>
		<path class="st2" d="M155.87,10.34h2.17c0.6,0,0.84,0.14,0.99,0.63l0.26,0.89h0.1c0.43-1.23,1.23-1.73,2.82-1.73h2.53l-0.31,2.31
			c-0.1,0.67-0.43,0.96-1.13,0.96h-1.52c-1.44,0-2.09,0.72-2.09,2.24v7.6h-3.8V10.34z"/>
		<path class="st2" d="M177.64,23.23h-6.18c-3.97,0-5.8-1.68-5.8-4.98v-2.94c0-3.3,1.83-4.98,5.8-4.98h6.18l-0.29,2.09
			c-0.1,0.67-0.43,0.96-1.13,0.96h-4.67c-1.59,0-2.21,0.58-2.21,1.92v2.91c0,1.37,0.63,1.95,2.21,1.95h4.67
			c0.7,0,1.03,0.29,1.13,0.96L177.64,23.23z"/>
		<path class="st2" d="M183.27,5.64v5.85h0.1c0.58-0.89,1.66-1.37,3.15-1.37h1.28c2.96,0,4.5,1.64,4.5,4.76v8.35h-3.8v-8.01
			c0-1.47-0.58-2.05-2.19-2.05h-0.84c-1.61,0-2.19,0.6-2.19,2.05v8.01h-3.8V5.64H183.27z"/>
	</g>
</g>
</svg>
