<svg width="27" height="20" viewBox="0 0 27 20" fill="none" xmlns="http://www.w3.org/2000/svg">
<g clip-path="url(#clip0_22892_41245)">
<path fill-rule="evenodd" clip-rule="evenodd" d="M18.55 0.00121729L19.6594 0.0589284C20.1783 0.0852076 20.5807 0.531954 20.5534 1.04981L20.5003 2.07779C20.9971 2.25401 21.4608 2.49568 21.8839 2.7899L22.6872 2.06594C23.0731 1.71812 23.6724 1.74852 24.0207 2.13498L24.7643 2.95943C25.1126 3.34537 25.0812 3.94515 24.6957 4.29297L23.8337 5.07155C24.0449 5.50696 24.2036 5.97277 24.3026 6.4592L25.4862 6.52051C26.005 6.54679 26.4075 6.99251 26.3807 7.51191L26.3235 8.62079C26.2972 9.13967 25.8505 9.5421 25.3321 9.51531L24.1367 9.45348C23.988 9.91619 23.7824 10.3586 23.5245 10.7705L24.3165 11.6491C24.6643 12.0345 24.6334 12.6348 24.2474 12.9826L23.423 13.7267C23.037 14.0745 22.4373 14.0425 22.0895 13.6576L21.3408 12.828C20.9012 13.0682 20.4282 13.2537 19.932 13.3758V10.4815C20.9631 10.0321 21.7076 9.0294 21.7695 7.82984C21.8565 6.14024 20.5575 4.70004 18.8679 4.61296C17.8508 4.56091 16.9238 5.01075 16.3281 5.74605H12.9185C13.0948 5.22511 13.3411 4.73868 13.6461 4.29606L13.104 3.69525C12.7562 3.30982 12.7871 2.70952 13.1726 2.36171L13.998 1.61764C14.383 1.27035 14.9833 1.30126 15.3311 1.68669L15.9175 2.33594C16.4142 2.0917 16.9496 1.91599 17.5102 1.81963L17.5581 0.896255C17.5854 0.37737 18.0311 -0.0250619 18.55 0.00121729ZM9.69908 13.2454H8.36399C8.32122 13.2454 8.28825 13.2794 8.28825 13.3222V16.1356C8.28825 16.1784 8.32122 16.2124 8.36399 16.2124H9.69753C9.7403 16.2124 9.77379 16.1784 9.77379 16.1356V13.3222C9.77379 13.2799 9.74185 13.2454 9.69908 13.2454ZM1.02592 7.27334H5.82882V5.94598C5.82882 5.54612 6.15551 5.21944 6.55485 5.21944H11.5082C11.9076 5.21944 12.2342 5.54612 12.2342 5.94598V7.27334H17.0372C17.5988 7.27334 18.0631 7.73812 18.0631 8.29925V10.7777C16.9032 11.5728 15.7067 12.2504 14.4731 12.8033C13.2329 13.3588 11.9539 13.7895 10.6307 14.0869V13.096C10.6307 12.6384 10.2623 12.2695 9.80471 12.2695H8.25681C7.79925 12.2695 7.43082 12.6384 7.43082 13.096V14.0642C6.14314 13.7689 4.89514 13.3459 3.68527 12.8033C2.4182 12.236 1.19029 11.5347 0 10.7113V8.29925C0 7.73709 0.464265 7.27334 1.02592 7.27334ZM18.0631 12.2478V18.9743C18.0631 19.1089 18.0364 19.2422 17.9845 19.3664C17.9326 19.4906 17.8565 19.6032 17.7606 19.6977C17.5736 19.8837 17.3175 20.0002 17.0372 20.0002H1.02592C0.742516 20.0002 0.486938 19.8837 0.302983 19.6977C0.115938 19.5107 0 19.2551 0 18.9743V12.186C1.01252 12.8352 2.05493 13.4031 3.12671 13.8833C4.51023 14.5042 5.94476 14.9788 7.43185 15.2962V16.3618C7.43185 16.8194 7.80079 17.1883 8.25836 17.1883H9.80626C10.2633 17.1883 10.6322 16.8194 10.6322 16.3618V15.3158C12.1477 14.9984 13.6214 14.5161 15.0338 13.8823C16.0715 13.4175 17.0809 12.8708 18.0631 12.2478ZM7.11032 6.20877C7.06137 6.20877 7.01809 6.25257 7.01809 6.30152V7.245H11.044V6.30152C11.044 6.25205 11.0002 6.20877 10.9517 6.20877H7.11032Z" fill="#0E73A9"/>
</g>
<defs>
<clipPath id="clip0_22892_41245">
<rect width="26.3822" height="20" fill="white"/>
</clipPath>
</defs>
</svg>
